<?xml version="1.0" encoding="UTF-8"?>
<svg xmlns="http://www.w3.org/2000/svg" version="1.1" viewBox="0 0 82.2 82.2">
  <defs>
    <style>
      .cls-1 {
        fill: none;
      }

      .cls-2 {
        fill: #fff;
      }
    </style>
  </defs>
  <!-- Generator: Adobe Illustrator 28.7.1, SVG Export Plug-In . SVG Version: 1.2.0 Build 142)  -->
  <g>
    <g id="_레이어_1" data-name="레이어_1">
      <rect class="cls-1" x="0" y="0" width="82.2" height="82.2"/>
      <g>
        <path class="cls-2" d="M48.7,29.3s0,0,0,0c-.8-.3-1.6.2-1.8.9-.3.8.1,1.6.9,1.9,4,1.4,6.2,5.8,4.8,9.8-.3.8.1,1.6.9,1.8,0,0,0,0,0,0,.8.2,1.6-.2,1.8-.9,1.9-5.6-1.1-11.6-6.6-13.5Z"/>
        <path class="cls-2" d="M52.1,23.3s0,0,0,0c-.8-.2-1.6.2-1.8.9-.3.8.1,1.6.9,1.8,6.7,2.3,10.4,9.7,8,16.4-.3.8.1,1.6.9,1.8,0,0,0,0,0,0,.8.2,1.6-.2,1.8-.9,2.8-8.3-1.6-17.3-9.9-20.1Z"/>
        <path class="cls-2" d="M55.4,17.5s0,0,0,0c-.8-.2-1.6.2-1.8.9-.3.8.1,1.6.9,1.8,9.3,3.2,14.3,13.3,11.1,22.7-.3.8.1,1.6.9,1.8,0,0,0,0,0,0,.8.2,1.6-.2,1.8-.9,3.7-10.8-2.1-22.7-12.9-26.4Z"/>
        <path class="cls-2" d="M52.2,50.3c-.9-2.1-3.3-3.1-5.5-2.2l-2.7,1.2c-1.7.7-2.7,2.4-2.5,4.2-2.1-.6-5-5.1-7-9.9-1.9-4.6-3.1-9.5-2.1-11.3,1.1,1.7,3.2,2.4,5.2,1.6l2.7-1.2c2.1-.9,3.1-3.3,2.2-5.5l-3.5-8.4c-.9-2.1-3.3-3.1-5.5-2.2l-2.7,1.2c-1.8.8-15.6,11.3-7.4,30.7,8.5,20.4,25.4,17.8,27.5,16.9l2.7-1.2c2.1-.9,3.1-3.3,2.2-5.5l-3.5-8.4Z"/>
      </g>
    </g>
  </g>
</svg>