<?xml version="1.0" encoding="utf-8"?>
<!-- Generator: Adobe Illustrator 27.9.6, SVG Export Plug-In . SVG Version: 9.03 Build 54986)  -->
<svg version="1.1" id="레이어_1" xmlns="http://www.w3.org/2000/svg" xmlns:xlink="http://www.w3.org/1999/xlink" x="0px"
	 y="0px" viewBox="0 0 212.47 37.77" style="enable-background:new 0 0 212.47 37.77;" xml:space="preserve">
<style type="text/css">
	.st0{fill:#FFFFFF;}
</style>
<g>
	<path class="st0" d="M18.33,20.03c-3.75-1.28-6.49-3.94-7.91-7.28c-1.5,3.68-4.35,6.64-8.36,8.03l-1.99-3.04
		c5.25-1.84,8.33-6.3,8.33-10.88V5.7H1.22V2.59h18.12V5.7h-7.05v1.16c0,4.16,2.89,8.4,7.95,10.16L18.33,20.03z M29.02,30.12v3.15
		H6.21V22.69h3.86v7.43H29.02z M24.29,9.11V0.08h3.86v24.75h-3.86V12.3h-6.15V9.11H24.29z"/>
	<path class="st0" d="M45.57,24.38c2.89-0.15,5.78-0.34,8.48-0.75l0.3,2.85c-7.24,1.27-15.08,1.35-20.89,1.35l-0.53-3.19
		c2.59,0,5.63,0,8.78-0.11v-3.3c-3.75-0.64-6.19-2.93-6.19-6.15c0-3.83,3.3-6.34,8.14-6.34c4.8,0,8.1,2.51,8.1,6.34
		c0,3.23-2.44,5.55-6.19,6.15V24.38z M53.67,7.05H33.53V3.94h8.18V0.15h3.86v3.79h8.1V7.05z M43.65,18.42
		c2.66,0,4.46-1.28,4.46-3.34c0-2.1-1.8-3.38-4.46-3.38s-4.5,1.27-4.5,3.38C39.15,17.14,40.99,18.42,43.65,18.42z M64.62,17.37h-4.8
		v16.54h-3.86V0h3.86v14.18h4.8V17.37z"/>
	<path class="st0" d="M85.91,18.57c-3.64-1.31-6.34-3.9-7.76-7.09c-1.5,3.68-4.28,6.6-8.18,8.03l-2.06-3.08
		c5.33-1.84,8.21-6.45,8.21-11.33V1.76h3.9V5.4c0,4.35,2.89,8.48,7.91,10.13L85.91,18.57z M95.06,27.53c0,4.01-4.28,6.38-11.29,6.38
		c-6.98,0-11.29-2.36-11.29-6.38c0-3.98,4.31-6.34,11.29-6.34C90.78,21.19,95.06,23.55,95.06,27.53z M91.23,27.53
		c0-2.1-2.74-3.3-7.46-3.3s-7.46,1.2-7.46,3.3c0,2.18,2.74,3.34,7.46,3.34S91.23,29.71,91.23,27.53z M99.48,8.4v3.19h-4.8v8.78
		h-3.86V0h3.86v8.4H99.48z"/>
	<path class="st0" d="M121.99,16.43c-4.39,0.94-8.36,1.12-15.64,1.12h-2.74V2.21h15v3.11h-11.14v9.08
		c6.41-0.04,10.05-0.23,14.14-1.09L121.99,16.43z M107.02,20.82h21.64v12.68h-21.64V20.82z M110.85,30.38h14.03v-6.53h-14.03V30.38z
		 M133.47,11.21h-4.8v7.91h-3.86V0h3.86v8.03h4.8V11.21z"/>
	<path class="st0" d="M143.53,1.05h3L136.1,37.77h-3L143.53,1.05z"/>
	<path class="st0" d="M166.55,0.68h3.6v31.62h-3.6V21.45h-4.65c-1.2,3.3-3.41,5.25-6.26,5.25c-4.39,0-7.28-4.58-7.28-12
		c0-7.46,2.89-12.04,7.28-12.04c2.81,0,5.06,1.88,6.23,5.21h4.69V0.68z M159.42,14.7c0-5.36-1.46-8.4-3.79-8.4s-3.79,3.04-3.79,8.4
		c0,5.36,1.46,8.36,3.79,8.36S159.42,20.07,159.42,14.7z M166.55,18.3v-7.24h-3.9c0.19,1.12,0.26,2.33,0.26,3.64
		c0,1.31-0.08,2.48-0.26,3.6H166.55z M176.94,0.04v33.83h-3.68V0.04H176.94z"/>
	<path class="st0" d="M190.69,18.27c-5.14,0-9-3.34-9-8.14s3.86-8.14,9-8.14c5.18,0,9.04,3.34,9.04,8.14S195.87,18.27,190.69,18.27z
		 M185.44,21.6h22.28v12.34h-3.86v-9.23h-18.42V21.6z M190.69,15c3.04,0,5.25-1.91,5.25-4.88c0-2.96-2.21-4.88-5.25-4.88
		c-3,0-5.21,1.91-5.21,4.88C185.48,13.09,187.69,15,190.69,15z M207.72,8.06v4.09h4.69v3.19h-4.69v4.76h-3.86V0.04h3.86v4.84h4.69
		v3.19H207.72z"/>
</g>
</svg>
