<?xml version="1.0" encoding="UTF-8"?>
<svg id="_레이어_1" data-name="레이어_1" xmlns="http://www.w3.org/2000/svg" version="1.1" viewBox="0 0 44.03 44.03">
  <!-- Generator: Adobe Illustrator 29.0.0, SVG Export Plug-In . SVG Version: 2.1.0 Build 186)  -->
  <defs>
    <style>
      .st0 {
        fill: none;
      }

      .st1 {
        fill: #131313;
      }
    </style>
  </defs>
  <rect class="st0" width="44.03" height="44.03"/>
  <g>
    <path class="st1" d="M24.53,16.55"/>
    <path class="st1" d="M19.49,27.48"/>
  </g>
  <g>
    <path class="st1" d="M34.15,9.37c-1-2.96-16.12-7.25-10.93-2.08,3.48,0,6.74,1.35,9.2,3.81,2.46,2.46,3.81,5.73,3.81,9.2,5.17,5.2.88-9.94-2.08-10.93Z"/>
    <path class="st1" d="M29.11,20.31c4.78,5.32,2.16-9.43-5.89-8.34-1.59-.02-1.59,2.47,0,2.45,3.25,0,5.89,2.64,5.89,5.89Z"/>
    <path class="st1" d="M26.4,26.55c-4.84.23-4.18,6.46-.14,2.45,2.96.96,8.55,5.27,3.54,7.68-7.73,1.61-29.2-18.22-19.35-24.09,1.75-.66,4.61,4.43,5.04,5.63.13.72-2.23,1.66-1.22,2.83,7.9,2.14.55-13.16-4.6-10.78-14.24,7.32,10.74,31.57,21.15,28.64,7.45-3.83,1.36-11.12-4.42-12.35Z"/>
  </g>
</svg>