<?xml version="1.0" encoding="utf-8"?>
<!-- Generator: Adobe Illustrator 27.9.6, SVG Export Plug-In . SVG Version: 9.03 Build 54986)  -->
<svg version="1.1" id="_레이어_1" xmlns="http://www.w3.org/2000/svg" xmlns:xlink="http://www.w3.org/1999/xlink" x="0px"
	 y="0px" viewBox="0 0 44 44" style="enable-background:new 0 0 44 44;" xml:space="preserve">
<style type="text/css">
	.st0{fill:none;}
	.st1{fill:#070001;}
</style>
<rect y="0" class="st0" width="44" height="44"/>
<g>
	<g id="LINE">
		<path class="st1" d="M38.1,34.5c-0.2,0-0.4-0.1-0.5-0.2L23.7,24c-0.4-0.3-0.5-0.8-0.2-1.2c0.3-0.4,0.8-0.5,1.2-0.2l13.8,10.3
			c0.4,0.3,0.5,0.8,0.2,1.2C38.6,34.3,38.3,34.5,38.1,34.5z"/>
	</g>
	<g id="LINE1">
		<path class="st1" d="M6,34.5c-0.3,0-0.5-0.1-0.7-0.4c-0.3-0.4-0.2-0.9,0.2-1.2l13.8-10.3c0.4-0.3,0.9-0.2,1.2,0.2
			c0.3,0.4,0.2,0.9-0.2,1.2L6.5,34.3C6.3,34.4,6.1,34.5,6,34.5z"/>
	</g>
	<g id="ARC">
		<path class="st1" d="M22,24.9c-1.1,0-2.1-0.4-3-1.1c-0.4-0.3-0.4-0.9-0.1-1.2c0.3-0.4,0.9-0.4,1.2-0.1c1.1,0.9,2.6,0.9,3.7,0
			c0.4-0.3,0.9-0.3,1.2,0.1c0.3,0.4,0.3,0.9-0.1,1.2C24.1,24.5,23.1,24.9,22,24.9L22,24.9z"/>
	</g>
	<g id="LINE2">
		<path class="st1" d="M24.4,24c-0.3,0-0.5-0.1-0.7-0.3c-0.3-0.4-0.3-0.9,0.1-1.2l14.1-11.6c0.4-0.3,0.9-0.3,1.2,0.1
			c0.3,0.4,0.3,0.9-0.1,1.2L25,23.8C24.8,24,24.6,24,24.4,24L24.4,24z"/>
	</g>
	<g id="LINE3">
		<path class="st1" d="M19.6,24c-0.2,0-0.4-0.1-0.6-0.2L5,12.2c-0.4-0.3-0.4-0.9-0.1-1.2c0.3-0.4,0.9-0.4,1.2-0.1l14.1,11.6
			c0.4,0.3,0.4,0.9,0.1,1.2C20.1,23.9,19.8,24,19.6,24L19.6,24z"/>
	</g>
	<g id="LINE4">
		<path class="st1" d="M38.5,33.4c-0.5,0-0.9-0.4-0.9-0.9v-21c0-0.5,0.4-0.9,0.9-0.9s0.9,0.4,0.9,0.9v21C39.4,33,39,33.4,38.5,33.4
			L38.5,33.4z"/>
	</g>
	<g id="ARC1">
		<path class="st1" d="M38.5,12.4c-0.5,0-0.9-0.4-0.9-0.9c0-0.3-0.3-0.6-0.6-0.6c-0.5,0-0.9-0.4-0.9-0.9c0-0.5,0.4-0.9,0.9-0.9
			c1.3,0,2.4,1.1,2.4,2.4C39.4,12,39,12.4,38.5,12.4z"/>
	</g>
	<g id="LINE5">
		<path class="st1" d="M5.5,33.4c-0.5,0-0.9-0.4-0.9-0.9v-21c0-0.5,0.4-0.9,0.9-0.9s0.9,0.4,0.9,0.9v21C6.4,33,6,33.4,5.5,33.4
			L5.5,33.4z"/>
	</g>
	<g id="ARC2">
		<path class="st1" d="M5.5,12.4c-0.5,0-0.9-0.4-0.9-0.9c0-1.3,1.1-2.4,2.4-2.4c0.5,0,0.9,0.4,0.9,0.9c0,0.5-0.4,0.9-0.9,0.9
			c-0.3,0-0.6,0.3-0.6,0.6C6.4,12,6,12.4,5.5,12.4z"/>
	</g>
	<g id="LINE6">
		<path class="st1" d="M37,10.9H7c-0.5,0-0.9-0.4-0.9-0.9c0-0.5,0.4-0.9,0.9-0.9h30c0.5,0,0.9,0.4,0.9,0.9
			C37.9,10.5,37.5,10.9,37,10.9z"/>
	</g>
	<g id="ARC3">
		<path class="st1" d="M37,34.9c-0.5,0-0.9-0.4-0.9-0.9s0.4-0.9,0.9-0.9c0.3,0,0.6-0.3,0.6-0.6c0-0.5,0.4-0.9,0.9-0.9
			s0.9,0.4,0.9,0.9C39.4,33.8,38.3,34.9,37,34.9z"/>
	</g>
	<g id="LINE7">
		<path class="st1" d="M37,34.9H7c-0.5,0-0.9-0.4-0.9-0.9s0.4-0.9,0.9-0.9h30c0.5,0,0.9,0.4,0.9,0.9S37.5,34.9,37,34.9z"/>
	</g>
	<g id="ARC4">
		<path class="st1" d="M7,34.9c-1.3,0-2.4-1.1-2.4-2.4c0-0.5,0.4-0.9,0.9-0.9s0.9,0.4,0.9,0.9c0,0.3,0.3,0.6,0.6,0.6
			c0.5,0,0.9,0.4,0.9,0.9S7.5,34.9,7,34.9z"/>
	</g>
</g>
</svg>
