<?xml version="1.0" encoding="utf-8"?>
<!-- Generator: Adobe Illustrator 27.9.6, SVG Export Plug-In . SVG Version: 9.03 Build 54986)  -->
<svg version="1.1" id="레이어_1" xmlns="http://www.w3.org/2000/svg" xmlns:xlink="http://www.w3.org/1999/xlink" x="0px"
	 y="0px" viewBox="0 0 1111.47 84.07" style="enable-background:new 0 0 1111.47 84.07;" xml:space="preserve">
<style type="text/css">
	.st0{fill:#FFFFFF;}
</style>
<g>
	<path class="st0" d="M76.6,64.42v9.74H0.72v-9.74H76.6z M18.01,16.92H6.63V7.37h63.69v9.55H58.95v25.11h11.1v9.55H7.09v-9.55h10.92
		V16.92z M47.03,16.92H29.93v25.11h17.11V16.92z"/>
	<path class="st0" d="M98.01,54.68c12.74-0.09,23.29-0.73,35.12-2.73l1.27,9.74c-13.65,2.37-25.93,2.91-41.13,2.91h-7.55V30.12
		h27.21V16.74h-27.3V7.19h39.58v32.39H98.01V54.68z M150.97,0v84.07h-12.01V0H150.97z"/>
	<path class="st0" d="M205.78,7.64v56.32h-40.31V7.64H205.78z M177.3,17.11v37.4h16.65v-37.4H177.3z M230.8,0.09v83.98h-12.01V0.09
		H230.8z"/>
	<path class="st0" d="M310.24,0.09v47.5h-12.01V29.57h-13.28c-2.27,9.37-10.83,15.65-21.66,15.65c-12.47,0-22.02-8.46-22.02-20.47
		c0-11.74,9.55-20.29,22.02-20.29c10.74,0,19.29,6.28,21.56,15.38h13.38V0.09H310.24z M273.93,24.75c0-6.37-4.46-10.1-10.65-10.1
		c-6.1,0-10.55,3.73-10.55,10.1c0,6.55,4.46,10.46,10.55,10.46C269.47,35.21,273.93,31.3,273.93,24.75z M254.46,51.32h55.78v31.57
		h-55.78V51.32z M266.29,73.52h32.21V60.69h-32.21V73.52z"/>
	<path class="st0" d="M359.83,54.77c12.01-0.09,21.93-0.73,32.85-2.64l1.09,9.74c-12.56,2.27-24.11,2.82-38.67,2.82H348V30.12h26.57
		V16.74h-26.66V7.19h38.49v32.39h-26.57V54.77z M422.33,41.58h-12.01v42.49h-12.01V0h12.01v31.66h12.01V41.58z"/>
	<path class="st0" d="M473.69,35.76c0,18.47-9.37,30.03-22.02,30.03s-22.02-11.56-22.02-30.03c0-18.38,9.37-29.84,22.02-29.84
		S473.69,17.38,473.69,35.76z M441.2,35.76c0,12.47,4.28,19.11,10.46,19.11s10.46-6.64,10.46-19.11c0-12.37-4.28-19.02-10.46-19.02
		S441.2,23.38,441.2,35.76z M496.71,0v84.07H484.7V0H496.71z"/>
	<path class="st0" d="M582.56,64.42v9.74h-75.88v-9.74H582.56z M523.97,16.92h-11.37V7.37h63.69v9.55h-11.37v25.11h11.1v9.55h-62.96
		v-9.55h10.92V16.92z M552.99,16.92h-17.11v25.11h17.11V16.92z"/>
	<path class="st0" d="M661.92,37.76v8.64h-75.88v-8.64H661.92z M606.59,75.06h48.59v8.1h-60.51v-20.2h46.31v-4.28h-46.4v-8.1h58.32
		v19.93h-46.31V75.06z M640.81,9.64h-45.49v-8.1h57.32v19.74h-45.31v4.37h46.77v8.1h-58.6V13.74h45.31V9.64z"/>
	<path class="st0" d="M766.28,41.85v9.46h-30.94v14.19h-12.01V51.32H690.3v-9.46H766.28z M693.76,28.48
		c16.2-1.82,24.57-8.64,26.02-15.29h-22.47V3.64h62.05v9.55H736.8c1.36,6.73,9.64,13.47,26.02,15.29l-4.37,9.37
		c-15.56-1.73-25.75-8.19-30.21-16.74c-4.28,8.55-14.56,15.01-30.21,16.74L693.76,28.48z M711.14,72.88h46.68v9.55h-58.69V58.32
		h12.01V72.88z"/>
	<path class="st0" d="M787.15,6.73v20.29h17.47V6.73h11.92v57.78h-41.31V6.73H787.15z M787.15,54.96h17.47V36.4h-17.47V54.96z
		 M840.56,0v84.07h-12.01V0H840.56z"/>
	<path class="st0" d="M880.9,12.47h18.2v9.55h-48.77v-9.55h18.56V1.55h12.01V12.47z M896.09,46.68c0,11.83-9.01,20.11-21.11,20.11
		c-12.19,0-21.29-8.28-21.29-20.11c0-11.65,9.1-19.93,21.29-19.93C887.08,26.75,896.09,35.03,896.09,46.68z M884.72,46.68
		c0-6.28-4.09-10.19-9.74-10.19s-9.83,3.91-9.83,10.28s4.18,10.19,9.83,10.19S884.72,53.14,884.72,46.68z M928.58,42.76h-12.01
		v41.13h-12.01V0.09h12.01v32.76h12.01V42.76z"/>
	<path class="st0" d="M955.78,21.02c0,13.56,3.64,27.48,15.01,35.03l-6.55,9.28c-7.1-4.37-11.56-11.46-14.19-19.93
		c-2.91,9.28-7.83,17.29-15.38,21.84l-7.19-9.01c12.28-7.46,16.74-22.47,16.74-36.76V7.37h11.56V21.02z M972.52,1.46h11.19v78.7
		h-11.19V38.12h-10.55v-9.74h10.55V1.46z M1000.91,0.09v83.8h-11.37V0.09H1000.91z"/>
	<path class="st0" d="M1085.66,64.42v9.74h-75.88v-9.74h16.74V43.95c-6.37-3.91-10.19-9.92-10.1-17.2
		c0-13.74,13.19-22.57,31.21-22.57c18.11,0,31.3,8.83,31.3,22.57c0,7.28-3.82,13.28-10.1,17.2v20.47H1085.66z M1028.25,26.75
		c0,8.28,7.73,13.1,19.38,13.1s19.47-4.82,19.47-13.1c0-8.37-7.83-13.1-19.47-13.1S1028.25,18.38,1028.25,26.75z M1038.44,64.42
		h18.47V48.41c-2.91,0.55-6,0.82-9.28,0.82s-6.28-0.27-9.19-0.82V64.42z"/>
	<path class="st0" d="M1094.86,68.6c0-5,3.55-8.73,8.28-8.73s8.37,3.73,8.37,8.73c0,4.91-3.64,8.73-8.37,8.73
		S1094.86,73.52,1094.86,68.6z M1096.86,19.56l-0.46-12.65h13.47l-0.46,12.65l-1.91,33.57h-8.73L1096.86,19.56z"/>
</g>
</svg>
