<?xml version="1.0" encoding="UTF-8"?>
<svg xmlns="http://www.w3.org/2000/svg" version="1.1" viewBox="0 0 844.62 194.45">
  <defs>
    <style>
      .cls-1 {
        fill: none;
      }

      .cls-2 {
        fill: #fff;
        fill-rule: evenodd;
      }
    </style>
  </defs>
  <!-- Generator: Adobe Illustrator 29.1.0, SVG Export Plug-In . SVG Version: 1.2.0 Build 2)  -->
  <g>
    <g id="_레이어_1" data-name="레이어_1">
      <rect class="cls-1" y="-1.22" width="844.62" height="195.68"/>
      <g>
        <path class="cls-2" d="M12.8,139.56s-27.69,5.35,3.72,41.7c0,0,27.17,22.29,56.15-1.65,0,0,19.8-23.31,57.39-11.56,0,0-22.93-24.7-75.14,11.15,0,0-26.77,9.14-42.11-12.39,0,0-15.08-19.88,0-27.25Z"/>
        <path class="cls-2" d="M175.89,153.18s22.35-.26,22.3,15.69c0,0,1.76,17.76-24.77,16.52,0,0-49.54-10.3-57.8-35.92,0,0-8.1-48.63,47.48-41.29,0,0,93.85,15.53,132.12,45.42,0,0-111.64-44.48-146.57-34.27,0,0-45.97,7.17-11.97,42.53,0,0,30.92,22.13,49.55,16.52,0,0,26.87-10.78-10.32-25.19Z"/>
        <path class="cls-2" d="M163.5,135.01l106.11,27.67s-64.1-35.08-106.11-27.67Z"/>
        <path class="cls-2" d="M245.25,67.3s-23.49,8.1,9.5,54.09c0,0-10.21-33.54-2.06-37.57,8.14-4.04,1.63-19.54-7.43-16.52Z"/>
        <path class="cls-2" d="M314.61,111.07s43.44,16.74,38.81,39.22c0,0-.84,25.16-39.64,3.3,0,0-69.19-41.39-25.6-66.06,0,0,37.58-10.2,88.77,36.33,0,0,28.12,31.27,30.14,54.91,0,0-6.98-44.98-33.44-65.65,0,0-45.25-41.26-81.34-35.1,0,0-44.54,1.62-18.17,53.68,0,0,22.19,27.92,53.26,36.75,0,0,39.25,9.01,30.55-27.66,0,0-5.91-16.77-43.35-29.73Z"/>
        <path class="cls-2" d="M53.88,127.99c5.81,0,10.53,4.72,10.53,10.53s-4.71,10.53-10.53,10.53-10.53-4.71-10.53-10.53,4.71-10.53,10.53-10.53Z"/>
        <path class="cls-2" d="M832.21,142.06s26.8.96-3.71,41.73c0,0-27.16,22.3-56.13-1.65,0,0-19.8-23.32-57.37-11.57,0,0,25.38-26.66,75.11,11.15,0,0,26.76,9.14,42.1-12.39,0,0,15.07-19.89,0-27.27Z"/>
        <path class="cls-2" d="M669.19,155.69s-22.34-.26-22.29,15.7c0,0-1.76,17.77,24.76,16.53,0,0,49.52-10.31,57.78-35.95,0,0,10.34-43.92-47.46-41.32,0,0-93.81,15.55-132.07,45.45,0,0,111.6-44.51,146.52-34.3,0,0,45.95,7.17,11.97,42.56,0,0-30.91,22.14-49.53,16.53,0,0-26.85-10.79,10.32-25.2Z"/>
        <path class="cls-2" d="M681.57,137.51l-106.07,27.68s64.07-35.1,106.07-27.68Z"/>
        <path class="cls-2" d="M599.85,69.75s23.48,8.1-9.49,54.13c0,0,10.2-33.56,2.06-37.6-8.14-4.04-1.63-19.55,7.43-16.53Z"/>
        <path class="cls-2" d="M530.51,113.55s-44.23,17.3-38.8,39.25c0,0,.84,25.18,39.62,3.31,0,0,64.01-47.21,25.59-66.11,0,0-37.57-10.21-88.73,36.36,0,0-28.11,31.3-30.13,54.95,0,0,6.98-45.01,33.43-65.7,0,0,42.58-41.24,81.31-35.12,0,0,47.12,3.45,18.16,53.71,0,0-22.18,27.94-53.24,36.77,0,0-40.72,3.06-30.54-27.68,0,0,5.91-16.78,43.34-29.75Z"/>
        <path class="cls-2" d="M791.15,130.49c-5.81,0-10.52,4.72-10.52,10.54s4.71,10.54,10.52,10.54,10.52-4.72,10.52-10.54-4.71-10.54-10.52-10.54Z"/>
        <path class="cls-2" d="M422.58,123.45c4.22,0,7.64,3.42,7.64,7.64s-3.42,7.64-7.64,7.64-7.64-3.42-7.64-7.64,3.42-7.64,7.64-7.64Z"/>
        <path class="cls-2" d="M422.58,146.16c8.55,0,15.48,6.93,15.48,15.48s-6.93,15.48-15.48,15.48-15.48-6.93-15.48-15.48,6.93-15.48,15.48-15.48Z"/>
        <path class="cls-2" d="M347.65,64.17s44.65,10.93,65.67,59.28c0,0-27.16-71.11-65.67-59.28Z"/>
        <path class="cls-2" d="M501.24,64.41s-44.65,10.88-65.67,59.05c0,0,27.16-70.83,65.67-59.05Z"/>
        <path class="cls-2" d="M422.93,0s-15.29,87.48-.54,118.56c0,0,14.59-32.23.54-118.56Z"/>
      </g>
    </g>
  </g>
</svg>