<?xml version="1.0" encoding="UTF-8"?>
<svg id="_레이어_1" data-name="레이어_1" xmlns="http://www.w3.org/2000/svg" xmlns:xlink="http://www.w3.org/1999/xlink" version="1.1" viewBox="0 0 732.4 100.5">
  <!-- Generator: Adobe Illustrator 29.3.1, SVG Export Plug-In . SVG Version: 2.1.0 Build 151)  -->
  <defs>
    <style>
      .st0 {
        fill: #001558;
      }

      .st1 {
        fill: #fff;
      }
    </style>
  </defs>
  <rect class="st1" x="477.7" y="23.1" width="230.2" height="58.5"/>
  <path class="st0" d="M67.8,55.2c0-.6-.2-1-1-1H17.7c-.5,0-.9,0-.8.7,0,0,0,.2-.1.2v2.3c.3,0,.1.3.1.5v2.9c0,.7.4,1,1.1,1.1,1.6.2,3.3.2,4.9.3,4.3,0,8.6,0,12.9,0,.5,0,1.1-.3,1.7,0,.2,0,.4,0,.4.3,0,.6.2,1.1.2,1.7,0,1.7,0,3.3,0,5,.2,1.9.2,3.8.2,5.6v5.7c0,.9.2,1.1,1.1,1.1,2.2,0,4.4,0,6.7,0s.5-.2.5-.6,0-.9-.2-1.3c0-5.4,0-10.9,0-16.3,0-.6.2-.8.8-.8,1,0,1.9,0,2.9,0,4,0,8,0,12-.4,1.5,0,3.1,0,4.6,0s1.2,0,1.1-1.2c0-1.8-.2-3.7-.2-5.5ZM331.9,74.5c-.1-2.8-.1-5.7-.2-8.6,0-2.6.1-5.1.1-7.7.1-3.7,0-7.4,0-11v-25.5c0-.7-.2-1-1-1h-4.7c-1.2,0-1.3.1-1.3,1.3,0,2.2-.2,4.5-.3,6.7-.1,2.2-.3,4.4-.2,6.6v4.9c0,.7-.3.9-.9.9-1.6,0-3.2,0-4.8,0-.6,0-1,.2-1,1v4.6c0,1,.2,1.2,1.3,1.3,1.5.2,3.1,0,4.6,0s.6,0,.6.5c-.2,1,.1,2,.1,3,0,3.3,0,6.6-.1,9.8v.9c-.6-.2-1-.6-1.4-.9-1.5-1.5-3-3.1-4.2-4.8-3-4.3-4.7-9.1-5-14.4,0-1-.1-2-.2-3-.2-1.7-.3-3.4-.4-5.1,0-.5.2-.7.7-.7,1.9-.2,3.8,0,5.6-.3,1,0,1.6-.5,1.6-1.3v-4.9c0-.6-.4-1-1-1.1-1.2-.1-2.4-.2-3.6-.2-6.2-.2-12.4-.1-18.6.1-.6,0-1,.2-1,1,0,2,.2,4.1-.1,6.1,0,.3,0,.6.4.6.7,0,1.4,0,2.1,0h5.4c.6,0,.8.2.8.8,0,2.4,0,4.9-.1,7.3-.1,1.1-.2,2.3-.4,3.4-.7,3.3-1.8,6.5-3.2,9.6-1,2.3-2.4,4.4-4,6.4-.8.9-1.8,1.7-2.4,2.7-.2.4-.4.9-.1,1.3,1.2,1.5,2.6,2.9,4.2,4.1.7.5,1.1.5,1.7-.2s1.2-1.4,1.8-2.2c1.3-1.8,2.3-3.8,3.4-5.7.8-1.3,1.5-2.7,1.8-4.2.1-.8.3-1.5.4-2.4.4.4.6.8.9,1.1,1.5,2.2,2.4,4.8,4,7,1.2,1.6,2.4,3.3,3.8,4.8,1.1,1.1,1.9,1,3,0,1.2-1.3,2.1-3.1,4.2-3.3.1,1,.3,2.1.3,3.1,0,3.4.3,6.8.2,10.2,0,.3.1.6.1.8,0,.4.2.5.6.6,1.9.2,3.7.2,5.5,0s1-.5,1-1.2c.1-1.1,0-2,0-2.9ZM189.7,52.5c0,.5.1,1,.1,1.6-.1,2.3-.3,2.8,2.3,2.8,5.9,0,11.8,0,17.8,0h0c1.9,0,3.8,0,5.7,0h11.6c.5,0,1.1,0,1.6,0,.4,0,.6-.4.6-.8,0-1.8.2-3.7.1-5.5-.1-1.8-.1-3.7-.1-5.6.1-3.7,0-7.4.1-11.1.1-3,0-6.1.1-9.1,0-.5-.2-.6-.6-.6-1,0-2.1,0-3.1-.1-1.4-.1-2.7.3-4.1.1-.7-.1-.9.2-.9.9v7c0,.5.3,1.2,0,1.6-.3.5-1,0-1.6,0-4.2,0-8.4.2-12.6.2s-5.7,0-8.6,0c-.4,0-.7,0-.6-.5.2-2.8.1-5.6.1-8.4s-.1-.8-.7-.7c-2.3.1-4.5-.2-6.8-.2s-1,.2-1,.9c0,3.7.1,7.4.1,11.1.5,5.4.5,10.9.5,16.4ZM198.3,41.6c0-.6.3-.7.8-.7,6.2,0,12.4,0,18.6,0h2.9c.5,0,.7,0,.7.6-.3,2.4-.1,4.8-.1,7.3s-.2.5-.5.5h-21.9c-.6,0-.7,0-.7-.7,0-2.4.1-4.8.2-7.1ZM23.7,47.9c0,.3-.1.6.4.7,1.2,0,2.5.3,3.7.3h13.2c6.7,0,13.4.4,20.1,0,.4,0,.9,0,.9-.6v-6.4c0-.4,0-.6-.5-.6-.7,0-1.4,0-2-.2-3.6,0-7.2,0-10.8,0-5.3,0-10.7,0-16,0s-.5,0-.5-.5c0-3.3,0-6.6.2-10,0-.5.2-.7.7-.7,1.4,0,2.9.2,4.3.2h20.1c1.3,0,2.6-.2,3.8-.3.3,0,.3-.2.3-.5v-6c0-.6-.3-1-1-1s-1.7-.1-2.5-.1H25c-1.6,0-1.7,0-1.7,1.7v.3c0,5.5,0,11,.1,16.5.2,2.5.1,4.8.3,7.1ZM270.2,58c-1.5,0-3,.4-4.6.5-2,0-4,.3-6,.4-2.7,0-5.5.2-8.2.3q-1.1,0-1.1-1.1c0-6.8-.1-13.6.1-20.3v-4.5c0-.4,0-.6.6-.6,4.6,0,9.2,0,13.9,0,.9,0,1.7-.2,2.5,0,.9.2,1,0,.9-1-.2-1.7-.3-3.5-.3-5.2s-.1-1.5-1.5-1.5h-13.9c-3.1,0-6.3,0-9.4.3-.5,0-.7.2-.7.7,0,2-.2,3.9-.3,5.9-.1,2.3-.1,4.7,0,7.1,0,2.6,0,5.2.1,7.8.2,3.1.1,6.2.2,9.4.1,2.8.2,5.6.1,8.5,0,.5.2.9.2,1.4s.2.6.6.6c1.5,0,2.9,0,4.4,0,2.9,0,5.8-.3,8.8-.3s3.3,0,5-.3c2.5-.2,5.1-.4,7.6-.6,1.1,0,1.5-.5,1.6-1.6v-5c0-.7,0-.8-.6-.9ZM286.4,20.1c-.8,0-1.6.2-2.4.2-1.6,0-3.1-.2-4.7-.2s-.8.2-.8.8v9.7h.1v9.8c0,.7-.3.8-.8.7s-.9,0-1.4,0c-1.4,0-2.7.2-4.1.2-2,0-4.1-.2-6.1-.2s-.9.3-.9.8v5.7c0,.5.3.8.7.8.8,0,1.6.2,2.4.2h9.2c.6,0,.7.2.7.8,0,3.4,0,6.9.1,10.3.1,4,0,8.1.1,12.1.1,2.9,0,5.8,0,8.7s.1,1.1,1,1.1c2.1,0,4.2,0,6.2,0,.5,0,.8-.2.8-.8s-.2-1.6-.1-2.4c.1-6.5-.2-13,.1-19.6.1-2.4,0-4.9.1-7.3.2-2.8.1-5.6.1-8.4,0-7.3-.1-14.7-.1-22,.5-.7.3-.8-.2-.8ZM411.8,55.6c.4.4.8.5,1.3.4,2.5-.7,4.8-1.8,7-2.9,2.2-1.1,4.2-2.5,5.9-4.2,2.1-2.1,3.8-4.4,5.2-7,.2-.3.2-.9.5-.8.4,0,.6.6.8.9.6,1,1.1,2.2,1.9,3.1,1.5,1.8,3.2,3.4,4.9,4.9,1,.9,2,1.7,3,2.4,2.4,1.7,5.1,2.8,7.8,3.8,1.7.7,2.1.5,3.1-1s1.8-3.2,2.5-4.9c.4-.9.1-1.5-.8-1.8-.3,0-.7-.2-1-.3-1.8-.4-3.6-.9-5.2-1.8-3.9-1.9-6.8-4.7-9-8.4-2.1-3.5-3.6-7.1-3.6-11.2s.2-1.4.3-2.1c.1-.9-.1-1.1-.9-1.1h-6.4c-1.1,0-1.1.1-1.1,1.1,0,1.5.1,3.1-.2,4.6-.5,3-1.8,5.7-3.2,8.4-.9,1.7-2.1,3.1-3.4,4.5-1.7,1.9-3.8,3.5-6,4.8-1.8,1.1-3.8,1.3-5.8,1.6-.4,0-.7,0-.8.5,0,.4-.1.9.1,1.2.9,1.9,1.8,3.8,3.1,5.3ZM174.8,20c-1.5,0-3,.2-4.5.2h-2.4c-.5,0-.8.1-.8.7.1,2.2-.1,4.3-.1,6.5,0,5.6-.1,11.1.1,16.7.1,4.3,0,8.5,0,12.8,0,6.7-.1,13.5.1,20.2v3.4q0,1,1,1.1h6.3c.7,0,.8-.3.8-.9,0-8.5,0-17,.1-25.5.1-11.1-.1-22.2.2-33.3,0-.2,0-.5.1-.7.2-1.1,0-1.2-.9-1.2ZM386,57c0-.4-.1-.6-.6-.6-.9,0-1.9,0-2.8.2-2.7.6-5.4.7-8.1,1-1.2.2-2.5.2-3.8.4-2.7.4-5.4.6-8.1.7-.5,0-.7,0-.7-.7.1-2.3.1-4.6.1-6.9v-12.2h.1v-12.2q0-1-1.1-1.1h-5.3c-1.7,0-1.5.3-1.5,1.5-.1,2.1-.1,4.2-.2,6.2-.1,2.5-.2,5-.2,7.5s-.1,3.5.1,5.3c.1,1.5-.1,2.9,0,4.4.2,2.3,0,4.6.2,6.9.1,2.4.1,4.8.2,7.2v.2c.1.9.3,1.2,1.2,1.2,2.8,0,5.6,0,8.5,0,2.1-.2,4.3-.3,6.4-.5,1.8,0,3.6-.3,5.4-.5,2.9-.3,5.8-.9,8.8-.9s1.4-.5,1.5-1.6c.1-1.7-.2-3.6-.1-5.4ZM397.6,23.1c0-.7,0-1.5.2-2.2.1-.6-.1-.8-.7-.8-.9,0-1.8.2-2.7.1-1.2-.1-2.4,0-3.6-.1-.5,0-.7.1-.7.7-.1,1.6.1,3.1.1,4.7-.2,8,0,15.9-.1,23.9-.1,7.3-.2,14.6.1,21.8v4h.1v5.5c0,.6.2.8.8.8,2,0,3.9,0,5.9,0,1.1,0,1.3-.2,1.1-1.3v-.8c-.1-4.2.2-8.3.1-12.5-.4-14.7.1-29.3-.6-43.9ZM343.2,20.1h-6.7c-.2,0-.5,0-.5.4,0,.7-.2,1.4-.2,2v17.9c.1,8.8-.2,17.7.1,26.5.1,2.5,0,5,.1,7.6.1,1.8,0,3.6,0,5.4s.2,1.3,1.2,1.3h5.1c.6,0,1-.2,1-1.1-.1-2.4,0-4.8,0-7.1s.1-4.5.1-6.8c.1-7.5,0-15,0-22.6h0v-22.8c.2-.3.4-.7-.2-.7ZM141.6,47.7c2.4.8,4.9.7,7.4.5,1,0,2.1-.2,3.1-.6,3.5-1.1,6-3.4,7.5-6.7.8-1.7,1.2-3.5,1.2-5.4s-.2-2.1-.3-3.1c-.2-3.1-1.8-5.5-4.3-7.2-2.9-2-6.1-2.9-10.2-2.9s-1.8.1-2.9.3c-2.2.4-4.1,1.4-5.9,2.5-.9.5-1.6,1.2-2.2,2.1-1.4,2.2-2.3,4.6-2.5,7.3-.3,2.9.2,5.6,2,8,1.8,2.4,4.1,4.2,7.1,5.2ZM141.3,31.5c1.6-1.5,3.4-2.3,5.5-2.4,2.5,0,4.4,1.1,5.9,3,2.9,3.7.3,8.8-4,9.4-.7,0-1.3,0-1.9.2-2.9,0-5-1-6.4-3.5-1-1.6-1-5,.9-6.7ZM89.1,44.9c0-.3.3-.4.6,0,2.3,3,4.9,5.9,7.8,8.4,1.1.9,2.1,1.8,3.4,2.4.6.3,1,.3,1.5-.2,1.4-1.4,2.3-3.2,3.1-4.9.4-.8.2-1.3-.6-1.8-.7-.4-1.4-.8-2.1-1.3-3.6-2.7-6.2-6.1-8-10.2-1.2-2.7-1.5-5.7-1.6-8.6,0-1.3,0-2.7,0-4,0-.5-.2-.8-.7-.8-1.4.1-2.9-.3-4.1-.1h-2.2c-.6,0-.8.2-.8.7,0,2.7,0,5.3,0,8,0,1-.2,2-.4,2.9-.3,1.5-1,2.7-1.7,4-1,2-1.9,4.1-3.6,5.7-1.8,1.9-3.6,3.8-6.1,4.7-.7.3-.9.7-.9,1.4s0,.7.2,1c.7,1.7,1.9,3.1,3.2,4.2.7.6,1.4.5,2.2,0,1.8-1.1,3.6-2.4,5.1-3.9,2.5-2.1,4.4-4.7,5.7-7.7ZM123.8,37.2c-1.9,0-3.8,0-5.6.2q-1.2,0-1.2-1.2c0-5.2,0-10.4.3-15.6,0-.6,0-.8-.8-.8-2.3-.1-4.7.2-7,.2s-1.1.2-1.2,1.1c0,.7.2,1.5.2,2.2,0,1.5,0,3.1,0,4.6,0,2.2,0,4.4,0,6.6,0,1.3,0,2.5,0,3.8.2,3.1,0,6.2.2,9.4.2,5.4,0,10.7.2,16.1v.2c0,.6.2.9.8.9.9,0,1.8,0,2.7,0s2.4,0,3.6-.2c.7,0,1.1-.4,1-1.1,0-1.7-.2-3.3-.3-5,0-2.2,0-4.3,0-6.5h0v-6.7c0-.3,0-.7.5-.7,2.2,0,4.4,0,6.6,0s.7-.2.7-.7c0-2,0-4,0-6,0-.6-.2-.8-.8-.8ZM162.6,50.7c-2.1,0-4.1.4-6.1.4-2.2,0-4.4.2-6.6.3-2,0-4,.2-6,.2-2.9,0-5.7,0-8.5,0s-.4,0-.5,0c-.9,0-1.9,0-2.9.2-.7,0-1.4,0-2,0-.4,0-.6,0-.6.5,0,1.9,0,3.8.3,5.7.1.9.6,1.1,1.3,1.1h10.8c.5,0,.8,0,.7.7,0,2,.1,4.1.1,6.1.1,4.1.1,8.1.2,12.2,0,1.1.2,1.2,1.2,1.2h5.6q1.2,0,1.2-1.2v-12.9c0-2.2,0-4.4.2-6.6,0-.2-.1-.5.4-.5,2.2,0,4.4-.3,6.6-.5,1.6,0,3.3-.2,4.9-.6.6-.2,1-.5,1.3-1.2.4-1.1.1-2.1.3-3.2.3-1.7-.4-2-1.9-2ZM234.8,67.1c0-.3-.1-.6-.5-.6-.9,0-1.9-.2-2.8-.2-1.8,0-3.7,0-5.5,0-5.2,0-10.4,0-15.6,0s-10.5,0-15.8.3c-1.5,0-3,0-4.4,0h-4.7c-.4,0-.9,0-.9.6-.1,2.1-.1,4.3-.1,6.4s.2.6.6.6c1.5,0,3,0,4.5,0,12.1,0,24.3-.2,36.4.2,2.9,0,5.8,0,8.6,0,.5,0,.6-.3.6-.7-.2-1.4-.2-2.8-.3-4.2-.1-.6-.1-1.4-.1-2.2ZM117.1,72.6c-7.6,0-15.1,0-22.7.2-1.6,0-3.1,0-4.7,0-.4,0-.5,0-.5-.5v-2.1c0-2.9-.2-5.9-.3-8.8q0-1-1-1c-2,0-4,.3-6,0-.6,0-.8.3-.9.8,0,.2,0,.5,0,.7,0,5.8,0,11.6,0,17.4,0,1.3,0,1.4,1.4,1.4,3.4,0,6.7,0,10.1,0,3.2,0,6.5,0,9.7,0,5.2,0,10.5,0,15.7-.4.5,0,.6-.2.6-.7,0-2-.2-4-.3-5.9q0-1.4-1.2-1.4ZM456.7,66.3h-.5c-12.7,0-25.5,0-38.2,0-3,0-5.9,0-8.9,0s-1.1.2-1.7.2-.3,0-.3.3c.2,1.9-.4,3.9,0,5.8.1.6.4.7.8.8.5,0,.9.2,1.4,0,1.5,0,3,0,4.5,0,2.7,0,5.4,0,8.1,0,5.2,0,10.3.2,15.5,0,2.9,0,5.7,0,9,0,3.1,0,6.6,0,10.2-.2.6,0,.9-.2,1-1,.1-1.8,0-3.6.1-5.4,0-.5-.3-.7-1-.7ZM706.7,15.4h-227.5c-4.9,0-8.9,4-8.9,8.9v51.8c0,4.9,4,8.9,8.9,8.9h227.5c4.9,0,8.9-4,8.9-8.9V24.3c0-4.9-4-8.9-8.9-8.9ZM598.3,34.6c0-.5.4-.5.8-.5,1.8.4,3.7.3,5.5.5.5,0,.7,0,.8-.7.2-2.7,0-5.3,0-8s0-.7.7-.6c1.5.1,3.1.3,4.7.2.6,0,.8.2.8.8-.2,4,0,7.9,0,11.9,0,4.1,0,8.2,0,12.2,0,.6-.2.9-.8.8-1.9-.3-3.8,0-5.7-.2-.6,0-.4-.4-.4-.7,0-2.3.2-4.6,0-6.5v-4c0-.4,0-.5-.5-.6-1.6-.3-3.2,0-4.9,0s-.9-.2-1-.7c-.5-1.3-.5-2.5-.4-3.8ZM535.8,34.4c0-1.8,0-3.6,0-5.4s-.2-.6.4-.5c4.4.3,8.8.2,13.2.4h13.1c.9,0,1.7-.1,2.6-.1s.8.1.8.8c0,1.2,0,2.5,0,3.7,0,.5-.2.6-.6.5-6.9-.3-13.9,0-20.8,0s-1.5,0-2.2,0-.6.2-.6.5v4.7c0,.3.2.4.5.5,2.4.2,4.8.3,7.2.5,3.7.2,7.3,0,10.9,0s2.8,0,4.3-.2c.4,0,.6,0,.6.6v4.1c0,.4,0,.5-.5.5-7.3-.2-14.6,0-21.9,0-.7,0-1,.2-1,.9,0,1.2,0,2.4-.2,3.7,0,1.5.3,1.8,1.8,1.9,1.6,0,3.3.2,4.9.2h16.6q1.4,0,1.4,1.4c0,.9,0,1.7,0,2.6,0,.7-.2.8-.8.8-3.4,0-6.9,0-10.3,0-5.2,0-10.3,0-15.5,0-1.1,0-2.2,0-3.3.2-.4,0-.5,0-.5-.5-.4-7.5-.4-14.7-.3-21.9ZM518.5,47.4c0-1.8,0-3.7,0-5.6v-10.3c0-1.6,0-3.3,0-5s.2-1,1.1-1h3.6c.5,0,.8.1.8.7v11.5h0v10.4c0,4.5,0,8.9,0,13.4s-.2.7-.7.6c-1.5-.2-2.9,0-4.4,0s-.5-.2-.5-.4v-.3c-.2-4.6-.3-9.3,0-13.9ZM504.2,37.9q.1-1.3,1.4-1.3c.9,0,1.8,0,2.7.3,1,.2,1.5-.3,1.5-1.3v-3c0-1.8-.1-3.9-.3-5.9-.1-.5,0-.9.8-.7,1.1.2,2.2.1,3.4.2h.4c1,0,1.3.2,1.1,1.2-.4,1.6-.2,3.1-.3,4.7-.3,6.9,0,13.8,0,20.8s0,2.9,0,4.3c0,1.2-.3,2.3,0,3.5,0,.3,0,.4-.4.4h-4.1c-.4,0-.4-.2-.4-.5.1-.8.3-1.6.3-2.4v-14.8c0-.9-.3-1.1-1.1-1.2-.9,0-1.8-.2-2.6-.6-1.7-.9-2.4-1.9-2.2-3.7ZM493,53.2c-.6.4-1.3.8-2,1.1-1,.4-2,.5-2.9-.3s-1.5-1.7-1.2-3c.1-.5.4-.7.7-1,1.2-1.1,2.3-2.2,3.2-3.6,2.1-3.2,3.4-6.6,3.8-10.3.3-2.3.3-4.6.2-6.9,0-.7.2-.9.9-1,1.4-.1,2.8.1,4.2,0,.6,0,.7.2.7.7v3.2c0,1.8.1,4,.3,6.2.2,2.9,1.5,5.3,3.2,7.5.9,1.1,1.8,2.3,2.6,3.4.4.5.6,1.1.1,1.8-.4.5-.6,1.1-.8,1.7-.6,1.3-1.9,1.6-3.1.7-1.1-.9-1.8-2.1-2.5-3.3-.5-.8-.9-1.8-1.3-2.7-.2-.4-.2-.9-.8-.8-.6,0-1.2,0-1.5.8s-.5,1.3-.7,2c-.6,1.7-1.6,2.9-3.1,3.8ZM524.9,73.8h-5.2c-5.7.2-11.5.2-17.2,0-2.4,0-4.8,0-7.1,0-.5,0-.6,0-.6-.6.1-1,.1-1.9.1-2.9,0-3.7.3-7.4.2-11.1q0-1,1-1c1.5.2,3,0,4.6,0s.8.3.7.8c-.3,2.4.4,4.8.2,7.2,0,.4.1.8.2,1.3s.5.6,1,.7c2.4.3,4.8,0,7.2.2,2.9.2,5.8,0,8.6.2,2.1,0,4.2.2,6.3.3.6,0,.8.3.8.8v3.3c-.2.5-.3.6-.8.6ZM570.1,69.2c-.8,0-1.5,0-2.3,0-4.5,0-9,0-13.5,0-5.7,0-11.5,0-17.2,0s-2.9-.2-4.4,0c-.5,0-1,0-1.4,0s-.4,0-.4-.4v-4.4c0-.4.3-.4.5-.4,1.2,0,2.5,0,3.8,0h9.3c4.2,0,8.4,0,12.6,0s4.1,0,6.2,0c1.8-.2,3.7,0,5.5-.2h.6c.6,0,.9.2.9.9,0,1.4,0,2.8.2,4.3.2.3,0,.4-.4.3ZM577.1,49.7c-.5,0-.7,0-.7-.7v-11.6c0-.7.2-1,1-1,1.7,0,3.3,0,5,0,2-.2,4,0,6-.2,1,0,1.2-.3,1.2-1.2v-.7c0-1.5,0-1.6-1.5-1.7-2.9-.2-5.8,0-8.6,0s-1.7.2-2.5.2-.5,0-.5-.4v-4.5c0-.5.3-.3.5-.3,2.2.1,4.4.1,6.7.2,3.6.1,7.2,0,10.9-.1h1.1c-.4,2.5-.2,5-.2,7.4s.2,3.5,0,5.2c0,.5-.2.7-.6.7h-10.8q-1.4,0-1.5,1.5t2,2h9.3c1.4,0,2.9,0,4.3-.3,1.1-.2,1.3,0,1.3,1.1s-.2,1.9-.2,2.9-.3,1.1-1.2,1.1c-3.1,0-6.2.4-9.3.5-1.1,0-2.3,0-3.4,0-2.8-.2-5.6,0-8.3,0ZM611.8,74.4c-2.7-.2-5.3,0-8,0h-6.3v.2h-13.8c-.5,0-1.2.3-1.5,0-.3-.3,0-1,0-1.6v-10.4c0-.5,0-.8.7-.7,5,.2,10.1,0,15.1.2,2.2,0,4.4,0,6.7,0s.6,0,.6-.6c0-.9,0-1.9,0-2.8s-.2-.3-.4-.3c-.6,0-1.2-.2-1.8-.2h-12.8c-2.6,0-5.1.2-7.7.2s-.7-.2-.6-.6c0-1.2,0-2.4,0-3.6s.3-.8,1.1-.7c2.1.3,4.2.2,6.2.2,3,0,6,0,9,0s5.9,0,8.8,0c1.2,0,2.5,0,3.7,0s.7,0,.7.7c-.3,3.8,0,7.6,0,11.4s0,.8-.7.8-.5,0-.8,0c-6.6.2-13.1.2-19.7.2s-1.7.3-1.6,1.7c0,1.5.2,1.5,1.7,1.6h.7c6.8,0,13.7.2,20.6.2s1.1,0,1.2,1.2v2.6c-.1.3-.2.5-.9.5ZM645.5,59.7c-.3,1.1-.7,2.1-1.5,3-1,1.1-1.8,1-3,.2-1.2-.7-2-1.8-2.8-2.9-1.2-1.7-2.6-3.2-3.6-5-.5-.9-.9-1.8-1.2-2.7,0-.5-.4-.6-.8-.6s-.8,0-1,.6c-.7,2-1.5,4-2.7,5.8-1.7,2.5-3.6,4.8-6.1,6.6-.7.4-1,0-1.3-.4-1.2-1-2-2.3-3-3.6-.6-.8-.4-1.2.4-1.8.9-.6,1.9-1.2,2.8-1.9,1.4-1.2,2.2-2.6,3.1-4.2,1.1-2,1.8-4.1,2.4-6.2.8-2.7,1.1-5.4,1.4-8.2.4-3.1.7-6.2.6-9.3,0-.3,0-.5.4-.4.3,0,.6,0,.9.1h0c1.3.1,2.5.1,3.8.1s.9.2.9.9c0,3,.2,5.9.5,8.9.3,2.9.8,5.7,1.8,8.5.7,2.2,1.6,4.3,2.9,6.2,1.1,1.6,2.5,3,4.2,4.1,1.1.6,1.3,1,.9,2.2ZM654.4,75c-1.9,0-3.8,0-5.6.2-.4,0-.3-.2-.3-.3v-2.3c0-5.5,0-10.9,0-16.4,0-5.8.4-11.6.3-15.9v-11.8c0-.8,0-1.7,0-2.5,0-.4,0-.6.6-.6,1.6.1,3.3-.1,4.9.2.4.1.5.1.5.5v44.4c0,1.3,0,2.6,0,3.9s0,.5-.6.6ZM688.8,58c0,1.4,0,2.8,0,4.3s0,.5-.5.5c-2.8,0-5.5,0-8.3.2-4.8.2-9.6.4-14.4.7-.8,0-.6-.4-.6-.8V29.2c3,.1,6.1.1,9.2.2,3.1,0,6.2.1,9.3.1h2.7c.4,0,.5.1.6.5.2,1.4,0,2.7.2,4.1,0,.5,0,.6-.6.6-2.9-.2-5.8,0-8.7,0-2,0-4,0-6,.2-.4,0-.6.2-.6.6,0,2.4,0,4.8,0,7.2s.2.7.7.7c4.1,0,8.1,0,12.2-.2.6,0,.8,0,.7.8-.2,1.3-.2,2.6-.2,3.9s0,.5-.5.5c-4.2-.3-8.3.2-12.5,0-.4,0-.4.2-.4.5,0,1.4,0,2.8,0,4.2,0,1.3,0,2.7,0,4,0,.5.2.8.8.8,1.4,0,2.8,0,4.3,0,2.4-.2,4.8-.2,7.3-.5,1.4-.2,2.8-.2,4.2-.3,1.1-.3,1.1-.2,1.1.8ZM698.2,74.9c-1.7,0-3.3.3-5,.3s-.6,0-.6-.6V27.2c0-1.9,0-1.7,1.7-1.7h3.8c.6,0,.8.1.8.8.2,6.4,0,12.9.2,21.2,0,3,0,8,0,12.9,0,2.9,0,5.9,0,8.8v4.8c-.1.7-.4.9-1,.9Z"/>
</svg>