<?xml version="1.0" encoding="utf-8"?>
<!-- Generator: Adobe Illustrator 27.9.6, SVG Export Plug-In . SVG Version: 9.03 Build 54986)  -->
<svg version="1.1" id="레이어_1" xmlns="http://www.w3.org/2000/svg" xmlns:xlink="http://www.w3.org/1999/xlink" x="0px"
	 y="0px" viewBox="0 0 732.4 100.5" style="enable-background:new 0 0 732.4 100.5;" xml:space="preserve">
<style type="text/css">
	.st0{fill:#FFFFFF;}
	.st1{fill:#001558;}
</style>
<g>
	<rect x="477.7" y="23.1" class="st0" width="230.2" height="58.5"/>
	<g>
		<g>
			<path class="st1" d="M67.8,58.2c0-0.6-0.2-1-1-1c-9.8,0-19.5,0-29.3,0c-1.9,0-3.8,0-5.7,0c-4.7,0-9.4,0-14.1,0
				c-0.5,0-0.9,0.1-0.8,0.7c0,0.1,0,0.2-0.1,0.2c0,0.8,0,1.5,0,2.3c0.3,0.1,0.1,0.3,0.1,0.5c0,1,0,1.9,0,2.9c0,0.7,0.4,1,1.1,1.1
				c1.6,0.2,3.3,0.2,4.9,0.3c4.3,0.1,8.6,0.1,12.9-0.1c0.5,0,1.1-0.3,1.7-0.1c0.2,0.1,0.4,0,0.4,0.3c-0.1,0.6,0.2,1.1,0.2,1.7
				c0,1.7,0,3.3,0.1,5c0.2,1.9,0.2,3.8,0.2,5.6c0,1.9,0,3.8,0,5.7c0,0.9,0.2,1.1,1.1,1.1c2.2,0,4.4-0.1,6.7-0.1
				c0.4,0,0.5-0.2,0.5-0.6c0-0.4-0.1-0.9-0.2-1.3c0-5.4,0-10.9,0.1-16.3c0-0.6,0.2-0.8,0.8-0.8c1,0.1,1.9,0,2.9,0
				c4-0.1,8-0.1,12-0.4c1.5-0.1,3.1,0,4.6,0c1.1,0,1.2,0,1.1-1.2C67.9,61.9,67.8,60,67.8,58.2z M331.9,77.5
				c-0.1-2.8-0.1-5.7-0.2-8.6c0-2.6,0.1-5.1,0.1-7.7c0.1-3.7,0-7.4,0-11c0-1.8,0-3.7,0-5.5c0-6.7,0-13.3,0-20c0-0.7-0.2-1-1-1
				c-1.6,0-3.2,0-4.7,0c-1.2,0-1.3,0.1-1.3,1.3c0,2.2-0.2,4.5-0.3,6.7c-0.1,2.2-0.3,4.4-0.2,6.6c0,1.6,0,3.3,0,4.9
				c0,0.7-0.3,0.9-0.9,0.9c-1.6-0.1-3.2,0.1-4.8,0c-0.6,0-1,0.2-1,1c0,1.5,0,3.1,0,4.6c0,1,0.2,1.2,1.3,1.3c1.5,0.2,3.1,0.1,4.6,0.1
				c0.4,0,0.6,0.1,0.6,0.5c-0.2,1,0.1,2,0.1,3c0,3.3,0,6.6-0.1,9.8c0,0.3,0,0.5,0,0.9c-0.6-0.2-1-0.6-1.4-0.9
				c-1.5-1.5-3-3.1-4.2-4.8c-3-4.3-4.7-9.1-5-14.4c0-1-0.1-2-0.2-3c-0.2-1.7-0.3-3.4-0.4-5.1c0-0.5,0.2-0.7,0.7-0.7
				c1.9-0.2,3.8,0,5.6-0.3c1-0.1,1.6-0.5,1.6-1.3c0-1.6,0-3.3,0-4.9c0-0.6-0.4-1-1-1.1c-1.2-0.1-2.4-0.2-3.6-0.2
				c-6.2-0.2-12.4-0.1-18.6,0.1c-0.6,0-1,0.2-1,1c0,2,0.2,4.1-0.1,6.1c0,0.3,0,0.6,0.4,0.6c0.7,0,1.4,0.1,2.1,0.1c1.8,0,3.6,0,5.4,0
				c0.6,0,0.8,0.2,0.8,0.8c0,2.4,0,4.9-0.1,7.3c-0.1,1.1-0.2,2.3-0.4,3.4c-0.7,3.3-1.8,6.5-3.2,9.6c-1,2.3-2.4,4.4-4,6.4
				c-0.8,0.9-1.8,1.7-2.4,2.7c-0.2,0.4-0.4,0.9-0.1,1.3c1.2,1.5,2.6,2.9,4.2,4.1c0.7,0.5,1.1,0.5,1.7-0.2c0.6-0.7,1.2-1.4,1.8-2.2
				c1.3-1.8,2.3-3.8,3.4-5.7c0.8-1.3,1.5-2.7,1.8-4.2c0.1-0.8,0.3-1.5,0.4-2.4c0.4,0.4,0.6,0.8,0.9,1.1c1.5,2.2,2.4,4.8,4,7
				c1.2,1.6,2.4,3.3,3.8,4.8c1.1,1.1,1.9,1,3-0.1c1.2-1.3,2.1-3.1,4.2-3.3c0.1,1,0.3,2.1,0.3,3.1c0,3.4,0.3,6.8,0.2,10.2
				c0,0.3,0.1,0.6,0.1,0.8c0,0.4,0.2,0.5,0.6,0.6c1.9,0.2,3.7,0.2,5.5,0c0.9-0.1,1-0.5,1-1.2C332,79.3,331.9,78.4,331.9,77.5z
				 M189.7,55.5c0,0.5,0.1,1,0.1,1.6c-0.1,2.3-0.3,2.8,2.3,2.8c5.9,0.1,11.8,0,17.8,0c0,0,0-0.1,0-0.1c1.9,0,3.8,0,5.7,0
				c3.9,0,7.8,0,11.6,0c0.5,0,1.1,0,1.6-0.1c0.4-0.1,0.6-0.4,0.6-0.8c0-1.8,0.2-3.7,0.1-5.5c-0.1-1.8-0.1-3.7-0.1-5.6
				c0.1-3.7,0-7.4,0.1-11.1c0.1-3,0-6.1,0.1-9.1c0-0.5-0.2-0.6-0.6-0.6c-1,0-2.1,0-3.1-0.1c-1.4-0.1-2.7,0.3-4.1,0.1
				c-0.7-0.1-0.9,0.2-0.9,0.9c0,2.4,0,4.7,0,7c0,0.5,0.3,1.2,0,1.6c-0.3,0.5-1,0.1-1.6,0.1c-4.2,0.1-8.4,0.2-12.6,0.2
				c-2.9,0-5.7,0-8.6,0.1c-0.4,0-0.7,0-0.6-0.5c0.2-2.8,0.1-5.6,0.1-8.4c0-0.5-0.1-0.8-0.7-0.7c-2.3,0.1-4.5-0.2-6.8-0.2
				c-0.7,0-1,0.2-1,0.9c0,3.7,0.1,7.4,0.1,11.1C189.7,44.5,189.7,50,189.7,55.5z M198.3,44.6c0-0.6,0.3-0.7,0.8-0.7
				c6.2,0.1,12.4,0.1,18.6,0.1c1,0,1.9,0,2.9,0c0.5,0,0.7,0.1,0.7,0.6c-0.3,2.4-0.1,4.8-0.1,7.3c0,0.4-0.2,0.5-0.5,0.5
				c-3.7,0-7.4,0-11.1,0v0c-3.6,0-7.2,0-10.8,0c-0.6,0-0.7-0.1-0.7-0.7C198.1,49.3,198.2,46.9,198.3,44.6z M23.7,50.9
				c0,0.3-0.1,0.6,0.4,0.7c1.2,0.1,2.5,0.3,3.7,0.3c4.4,0,8.8,0,13.2,0c6.7,0,13.4,0.4,20.1,0c0.4,0,0.9,0.1,0.9-0.6
				c0-2.1,0-4.3,0-6.4c0-0.4-0.1-0.6-0.5-0.6c-0.7,0-1.4-0.1-2-0.2c-3.6-0.1-7.2,0-10.8,0c-5.3,0-10.7,0.1-16,0.1
				c-0.3,0-0.5,0-0.5-0.5c0.1-3.3,0.1-6.6,0.2-10c0-0.5,0.2-0.7,0.7-0.7c1.4,0.1,2.9,0.2,4.3,0.2c6.7,0,13.4,0,20.1,0
				c1.3,0,2.6-0.2,3.8-0.3c0.3,0,0.3-0.2,0.3-0.5c0-2,0-4,0-6c0-0.6-0.3-1-1-1c-0.8,0-1.7-0.1-2.5-0.1c-5.5,0-11,0-16.5,0v0
				c-5.5,0-11.1,0-16.6,0c-1.6,0-1.7,0-1.7,1.7c0,0.1,0,0.2,0,0.3c0,5.5,0,11,0.1,16.5C23.6,46.3,23.5,48.6,23.7,50.9z M270.2,61
				c-1.5,0-3,0.4-4.6,0.5c-2,0.1-4,0.3-6,0.4c-2.7,0.1-5.5,0.2-8.2,0.3c-1.1,0-1.1,0-1.1-1.1c0-6.8-0.1-13.6,0.1-20.3
				c0-1.5,0-3,0-4.5c0-0.4,0-0.6,0.6-0.6c4.6,0,9.2,0.1,13.9,0c0.9,0,1.7-0.2,2.5,0c0.9,0.2,1,0,0.9-1c-0.2-1.7-0.3-3.5-0.3-5.2
				c0-1.4-0.1-1.5-1.5-1.5c-4.6,0-9.3,0-13.9,0c-3.1,0-6.3,0-9.4,0.3c-0.5,0-0.7,0.2-0.7,0.7c0,2-0.2,3.9-0.3,5.9
				c-0.1,2.3-0.1,4.7,0,7.1c0,2.6,0,5.2,0.1,7.8c0.2,3.1,0.1,6.2,0.2,9.4c0.1,2.8,0.2,5.6,0.1,8.5c0,0.5,0.2,0.9,0.2,1.4
				c0,0.4,0.2,0.6,0.6,0.6c1.5,0.1,2.9,0.1,4.4,0c2.9-0.1,5.8-0.3,8.8-0.3c1.7,0,3.3-0.1,5-0.3c2.5-0.2,5.1-0.4,7.6-0.6
				c1.1-0.1,1.5-0.5,1.6-1.6c0-1.7,0-3.3,0-5C270.9,61.2,270.8,61.1,270.2,61z M286.4,23.1c-0.8,0-1.6,0.2-2.4,0.2
				c-1.6,0-3.1-0.2-4.7-0.2c-0.6,0-0.8,0.2-0.8,0.8c0,3.2,0,6.5,0,9.7c0,0,0,0,0.1,0c0,3.3,0,6.5,0,9.8c0,0.7-0.3,0.8-0.8,0.7
				c-0.5-0.1-0.9-0.1-1.4-0.1c-1.4-0.1-2.7,0.2-4.1,0.2c-2,0-4.1-0.2-6.1-0.2c-0.6,0-0.9,0.3-0.9,0.8c0,1.9,0,3.8,0,5.7
				c0,0.5,0.3,0.8,0.7,0.8c0.8,0,1.6,0.2,2.4,0.2c3.1,0,6.2,0,9.2,0c0.6,0,0.7,0.2,0.7,0.8c0,3.4,0,6.9,0.1,10.3
				c0.1,4,0,8.1,0.1,12.1c0.1,2.9,0,5.8,0,8.7c0,0.9,0.1,1.1,1,1.1c2.1,0,4.2,0,6.2-0.1c0.5,0,0.8-0.2,0.8-0.8
				c0-0.8-0.2-1.6-0.1-2.4c0.1-6.5-0.2-13,0.1-19.6c0.1-2.4,0-4.9,0.1-7.3c0.2-2.8,0.1-5.6,0.1-8.4c0-7.3-0.1-14.7-0.1-22
				C287.1,23.2,286.9,23.1,286.4,23.1z M411.8,58.6c0.4,0.4,0.8,0.5,1.3,0.4c2.5-0.7,4.8-1.8,7-2.9c2.2-1.1,4.2-2.5,5.9-4.2
				c2.1-2.1,3.8-4.4,5.2-7c0.2-0.3,0.2-0.9,0.5-0.8c0.4,0,0.6,0.6,0.8,0.9c0.6,1,1.1,2.2,1.9,3.1c1.5,1.8,3.2,3.4,4.9,4.9
				c1,0.9,2,1.7,3,2.4c2.4,1.7,5.1,2.8,7.8,3.8c1.7,0.7,2.1,0.5,3.1-1c1-1.5,1.8-3.2,2.5-4.9c0.4-0.9,0.1-1.5-0.8-1.8
				c-0.3-0.1-0.7-0.2-1-0.3c-1.8-0.4-3.6-0.9-5.2-1.8c-3.9-1.9-6.8-4.7-9-8.4c-2.1-3.5-3.6-7.1-3.6-11.2c0-0.7,0.2-1.4,0.3-2.1
				c0.1-0.9-0.1-1.1-0.9-1.1c-1.1,0-2.2,0-3.3,0v0c-1,0-2,0-3.1,0c-1.1,0-1.1,0.1-1.1,1.1c0,1.5,0.1,3.1-0.2,4.6
				c-0.5,3-1.8,5.7-3.2,8.4c-0.9,1.7-2.1,3.1-3.4,4.5c-1.7,1.9-3.8,3.5-6,4.8c-1.8,1.1-3.8,1.3-5.8,1.6c-0.4,0-0.7,0.1-0.8,0.5
				c0,0.4-0.1,0.9,0.1,1.2C409.6,55.2,410.5,57.1,411.8,58.6z M174.8,23c-1.5,0-3,0.2-4.5,0.2c-0.8,0-1.6,0-2.4,0
				c-0.5,0-0.8,0.1-0.8,0.7c0.1,2.2-0.1,4.3-0.1,6.5c0,5.6-0.1,11.1,0.1,16.7c0.1,4.3,0,8.5,0,12.8c0,6.7-0.1,13.5,0.1,20.2
				c0,1.1,0,2.2,0,3.4c0,1,0,1,1,1.1c2.1,0,4.2,0,6.3,0c0.7,0,0.8-0.3,0.8-0.9c0-8.5,0-17,0.1-25.5c0.1-11.1-0.1-22.2,0.2-33.3
				c0-0.2,0-0.5,0.1-0.7C175.9,23.1,175.8,23,174.8,23z M386,60c0-0.4-0.1-0.6-0.6-0.6c-0.9,0-1.9,0-2.8,0.2c-2.7,0.6-5.4,0.7-8.1,1
				c-1.2,0.2-2.5,0.2-3.8,0.4c-2.7,0.4-5.4,0.6-8.1,0.7c-0.5,0-0.7-0.1-0.7-0.7c0.1-2.3,0.1-4.6,0.1-6.9c0-4.1,0-8.1,0-12.2
				c0,0,0,0,0.1,0c0-4.1,0-8.2,0-12.2c0-1,0-1-1.1-1.1c-1.8,0-3.5,0-5.3,0c-1.7,0-1.5,0.3-1.5,1.5c-0.1,2.1-0.1,4.2-0.2,6.2
				c-0.1,2.5-0.2,5-0.2,7.5c0,1.8-0.1,3.5,0.1,5.3c0.1,1.5-0.1,2.9,0,4.4c0.2,2.3,0,4.6,0.2,6.9c0.1,2.4,0.1,4.8,0.2,7.2
				c0,0.1,0,0.2,0,0.2c0.1,0.9,0.3,1.2,1.2,1.2c2.8-0.1,5.6,0.1,8.5-0.1c2.1-0.2,4.3-0.3,6.4-0.5c1.8-0.1,3.6-0.3,5.4-0.5
				c2.9-0.3,5.8-0.9,8.8-0.9c1.1,0,1.4-0.5,1.5-1.6C386.2,63.7,385.9,61.8,386,60z M397.6,26.1c0-0.7,0-1.5,0.2-2.2
				c0.1-0.6-0.1-0.8-0.7-0.8c-0.9,0-1.8,0.2-2.7,0.1c-1.2-0.1-2.4,0-3.6-0.1c-0.5,0-0.7,0.1-0.7,0.7c-0.1,1.6,0.1,3.1,0.1,4.7
				c-0.2,8,0,15.9-0.1,23.9c-0.1,7.3-0.2,14.6,0.1,21.8c0,1.3,0,2.7,0,4c0,0,0.1,0,0.1,0c0,1.8,0,3.7,0,5.5c0,0.6,0.2,0.8,0.8,0.8
				c2,0,3.9-0.1,5.9,0.1c1.1,0.1,1.3-0.2,1.1-1.3c0-0.3,0-0.6,0-0.8c-0.1-4.2,0.2-8.3,0.1-12.5C397.8,55.3,398.3,40.7,397.6,26.1z
				 M343.2,23.1c-2.2,0-4.5,0-6.7,0c-0.2,0-0.5,0-0.5,0.4c0,0.7-0.2,1.4-0.2,2c0,6,0,11.9,0,17.9c0.1,8.8-0.2,17.7,0.1,26.5
				c0.1,2.5,0,5,0.1,7.6c0.1,1.8,0,3.6,0,5.4c0,1,0.2,1.3,1.2,1.3c1.7,0,3.4,0,5.1,0c0.6,0,1-0.2,1-1.1c-0.1-2.4,0-4.8,0-7.1
				c0-2.3,0.1-4.5,0.1-6.8c0.1-7.5,0-15,0-22.6c0,0,0,0,0,0c0-2.7,0-5.3,0-8c0-4.9,0-9.9,0-14.8C343.6,23.5,343.8,23.1,343.2,23.1z
				 M141.6,50.7c2.4,0.8,4.9,0.7,7.4,0.5c1-0.1,2.1-0.2,3.1-0.6c3.5-1.1,6-3.4,7.5-6.7c0.8-1.7,1.2-3.5,1.2-5.4c0-1-0.2-2.1-0.3-3.1
				c-0.2-3.1-1.8-5.5-4.3-7.2c-2.9-2-6.1-2.9-10.2-2.9c-0.6,0-1.8,0.1-2.9,0.3c-2.2,0.4-4.1,1.4-5.9,2.5c-0.9,0.5-1.6,1.2-2.2,2.1
				c-1.4,2.2-2.3,4.6-2.5,7.3c-0.3,2.9,0.2,5.6,2,8C136.3,47.9,138.6,49.7,141.6,50.7z M141.3,34.5c1.6-1.5,3.4-2.3,5.5-2.4
				c2.5,0,4.4,1.1,5.9,3c2.9,3.7,0.3,8.8-4,9.4c-0.7,0.1-1.3,0.1-1.9,0.2c-2.9,0-5-1-6.4-3.5C139.4,39.6,139.4,36.2,141.3,34.5z
				 M89.1,47.9c0.1-0.3,0.3-0.4,0.6,0c2.3,3,4.9,5.9,7.8,8.4c1.1,0.9,2.1,1.8,3.4,2.4c0.6,0.3,1,0.3,1.5-0.2
				c1.4-1.4,2.3-3.2,3.1-4.9c0.4-0.8,0.2-1.3-0.6-1.8c-0.7-0.4-1.4-0.8-2.1-1.3c-3.6-2.7-6.2-6.1-8-10.2c-1.2-2.7-1.5-5.7-1.6-8.6
				c-0.1-1.3-0.1-2.7,0.1-4c0.1-0.5-0.2-0.8-0.7-0.8c-1.4,0.1-2.9-0.3-4.1-0.1c-0.9,0-1.6,0-2.2,0c-0.6,0-0.8,0.2-0.8,0.7
				c0,2.7,0.1,5.3-0.1,8c-0.1,1-0.2,2-0.4,2.9c-0.3,1.5-1,2.7-1.7,4c-1,2-1.9,4.1-3.6,5.7c-1.8,1.9-3.6,3.8-6.1,4.7
				c-0.7,0.3-0.9,0.7-0.9,1.4c0,0.4,0.1,0.7,0.2,1c0.7,1.7,1.9,3.1,3.2,4.2c0.7,0.6,1.4,0.5,2.2,0.1c1.8-1.1,3.6-2.4,5.1-3.9
				C85.9,53.5,87.8,50.9,89.1,47.9z M123.8,40.2c-1.9,0-3.8,0.1-5.6,0.2c-1.2,0-1.2,0-1.2-1.2c0-5.2,0-10.4,0.3-15.6
				c0-0.6-0.1-0.8-0.8-0.8c-2.3-0.1-4.7,0.2-7,0.2c-1,0-1.1,0.2-1.2,1.1c-0.1,0.7,0.2,1.5,0.2,2.2c0,1.5-0.1,3.1-0.1,4.6
				c-0.1,2.2,0.1,4.4,0,6.6c-0.1,1.3,0,2.5,0.1,3.8c0.2,3.1,0.1,6.2,0.2,9.4c0.2,5.4,0.1,10.7,0.2,16.1c0,0.1,0,0.1,0,0.2
				c-0.1,0.6,0.2,0.9,0.8,0.9c0.9,0,1.8-0.1,2.7-0.1c1.2,0,2.4,0.1,3.6-0.2c0.7-0.1,1.1-0.4,1-1.1c-0.1-1.7-0.2-3.3-0.3-5
				c-0.1-2.2,0-4.3,0-6.5l0,0c0-2.2,0-4.5,0-6.7c0-0.3-0.1-0.7,0.5-0.7c2.2,0.1,4.4,0.1,6.6,0.1c0.5,0,0.7-0.2,0.7-0.7
				c0-2-0.1-4,0.1-6C124.6,40.4,124.4,40.2,123.8,40.2z M162.6,53.7c-2.1,0-4.1,0.4-6.1,0.4c-2.2,0.1-4.4,0.2-6.6,0.3
				c-2,0.1-4,0.2-6,0.2c-2.9,0-5.7,0.1-8.5,0.1c-0.2,0-0.4,0.1-0.5,0.1c-0.9,0.1-1.9,0.1-2.9,0.2c-0.7,0-1.4,0-2-0.1
				c-0.4,0-0.6,0.1-0.6,0.5c0,1.9,0,3.8,0.3,5.7c0.1,0.9,0.6,1.1,1.3,1.1c1.8,0,3.6,0,5.4,0s3.6,0,5.4,0c0.5,0,0.8,0.1,0.7,0.7
				c0,2,0.1,4.1,0.1,6.1c0.1,4.1,0.1,8.1,0.2,12.2c0,1.1,0.2,1.2,1.2,1.2c1.9,0,3.7,0,5.6,0c1.2,0,1.2,0,1.2-1.2c0-4.3,0-8.6,0-12.9
				c0-2.2,0-4.4,0.2-6.6c0-0.2-0.1-0.5,0.4-0.5c2.2,0,4.4-0.3,6.6-0.5c1.6-0.1,3.3-0.2,4.9-0.6c0.6-0.2,1-0.5,1.3-1.2
				c0.4-1.1,0.1-2.1,0.3-3.2C164.8,54,164.1,53.7,162.6,53.7z M234.8,70.1c0-0.3-0.1-0.6-0.5-0.6c-0.9-0.1-1.9-0.2-2.8-0.2
				c-1.8,0-3.7-0.1-5.5-0.1c-5.2-0.1-10.4-0.1-15.6-0.1c-5.3,0-10.5,0.1-15.8,0.3c-1.5,0.1-3,0-4.4,0v0c-1.6,0-3.2,0-4.7,0
				c-0.4,0-0.9,0-0.9,0.6c-0.1,2.1-0.1,4.3-0.1,6.4c0,0.4,0.2,0.6,0.6,0.6c1.5,0,3,0.1,4.5,0.1c12.1,0.1,24.3-0.2,36.4,0.2
				c2.9,0.1,5.8,0.1,8.6-0.1c0.5,0,0.6-0.3,0.6-0.7c-0.2-1.4-0.2-2.8-0.3-4.2C234.8,71.7,234.8,70.9,234.8,70.1z M117.1,75.6
				c-7.6,0.1-15.1,0.1-22.7,0.2c-1.6,0-3.1,0-4.7,0.1c-0.4,0-0.5-0.1-0.5-0.5c0-0.7,0-1.4,0-2.1c-0.1-2.9-0.2-5.9-0.3-8.8
				c0-1,0-1-1-1c-2,0-4,0.3-6,0.1c-0.6,0-0.8,0.3-0.9,0.8c-0.1,0.2,0,0.5,0,0.7c0,5.8-0.1,11.6,0.1,17.4c0,1.3,0.1,1.4,1.4,1.4
				c3.4,0,6.7,0,10.1,0.1c3.2,0.1,6.5,0,9.7,0c5.2,0,10.5-0.1,15.7-0.4c0.5,0,0.6-0.2,0.6-0.7c0-2-0.2-4-0.3-5.9
				C118.2,75.6,118.2,75.6,117.1,75.6z M456.7,69.3c-0.2,0-0.4,0-0.5,0c-12.7,0-25.5-0.1-38.2,0.1c-3,0.1-5.9,0-8.9,0
				c-0.6,0-1.1,0.2-1.7,0.2c-0.2,0-0.3,0.1-0.3,0.3c0.2,1.9-0.4,3.9,0,5.8c0.1,0.6,0.4,0.7,0.8,0.8c0.5,0.1,0.9,0.2,1.4,0.1
				c1.5-0.1,3,0,4.5,0c2.7,0.1,5.4,0.1,8.1,0.1c5.2,0,10.3,0.2,15.5-0.1c2.9-0.1,5.7,0,9,0c3.1-0.1,6.6,0.1,10.2-0.2
				c0.6-0.1,0.9-0.2,1-1c0.1-1.8,0-3.6,0.1-5.4C457.7,69.5,457.4,69.3,456.7,69.3z M706.7,15.4H479.2c-4.9,0-8.9,4-8.9,8.9v51.8
				c0,4.9,4,8.9,8.9,8.9h227.5c4.9,0,8.9-4,8.9-8.9V24.3C715.6,19.4,711.6,15.4,706.7,15.4z M598.3,34.6c0-0.5,0.4-0.5,0.8-0.5
				c1.8,0.4,3.7,0.3,5.5,0.5c0.5,0,0.7-0.1,0.8-0.7c0.2-2.7,0.1-5.3,0.1-8c0-0.5,0.1-0.7,0.7-0.6c1.5,0.1,3.1,0.3,4.7,0.2
				c0.6,0,0.8,0.2,0.8,0.8c-0.2,4,0,7.9,0.1,11.9c0.1,4.1,0,8.2,0.1,12.2c0,0.6-0.2,0.9-0.8,0.8c-1.9-0.3-3.8,0-5.7-0.2
				c-0.6-0.1-0.4-0.4-0.4-0.7c0-2.3,0.2-4.6,0.1-6.5c0-1.6,0-2.8,0-4c0-0.4-0.1-0.5-0.5-0.6c-1.6-0.3-3.2-0.1-4.9-0.1
				c-0.5,0-0.9-0.2-1-0.7C598.2,37.1,598.2,35.9,598.3,34.6z M535.8,34.4c0-1.8,0.1-3.6,0.1-5.4c0-0.2-0.2-0.6,0.4-0.5
				c4.4,0.3,8.8,0.2,13.2,0.4c4.4,0,8.7,0,13.1,0c0.9,0,1.7-0.1,2.6-0.1c0.5,0,0.8,0.1,0.8,0.8c0,1.2-0.1,2.5,0,3.7
				c0,0.5-0.2,0.6-0.6,0.5c-6.9-0.3-13.9-0.1-20.8-0.1c-0.7,0-1.5,0.1-2.2,0.1c-0.4,0-0.6,0.2-0.6,0.5c0,1.6,0,3.1,0,4.7
				c0,0.3,0.2,0.4,0.5,0.5c2.4,0.2,4.8,0.3,7.2,0.5c3.7,0.2,7.3,0.1,10.9,0.1c1.4,0,2.8-0.1,4.3-0.2c0.4,0,0.6,0,0.6,0.6
				c0,1.4,0,2.8,0,4.1c0,0.4-0.1,0.5-0.5,0.5c-7.3-0.2-14.6,0-21.9-0.1c-0.7,0-1,0.2-1,0.9c0,1.2-0.1,2.4-0.2,3.7
				c0,1.5,0.3,1.8,1.8,1.9c1.6,0.1,3.3,0.2,4.9,0.2c5.5,0,11.1,0,16.6,0c1.4,0,1.4,0,1.4,1.4c0,0.9,0,1.7,0.1,2.6
				c0,0.7-0.2,0.8-0.8,0.8c-3.4,0-6.9-0.1-10.3,0c-5.2,0-10.3-0.1-15.5,0.1c-1.1,0-2.2,0.1-3.3,0.2c-0.4,0-0.5-0.1-0.5-0.5
				C535.7,48.8,535.7,41.6,535.8,34.4z M518.5,47.4c0.1-1.8,0.1-3.7,0.1-5.6c0-3.4,0-6.9,0-10.3c0-1.6,0.1-3.3,0.1-5
				c0-0.9,0.2-1,1.1-1c1.2,0,2.4,0,3.6,0c0.5,0,0.8,0.1,0.8,0.7c0,3.8,0,7.7,0,11.5c0,0,0,0,0.1,0c0,3.5,0,6.9,0,10.4
				c0,4.5-0.1,8.9-0.1,13.4c0,0.6-0.2,0.7-0.7,0.6c-1.5-0.2-2.9-0.1-4.4-0.1c-0.3,0-0.5-0.2-0.5-0.4c0-0.1,0-0.2,0-0.3
				C518.4,56.7,518.3,52,518.5,47.4z M504.2,37.9c0.1-1.3,0.1-1.3,1.4-1.3c0.9,0,1.8,0.1,2.7,0.3c1,0.2,1.5-0.3,1.5-1.3
				c0-0.9,0-1.8,0-3c0-1.8-0.1-3.9-0.3-5.9c-0.1-0.5,0-0.9,0.8-0.7c1.1,0.2,2.2,0.1,3.4,0.2c0.1,0,0.2,0,0.4,0c1,0,1.3,0.2,1.1,1.2
				c-0.4,1.6-0.2,3.1-0.3,4.7c-0.3,6.9-0.1,13.8-0.1,20.8c0,1.4-0.1,2.9,0,4.3c0,1.2-0.3,2.3-0.1,3.5c0,0.3-0.1,0.4-0.4,0.4
				c-1.4,0-2.8,0-4.1,0c-0.4,0-0.4-0.2-0.4-0.5c0.1-0.8,0.3-1.6,0.3-2.4c0-5,0-9.9,0-14.8c0-0.9-0.3-1.1-1.1-1.2
				c-0.9-0.1-1.8-0.2-2.6-0.6C504.7,40.7,504,39.7,504.2,37.9z M493,53.2c-0.6,0.4-1.3,0.8-2,1.1c-1,0.4-2,0.5-2.9-0.3
				c-0.9-0.8-1.5-1.7-1.2-3c0.1-0.5,0.4-0.7,0.7-1c1.2-1.1,2.3-2.2,3.2-3.6c2.1-3.2,3.4-6.6,3.8-10.3c0.3-2.3,0.3-4.6,0.2-6.9
				c0-0.7,0.2-0.9,0.9-1c1.4-0.1,2.8,0.1,4.2,0c0.6,0,0.7,0.2,0.7,0.7c0,0.9,0,1.8,0,3.2c0,1.8,0.1,4,0.3,6.2
				c0.2,2.9,1.5,5.3,3.2,7.5c0.9,1.1,1.8,2.3,2.6,3.4c0.4,0.5,0.6,1.1,0.1,1.8c-0.4,0.5-0.6,1.1-0.8,1.7c-0.6,1.3-1.9,1.6-3.1,0.7
				c-1.1-0.9-1.8-2.1-2.5-3.3c-0.5-0.8-0.9-1.8-1.3-2.7c-0.2-0.4-0.2-0.9-0.8-0.8c-0.6,0-1.2,0.1-1.5,0.8c-0.3,0.7-0.5,1.3-0.7,2
				C495.5,51.1,494.5,52.3,493,53.2z M524.9,73.8c-1.7,0-3.5,0-5.2,0c-5.7,0.2-11.5,0.2-17.2,0.1c-2.4,0-4.8-0.1-7.1,0
				c-0.5,0-0.6-0.1-0.6-0.6c0.1-1,0.1-1.9,0.1-2.9c0-3.7,0.3-7.4,0.2-11.1c0-1,0-1,1-1c1.5,0.2,3,0.1,4.6,0.1c0.6,0,0.8,0.3,0.7,0.8
				c-0.3,2.4,0.4,4.8,0.2,7.2c0,0.4,0.1,0.8,0.2,1.3c0.1,0.5,0.5,0.6,1,0.7c2.4,0.3,4.8,0,7.2,0.2c2.9,0.2,5.8,0,8.6,0.2
				c2.1,0.1,4.2,0.2,6.3,0.3c0.6,0,0.8,0.3,0.8,0.8c0,1.1,0,2.2,0,3.3C525.5,73.7,525.4,73.8,524.9,73.8z M570.1,69.2
				c-0.8,0-1.5-0.1-2.3-0.1c-4.5-0.1-9,0.1-13.5,0.1c-5.7,0.1-11.5,0-17.2,0c-1.5,0-2.9-0.2-4.4-0.1c-0.5,0-1,0.1-1.4,0.1
				c-0.3,0-0.4-0.1-0.4-0.4c0-1.5,0-3,0-4.4c0-0.4,0.3-0.4,0.5-0.4c1.2,0,2.5,0.1,3.8,0.1c3.1,0,6.2,0,9.3,0c0,0,0,0,0-0.1
				c4.2,0,8.4,0,12.6,0c2.1,0,4.1,0.1,6.2-0.1c1.8-0.2,3.7,0,5.5-0.2c0.2,0,0.4,0,0.6,0c0.6,0,0.9,0.2,0.9,0.9
				c-0.1,1.4,0,2.8,0.2,4.3C570.7,69.2,570.5,69.3,570.1,69.2z M577.1,49.7c-0.5,0-0.7-0.1-0.7-0.7c0-3.8,0-7.7,0-11.6
				c0-0.7,0.2-1,1-1c1.7,0,3.3,0,5-0.1c2-0.2,4,0,6-0.2c1-0.1,1.2-0.3,1.2-1.2c0-0.2,0-0.5,0-0.7c0.1-1.5-0.1-1.6-1.5-1.7
				c-2.9-0.2-5.8-0.1-8.6-0.1c-0.8,0-1.7,0.2-2.5,0.2c-0.3,0-0.5,0-0.5-0.4c0-1.5,0-3,0-4.5c0-0.5,0.3-0.3,0.5-0.3
				c2.2,0.1,4.4,0.1,6.7,0.2c3.6,0.1,7.2,0,10.9-0.1c0.3,0,0.7,0,1.1,0c-0.4,2.5-0.2,5-0.2,7.4c0,1.7,0.2,3.5,0,5.2
				c0,0.5-0.2,0.7-0.6,0.7c-0.6,0-1.2,0-1.8,0c-3,0-6,0-9,0c-1.4,0-1.4,0-1.5,1.5c0,2,0,2,2,2c3.1,0,6.2,0,9.3,0
				c1.4,0,2.9-0.1,4.3-0.3c1.1-0.2,1.3,0,1.3,1.1c0,1-0.2,1.9-0.2,2.9c0,0.9-0.3,1.1-1.2,1.1c-3.1,0-6.2,0.4-9.3,0.5
				c-1.1,0-2.3,0.1-3.4,0.1C582.6,49.5,579.8,49.7,577.1,49.7z M611.8,74.4c-2.7-0.2-5.3-0.1-8-0.1c-2.1,0-4.2,0-6.3,0
				c0,0.1,0,0.1,0,0.2c-4.6,0-9.2,0-13.8,0c-0.5,0-1.2,0.3-1.5-0.1c-0.3-0.3-0.1-1-0.1-1.6c0-3.5,0-6.9,0-10.4
				c0-0.5,0.1-0.8,0.7-0.7c5,0.2,10.1,0.1,15.1,0.2c2.2,0.1,4.4,0,6.7,0c0.4,0,0.6-0.1,0.6-0.6c0.1-0.9-0.1-1.9-0.1-2.8
				c0-0.2-0.2-0.3-0.4-0.3c-0.6-0.1-1.2-0.2-1.8-0.2c-4.3,0-8.5,0-12.8,0c-2.6,0-5.1,0.2-7.7,0.2c-0.5,0-0.7-0.2-0.6-0.6
				c0.1-1.2,0.1-2.4,0.1-3.6c0-0.7,0.3-0.8,1.1-0.7c2.1,0.3,4.2,0.2,6.2,0.2c3,0,6,0.1,9,0.1c2.9,0,5.9,0,8.8-0.1
				c1.2-0.1,2.5-0.1,3.7-0.1c0.5,0,0.7,0.1,0.7,0.7c-0.3,3.8-0.1,7.6-0.1,11.4c0,0.5-0.1,0.8-0.7,0.8c-0.2,0-0.5,0.1-0.8,0.1
				c-6.6,0.2-13.1,0.2-19.7,0.2c-1.4,0-1.7,0.3-1.6,1.7c0.1,1.5,0.2,1.5,1.7,1.6c0.2,0,0.5,0,0.7,0c6.8,0.1,13.7,0.2,20.6,0.2
				c1.1,0,1.1,0.1,1.2,1.2c0,0.9,0,1.7,0,2.6C612.6,74.2,612.5,74.4,611.8,74.4z M645.5,59.7c-0.3,1.1-0.7,2.1-1.5,3
				c-1,1.1-1.8,1-3,0.2c-1.2-0.7-2-1.8-2.8-2.9c-1.2-1.7-2.6-3.2-3.6-5c-0.5-0.9-0.9-1.8-1.2-2.7c-0.1-0.5-0.4-0.6-0.8-0.6
				s-0.8,0.1-1,0.6c-0.7,2-1.5,4-2.7,5.8c-1.7,2.5-3.6,4.8-6.1,6.6c-0.7,0.4-1-0.1-1.3-0.4c-1.2-1-2-2.3-3-3.6
				c-0.6-0.8-0.4-1.2,0.4-1.8c0.9-0.6,1.9-1.2,2.8-1.9c1.4-1.2,2.2-2.6,3.1-4.2c1.1-2,1.8-4.1,2.4-6.2c0.8-2.7,1.1-5.4,1.4-8.2
				c0.4-3.1,0.7-6.2,0.6-9.3c0-0.3,0.1-0.5,0.4-0.4c0.3,0,0.6,0,0.9,0.1c0,0,0,0.1,0,0.1c1.3,0,2.5,0,3.8,0c0.6,0,0.9,0.2,0.9,0.9
				c0,3,0.2,5.9,0.5,8.9c0.3,2.9,0.8,5.7,1.8,8.5c0.7,2.2,1.6,4.3,2.9,6.2c1.1,1.6,2.5,3,4.2,4.1C645.7,58.1,645.9,58.5,645.5,59.7z
				 M654.4,75c-1.9,0-3.8,0.1-5.6,0.2c-0.4,0-0.3-0.2-0.3-0.3c0-0.8,0-1.5,0-2.3c0-5.5-0.1-10.9,0-16.4c0.1-5.8,0.4-11.6,0.3-15.9
				c0-4.9,0-8.4,0-11.8c0-0.8,0-1.7,0.1-2.5c0-0.4,0.1-0.6,0.6-0.6c1.6,0.1,3.3-0.1,4.9,0.2c0.4,0.1,0.5,0.1,0.5,0.5
				c0,4.8,0,9.7,0,14.5c0,10,0,19.9,0,29.9c0,1.3,0.1,2.6,0.1,3.9C655,74.8,654.9,74.9,654.4,75z M688.8,58c0,1.4-0.1,2.8-0.1,4.3
				c0,0.4-0.1,0.5-0.5,0.5c-2.8,0-5.5,0.1-8.3,0.2c-4.8,0.2-9.6,0.4-14.4,0.7c-0.8,0-0.6-0.4-0.6-0.8c0-3.8,0-7.7,0-11.5
				c0-7.4,0-14.8,0-22.2c3,0.1,6.1,0.1,9.2,0.2c3.1,0,6.2,0.1,9.3,0.1c0.9,0,1.8,0,2.7,0c0.4,0,0.5,0.1,0.6,0.5
				c0.2,1.4,0,2.7,0.2,4.1c0,0.5-0.1,0.6-0.6,0.6c-2.9-0.2-5.8,0-8.7,0.1c-2,0-4,0.1-6,0.2c-0.4,0-0.6,0.2-0.6,0.6
				c0,2.4,0.1,4.8,0.1,7.2c0,0.5,0.2,0.7,0.7,0.7c4.1,0.1,8.1-0.1,12.2-0.2c0.6,0,0.8,0,0.7,0.8c-0.2,1.3-0.2,2.6-0.2,3.9
				c0,0.4-0.1,0.5-0.5,0.5c-4.2-0.3-8.3,0.2-12.5,0c-0.4,0-0.4,0.2-0.4,0.5c-0.1,1.4-0.1,2.8-0.1,4.2c0.1,1.3,0,2.7,0.1,4
				c0,0.5,0.2,0.8,0.8,0.8c1.4,0,2.8,0.1,4.3,0c2.4-0.2,4.8-0.2,7.3-0.5c1.4-0.2,2.8-0.2,4.2-0.3C688.8,56.9,688.8,57,688.8,58z
				 M698.2,74.9c-1.7,0.1-3.3,0.3-5,0.3c-0.5,0-0.6-0.1-0.6-0.6c0-2.9,0-5.7,0-8.6c0-4.1,0-8.2,0-12.3c0-8.8,0-17.7,0-26.5
				c0-1.9-0.1-1.7,1.7-1.7c1.2,0,2.5,0,3.8,0c0.6,0,0.8,0.1,0.8,0.8c0.2,6.4,0.1,12.9,0.2,21.2c0,3-0.1,8,0,12.9
				c0.1,2.9,0.1,5.9,0.1,8.8c0,1.6,0,3.2,0,4.8C699.1,74.7,698.8,74.9,698.2,74.9z"/>
		</g>
	</g>
</g>
</svg>
