<?xml version="1.0" encoding="UTF-8"?>
<svg xmlns="http://www.w3.org/2000/svg" version="1.1" viewBox="0 0 768.6 75.2">
  <defs>
    <style>
      .cls-1 {
        fill: none;
      }

      .cls-2 {
        fill: #001558;
      }
    </style>
  </defs>
  <!-- Generator: Adobe Illustrator 28.7.1, SVG Export Plug-In . SVG Version: 1.2.0 Build 142)  -->
  <g>
    <g id="_레이어_1" data-name="레이어_1">
      <path class="cls-2" d="M68.8,42.3c0-.7-.3-1-1.1-1-10.5,0-21.1,0-31.6,0-2,0-4.1,0-6.1,0-5.1,0-10.1,0-15.2,0-.6,0-.9,0-.8.7,0,.1,0,.2-.2.2v2.5c.3.1.2.4.2.6,0,1,0,2.1,0,3.1,0,.7.4,1.1,1.2,1.2,1.8.2,3.5.3,5.3.3,4.6.1,9.3,0,14-.1.6,0,1.2-.3,1.8,0,.2,0,.4,0,.4.3,0,.6.2,1.2.2,1.8,0,1.8,0,3.6.1,5.4.2,2,.2,4.1.2,6.1,0,2,0,4.1,0,6.1,0,1,.2,1.2,1.2,1.1,2.4,0,4.8,0,7.2,0,.5,0,.6-.2.5-.6,0-.5-.2-1-.2-1.5,0-5.9,0-11.8.2-17.7,0-.6.2-.9.9-.8,1,0,2.1,0,3.1,0,4.3,0,8.7,0,13-.5,1.6-.1,3.3,0,5,0,1.2,0,1.3,0,1.2-1.3-.1-2-.3-4-.3-6ZM354.1,63.2c-.1-3.1-.1-6.2-.2-9.3,0-2.8,0-5.5.1-8.3,0-4,0-8,0-11.9,0-2,0-4,0-6,0-7.2,0-14.4,0-21.6,0-.8-.3-1.1-1-1.1-1.7,0-3.4,0-5.1,0-1.3,0-1.4,0-1.4,1.4,0,2.4-.2,4.8-.3,7.2-.1,2.4-.3,4.8-.2,7.2,0,1.8,0,3.5,0,5.3,0,.7-.3,1-1,.9-1.7,0-3.4.1-5.2,0-.7,0-1,.3-1,1,0,1.7,0,3.3,0,5,0,1.1.3,1.3,1.4,1.4,1.7.2,3.3.1,5,.1.4,0,.7.1.6.5-.2,1.1,0,2.2,0,3.2,0,3.5,0,7.1-.2,10.6,0,.3,0,.6,0,1-.6-.3-1.1-.6-1.5-1-1.6-1.6-3.2-3.3-4.5-5.2-3.2-4.7-5.1-9.8-5.3-15.5,0-1.1,0-2.2-.2-3.3-.2-1.8-.3-3.6-.4-5.5,0-.5.2-.7.8-.8,2-.2,4.1,0,6.1-.3,1.1-.1,1.7-.5,1.7-1.4,0-1.8,0-3.5,0-5.3,0-.7-.4-1.1-1.1-1.2-1.3-.1-2.6-.2-3.8-.3-6.7-.2-13.4-.2-20.1,0-.7,0-1.1.2-1.1,1,0,2.2.2,4.4-.1,6.6,0,.3,0,.6.4.6.8,0,1.5.1,2.3.1,2,0,3.9,0,5.9,0,.7,0,.8.2.8.8,0,2.6,0,5.3-.2,7.9,0,1.2-.2,2.4-.5,3.6-.8,3.6-1.9,7.1-3.5,10.4-1.1,2.5-2.6,4.8-4.4,6.9-.8,1-1.9,1.8-2.6,2.9-.3.4-.5.9,0,1.4,1.3,1.6,2.8,3.2,4.5,4.4.8.5,1.2.5,1.9-.2.7-.8,1.3-1.6,1.9-2.4,1.4-1.9,2.4-4.1,3.7-6.1.9-1.4,1.7-2.9,1.9-4.6.1-.8.3-1.6.5-2.6.4.5.7.8.9,1.2,1.7,2.4,2.6,5.2,4.4,7.6,1.3,1.8,2.5,3.6,4.1,5.2,1.1,1.2,2,1.1,3.2-.1,1.3-1.4,2.2-3.4,4.5-3.6.1,1.1.3,2.2.3,3.3,0,3.7.3,7.4.2,11,0,.3.1.6.2.9,0,.4.2.5.6.6,2,.2,4,.2,6,0,.9,0,1.1-.5,1-1.3,0-1,0-2-.1-2.9ZM200.5,39.5c0,.6.1,1.1.1,1.7,0,2.5-.4,3,2.5,3,6.4,0,12.8,0,19.2,0,0,0,0,0,0-.1h6.2c4.2,0,8.4,0,12.6,0,.6,0,1.1,0,1.7-.1.5-.1.7-.4.7-.9,0-2,.3-3.9.2-5.9,0-2-.1-4,0-6,.1-4,0-8,.1-12,.1-3.3,0-6.6,0-9.8,0-.5-.2-.7-.7-.7-1.1,0-2.2,0-3.4-.2-1.5-.1-3,.3-4.4.1-.8,0-.9.2-.9.9,0,2.5,0,5.1,0,7.6,0,.6.3,1.3,0,1.7-.4.6-1.1,0-1.7,0-4.5,0-9,.2-13.6.2-3.1,0-6.2,0-9.3,0-.4,0-.7,0-.7-.6.3-3,0-6.1.2-9.1,0-.5-.1-.8-.7-.8-2.4.1-4.9-.2-7.3-.2-.8,0-1,.2-1,1,0,4,0,8,.2,12,.1,6,0,12,0,17.9ZM209.8,27.6c0-.7.3-.7.9-.7,6.7,0,13.4.1,20.1.1,1,0,2.1,0,3.1,0,.5,0,.8,0,.7.7-.3,2.6-.1,5.2-.2,7.9,0,.4-.2.5-.5.5-4,0-8,0-12,0h0c-3.9,0-7.8,0-11.6,0-.6,0-.8-.2-.8-.8.1-2.5.2-5.1.3-7.6ZM21.2,34.5c0,.3-.1.7.4.7,1.3,0,2.7.3,4,.3,4.7,0,9.5,0,14.2,0,7.2,0,14.5.4,21.7,0,.5,0,1,0,1-.7,0-2.3,0-4.6,0-6.9,0-.4-.1-.6-.6-.6-.7,0-1.5-.1-2.2-.2-3.9-.1-7.8,0-11.6,0-5.8,0-11.5,0-17.3.1-.4,0-.6,0-.6-.5,0-3.6.2-7.2.2-10.8,0-.5.2-.8.8-.7,1.6.1,3.1.2,4.7.2,7.2,0,14.5,0,21.7,0,1.4,0,2.8-.2,4.2-.3.4,0,.4-.2.4-.5,0-2.2,0-4.4,0-6.5,0-.7-.3-1.1-1-1.1-.9,0-1.8-.2-2.7-.2-5.9,0-11.8,0-17.8,0h0c-6,0-12,0-17.9,0-1.7,0-1.8,0-1.9,1.9,0,.1,0,.2,0,.3,0,5.9,0,11.9.2,17.8,0,2.5,0,5,.2,7.5ZM287.5,45.4c-1.7,0-3.3.4-5,.5-2.2,0-4.3.4-6.4.5-3,.1-5.9.2-8.9.4-1.2,0-1.2,0-1.2-1.2,0-7.3,0-14.6.2-22,0-1.6,0-3.2,0-4.9,0-.5,0-.7.6-.7,5,0,10,0,15,0,.9,0,1.8-.2,2.8,0,1,.2,1.1,0,1-1.1-.2-1.9-.3-3.8-.3-5.7,0-1.5-.1-1.6-1.6-1.6-5,0-10,0-15,0-3.4,0-6.8,0-10.1.3-.5,0-.8.2-.8.7,0,2.1-.2,4.3-.3,6.4,0,2.5,0,5.1,0,7.6,0,2.8,0,5.6.1,8.4.2,3.4.1,6.8.2,10.1,0,3,.2,6.1.2,9.1,0,.5.2,1,.2,1.5,0,.4.3.6.7.6,1.6.1,3.2,0,4.8,0,3.2,0,6.3-.3,9.4-.4,1.8,0,3.6-.2,5.4-.3,2.7-.3,5.5-.5,8.2-.7,1.2,0,1.7-.6,1.7-1.8,0-1.8,0-3.6,0-5.4,0-.6-.1-.7-.7-.7ZM305,4.4c-.9,0-1.7.2-2.5.2-1.7,0-3.4-.2-5.1-.2-.7,0-.8.2-.8.8,0,3.5,0,7,0,10.5h0c0,3.5,0,7,0,10.6,0,.7-.3.9-.9.7-.5-.1-1-.1-1.5-.1-1.5-.1-3,.2-4.4.2-2.2,0-4.4-.2-6.6-.2-.7,0-.9.3-1,.9,0,2.1,0,4.1,0,6.2,0,.5.3.9.8.8.9,0,1.7.2,2.6.2,3.3,0,6.7,0,10,0,.7,0,.8.2.8.8,0,3.7,0,7.4.1,11.1.1,4.4,0,8.8.2,13.1.1,3.1,0,6.3,0,9.4,0,1,.2,1.1,1.1,1.1,2.3,0,4.5,0,6.8-.1.6,0,.8-.3.9-.9,0-.9-.2-1.7-.2-2.6,0-7-.2-14.1.1-21.1.1-2.6,0-5.3.1-7.9.2-3,.1-6,.1-9,0-7.9,0-15.9,0-23.8,0-.6-.3-.8-.8-.8ZM440.5,42.8c.4.4.8.5,1.4.4,2.7-.7,5.1-1.9,7.6-3.2,2.4-1.2,4.5-2.7,6.4-4.6,2.2-2.2,4.1-4.7,5.6-7.5.2-.3.2-.9.6-.9.5,0,.6.6.8,1,.7,1.1,1.2,2.3,2.1,3.3,1.6,1.9,3.4,3.6,5.3,5.3,1,.9,2.1,1.8,3.2,2.6,2.6,1.8,5.5,3,8.4,4.1,1.8.7,2.2.6,3.3-1.1,1.1-1.7,1.9-3.5,2.7-5.3.4-.9,0-1.6-.9-1.9-.4-.1-.7-.3-1.1-.3-1.9-.5-3.9-1-5.7-1.9-4.2-2-7.4-5.1-9.8-9-2.3-3.7-3.9-7.7-3.9-12.1,0-.8.2-1.5.3-2.3.1-.9,0-1.1-1-1.2-1.2,0-2.4,0-3.6,0h0c-1.1,0-2.2,0-3.3,0s-1.2,0-1.2,1.2c0,1.6,0,3.3-.2,4.9-.5,3.2-1.9,6.2-3.4,9.1-.9,1.8-2.3,3.3-3.6,4.9-1.9,2.1-4.1,3.7-6.5,5.2-1.9,1.2-4.1,1.4-6.3,1.7-.4,0-.8.1-.8.6,0,.4,0,.9,0,1.3.9,2,1.8,4,3.3,5.7ZM184.4,4.3c-1.6,0-3.2.3-4.8.2-.9,0-1.7,0-2.6,0-.6,0-.9.2-.9.8,0,2.3-.1,4.7-.1,7,0,6-.1,12,.1,18.1.2,4.6,0,9.2,0,13.8,0,7.3,0,14.5.2,21.8,0,1.2,0,2.4,0,3.6,0,1.1,0,1.1,1.1,1.1,2.3,0,4.5,0,6.8,0,.7,0,.9-.4.9-1,0-9.2,0-18.3.1-27.5.2-12,0-24,.2-36,0-.2,0-.5,0-.7.2-1.1,0-1.2-1.1-1.2ZM412.6,44.3c0-.4-.2-.6-.6-.6-1,0-2,0-3,.2-2.9.7-5.9.7-8.8,1.1-1.4.2-2.7.2-4.1.4-2.9.5-5.8.6-8.7.8-.6,0-.8-.1-.7-.7,0-2.5.1-5,.1-7.5,0-4.4,0-8.8,0-13.1h0c0-4.4,0-8.8,0-13.2,0-1.1,0-1.1-1.2-1.1-1.9,0-3.8,0-5.7,0-1.8,0-1.6.3-1.7,1.6-.2,2.2-.1,4.5-.2,6.7,0,2.7-.2,5.4-.2,8.1,0,1.9,0,3.8.1,5.7.1,1.6-.1,3.2,0,4.8.2,2.5,0,5,.2,7.5.1,2.6.1,5.2.2,7.8,0,0,0,.2,0,.2,0,1,.3,1.3,1.3,1.3,3,0,6.1.1,9.1-.1,2.3-.2,4.6-.4,6.9-.5,2-.1,3.9-.3,5.9-.5,3.2-.3,6.3-1,9.5-1,1.2,0,1.5-.5,1.6-1.7,0-2-.3-4-.2-6ZM425.2,7.6c0-.8,0-1.6.2-2.4.1-.6-.1-.9-.8-.9-1,0-2,.2-2.9.1-1.3-.1-2.6,0-3.9-.1-.6,0-.7.1-.8.7-.1,1.7.1,3.4,0,5.1-.2,8.6,0,17.2-.2,25.8-.1,7.9-.2,15.7.1,23.6,0,1.4,0,2.9,0,4.3h0c0,2,0,4,0,5.9,0,.7.2.8.9.8,2.1,0,4.2-.1,6.3,0,1.2.1,1.4-.2,1.1-1.4,0-.3,0-.6,0-.9-.1-4.5.2-9,.2-13.5-.1-15.8.4-31.6-.3-47.4ZM366.3,4.4c-2.4,0-4.9,0-7.3,0-.3,0-.5,0-.5.4,0,.7-.2,1.5-.2,2.2,0,6.4,0,12.9,0,19.3,0,9.6-.2,19.1.1,28.7,0,2.7,0,5.4.1,8.2.1,1.9,0,3.9,0,5.8,0,1.1.3,1.4,1.3,1.4,1.8,0,3.7,0,5.5,0,.6,0,1.1-.2,1.1-1.1,0-2.6,0-5.1,0-7.7,0-2.4,0-4.9,0-7.3,0-8.1,0-16.3,0-24.4h0c0-2.9,0-5.7,0-8.6,0-5.3,0-10.6,0-16,0-.3.2-.8-.5-.8ZM148.6,34.2c2.6.8,5.3.8,7.9.6,1.1,0,2.2-.3,3.3-.6,3.7-1.2,6.4-3.6,8.1-7.2.8-1.8,1.3-3.8,1.3-5.8,0-1.1-.2-2.2-.3-3.3-.3-3.4-1.9-5.9-4.6-7.8-3.1-2.2-6.6-3.2-11.1-3.1-.6,0-1.9,0-3.1.3-2.3.4-4.4,1.5-6.4,2.7-.9.5-1.8,1.3-2.3,2.2-1.5,2.4-2.4,5-2.7,7.9-.3,3.1.2,6,2.2,8.6,2,2.7,4.6,4.6,7.8,5.6ZM148.2,16.7c1.7-1.6,3.6-2.5,5.9-2.6,2.7,0,4.8,1.2,6.4,3.3,3.1,4,.3,9.5-4.3,10.1-.7.1-1.4.1-2,.2-3.1,0-5.4-1.1-6.9-3.8-1-1.8-1.1-5.4,1-7.3ZM91.8,31.2c.2-.4.3-.4.6,0,2.5,3.3,5.3,6.4,8.4,9.1,1.1,1,2.3,2,3.6,2.6.6.3,1.1.3,1.6-.2,1.5-1.5,2.5-3.4,3.4-5.3.4-.9.2-1.4-.6-1.9-.7-.5-1.5-.8-2.2-1.4-3.9-2.9-6.7-6.6-8.6-11-1.3-3-1.6-6.1-1.7-9.3,0-1.4,0-2.9.2-4.4,0-.6-.2-.9-.8-.9-1.6,0-3.1-.3-4.4-.2-1,0-1.7,0-2.4,0-.6,0-.8.2-.8.8,0,2.9.1,5.8-.1,8.7,0,1.1-.2,2.1-.4,3.1-.3,1.6-1.1,3-1.8,4.4-1.1,2.2-2.1,4.4-3.8,6.2-2,2-3.9,4.1-6.6,5.1-.8.3-1,.8-.9,1.5,0,.4,0,.8.2,1.1.7,1.8,2,3.3,3.5,4.6.7.6,1.6.6,2.4.1,2-1.2,3.8-2.6,5.5-4.3,2.5-2.5,4.6-5.2,6-8.5ZM129.4,22.9c-2,0-4.1,0-6.1.2-1.3,0-1.3,0-1.3-1.3,0-5.6,0-11.3.3-16.9,0-.6-.1-.8-.8-.8-2.5,0-5,.3-7.6.2-1,0-1.2.2-1.3,1.2,0,.8.2,1.6.2,2.4,0,1.7,0,3.3-.1,5-.1,2.4.1,4.8,0,7.2,0,1.4,0,2.7,0,4.1.2,3.4,0,6.8.2,10.1.2,5.8.1,11.6.2,17.4,0,0,0,.1,0,.2,0,.7.2,1,.9.9,1,0,1.9,0,2.9-.1,1.3,0,2.6,0,3.9-.2.7-.1,1.2-.4,1.1-1.2-.1-1.8-.3-3.6-.3-5.4,0-2.3,0-4.7,0-7h0c0-2.4,0-4.8,0-7.3,0-.4-.1-.7.6-.7,2.4,0,4.7,0,7.1.1.6,0,.8-.2.8-.8,0-2.2-.1-4.3.1-6.5,0-.6-.2-.8-.8-.8ZM171.3,37.5c-2.2,0-4.4.4-6.6.5-2.4,0-4.8.2-7.1.3-2.2,0-4.3.2-6.5.2-3.1,0-6.2,0-9.2.2-.2,0-.4,0-.6,0-1,.1-2.1.1-3.1.2-.7,0-1.5,0-2.2,0-.4,0-.6.1-.6.6,0,2.1,0,4.1.3,6.2.1,1,.6,1.2,1.4,1.2,2,0,3.9,0,5.9,0,2,0,3.9,0,5.9,0,.5,0,.8.1.8.7,0,2.2,0,4.4.1,6.6,0,4.4,0,8.8.2,13.2,0,1.1.2,1.3,1.4,1.3,2,0,4,0,6,0,1.3,0,1.3,0,1.3-1.3,0-4.6,0-9.3,0-13.9,0-2.4,0-4.8.2-7.2,0-.3,0-.6.4-.6,2.4,0,4.7-.3,7.1-.5,1.8-.1,3.5-.2,5.2-.7.6-.2,1.1-.5,1.4-1.3.4-1.1,0-2.3.3-3.4.4-1.9-.3-2.2-1.9-2.2ZM249.2,55.2c0-.4,0-.6-.5-.7-1,0-2-.2-3-.2-2,0-4,0-5.9,0-5.6-.1-11.2,0-16.8,0-5.7,0-11.4,0-17.1.3-1.6,0-3.2,0-4.8,0h0c-1.7,0-3.4,0-5.1,0-.5,0-1,0-1,.7,0,2.3,0,4.6,0,6.9,0,.4.2.6.7.6,1.6,0,3.2.1,4.8.1,13.1.1,26.2-.2,39.3.2,3.1,0,6.2,0,9.3-.1.5,0,.7-.3.6-.7-.2-1.5-.3-3-.3-4.5,0-.9,0-1.7,0-2.6ZM122.1,61.1c-8.2,0-16.4.1-24.5.2-1.7,0-3.4,0-5,0-.4,0-.5-.2-.5-.5,0-.8,0-1.5,0-2.3,0-3.2-.2-6.4-.3-9.6,0-1.1,0-1.1-1.1-1.1-2.2,0-4.3.3-6.5.1-.7,0-.9.3-1,.8,0,.2,0,.5,0,.7,0,6.3,0,12.5.2,18.8,0,1.4,0,1.5,1.5,1.5,3.6,0,7.3,0,10.9,0,3.5,0,7,0,10.5,0,5.7,0,11.3,0,17-.4.6,0,.7-.2.7-.7,0-2.1-.2-4.3-.3-6.4,0-1.3,0-1.3-1.3-1.3ZM489,54.4c-.2,0-.4,0-.6,0-13.7,0-27.5,0-41.2.1-3.2,0-6.4,0-9.6,0-.6,0-1.2.2-1.8.2-.3,0-.3.1-.3.4.2,2.1-.4,4.2,0,6.3,0,.6.4.8.9.9.5,0,1,.2,1.5.1,1.6-.2,3.3,0,4.9,0,2.9.1,5.8,0,8.8.1,5.6,0,11.2.2,16.8,0,3.1-.1,6.2,0,9.7,0,3.4,0,7.2.1,11-.2.7,0,1-.2,1.1-1,.1-1.9,0-3.9.1-5.8,0-.9-.3-1-1-1ZM759,0h-245.8C507.9,0,503.6,4.3,503.6,9.6v56c0,5.3,4.3,9.6,9.6,9.6h245.8c5.3,0,9.6-4.3,9.6-9.6V9.6C768.6,4.3,764.3,0,759,0ZM641.9,20.8c0-.6.5-.6.8-.5,2,.4,4,.3,6,.5.6,0,.8-.1.9-.8.3-2.9,0-5.8.1-8.7,0-.5,0-.7.7-.7,1.7,0,3.3.3,5,.2.6,0,.9.2.8.9-.2,4.3,0,8.6.1,12.9.1,4.4,0,8.8.1,13.2,0,.7-.2,1-.9.9-2-.3-4.1,0-6.2-.3-.6,0-.5-.4-.5-.7,0-2.5.2-4.9.1-7,0-1.7,0-3,0-4.4,0-.4,0-.6-.6-.7-1.8-.3-3.5-.1-5.3-.1-.6,0-.9-.2-1.1-.7-.4-1.3-.4-2.6-.3-3.9ZM574.3,20.5c0-2,0-3.9,0-5.9,0-.3-.2-.6.4-.6,4.8.3,9.5.2,14.3.5,4.7,0,9.4,0,14.1,0,.9,0,1.9-.1,2.8-.1.6,0,.8.2.8.8,0,1.3,0,2.6,0,4,0,.6-.2.6-.7.6-7.5-.4-15-.1-22.5-.1-.8,0-1.6,0-2.4,0-.4,0-.6.2-.6.6,0,1.7,0,3.4,0,5,0,.3.2.5.5.5,2.6.2,5.1.4,7.7.5,3.9.2,7.9.1,11.8,0,1.5,0,3.1-.1,4.6-.2.5,0,.7,0,.7.6,0,1.5,0,3,0,4.5,0,.5-.1.6-.6.6-7.9-.2-15.8,0-23.6-.1-.8,0-1,.2-1.1,1,0,1.3-.1,2.6-.2,3.9,0,1.6.3,1.9,1.9,2,1.8,0,3.5.2,5.3.2,6,0,12,0,17.9,0q1.5,0,1.6,1.5c0,.9,0,1.9,0,2.8,0,.7-.2.9-.9.9-3.7,0-7.4,0-11.2,0-5.6,0-11.1,0-16.7.1-1.2,0-2.4,0-3.5.2-.4,0-.6,0-.6-.5-.1-7.8-.2-15.5,0-23.3ZM555.7,34.5c0-2,0-4,.1-6,0-3.7,0-7.4,0-11.1,0-1.8,0-3.6.1-5.4,0-1,.2-1.1,1.2-1.1,1.3,0,2.6,0,3.9,0,.5,0,.8,0,.8.8,0,4.1,0,8.3,0,12.4h0c0,3.7,0,7.5,0,11.2,0,4.8,0,9.6,0,14.4,0,.6-.3.7-.7.6-1.6-.2-3.2-.1-4.8-.1-.4,0-.5-.2-.6-.5,0-.1,0-.2,0-.3-.2-5-.3-10.1-.1-15.1ZM540.3,24.3q.1-1.4,1.5-1.4c1,0,2,.1,2.9.3,1.1.2,1.6-.3,1.6-1.4,0-1,0-1.9,0-3.2,0-1.9,0-4.2-.3-6.4,0-.6,0-.9.9-.8,1.2.2,2.4.2,3.6.2.1,0,.3,0,.4,0,1.1,0,1.4.3,1.2,1.3-.4,1.7-.2,3.4-.3,5.1-.4,7.5-.1,15-.1,22.4,0,1.6,0,3.1,0,4.7,0,1.3-.3,2.5-.1,3.8,0,.4-.1.4-.4.4-1.5,0-3,0-4.5,0-.5,0-.4-.2-.4-.6.1-.9.3-1.7.3-2.6,0-5.3,0-10.7,0-16,0-.9-.4-1.2-1.2-1.3-.9-.1-1.9-.3-2.8-.6-1.7-.7-2.4-1.8-2.3-3.7ZM528.2,40.8c-.7.4-1.4.8-2.2,1.2-1.1.5-2.2.6-3.2-.3-.9-.8-1.6-1.9-1.3-3.2,0-.5.5-.7.8-1,1.3-1.2,2.5-2.4,3.4-3.9,2.3-3.4,3.7-7.1,4.1-11.2.3-2.5.3-4.9.3-7.4,0-.7.2-1,1-1,1.5-.1,3,.1,4.5,0,.6,0,.7.2.7.8,0,1,0,2,0,3.5,0,1.9.2,4.3.3,6.7.2,3.1,1.6,5.7,3.4,8.1.9,1.2,1.9,2.5,2.9,3.7.5.6.7,1.2,0,1.9-.4.5-.6,1.2-.9,1.8-.7,1.4-2.1,1.7-3.3.7-1.2-1-2-2.3-2.7-3.6-.6-.9-1-1.9-1.4-2.9-.2-.4-.2-1-.8-.9-.7,0-1.3.1-1.6.9-.3.7-.5,1.4-.7,2.2-.5,1.8-1.7,3.1-3.2,4ZM562.6,63.1c-1.9,0-3.7,0-5.6,0-6.2.2-12.4.2-18.6.2-2.6,0-5.1-.1-7.7,0-.5,0-.7,0-.6-.7.1-1,0-2.1,0-3.1,0-4,.3-8,.2-12,0-1,0-1.1,1.1-1,1.6.2,3.3.1,4.9.1.6,0,.9.3.8.9-.4,2.6.4,5.2.2,7.8,0,.4.1.9.2,1.4,0,.5.5.7,1,.7,2.6.3,5.2,0,7.8.2,3.1.2,6.2,0,9.3.2,2.3.1,4.5.2,6.8.3.7,0,.9.3.8.9,0,1.2,0,2.4,0,3.6,0,.6-.2.7-.7.7ZM611.5,58.1c-.8,0-1.6-.1-2.5-.1-4.8,0-9.7,0-14.5.1-6.2,0-12.4,0-18.6,0-1.6,0-3.1-.2-4.7-.1-.5,0-1,0-1.6.1-.4,0-.5,0-.5-.5,0-1.6,0-3.2,0-4.8,0-.5.3-.5.6-.5,1.3,0,2.7,0,4,0,3.4,0,6.7,0,10.1,0h0c4.5,0,9.1,0,13.6,0,2.2,0,4.5,0,6.7-.1,2-.2,4,0,5.9-.3.2,0,.4,0,.7,0,.7,0,1,.2.9.9,0,1.5,0,3.1.2,4.6,0,.5-.1.6-.5.6ZM618.3,36.3c0-4.2,0-8.3,0-12.5,0-.8.2-1.1,1.1-1.1,1.8,0,3.6,0,5.3-.1,2.2-.2,4.3,0,6.5-.2,1,0,1.3-.3,1.3-1.3,0-.2,0-.5,0-.7,0-1.6,0-1.7-1.6-1.8-3.1-.3-6.2,0-9.3-.2-.9,0-1.8.2-2.7.2-.4,0-.5,0-.5-.4,0-1.6,0-3.2,0-4.8,0-.5.3-.4.5-.3,2.4,0,4.8.1,7.2.2,3.9,0,7.8,0,11.7-.1.4,0,.8,0,1.2,0-.4,2.7-.2,5.3-.3,8,0,1.9.2,3.7,0,5.6,0,.5-.2.7-.7.7-.6,0-1.3,0-1.9,0-3.2,0-6.4,0-9.7,0q-1.5,0-1.6,1.6c0,2.2,0,2.2,2.1,2.2,3.3,0,6.7,0,10,0,1.6,0,3.1,0,4.7-.3,1.2-.2,1.4,0,1.4,1.2,0,1-.2,2.1-.2,3.1,0,.9-.4,1.2-1.3,1.2-3.3,0-6.7.5-10,.5-1.2,0-2.5.1-3.7.1-3,0-5.9.3-8.9.2-.6,0-.7-.2-.7-.7ZM656.5,63.7c-2.9-.2-5.8,0-8.7,0-2.3,0-4.6,0-6.9,0v.2c-5,0-9.9,0-14.9,0-.6,0-1.3.4-1.6,0-.3-.4,0-1.1,0-1.7,0-3.7,0-7.5,0-11.2,0-.6.1-.8.8-.8,5.4.2,10.9,0,16.3.2,2.4,0,4.8,0,7.2,0,.5,0,.6-.1.7-.6,0-1,0-2-.1-3,0-.3-.2-.3-.4-.3-.7,0-1.3-.2-2-.2-4.6,0-9.2,0-13.8,0-2.8,0-5.5.3-8.3.2-.6,0-.7-.2-.7-.7,0-1.3,0-2.6.1-3.9,0-.8.4-.9,1.2-.8,2.2.3,4.5.2,6.7.2,3.2,0,6.5.1,9.7.1,3.2,0,6.3,0,9.5-.1,1.3,0,2.7,0,4-.1.5,0,.8.1.7.7-.4,4.1,0,8.2-.1,12.3,0,.6,0,.9-.7.8-.2,0-.5,0-.8,0-7.1.2-14.2.2-21.3.2-1.6,0-1.8.3-1.7,1.9.1,1.6.2,1.6,1.8,1.7.2,0,.5,0,.7,0,7.4.1,14.8.2,22.2.2,1.1,0,1.2,0,1.2,1.3,0,.9,0,1.9,0,2.8,0,.6-.1.9-.8.8ZM692.9,47.8c-.4,1.1-.7,2.3-1.6,3.2-1.1,1.2-2,1.1-3.3.3-1.3-.8-2.1-2-3-3.1-1.3-1.8-2.8-3.4-3.9-5.4-.5-.9-1-1.9-1.3-2.9-.1-.5-.4-.7-.9-.7-.5,0-.8,0-1,.6-.8,2.2-1.6,4.3-2.9,6.2-1.8,2.7-3.8,5.2-6.6,7.1-.7.5-1.1,0-1.4-.4-1.2-1.1-2.2-2.5-3.2-3.9-.6-.8-.4-1.3.4-1.9,1-.7,2.1-1.3,3-2.1,1.5-1.2,2.4-2.8,3.4-4.5,1.2-2.1,1.9-4.4,2.6-6.7.9-2.9,1.2-5.9,1.5-8.8.4-3.3.7-6.7.6-10.1,0-.4,0-.5.5-.5.3,0,.7,0,1,0,0,0,0,.1,0,.2,1.4,0,2.7,0,4.1,0,.7,0,1,.2,1,1,0,3.2.2,6.4.6,9.6.4,3.1.9,6.2,1.9,9.1.8,2.4,1.8,4.7,3.1,6.7,1.2,1.8,2.7,3.2,4.5,4.4,1.1.8,1.3,1.2.9,2.5ZM702.5,64.3c-2,0-4.1,0-6.1.2-.4,0-.3-.2-.3-.4,0-.8,0-1.7,0-2.5,0-5.9,0-11.8,0-17.7.2-6.3.4-12.5.3-17.2,0-5.3,0-9,0-12.8,0-.9,0-1.8,0-2.7,0-.4,0-.7.6-.7,1.8.1,3.5,0,5.3.2.4,0,.5.2.5.6,0,5.2,0,10.5,0,15.7,0,10.8,0,21.5,0,32.3,0,1.4.1,2.8.1,4.3,0,.5-.1.6-.6.7ZM739.7,46c0,1.5,0,3.1,0,4.6,0,.4-.1.5-.5.5-3,0-5.9,0-8.9.2-5.2.2-10.3.5-15.5.8-.8,0-.7-.4-.7-.8,0-4.1,0-8.3,0-12.4,0-8,0-16,0-24,3.2,0,6.6.1,10,.2,3.3,0,6.7,0,10,.1,1,0,2,0,2.9,0,.5,0,.6,0,.7.6.2,1.5,0,3,.2,4.4,0,.5,0,.7-.6.6-3.1-.2-6.3,0-9.4,0-2.2,0-4.3.2-6.5.2-.5,0-.7.2-.7.6,0,2.6,0,5.2.1,7.8,0,.5.2.7.8.8,4.4.1,8.8-.1,13.1-.2.6,0,.9,0,.7.8-.2,1.4-.2,2.8-.2,4.2,0,.4-.1.6-.5.6-4.5-.3-9,.2-13.5,0-.5,0-.4.2-.4.5-.2,1.5-.1,3,0,4.5,0,1.5,0,2.9,0,4.4,0,.6.2.8.8.8,1.5,0,3.1.1,4.6,0,2.6-.2,5.2-.3,7.8-.6,1.5-.2,3-.3,4.6-.4,1.1,0,1.2,0,1.1,1.1ZM749.8,64.3c-1.8.1-3.6.3-5.4.3-.5,0-.6-.1-.6-.6,0-3.1,0-6.2,0-9.3,0-4.4,0-8.9,0-13.3,0-9.5,0-19.1,0-28.6,0-2.1-.2-1.9,1.8-1.8,1.3,0,2.7,0,4.1,0,.6,0,.9.1.9.8.2,7,.1,13.9.2,22.9,0,3.3,0,8.6,0,13.9,0,3.2,0,6.3.1,9.5,0,1.7,0,3.4,0,5.1,0,.7-.3.9-.9,1Z"/>
      <rect class="cls-1" width="768.6" height="75.2"/>
    </g>
  </g>
</svg>