<svg xmlns="http://www.w3.org/2000/svg" xml:space="preserve" width="1000px" height="370.922px" x="0px" y="0px" viewBox="0 0 1000 370.922"><path fill="#E60012" d="M382.253 113.484c-.994-4.617-2.327-17.657-3.445-21.311-1.089-3.494-2.095-9.073-7.974-12.957-11.128-7.219-42.642-1.569-74.441-3.182-31.704-1.645-74.05-10.662-97.96-17.963-1.396-.466-2.751-.593-3.887-.503-5.047 13.212-10.491 26.91-15.648 39.745-.058.409-.336.995-.596 1.429 3.014 4.386 7.393 6.223 9.606 7.281 13.835 6.435 47.284 18.365 76.558 24.85 8.184 1.958 16.87 3.507 25.496 4.878.469.057 1.006.203 1.563.286-.134-.083 4.182.695 4.182.695 6.396.752 13.118 1.448 20.327 2.13h.122l.326.032c2.048.026 9.691 1.02 17.608 1.869.393.038.996.076 1.412.186h.107c7.773.809 14.381 1.529 16.948 1.619 12.964.618 25.837-.644 29.695-10.93 1.936-5.349.613-14.895.001-18.154z"/><path fill="#F8B500" d="M94.197 180.413c3.353 3.029 8.755 8.744 14.741 15.361 2.924-1.109 7.443-3.634 11.773-7.804 8.718-8.774 37.525-48.686 47.992-69.066 5.434-10.674 8.277-16.662 9.184-19.034.146-.351.319-.759.415-1.128.259-.434.538-1.021.596-1.429 5.157-12.835 10.601-26.533 15.648-39.745.024-.261.161-.529.343-.874 4.377-11.663 8.503-23.095 11.805-33.311 0 0 3.088-11.491-.631-15.297C202.02 3.501 197.428.032 188.482 0c-6.519-.039-28.906 2.429-35.456 4.463-9.907 2.89-19.282 8.507-22.656 16.777l-.376 2.506c-8.222 48.799-38.621 106.15-54.568 137.702-.286.638-.697 1.294-.876 1.951 3.319 2.595 6.464 5.083 8.505 6.995 4.342 4.198 7.028 6.41 11.142 10.019z"/><path fill="#F08300" d="M141.121 233.264c-5.157-6.243-19.845-23.804-32.183-37.489-5.986-6.617-11.388-12.332-14.741-15.361-4.114-3.609-6.8-5.821-11.141-10.017-2.041-1.913-5.186-4.4-8.505-6.995-3.831-2.984-8.033-5.898-11.146-7.671-5.683-3.425-14.458-4.77-19.875-4.304-5.466.439-20.762 3.042-32.429 12.791-4.258 3.654-7.507 6.294-9.927 11.051-2.212 4.457-1.839 13.206 5.868 17.816 19.557 11.829 92.046 67.528 118.172 102.198.823 1.116 2.302 2.405 4.215 3.495 11.2-6.549 21.978-11.822 26.96-14.239 3.652-1.606 9.656-4.075 16.326-6.728-7.149-14.087-25.931-37.706-31.594-44.547z"/><path fill="#9F3247" d="M274.456 277.569a382.525 382.525 0 0 1-.563-20.195c-.881-.198-1.52-.301-2.148-.301-23.244-.445-58.876 8.13-71.308 11.211-7.142 1.875-18.156 5.776-27.72 9.526-6.67 2.652-12.674 5.121-16.326 6.728-4.983 2.417-15.76 7.69-26.96 14.239-8.154 4.813-16.34 10.292-22.666 15.731-10.793 9.297-13.708 11.835-13.445 20.417.121 2.372.667 5.07 1.717 8.284 0 0 3.25 9.328 6.116 13.766 2.814 4.579 7.517 13.946 26.106 13.946 2.8 0 6.174-1.135 11.558-4.52 5.425-3.426 46.13-33.599 54.479-38.108 8.555-4.394 16.936-8.965 23.113-11.504 9.528-3.996 44.568-13.562 52.641-14.8 4.249-.573 6.648-2.346 7.988-4.552-1.084-6.134-2.219-13.255-2.582-19.868z"/><path fill="#ABAC17" d="m350.781 301.589-.04-.102v-.07c-12.387-25.921-15.622-45.778-18.171-75.193-1.552-18.995 1.094-56.178 2.053-69.302.497-5.637 1.307-10.19.986-12.574-.139-1.442-.842-2.589-1.519-3.584-7.917-.849-15.56-1.843-17.608-1.869l-.326-.032h-.122c-7.209-.682-13.931-1.377-20.327-2.13 0 0-4.316-.778-4.182-.695-.558-.083-1.095-.229-1.563-.286-7.502 25.143-13.772 83.063-14.265 88.259-.471 5.235-1.805 22.599-1.958 27.502 0 1.919 0 3.904.153 5.861 0 7.077.245 14.48.563 20.195.364 6.612 1.499 13.733 2.583 19.869 1.553 7.914 3.064 14.418 3.75 16.432 1.307 3.916 3.718 11.191 6.584 15.272 5.642 8.282 20.467 10.586 32.691 6.88 9.565-2.972 18.953-8.749 23.491-13.856 3.714-4.176 7.366-10.03 8.063-14.175.098-1.728-.516-5.643-.836-6.402z"/><path fill="#1C1C1B" d="M994.325 147.439h-47.031v-3.978c14.615-3.59 25.611-13.219 25.611-25.934 0-5.784-2.403-11.357-6.28-15.929l14.137-.109c7.602 0 7.602-13.218 0-13.218H947.66l.219-8.934c0-1.499-1.489-3.017-3.018-3.017h-19.365c-4.114 0-4.365 2.805-1.563 5.573 1.09 1.167 1.996.452 2.188 4.119v2.129h-32.139c-7.557 0-7.557 13.276 0 13.276l12.754.102c-3.92 4.643-6.302 10.222-6.302 16.006 0 12.715 10.937 22.344 25.609 25.934v3.978h-45.596c-7.658 0-7.658 14.31 0 14.31h113.877c7.568.002 7.568-14.308.001-14.308zm-57.626-16.215c-8.468 0-14.835-5.222-14.835-13.696 0-8.436 6.367-15.221 14.835-15.221 8.563 0 14.734 6.785 14.734 15.221.001 8.473-6.17 13.696-14.734 13.696zM764.881 76.965h-19.599c-4.083 0-4.492 4.375-1.391 6.938 2.617 2.168 4.362 3.915 4.793 7.913.044.791.044 42.979 0 75.461h-17.612c-9.087 0-9.087 15.979 0 15.979h17.612v21.012c.196 5.266 4.963 7.958 9.698 7.958 4.726 0 9.648-2.692 9.648-7.958l-.099-124.282c.002-1.503-1.482-3.021-3.05-3.021zM974.271 168.853l-73.784-.019c-3.446 0-4.809 1.563-4.809 4.763l-.075 34.154c0 2.231 2.174 4.374 4.539 4.374h74.334c2.428 0 4.552-2.117 4.552-4.33l.063-34.198c0-3.169-1.377-4.744-4.82-4.744zm-14.565 30.436h-44.64v-16.701h44.64v16.701zM695.159 143.461c19.557 0 35.83-13.608 35.83-29.919 0-16.528-16.273-30.143-35.83-30.143-19.531 0-35.857 13.615-35.857 30.143 0 16.312 16.326 29.919 35.857 29.919zm0-46.875c8.805 0 14.869 7.403 14.869 16.956 0 9.482-6.064 16.885-14.869 16.885-8.647 0-14.827-7.403-14.827-16.885 0-9.553 6.18-16.956 14.827-16.956z"/><path fill="#1C1C1B" d="M734.77 149.48a5.274 5.274 0 0 0-2.152-.459H656.4c-7.04 0-7.563 12.351-1.543 14.099.684.288 1.402.479 2.201.479h28.115l.056 40.778c0 3.928 2.204 6.28 5.229 7.32 1.396.575 3.066.843 4.756.843 4.936 0 9.222-2.328 9.222-7.972l.039-40.97h28.765c7.097.001 7.55-12.282 1.53-14.118z"/><g fill="#1C1C1B"><path d="M453.831 89.839c-28.416 0-39.192 23.938-39.192 45.702v5.101c0 21.821 9.917 45.72 39.401 45.72 28.322 0 39.151-23.899 39.151-45.72l-.032-5.101c0-21.764-9.934-45.702-39.328-45.702zm.209 83.592c-15.803 0-18.418-17.446-18.418-32.762v-5.127c0-15.253 3.412-32.68 18.209-32.68 15.722 0 18.196 17.427 18.196 32.68l.146 5.101c0 15.297-3.448 32.788-18.133 32.788zM544.325 120.097h-13.231l-.064-40.269c0-1.493-1.446-3.004-2.955-3.004h-19.652c-4.086 0-4.606 3.239-1.312 6.932 3.183 3.704 4.696 6.842 4.696 12.166 0 4.228.073 108.147.073 108.147.174 5.364 4.942 7.997 9.681 7.997 4.678 0 9.621-2.633 9.621-7.997l-.044-68h13.188c9.106.001 9.106-15.972-.001-15.972z"/></g><g fill="#1C1C1B"><path d="M451.134 236.969c-23.718 0-40.181 21.105-40.181 51.497 0 32.119 15.78 52.85 40.259 52.85 24.419 0 40.034-20.348 40.034-52.007 0-31.749-15.839-52.34-40.112-52.34zm-.354 87.335c-13.613 0-22.019-13.642-22.019-35.297 0-20.856 8.643-34.351 22.019-34.351 14.06 0 22.673 13.182 22.673 34.652.001 21.354-8.713 34.996-22.673 34.996zM566.489 239.569v54.954c0 16.625-1.236 23.645-5.606 31.304-5.963 10.195-15.557 15.488-28.36 15.488-12.806 0-22.372-5.177-28.315-15.488-4.435-7.659-5.636-14.551-5.636-31.304v-54.954l17.761.102v57.378c0 9.394 1.142 15.037 3.608 19.149 2.799 4.482 7.652 7.262 12.582 7.262 5.396 0 10.553-3.29 13.267-8.589 2.031-3.825 2.93-9.411 2.93-17.822v-57.466l17.769-.014zM639.848 318.245c-3.246-19.972-6.153-24.059-19.003-26.45 5.054-1.187 7.308-1.978 9.785-3.418 6.654-4.094 10.468-11.797 10.468-21.323 0-17.657-12.17-27.484-33.593-27.484h-32.119v99.188s17.787 3.833 17.787-15.463v-23.146h12.295c10.005 0 14.044 3.915 15.923 15.577l1.563 10.151c0 15.438 20.639 12.881 20.639 12.881-.799-2.123-1.233-4.38-2.005-9.289l-1.74-11.224zm-32.914-34.682h-13.761v-27.216h14.332c10.99 0 16.133 4.105 16.133 13.016 0 8.939-6.173 14.2-16.704 14.2zM770.799 239.148c-23.477 0-39.734 20.897-39.734 50.962 0 31.788 15.604 52.303 39.861 52.303 24.138 0 39.615-20.106 39.615-51.504 0-31.375-15.703-51.761-39.742-51.761zm-.332 86.43c-13.467 0-21.806-13.492-21.806-34.918 0-20.661 8.561-34.007 21.806-34.007 13.931 0 22.477 13.027 22.477 34.256-.001 21.177-8.682 34.669-22.477 34.669zM706.304 241.737c0 1.818-.03 38.542-.03 38.542h-34.908v-38.573H653.78v98.175s17.578 3.808 17.578-16.54v-16.503h.008v-5.536h34.908v23.325c0 20.336 17.627 15.254 17.627 15.254v-98.144h-17.597zM846.533 241.195l19.302 74.364 18.847-74.364h26.732v98.195s-16.704 2.69-16.704-15.872c0-18.563.19-63.785.19-63.785l-20.521 79.721s.071-.063-3.386-.063h-11.727c-3.43 0-3.404-.063-3.404-.063l-20.724-79.014v63.55c0 20.514-16.694 15.527-16.694 15.527v-98.195h28.089zM968.506 322.907h-29.44V298.86l37.974.082v-16.719h-37.974V258.61h29.027c15.462 0 11.419-16.636 11.419-16.636h-58.047v98.168h59.387c0 .001 2.315-17.235-12.346-17.235z"/></g></svg>