<?xml version="1.0" encoding="utf-8"?>
<!-- Generator: Adobe Illustrator 27.9.6, SVG Export Plug-In . SVG Version: 9.03 Build 54986)  -->
<svg version="1.1" id="레이어_1" xmlns="http://www.w3.org/2000/svg" xmlns:xlink="http://www.w3.org/1999/xlink" x="0px"
	 y="0px" viewBox="0 0 488.17 180.31" style="enable-background:new 0 0 488.17 180.31;" xml:space="preserve">
<style type="text/css">
	.st0{fill:#000F3A;}
</style>
<g>
	<path class="st0" d="M63.3,38.4v5.04H30.51V30.29h6.14v-5.9c-3.89,0.19-7.58,0.24-10.9,0.24l-0.82-5.04
		c8.06-0.05,18.82-0.14,28.13-1.34l0.43,4.51c-3.46,0.58-7.01,0.96-10.56,1.25v8.35h-6.1v6.05H63.3z M28.21,9.41
		c0-4.7,4.51-7.92,10.99-7.92c6.43,0,10.99,3.22,10.99,7.92c0,4.7-4.56,7.87-10.99,7.87C32.72,17.28,28.21,14.11,28.21,9.41z
		 M34.16,9.41c0,2.16,2.06,3.26,5.04,3.26c2.93,0,4.99-1.1,4.99-3.26S42.13,6.1,39.2,6.1C36.22,6.1,34.16,7.25,34.16,9.41z
		 M56,25.68V0h6.34v33.51H56V30h-8.3v-4.32H56z"/>
	<path class="st0" d="M108.3,33.7v5.14H68.26V33.7H108.3z M104.22,26.11c-7.68-1.54-13.34-5.81-16.18-11.42
		c-2.83,5.62-8.45,9.94-16.13,11.42l-2.69-5.33c9.94-1.68,15.46-8.69,15.46-15.02V2.59h6.77v3.17c0,6.48,5.47,13.34,15.46,15.02
		L104.22,26.11z"/>
	<path class="st0" d="M151.53,21.94v4.99h-39.94v-4.99h16.75v-2.59h-11.81V0.77h30.43v4.7h-24.15v2.21h23.09v4.56h-23.09v2.35h24.48
		v4.75h-12.62v2.59H151.53z M140.35,28.51h6.29v15.17h-30.39V28.51h6.29v2.78h17.81V28.51z M140.35,36.05h-17.81v2.74h17.81V36.05z"
		/>
	<path class="st0" d="M178.99,25.3c-6.77,0-12-4.75-12-11.23c0-6.53,5.23-11.23,12-11.23c6.72,0,11.95,4.7,11.95,11.23
		C190.94,20.55,185.71,25.3,178.99,25.3z M179.27,38.4h23.76v5.04h-30.1V28.85h6.34V38.4z M178.99,19.83c3.26,0,5.81-2.16,5.81-5.76
		c0-3.6-2.54-5.76-5.81-5.76c-3.31,0-5.81,2.16-5.81,5.76C173.18,17.67,175.67,19.83,178.99,19.83z M207.31,12.67v5.18h-5.86v14.31
		h-6.34V0h6.34v12.67H207.31z"/>
	<path class="st0" d="M234.82,23.43c-4.99-1.49-8.4-4.51-10.37-8.4c-2.02,4.22-5.62,7.58-10.8,9.22l-3.07-4.99
		c7.39-2.3,10.56-7.92,10.56-13.34V1.63h6.43V5.9c0,5.33,3.12,10.51,10.27,12.58L234.82,23.43z M218.07,27.03h29.43v16.66h-29.43
		V27.03z M224.31,38.74h16.99v-6.77h-16.99V38.74z M247.49,0v24.96h-6.38V0H247.49z"/>
	<path class="st0" d="M293.1,22.8v4.94h-39.99V22.8h16.8v-2.74H258.1V1.15h30.43v4.8h-24.15v2.3h23.14v4.61h-23.14v2.4h24.48v4.8
		h-12.62v2.74H293.1z M288.39,36.96c0,4.7-5.62,7.25-15.36,7.25c-9.7,0-15.31-2.54-15.31-7.25c0-4.75,5.62-7.25,15.31-7.25
		C282.78,29.71,288.39,32.21,288.39,36.96z M282.01,36.96c0-1.82-2.83-2.59-8.98-2.59c-6.1,0-8.93,0.77-8.93,2.59
		s2.83,2.64,8.93,2.64C279.18,39.6,282.01,38.79,282.01,36.96z"/>
	<path class="st0" d="M321.62,8.88H295.6V3.89h9.79v-4.13h6.38v4.13h9.84V8.88z M308.61,26.55c-6.34,0-10.85-3.31-10.85-8.16
		c0-4.8,4.51-8.11,10.85-8.11c6.38,0,10.85,3.31,10.85,8.11C319.46,23.23,315,26.55,308.61,26.55z M300.93,29.52h29.47v14.74h-6.34
		v-9.65h-23.14V29.52z M308.61,21.75c2.83,0,4.8-1.1,4.8-3.36c0-2.21-1.97-3.31-4.8-3.31c-2.88,0-4.8,1.1-4.8,3.31
		C303.81,20.64,305.73,21.75,308.61,21.75z M336.26,16.61h-5.86V27.7h-6.34V0.05h6.34v11.33h5.86V16.61z"/>
	<path class="st0" d="M379.57,17.81v4.94h-39.94v-4.94H379.57z M343.61,8.16c0-4.85,5.9-7.54,15.99-7.54
		c10.13,0,16.03,2.69,16.03,7.54c0,4.9-5.9,7.54-16.03,7.54C349.51,15.7,343.61,13.06,343.61,8.16z M350.52,39.12h25.35v4.75h-31.63
		V32.26h24.24v-2.35h-24.29v-4.66h30.53v11.38h-24.19V39.12z M350.19,8.16c0,2.06,3.02,2.93,9.41,2.93c6.43,0,9.46-0.86,9.46-2.93
		c0-1.97-3.02-2.88-9.46-2.88C353.21,5.28,350.19,6.19,350.19,8.16z"/>
	<path class="st0" d="M412.21,26.35c-3.55,0.72-7.25,1.15-10.85,1.49v15.03h-6.34V28.23c-3.79,0.14-7.39,0.19-10.51,0.19l-0.72-5.18
		c7.73,0,18.67-0.1,28.03-1.49L412.21,26.35z M386.38,11.23c0-5.57,4.94-9.46,11.62-9.46c6.67,0,11.57,3.89,11.57,9.46
		c0,5.47-4.9,9.41-11.57,9.41C391.33,20.64,386.38,16.71,386.38,11.23z M392.48,11.23c0,2.69,2.3,4.22,5.52,4.22
		c3.26,0,5.52-1.54,5.52-4.22c0-2.78-2.26-4.32-5.52-4.32C394.78,6.91,392.48,8.45,392.48,11.23z M420.66,0v44.16h-6.34V0H420.66z"
		/>
	<path class="st0" d="M452.18,9.6h-26.02V4.66h9.79v-4.7h6.38v4.7h9.89L452.18,9.6z M439.17,28.23c-6.34,0-10.85-3.46-10.85-8.54
		c0-4.99,4.51-8.5,10.85-8.5s10.85,3.5,10.85,8.5C450.02,24.77,445.51,28.23,439.17,28.23z M438.79,38.4h23.76v5.04h-30.1V30.63
		h6.34V38.4z M439.17,23.43c2.78,0,4.8-1.3,4.8-3.74c0-2.4-2.02-3.7-4.8-3.7c-2.83,0-4.8,1.3-4.8,3.7
		C434.37,22.13,436.34,23.43,439.17,23.43z M466.83,13.49v5.23h-5.86v14.35h-6.34V0h6.34v13.49H466.83z"/>
	<path class="st0" d="M23.23,86.82c0,9.75-4.94,15.84-11.62,15.84C4.9,102.66,0,96.56,0,86.82c0-9.7,4.9-15.75,11.62-15.75
		C18.29,71.07,23.23,77.12,23.23,86.82z M17.14,86.82c0-6.53-2.26-10.03-5.52-10.03c-3.31,0-5.52,3.5-5.52,10.03
		c0,6.58,2.21,10.08,5.52,10.08C14.88,96.9,17.14,93.39,17.14,86.82z M40.8,89.89h-6.43v22.32h-6.34V68h6.34v16.66h6.43V89.89z"/>
	<path class="st0" d="M63.43,96.23c1.73-0.14,3.46-0.24,5.09-0.48l0.38,4.61c-8.98,1.58-19.01,1.78-26.55,1.78l-0.67-5.18
		c1.54,0,3.22,0,4.94,0V77.17h-3.79v-5.09h24.39v5.09h-3.79V96.23z M52.78,96.8c1.49-0.05,3.02-0.1,4.56-0.14V77.17h-4.56V96.8z
		 M83.31,89.94h-6.43v22.32h-6.34V68.05h6.34v16.66h6.43V89.94z"/>
	<path class="st0" d="M124.7,101.99v5.14H84.66v-5.14H124.7z M120.43,95.79H89.37V71.22h30.72v5.09H95.8v4.66h23.28v4.9H95.8v4.94
		h24.63V95.79z"/>
	<path class="st0" d="M163.29,93.11c-4.8-1.58-8.11-4.7-10.03-8.59c-1.92,4.46-5.42,8.07-10.56,9.79l-3.22-4.99
		c7.01-2.45,10.22-8.06,10.42-13.58h-8.69v-5.09h23.76v5.09h-8.59c0.19,5.04,3.26,10.22,9.98,12.43L163.29,93.11z M176.87,103.76
		c0,5.38-5.76,8.5-15.12,8.5c-9.41,0-15.17-3.12-15.17-8.5c0-5.38,5.76-8.5,15.17-8.5C171.11,95.27,176.87,98.39,176.87,103.76z
		 M170.54,103.76c0-2.5-3.02-3.7-8.78-3.7c-5.81,0-8.83,1.2-8.83,3.7s3.02,3.7,8.83,3.7C167.51,107.46,170.54,106.26,170.54,103.76z
		 M170.35,78.66V68h6.34v26.31h-6.34V83.79h-6.62v-5.14H170.35z"/>
	<path class="st0" d="M222.22,89.84v4.99h-16.27v7.54h-6.34v-7.54h-17.43v-4.99H222.22z M193.18,106.4h24.63v5.04h-30.96V98.63h6.34
		V106.4z M217.14,86.34h-30V69.87h30V86.34z M210.9,74.82h-17.52v6.53h17.52V74.82z"/>
	<path class="st0" d="M266.39,98.48H249.4v13.78h-6.34V98.48h-16.71v-5.04h40.04V98.48z M261.64,89.27h-30.72V69.68h6.29v5.04h18.19
		v-5.04h6.24V89.27z M255.4,79.66h-18.19v4.56h18.19V79.66z"/>
	<path class="st0" d="M277.74,97.19c5.95-0.05,10.8-0.29,16.22-1.15l0.58,5.09c-6.38,1.01-12.05,1.15-19.49,1.15h-3.6V71.7h20.45
		v5.09h-14.16v7.2h12.67v4.94h-12.67V97.19z M306.54,67.95v44.36h-6.34V88.64h-7.58v-5.09h7.58v-15.6H306.54z"/>
	<path class="st0" d="M350.51,76.88h-26.02v-4.99h9.79v-4.13h6.38v4.13h9.84V76.88z M337.5,94.55c-6.34,0-10.85-3.31-10.85-8.16
		c0-4.8,4.51-8.11,10.85-8.11c6.38,0,10.85,3.31,10.85,8.11C348.35,91.23,343.89,94.55,337.5,94.55z M329.82,97.52h29.47v14.74
		h-6.34v-9.65h-23.14V97.52z M337.5,89.75c2.83,0,4.8-1.1,4.8-3.36c0-2.21-1.97-3.31-4.8-3.31c-2.88,0-4.8,1.1-4.8,3.31
		C332.7,88.64,334.62,89.75,337.5,89.75z M365.15,84.61h-5.86V95.7h-6.34V68.05h6.34v11.33h5.86V84.61z"/>
	<path class="st0" d="M406.03,101.8v5.09H366v-5.09h8.4V87.83h6.24v13.97h4.7V87.83h6.19v13.97H406.03z M394.56,95.89
		c1.44-8.02,1.49-13.97,1.49-19.06h-26.16v-5.04h32.5v4.27c0,5.42,0,11.52-1.49,20.45L394.56,95.89z"/>
	<path class="st0" d="M422.85,72.51c0,12.19-1.1,21.7-8.98,30.43l-4.94-3.6c5.86-6.48,7.58-12.87,7.92-21.75h-5.95v-5.09H422.85z
		 M435.04,72.51c0,12.77-1.01,23.67-8.74,33.22l-4.99-3.5c5.86-7.39,7.44-14.79,7.78-24.63h-4.7v-5.09H435.04z M450.69,90.51h-5.71
		v21.65h-6.38V67.95h6.38v17.33h5.71V90.51z"/>
	<path class="st0" d="M468.63,79.9c0,7.2,3.55,14.83,10.95,17.91l-3.46,4.99c-5.14-2.21-8.64-6.53-10.61-11.86
		c-1.97,5.76-5.52,10.61-10.71,12.96l-3.6-5.04c7.39-3.31,10.99-11.42,10.99-18.96v-2.45h-9.22v-5.23h24.77v5.23h-9.12V79.9z
		 M488.17,68v44.21h-6.34V68H488.17z"/>
	<path class="st0" d="M88.33,158.8v4.94H48.34v-4.94h16.8v-2.74H53.34v-18.91h30.43v4.8H59.62v2.3h23.14v4.61H59.62v2.4h24.48v4.8
		H71.48v2.74H88.33z M83.63,172.96c0,4.7-5.62,7.25-15.36,7.25c-9.7,0-15.31-2.54-15.31-7.25c0-4.75,5.62-7.25,15.31-7.25
		C78.01,165.71,83.63,168.21,83.63,172.96z M77.24,172.96c0-1.82-2.83-2.59-8.98-2.59c-6.1,0-8.93,0.77-8.93,2.59
		s2.83,2.64,8.93,2.64C74.41,175.6,77.24,174.79,77.24,172.96z"/>
	<path class="st0" d="M116.86,144.88H90.84v-4.99h9.79v-4.13h6.38v4.13h9.84V144.88z M103.85,162.55c-6.34,0-10.85-3.31-10.85-8.16
		c0-4.8,4.51-8.11,10.85-8.11c6.38,0,10.85,3.31,10.85,8.11C114.7,159.23,110.23,162.55,103.85,162.55z M96.17,165.52h29.47v14.74
		h-6.34v-9.65H96.17V165.52z M103.85,157.75c2.83,0,4.8-1.1,4.8-3.36c0-2.21-1.97-3.31-4.8-3.31c-2.88,0-4.8,1.1-4.8,3.31
		C99.05,156.64,100.97,157.75,103.85,157.75z M131.5,152.61h-5.86v11.09h-6.34v-27.65h6.34v11.33h5.86V152.61z"/>
	<path class="st0" d="M173.42,156.98v4.99h-39.94v-4.99h8.98v-5.33c-3.17-1.44-4.99-3.65-4.99-6.48c0-5.28,6.24-8.5,15.99-8.5
		c9.79,0,16.03,3.22,16.03,8.5c0,2.88-1.87,5.09-5.14,6.53v5.28H173.42z M168.72,172.19c0,5.14-5.81,8.07-15.36,8.07
		s-15.31-2.93-15.31-8.07c0-5.14,5.76-8.02,15.31-8.02S168.72,167.06,168.72,172.19z M143.99,145.17c0,2.4,3.46,3.65,9.46,3.65
		c6.05,0,9.5-1.25,9.5-3.65c0-2.5-3.46-3.7-9.5-3.7C147.45,141.47,143.99,142.67,143.99,145.17z M162.28,172.19
		c0-2.26-3.02-3.22-8.93-3.22c-5.9,0-8.93,0.96-8.93,3.22c0,2.26,3.02,3.26,8.93,3.26C159.26,175.46,162.28,174.45,162.28,172.19z
		 M148.79,156.98h9.22v-3.65c-1.39,0.14-2.93,0.24-4.56,0.24c-1.68,0-3.22-0.1-4.66-0.29V156.98z"/>
	<path class="st0" d="M205.15,145.79c0,8.54,3.22,16.71,10.51,20.07l-3.79,5.04c-4.85-2.4-8.06-6.82-9.89-12.34
		c-1.92,5.71-5.23,10.32-10.13,12.72l-3.94-5.04c7.49-3.41,10.85-12,10.85-20.45v-6.38h6.38V145.79z M225.64,136v44.31h-6.48v-19.54
		h-7.92v-5.18h7.92v-5.57h-7.92v-5.23h7.92V136H225.64z"/>
	<path class="st0" d="M271.07,155.83v4.66h-39.79v-4.66H271.07z M242.08,175.46h25.35v4.42h-31.63v-10.85h24.24v-2.11h-24.29v-4.42
		h30.53v10.71h-24.19V175.46z M266.89,153.81h-30.77v-16.85h30.43v4.22h-24.15v2.11h23.09v4.08h-23.09v2.16h24.48V153.81z"/>
	<path class="st0" d="M311.49,135.95v44.36h-6.34v-23.71h-7.92v13.3h-21.22v-30.43h6.29v10.66h8.69v-10.66h6.24v12.05h7.92v-15.55
		H311.49z M290.99,155.06h-8.69v9.79h8.69V155.06z"/>
	<path class="st0" d="M356.99,169.7v5.14h-40.04v-5.14H356.99z M352.91,162.11c-7.68-1.54-13.35-5.81-16.18-11.43
		c-2.83,5.62-8.45,9.94-16.13,11.43l-2.69-5.33c9.94-1.68,15.46-8.69,15.46-15.03v-3.17h6.77v3.17c0,6.48,5.47,13.35,15.46,15.03
		L352.91,162.11z"/>
	<path class="st0" d="M377.58,147.9c0,7.2,3.55,14.83,10.94,17.91l-3.46,4.99c-5.14-2.21-8.64-6.53-10.61-11.86
		c-1.97,5.76-5.52,10.61-10.7,12.96l-3.6-5.04c7.39-3.31,10.99-11.42,10.99-18.96v-2.45h-9.22v-5.23h24.77v5.23h-9.12V147.9z
		 M397.12,136v44.21h-6.34V136H397.12z"/>
	<path class="st0" d="M441.07,174.4v5.04h-32.79v-13.15h6.14v-5.9c-3.89,0.19-7.58,0.24-10.9,0.24l-0.82-5.04
		c8.06-0.05,18.82-0.14,28.13-1.34l0.43,4.51c-3.46,0.58-7.01,0.96-10.56,1.25v8.35h-6.1v6.05H441.07z M405.98,145.41
		c0-4.7,4.51-7.92,10.99-7.92c6.43,0,10.99,3.22,10.99,7.92s-4.56,7.87-10.99,7.87C410.49,153.28,405.98,150.11,405.98,145.41z
		 M411.93,145.41c0,2.16,2.06,3.26,5.04,3.26c2.93,0,4.99-1.1,4.99-3.26s-2.06-3.31-4.99-3.31
		C414,142.1,411.93,143.25,411.93,145.41z M433.78,161.68V136h6.34v33.51h-6.34V166h-8.3v-4.32H433.78z"/>
</g>
</svg>
