<?xml version="1.0" encoding="utf-8"?>
<!-- Generator: Adobe Illustrator 27.9.6, SVG Export Plug-In . SVG Version: 9.03 Build 54986)  -->
<svg version="1.1" id="레이어_1" xmlns="http://www.w3.org/2000/svg" xmlns:xlink="http://www.w3.org/1999/xlink" x="0px"
	 y="0px" viewBox="0 0 465.3 74.11" style="enable-background:new 0 0 465.3 74.11;" xml:space="preserve">
<style type="text/css">
	.st0{fill:#EBE832;}
</style>
<path class="st0" d="M29.86,16.45c0,14.28,5.37,27.91,17.56,33.53l-6.34,8.42c-8.1-4.01-13.47-11.39-16.52-20.61
	c-3.21,9.54-8.74,17.24-16.92,21.25l-6.57-8.43C13.58,44.92,19.2,30.56,19.2,16.44V5.77h10.67L29.86,16.45L29.86,16.45z M64.11,0.08
	v74.03H53.28V41.47H40.05v-8.66h13.23v-9.3H40.05v-8.74h13.23V0.08H64.11z"/>
<path class="st0" d="M139.32,33.21v7.78H72.83v-7.78H139.32z M90.87,66.01h42.35v7.38H80.37V55.26h40.5v-3.53H80.29v-7.38h51.01
	v17.89H90.87V66.01z M132.34,29.84H80.93V1.69h50.85v7.06H91.43v3.53h38.58v6.82H91.43v3.6h40.9L132.34,29.84L132.34,29.84z"/>
<path class="st0" d="M206.19,0v74.11H195.6V34.49h-13.23v22.22h-35.45V5.86h10.51v17.81h14.52V5.86h10.43v20.13h13.23V0H206.19z
	 M171.94,31.93h-14.52v16.36h14.52V31.93z"/>
<path class="st0" d="M281.5,56.39v8.58h-66.89v-8.58H281.5z M274.69,43.72c-12.83-2.57-22.3-9.7-27.03-19.09
	c-4.73,9.38-14.12,16.6-26.95,19.09l-4.49-8.9c16.6-2.81,25.83-14.52,25.83-25.1V4.43h11.31v5.29c0,10.83,9.14,22.3,25.83,25.1
	L274.69,43.72z"/>
<path class="st0" d="M335.16,19.98c0,12.03,5.94,24.78,18.29,29.92l-5.77,8.34c-8.58-3.69-14.44-10.91-17.73-19.81
	c-3.29,9.62-9.22,17.73-17.89,21.66l-6.02-8.42c12.35-5.53,18.37-19.09,18.37-31.68V15.9h-15.4V7.16h41.39v8.74h-15.24L335.16,19.98
	L335.16,19.98z M367.8,0.08v73.87h-10.59V0.08H367.8z"/>
<path class="st0" d="M440.52,64.25v8.42h-54.78V50.69h10.27v-9.86c-6.5,0.32-12.67,0.4-18.21,0.4l-1.36-8.42
	c13.47-0.08,31.44-0.24,47-2.25l0.72,7.54c-5.78,0.96-11.71,1.6-17.65,2.08v13.96h-10.19v10.11H440.52z M381.9,15.81
	c0-7.86,7.54-13.23,18.37-13.23c10.75,0,18.37,5.37,18.37,13.23s-7.62,13.15-18.37,13.15C389.43,28.96,381.9,23.67,381.9,15.81z
	 M391.84,15.81c0,3.61,3.45,5.45,8.42,5.45c4.89,0,8.34-1.84,8.34-5.45s-3.45-5.53-8.34-5.53C395.29,10.27,391.84,12.2,391.84,15.81
	z M428.33,42.99V0.08h10.59v55.98h-10.59v-5.85h-13.88v-7.22H428.33z"/>
<path class="st0" d="M450.62,60.48c0-4.41,3.13-7.7,7.3-7.7s7.38,3.29,7.38,7.7c0,4.33-3.21,7.7-7.38,7.7S450.62,64.81,450.62,60.48
	z M452.38,17.25l-0.4-11.15h11.87l-0.4,11.15l-1.68,29.6h-7.7L452.38,17.25z"/>
</svg>
