<?xml version="1.0" encoding="utf-8"?>
<!-- Generator: Adobe Illustrator 27.9.6, SVG Export Plug-In . SVG Version: 9.03 Build 54986)  -->
<svg version="1.1" id="레이어_1" xmlns="http://www.w3.org/2000/svg" xmlns:xlink="http://www.w3.org/1999/xlink" x="0px"
	 y="0px" viewBox="0 0 464.23 74.56" style="enable-background:new 0 0 464.23 74.56;" xml:space="preserve">
<style type="text/css">
	.st0{fill:#FFFFFF;}
</style>
<path class="st0" d="M115.09,42.88c-11.31,0-20.05-7.94-20.05-18.77c0-10.91,8.74-18.77,20.05-18.77c11.23,0,19.97,7.86,19.97,18.77
	C135.06,34.94,126.32,42.88,115.09,42.88z M115.58,64.78h39.7v8.42h-50.29V48.82h10.59V64.78z M115.09,33.74
	c5.45,0,9.71-3.61,9.71-9.62s-4.25-9.62-9.71-9.62c-5.53,0-9.71,3.61-9.71,9.62S109.56,33.74,115.09,33.74z M162.41,21.79v8.66
	h-9.79v23.9h-10.59V0.61h10.59v21.17h9.79V21.79z"/>
<path class="st0" d="M207.77,39.75c-8.34-2.49-14.04-7.54-17.32-14.04c-3.37,7.06-9.38,12.67-18.05,15.4l-5.13-8.34
	c12.35-3.85,17.64-13.23,17.64-22.3V3.34h10.75v7.14c0,8.9,5.21,17.56,17.16,21.01L207.77,39.75z M179.78,45.77h49.17V73.6h-49.17
	V45.77z M190.21,65.34h28.39V54.03h-28.39V65.34z M228.95,0.61v41.71h-10.67V0.61H228.95z"/>
<path class="st0" d="M304.43,38.71v8.26h-66.81v-8.26h28.07v-4.57h-19.73V2.54h50.85v8.02h-40.34v3.85h38.66v7.7h-38.66v4.01h40.9
	v8.02h-21.09v4.57C276.28,38.71,304.43,38.71,304.43,38.71z M296.57,62.37c0,7.86-9.38,12.11-25.67,12.11
	c-16.2,0-25.59-4.25-25.59-12.11c0-7.94,9.38-12.11,25.59-12.11C287.19,50.26,296.57,54.43,296.57,62.37z M285.91,62.37
	c0-3.05-4.73-4.33-15-4.33c-10.19,0-14.92,1.28-14.92,4.33s4.73,4.41,14.92,4.41C281.17,66.78,285.91,65.42,285.91,62.37z"/>
<path class="st0" d="M351.38,15.45h-43.47V7.11h16.36v-6.9h10.67v6.9h16.44L351.38,15.45L351.38,15.45z M329.65,44.97
	c-10.59,0-18.13-5.53-18.13-13.63c0-8.02,7.54-13.55,18.13-13.55c10.67,0,18.13,5.53,18.13,13.55
	C347.77,39.43,340.31,44.97,329.65,44.97z M316.81,49.94h49.25v24.62h-10.59V58.44h-38.66V49.94z M329.65,36.95
	c4.73,0,8.02-1.84,8.02-5.61c0-3.69-3.29-5.53-8.02-5.53c-4.81,0-8.02,1.84-8.02,5.53C321.63,35.1,324.83,36.95,329.65,36.95z
	 M375.84,28.37h-9.79V46.9h-10.59V0.69h10.59v18.93h9.79V28.37z"/>
</svg>
