<?xml version="1.0" encoding="utf-8"?>
<!-- Generator: Adobe Illustrator 27.9.5, SVG Export Plug-In . SVG Version: 9.03 Build 54986)  -->
<svg version="1.1" id="레이어_1" xmlns="http://www.w3.org/2000/svg" xmlns:xlink="http://www.w3.org/1999/xlink" x="0px"
	 y="0px" viewBox="0 0 103.4 103.4" style="enable-background:new 0 0 103.4 103.4;" xml:space="preserve">
<style type="text/css">
	.st0{fill:#040000;}
	.st1{fill:#050303;}
</style>
<g>
	<path class="st0" d="M95.23,64.42c-1.51-2.24-2-4.29-1.99-6.82c0.06-13.64-0.13-27.29,0.12-40.92c0.08-4.53-1.26-6.19-5.93-6.08
		c-11.82,0.26-23.66,0.09-35.49,0.09c-11.83,0-23.66,0.13-35.49-0.07c-4.08-0.07-5.54,1.18-5.51,5.41
		c0.16,23.95,0.19,47.91-0.01,71.86c-0.04,4.6,1.74,5.59,5.9,5.53c13.83-0.19,27.66-0.07,41.49-0.08c2.17,0,4.07,0.22,6.06,1.57
		c8.82,6,21.08,4.85,28.29-2.36C99.99,85.21,101.24,73.34,95.23,64.42z M46.44,14.55c10.07,0.07,20.15,0.03,29.69,0.03
		C65.32,25.3,54.41,36.12,43.55,46.88c0-9.51,0.06-19.55-0.04-29.59C43.48,15.02,44.4,14.53,46.44,14.55z M22.66,14.58
		c5.64,0,5.12,0.04,5.79,8.84c0.55,7.21-4.13,4.78-7.53,5.13c-6.63,0-6.63,0-6.63-8.36C14.29,14.58,14.29,14.58,22.66,14.58z
		 M19.19,89.43c-1.62-0.38-4.19,1.16-4.7-1.09c-0.49-2.18-0.98-4.78,1.29-6.91C20.51,77,25,72.32,29.58,67.74
		c1.17-1.17,2.56-2.25,2.57-4.08c0.04-6.81,0.06-13.63,0.01-20.44c-0.01-2.41-1.63-2.98-3.72-2.96c-3.33,0.04-6.68-0.26-9.98,0.08
		c-3.72,0.38-4.25-1.22-4.31-4.5c-0.05-3.36,1.03-4.05,4.21-4.14c4.36-0.12,9.8,2.2,12.84-1.22c2.74-3.09,1.04-8.32,0.85-12.56
		c-0.17-3.81,1.95-3.23,4.29-3.39c2.79-0.19,4.1,0.25,4.02,3.63c-0.25,10.8-0.11,21.6-0.08,32.4c0,1.26-0.55,2.85,0.95,3.61
		c1.82,0.92,2.67-0.79,3.66-1.77C56.7,40.67,68.46,28.91,80.24,17.17c0.92-0.91,1.91-2.27,2.98-2.4c1.99-0.23,5.08-1.32,5.85,0.7
		c0.82,2.14,1.19,5.16-1.18,7.41c-3.74,3.54-7.24,7.35-10.99,10.88c-2.48,2.34-3.21,4.12-0.01,6.62c3.26,2.54,5.95,5.79,9.09,8.49
		c2.75,2.37,4.32,4.94,2.93,9.07c-3.67-1.72-7.22-2.81-10.97-3.6c-3.68-0.77-5.59-4.48-8.04-7.07c-2.41-2.55-3.83-2.41-6.24,0.04
		C50.6,60.59,37.36,73.69,24.19,86.86C22.79,88.25,21.54,89.98,19.19,89.43z M28.32,62.3c0.03,1.53-0.78,2.37-1.72,3.32
		c-3.83,3.85-7.62,7.74-12.31,12.51c0-11.57,0.04-21.81-0.03-32.05c-0.01-1.86,0.44-2.69,2.47-2.59c2.98,0.15,5.97,0.12,8.95,0.01
		c1.81-0.07,2.7,0.32,2.65,2.41C28.2,51.37,28.23,56.84,28.32,62.3z M88.99,26.19c0,7.63,0,13.86,0,21.42
		c-2.71-2.9-4.34-5.36-6.6-6.91c-4.1-2.8-2.89-4.81,0.12-7.39C84.6,31.51,86.27,29.21,88.99,26.19z M27.41,89.29
		c0.29-1.73,1.66-2.48,2.61-3.44C40.6,75.24,51.21,64.66,61.81,54.07c5.23-5.22,5.23-5.22,10.34,0.87
		c-7.43,2-12.97,6.29-15.81,13.34c-2.86,7.11-1.89,14.12,2.02,21C47.81,89.29,37.73,89.29,27.41,89.29z M77.14,95.43
		c-10.32,0.12-18.88-8.39-18.86-18.75c0.02-10.43,8-18.29,18.57-18.27c10.71,0.01,18.51,7.71,18.51,18.28
		C95.36,87.08,87.35,95.31,77.14,95.43z"/>
	<path class="st1" d="M82.4,81.1c-1.62-1.59-2.77-2.65-1.53-5.66c2.49-6.05-2.07-11.94-8.4-11.94c-5.01,0-9.25,4.15-9.19,8.99
		c0.07,4.92,4.53,9.8,9.32,8.76c4.34-0.93,6.23,1.28,8.58,3.67c1.28,1.3,2.54,2.63,3.89,3.85c0.77,0.7,1.6,2.16,2.79,0.76
		c0.77-0.9,0.77-2.19-0.18-3.16C85.94,84.58,84.17,82.84,82.4,81.1z M72.37,77.58c-3.23,0.1-4.98-1.59-5.18-4.96
		c-0.22-3.74,2.19-5.59,5.31-5.7c3.32-0.12,5.68,2.29,5.56,5.6C77.95,75.46,76.02,77.64,72.37,77.58z"/>
</g>
</svg>
