<?xml version="1.0" encoding="utf-8"?>
<!-- Generator: Adobe Illustrator 27.9.5, SVG Export Plug-In . SVG Version: 9.03 Build 54986)  -->
<svg version="1.1" id="레이어_1" xmlns="http://www.w3.org/2000/svg" xmlns:xlink="http://www.w3.org/1999/xlink" x="0px"
	 y="0px" viewBox="0 0 316.91 316.91" style="enable-background:new 0 0 316.91 316.91;" xml:space="preserve">
<style type="text/css">
	.st0{fill:#DA9C23;}
	.st1{fill:#524F26;}
</style>
<g>
	<path class="st0" d="M266.78,284.48c-21.73,0-40.32,0-60.37,0c10.82-6.81,12.56-16.12,12.57-25.94
		c0.05-48.49,0.04-96.98,0.01-145.48c-0.01-12.16-5.12-16.96-18.57-17.88c-27.19-1.86-54.37-1.91-81.55,0.02
		c-17.45,1.24-20.9,4.65-20.9,20.69c0,47.94,0.01,95.88-0.01,143.81c0,9.44,1.83,18.13,12.39,24.53c-20.04,0-38.79,0-58.59,0
		c11.63-7.49,11.78-18.36,11.78-29.32c-0.02-46.55,0-93.1-0.02-139.66c-0.01-15.1-2.65-17.68-18.78-20.23
		c-7.88-1.25-15.77-1.7-23.71-1.98c-3.45-0.12-6.96-0.42-7.83-4.28c-0.91-4.03,1.57-5.93,5.48-7.36
		c42.76-15.64,85.48-31.37,128.19-47.11c7.75-2.86,15.33-2.8,23.14,0.08c42.7,15.78,85.44,31.48,128.21,47.11
		c3.91,1.43,6.48,3.35,5.5,7.35c-0.92,3.76-4.49,4.11-7.95,4.21c-8.26,0.25-16.45,0.84-24.62,2.08
		c-14.42,2.18-18.3,5.91-18.32,19.17c-0.05,47.38-0.03,94.77,0,142.15c0,2.21,0.16,4.42,0.42,6.62
		C254.18,271.12,255.93,278.86,266.78,284.48z"/>
	<path class="st1" d="M185.75,284.73c-18.53,0-35.47,0-53.45,0c10.82-9.03,10.22-20.5,10.19-31.96c-0.08-30.7-0.18-61.4,0.2-92.1
		c0.22-17.68-1.74-24.12-12.26-31.74c18.8,0,36.89,0,56.06,0c-11.15,6.68-11.86,16.84-11.91,26.97c-0.17,34.3-0.19,68.6,0.02,102.9
		C174.65,268.12,175.3,277.55,185.75,284.73z"/>
</g>
</svg>
