<?xml version="1.0" encoding="UTF-8"?>
<svg xmlns="http://www.w3.org/2000/svg" version="1.1" viewBox="0 0 82.2 82.2">
  <defs>
    <style>
      .cls-1 {
        fill: none;
      }

      .cls-2 {
        fill: #fff;
      }
    </style>
  </defs>
  <!-- Generator: Adobe Illustrator 28.7.1, SVG Export Plug-In . SVG Version: 1.2.0 Build 142)  -->
  <g>
    <g id="_레이어_1" data-name="레이어_1">
      <rect class="cls-1" x="0" y="0" width="82.2" height="82.2"/>
      <g>
        <path class="cls-2" d="M45.1,27.9s0,0,0,0c-.8-.3-1.8.2-2,1-.3.8.2,1.8,1,2.1,4.5,1.5,6.9,6.4,5.4,10.9-.3.8.2,1.8,1,2.1,0,0,0,0,0,0,.8.3,1.8-.2,2-1,2.1-6.2-1.2-12.9-7.4-15Z"/>
        <path class="cls-2" d="M48.9,21.4s0,0,0,0c-.8-.3-1.8.2-2,1-.3.8.2,1.8,1,2.1,7.5,2.6,11.5,10.7,8.9,18.2-.3.8.2,1.8,1,2.1,0,0,0,0,0,0,.8.3,1.8-.2,2-1,3.1-9.2-1.8-19.2-11-22.3Z"/>
        <path class="cls-2" d="M52.6,14.9s0,0,0,0c-.8-.3-1.7.2-2,1-.3.8.2,1.8,1,2.1,10.3,3.5,15.9,14.8,12.3,25.2-.3.8.2,1.8,1,2.1,0,0,0,0,0,0,.8.3,1.8-.2,2-1,4.1-12-2.3-25.2-14.4-29.3Z"/>
        <path class="cls-2" d="M49,51.3c-1-2.4-3.7-3.5-6.1-2.5l-3,1.3c-1.9.8-3,2.7-2.8,4.6-2.4-.7-5.5-5.7-7.8-11-2.1-5.1-3.4-10.5-2.3-12.6,1.2,1.9,3.6,2.7,5.7,1.8l3-1.3c2.4-1,3.5-3.7,2.5-6.1l-3.9-9.3c-1-2.4-3.7-3.5-6.1-2.5l-3,1.3c-2.1.9-17.4,12.5-8.3,34.1,9.5,22.6,28.2,19.8,30.5,18.8l3-1.3c2.4-1,3.5-3.7,2.5-6.1l-3.9-9.3Z"/>
      </g>
    </g>
  </g>
</svg>