<?xml version="1.0" encoding="UTF-8"?>
<svg xmlns="http://www.w3.org/2000/svg" xmlns:xlink="http://www.w3.org/1999/xlink" version="1.1" viewBox="0 0 82.2 82.2">
  <defs>
    <style>
      .cls-1 {
        fill: none;
      }

      .cls-2 {
        fill: #361c1c;
      }

      .cls-3 {
        fill: #efd94f;
      }

      .cls-4 {
        clip-path: url(#clippath-1);
      }

      .cls-5 {
        clip-path: url(#clippath-3);
      }

      .cls-6 {
        clip-path: url(#clippath-2);
      }

      .cls-7 {
        clip-path: url(#clippath);
      }
    </style>
    <clipPath id="clippath">
      <rect class="cls-1" x="9.5" y="12.1" width="63.1" height="58"/>
    </clipPath>
    <clipPath id="clippath-1">
      <path class="cls-1" d="M34.6,33l1.8,5.7h-3.8l2-5.7ZM32.6,30.4c-.8,1.8-3.7,10.1-4.6,12.3-.7,1.6,2.3,2.9,3,1.3l.7-2.3h5.9s-.2,0,.6,2.2c.6,1.7,3.7.5,3.1-1.2-.9-2.4-4.1-11.1-4.6-12.3-.3-.6-1.2-1-2.1-1s-1.5.3-1.8,1"/>
    </clipPath>
    <clipPath id="clippath-2">
      <path class="cls-1" d="M42.3,30.9c0,2.8,0,11.9,0,11.9,0,0-.3,1.8,1.3,1.8s5,0,6.5,0,1.5-3.2,0-3.2-4.3,0-4.3,0c0,0,0-8.4,0-10.5,0-1-.9-1.5-1.8-1.5s-1.8.5-1.8,1.5"/>
    </clipPath>
    <clipPath id="clippath-3">
      <path class="cls-1" d="M52.1,30.4c0,1.2,0,12.4,0,13.3,0,1.3,3.3,1.3,3.3,0v-4.4l1-.8,4.3,5.8c.9,1.1,3.6-.9,2.7-2.1l-4.5-6s3.1-3.3,4.3-4.5c.7-.7-1.5-2.9-2.2-2.2-.7.7-5.5,5.5-5.5,5.5,0,0,0-3,0-4.7,0-.6-.8-.9-1.6-.9s-1.7.4-1.7,1"/>
    </clipPath>
  </defs>
  <!-- Generator: Adobe Illustrator 28.7.1, SVG Export Plug-In . SVG Version: 1.2.0 Build 142)  -->
  <g>
    <g id="_레이어_1" data-name="레이어_1">
      <rect class="cls-1" width="82.2" height="82.2"/>
      <g>
        <g class="cls-7">
          <path class="cls-2" d="M41.1,12.1c-17.4,0-31.6,11.2-31.6,25s6,16.8,15,21.2c-.7,2.5-2.4,8.9-2.7,10.3-.4,1.7.6,1.7,1.3,1.2.5-.4,8.7-5.9,12.1-8.3,1.9.3,3.9.4,5.9.4,17.4,0,31.6-11.2,31.6-25s-14.1-25-31.6-25"/>
          <path class="cls-3" d="M19.1,32.4h3.2s0,8.9,0,11c0,1.5,3.4,1.5,3.4,0v-10.9s1.1,0,3.2,0c2,0,2-3.2,0-3.2-2.3,0-9.9,0-9.9,0-1.9,0-1.9,3.1,0,3.1"/>
        </g>
        <g class="cls-4">
          <rect class="cls-3" x="27.2" y="29.4" width="14.6" height="16.2"/>
        </g>
        <g class="cls-6">
          <rect class="cls-3" x="42.1" y="29.4" width="9.6" height="15.2"/>
        </g>
        <g class="cls-5">
          <rect class="cls-3" x="52.1" y="28.8" width="12.2" height="16.7"/>
        </g>
      </g>
    </g>
  </g>
</svg>