<?xml version="1.0" encoding="utf-8"?>
<!-- Generator: Adobe Illustrator 27.9.6, SVG Export Plug-In . SVG Version: 9.03 Build 54986)  -->
<svg version="1.1" id="레이어_1" xmlns="http://www.w3.org/2000/svg" xmlns:xlink="http://www.w3.org/1999/xlink" x="0px"
	 y="0px" viewBox="0 0 212.47 37.77" style="enable-background:new 0 0 212.47 37.77;" xml:space="preserve">
<style type="text/css">
	.st0{fill:#371D1E;}
</style>
<g>
	<path class="st0" d="M17.37,3.41c0,10.13-2.96,18.98-15.27,25.17l-2.1-3c5.93-2.96,9.49-6.49,11.48-10.65L0.75,15.98l-0.52-3.34
		l12.41-0.79c0.45-1.65,0.75-3.41,0.9-5.29H1.95V3.41H17.37z M31.24,16.62H26.1v17.25h-3.86V0h3.86v13.39h5.14V16.62z"/>
	<path class="st0" d="M64.77,18.19v3.11H34.09v-3.11h13.39v-3.11h-9.45V0.9h23.1v2.96H41.89v2.63H60.3v2.89H41.89v2.74h19.47v2.96
		h-9.98v3.11H64.77z M37.54,23.82H60.9v10.09h-3.86v-7.01h-19.5V23.82z"/>
	<path class="st0" d="M85.97,18.57c-3.64-1.31-6.34-3.9-7.76-7.09c-1.5,3.68-4.28,6.6-8.18,8.03l-2.06-3.08
		c5.33-1.84,8.21-6.45,8.21-11.33V1.76h3.9V5.4c0,4.35,2.89,8.48,7.91,10.13L85.97,18.57z M95.12,27.53c0,4.01-4.28,6.38-11.29,6.38
		c-6.98,0-11.29-2.36-11.29-6.38c0-3.98,4.31-6.34,11.29-6.34C90.84,21.19,95.12,23.55,95.12,27.53z M91.29,27.53
		c0-2.1-2.74-3.3-7.46-3.3c-4.73,0-7.46,1.2-7.46,3.3c0,2.18,2.74,3.34,7.46,3.34C88.56,30.87,91.29,29.71,91.29,27.53z M99.54,8.4
		v3.19h-4.8v8.78h-3.86V0h3.86v8.4H99.54z"/>
	<path class="st0" d="M122.05,16.43c-4.39,0.94-8.36,1.12-15.64,1.12h-2.74V2.21h15v3.11h-11.14v9.08
		c6.41-0.04,10.05-0.23,14.14-1.09L122.05,16.43z M107.09,20.82h21.64v12.68h-21.64V20.82z M110.91,30.38h14.03v-6.53h-14.03V30.38z
		 M133.53,11.21h-4.8v7.91h-3.86V0h3.86v8.03h4.8V11.21z"/>
	<path class="st0" d="M143.59,1.05h3l-10.43,36.72h-3L143.59,1.05z"/>
	<path class="st0" d="M166.61,0.68h3.6v31.62h-3.6V21.45h-4.65c-1.2,3.3-3.41,5.25-6.26,5.25c-4.39,0-7.28-4.58-7.28-12
		c0-7.46,2.89-12.04,7.28-12.04c2.81,0,5.06,1.88,6.23,5.21h4.69V0.68z M159.48,14.7c0-5.36-1.46-8.4-3.79-8.4s-3.79,3.04-3.79,8.4
		c0,5.36,1.46,8.36,3.79,8.36S159.48,20.07,159.48,14.7z M166.61,18.3v-7.24h-3.9c0.19,1.12,0.26,2.33,0.26,3.64
		c0,1.31-0.08,2.48-0.26,3.6H166.61z M177,0.04v33.83h-3.68V0.04H177z"/>
	<path class="st0" d="M190.76,18.27c-5.14,0-9-3.34-9-8.14s3.86-8.14,9-8.14c5.18,0,9.04,3.34,9.04,8.14S195.93,18.27,190.76,18.27z
		 M185.51,21.6h22.28v12.34h-3.86v-9.23h-18.42V21.6z M190.76,15c3.04,0,5.25-1.91,5.25-4.88c0-2.96-2.21-4.88-5.25-4.88
		c-3,0-5.21,1.91-5.21,4.88C185.54,13.09,187.76,15,190.76,15z M207.78,8.06v4.09h4.69v3.19h-4.69v4.76h-3.86V0.04h3.86v4.84h4.69
		v3.19H207.78z"/>
</g>
</svg>
