<?xml version="1.0" encoding="utf-8"?>
<!-- Generator: Adobe Illustrator 27.9.6, SVG Export Plug-In . SVG Version: 9.03 Build 54986)  -->
<svg version="1.1" id="레이어_1" xmlns="http://www.w3.org/2000/svg" xmlns:xlink="http://www.w3.org/1999/xlink" x="0px"
	 y="0px" viewBox="0 0 1023.1 355.3" style="enable-background:new 0 0 1023.1 355.3;" xml:space="preserve">
<style type="text/css">
	.st0{fill:#FFFFFF;}
	.st1{fill:#FDB514;}
	.st2{fill:#221F20;}
</style>
<g>
	<path class="st0" d="M280,184.3c-21.2-0.2-30.4-14.2-34.4-25.7l33.9-4.7l20-125.5l-41.6,7.9l-5.3,31.5l-1.2,0.2
		c3.1-11.9,3.9-19.9,4-20.5l0.6-5.7l-89.8,15.6l-5.7,40.7l38.2-6.8c-15.8,40.6-46.5,46.3-47.9,46.5l-5.4,0.9
		c9.6-44.8,14.9-95.5,15.2-98.5l0.6-5.9l-5.8,1.2c-12.5,2.6-112.2,21.8-113.2,22l-3,0.6l-5.9,40l75.4-15
		c-9.3,79.5-20.5,103-24.1,108.8l-4.8,1L94.9,91.6l-43.4,8.2L34.5,203l-27.9,4.5l-6.6,38h5.2c15,0,56.6-23.3,61.3-25.9l0.1-0.1
		c3.9-2.3,7.3-4.3,10.3-5.9c-3.5,4-7.5,8.3-11.2,12.2l-9.3,9.8l82.6-16.2l5-40.4l-10.5,2.2c4.4-11.9,8.3-26.8,11.7-42.5l2.2,4.9
		c2.6,5.9,4.5,21.4,4.9,26.8l0.5,5.3l5.1-1.5c14.7-4.5,28.2-11.4,40.2-20.6c-13.9,42.4-52.3,57.9-52.7,58.1l-3.9,1.5l11.8,34.1
		l4.1-1.5c24.6-8.7,47.9-31.4,56.6-40.6c20.9,25.2,51.8,17.7,52.1,17.7l1.9-0.5l18.7-38.2L280,184.3z M237,106.1l10.2-1.5l-5.2,34.1
		l-33.1,5.9C219.9,133.9,229.3,121,237,106.1z M203.8,149.2l0.1,0.6h0h0l0,0l-0.6-0.2C203.4,149.5,203.6,149.4,203.8,149.2z"/>
	<path class="st0" d="M595.6,52l-2.6,0.5l0.2-1.8L576.6,53l3.8-25.4l-6.7,2.2c-4.2,1.4-23.2,4.7-30.2,5.9l-3.2,0.5l-5.8,43.3
		c1-11.2-2-21.6-9.3-28.8c-15.9-15.5-46.2-10.2-67.6,11.7c-10.2,10.4-16.9,23.1-18.9,35.6c-2.1,13.1,1.1,24.6,9,32.3
		c6.2,6,14.5,8.9,23.7,8.9c0.6,0,1.3,0,1.9-0.1l-22.3,4.1l-5,33.3l54.7-10.4l-54.6,11l-5.9,42.4l0,0.4c-0.3,6,1.3,10.6,4.6,13.5
		c3,2.7,6.6,3.2,8.8,3.2c1,0,1.7-0.1,1.9-0.1l96.8-19.4l5.9-33.5l-0.2,0l9.7-62.1l-1.3,0.2l4.8-33.3l16.6-2.2l-0.9,6.1l75.4-15
		c-9.3,79.5-20.5,103-24.1,108.8l-4.8,1L648.2,86l-43.4,8.2l-16.9,103.3L560,202l-6.6,38h5.2c15,0,56.6-23.3,61.3-25.9l0.1-0.1
		c3.9-2.3,7.3-4.3,10.3-5.9c-3.5,4-7.5,8.3-11.2,12.2l-9.3,9.8l82.6-16.2l5-40.4l-10.5,2.2c17-46.1,26.6-137.1,27-141.2l0.6-5.9
		l-5.8,1.2C696.3,32.6,596.6,51.8,595.6,52z M478.7,86.3c1.6-3.9,4.2-7.2,7.2-9.1c1.1-0.7,2.9-1.6,4.8-1.6c0.7,0,1.3,0.1,2,0.4
		c2.6,1.1,3.5,4,3.9,5.7c0.7,3.4,0.2,7.6-1.4,11.5l0,0c-2,4.8-5.4,8.6-9,10.1c-1.2,0.5-3.1,1-4.9,0.2c-2.6-1.1-3.5-4-3.9-5.7
		C476.6,94.3,477.1,90.1,478.7,86.3z M486.8,136.7c9.9-3.2,19.8-9.3,28.3-18c10.2-10.5,16.6-23,18.7-34.8l-5.5,40.8l-0.6,4.4
		L486.8,136.7z"/>
	<path class="st0" d="M999.2,87.8l8.4-55l-6.3,1.6c-4.6,1.1-30,6-30.3,6.1l-3,0.6l-20.7,123.9c-3.6,7.9-12.3,8.7-12.7,8.7l-30,3
		l12.9-85.8c9-1.6,29.9-6.6,39.7-9l2.8-0.7l7.2-40.5l-7.4,3.3c-5.3,2.3-49.6,9.9-76.2,14l-3.1,0.5l-24.1,143.7l-0.1,0.5
		c-0.5,7.7,1.5,13.5,5.8,17.2c6.2,5.4,14.9,4,15.9,3.8l47.3-8.3c5.6-1.1,10.3-2.6,13.9-4.1l-5.3,21.1l44-10.6l16.4-98.6l21.1-1.2
		l7.9-37.7L999.2,87.8z"/>
	<path class="st0" d="M281,235.7l26.7-4.9l-26.5,15.7l113.2-14.6l9.6-79.2l-114.9,16.1L281,235.7z M318.3,195.1l49.8-7.7l-2,17.4
		l-49.8,6.9L318.3,195.1z"/>
	<path class="st0" d="M418.7,30.7L303.8,46.8L299.4,83l34-5.4c-7.7,8.6-20.3,14.5-33.4,15.2l-3.4,0.2l-4.2,35.2l4.6-0.1
		c11.6-0.2,24.9-3.5,36.9-8.6l-0.8,5.6l-47.4,6l-4.5,35.9l131-17.1l4.5-34.9l-48,6l1.4-12.4c12.8,3.2,22.5,4,36.3,4.5l3.7,0.1
		l4.2-35.1l-6.1-0.3c-15.6-0.8-25.3-1.6-29.7-6.3l35.7-4.7L418.7,30.7z"/>
	<path class="st0" d="M868,107.2l7.2-38.4l-19.8,3.1l4.6-42.2l-32.8,5.3l-9.7,79.4l-3-0.8c-9.3-2.5-19.5-9.1-17.7-37.1l23.1-3
		l4.5-37.4L745,47.1l-4.5,36.2l25.2-3c-4.3,22.6-13.5,36.1-27.3,40.2l-2.4,0.7l-7,37.3l5.6-0.9c2.4-0.4,4.8-1,7.3-1.8l-14.4,92.9
		l108-20.6l14.7-92.6l-3.3,0.7l3.9-26L868,107.2z M809.3,201.2l-42.4,8.3l1-5.3l42.4-8.3L809.3,201.2z M814.1,161.1l-42.6,8.4l3-22
		l-25.5,5.3c9.9-4.9,19.8-12.7,27.2-21.8c7.4,10.3,19.1,12.3,31.4,14.3l5.4,0.9l1.6-11.3l-1.2,9.7l3.3-0.7L814.1,161.1z"/>
</g>
<polygon class="st0" points="23.7,0.3 515.4,352.6 517.9,354.4 1025.3,0.3 "/>
<path class="st1" d="M1012,3.6L518.4,348.1L37.7,3.6H1012z"/>
<g>
	<path class="st2" d="M170.5,60.1l81-14.1c0,0-9.7,97.8-94.2,123.3c0,0-1.8-20.3-5.3-28.2c0,0,37.9-6.2,53.7-56.4l-39.6,7
		L170.5,60.1z"/>
	<path class="st2" d="M243.6,72.4l13.2-1.8l5.3-31.7l32.6-6.2L276.2,149l-31.7,4.4l8.4-55l-20.7,3L243.6,72.4z"/>
	<path class="st2" d="M204.4,148.8l34.3-6.1c0,0,1.6,44.6,41.7,44.9l-14.8,30.2c0,0-31.4,8-50.7-20.2c0,0-28.6,32.7-58.4,43.3l-9-26
		C147.6,214.9,191.2,197.9,204.4,148.8 M522.6,52.8c-14.2-13.8-41.7-8.7-61.5,11.6c-19.8,20.3-24.2,47.9-10,61.8
		c14.2,13.8,41.7,8.6,61.5-11.6C532.3,94.3,536.8,66.7,522.6,52.8 M499.6,93.7c-4.1,9.8-12.8,15.5-19.6,12.7
		c-6.7-2.8-8.9-13-4.8-22.8c4.1-9.8,12.9-15.5,19.6-12.7C501.5,73.7,503.7,83.9,499.6,93.7 M544.6,39c0,0,25.4-4.2,30.9-6l-3.6,24.2
		l16.9-2.4l-3,26.6l-18.1,2.4l-4.8,33.9c0,0-26,4.8-29.7,6.7L544.6,39z M455.1,146l107.7-20l-8.5,54.5l-74.4,15.1
		c0,0-4.8,8.5,5.4,7.3l67.8-14.5l-4.2,24.2l-93.8,18.8c0,0-10.9,1.8-10.3-12.1l5.4-39.3l75-15.1c0,0,3.6-2.4,4.2-6
		c0,0-1.8-3-7.9-1.8l-70.2,13.3L455.1,146z M596.9,55.2c0,0,100.5-19.4,113.2-22c0,0-10.9,105.7-29.9,148l-39.9,8.8
		c0,0,15.4-14.1,27.2-118.9l-75.2,15L596.9,55.2z"/>
	<path class="st2" d="M564.2,204.8l27.9-4.6L609,96.9l34.5-6.5l-15,101.4l64.3-13.6l-3.9,31.2l-66.3,13c0,0,20.8-22.1,22.8-26.7
		c0,0-9.1,2.6-27.3,13.7c0,0-44.9,25.4-59.2,25.4L564.2,204.8z"/>
	<path class="st2" d="M884.6,61.2c0,0,69.5-10.9,77.3-14.4l-5.3,29.7c0,0-39,9.4-42.5,9.4L900,180.5l35.4-3.6
		c0,0,11.9-0.8,16.5-11.8l20.3-121.4c0,0,25.8-5,30.5-6.2l-8.3,54.3l23.6-3.6l-5.9,28.4l-21.3,1.2l-16.5,99.2l-34.3,8.3l5.9-23.6
		c0,0-7.3,5.6-21.2,8.3l-47.3,8.3c0,0-17.7,3.6-16.5-16.5L884.6,61.2z"/>
	<g>
		<path class="st2" d="M406.6,109l3.3-27.2c-19.7-1-34.3-1.4-37.5-13.6l38.3-5l3.4-27.9l-106.7,15L304,78.2l37.9-6
			c-6.2,12.6-22.3,23.5-41.7,24.6L297,124c20.1-0.4,46.4-10.6,59.6-23.6C377,107,387.9,108.4,406.6,109z"/>
		<path class="st2" d="M292.7,172.3l-7,58.4l43-7.9l-28.5,16.9l90.7-11.4l8.6-71L292.7,172.3z M369.7,208.3l-58,8l3-24.7l58-9
			L369.7,208.3z"/>
		<polygon class="st2" points="366.4,106.4 338.8,113.4 336.6,128.5 289.3,134.5 285.8,162.2 408.7,146.2 412.1,119.5 364.2,125.5 
					"/>
	</g>
	<path class="st2" d="M43.6,60.7c0,0,100.5-19.4,113.2-22c0,0-10.9,105.7-29.9,148l-39.9,8.8c0,0,15.4-14.1,27.2-118.9l-75.2,15
		L43.6,60.7z"/>
	<path class="st2" d="M10.9,210.4l27.9-4.6l16.9-103.4L90.2,96l-15,101.4l64.3-13.6l-3.9,31.2l-66.3,13c0,0,20.8-22.1,22.8-26.7
		c0,0-9.1,2.6-27.3,13.7c0,0-44.9,25.4-59.2,25.4L10.9,210.4z"/>
	<path class="st2" d="M745.1,78.7l3.5-28.1l71.1-10l-3.5,29.1l-23.3,3c-2.5,28.1,5.4,40.4,20.4,44.5l-3.5,24.3
		c-14.8-2.5-26.9-4.1-33-17.9c-9.8,14.5-28.1,27.7-42.9,30l5.5-29.3c15.6-4.5,26.7-19.7,31.1-48.6L745.1,78.7z M830.7,38.3l24.7-4
		l-4.6,42.2l19.4-3l-5.6,30.2l-17.4,3l-4.2,27.9l-24.7,5L830.7,38.3z M766.8,174.5l50.8-10l3-18.9l24.6-5l-13.4,84.1l-99.6,19
		l13.4-86.1l24.3-5L766.8,174.5z M812.7,204.6l2.5-13.8l-50.8,10l-2.5,13.8L812.7,204.6z"/>
</g>
</svg>
