<?xml version="1.0" encoding="utf-8"?>
<!-- Generator: Adobe Illustrator 27.9.6, SVG Export Plug-In . SVG Version: 9.03 Build 54986)  -->
<svg version="1.1" id="레이어_1" xmlns="http://www.w3.org/2000/svg" xmlns:xlink="http://www.w3.org/1999/xlink" x="0px"
	 y="0px" viewBox="0 0 1223.8 1220.7" style="enable-background:new 0 0 1223.8 1220.7;" xml:space="preserve">
<style type="text/css">
	.st0{fill:#EDD9B0;}
	.st1{fill:#FFF7EB;}
	.st2{fill:#EEE5D4;}
	.st3{fill:#6FA3C6;}
	.st4{fill:#CCBE9A;}
	.st5{fill:#AFA37D;}
	.st6{fill:#D87A5B;}
</style>
<g>
	<circle class="st0" cx="611.9" cy="610.3" r="615.8"/>
	<g>
		<path d="M728.1,282.8c3.8,0.3,6.9,0.6,10,0.7c5,0.1,10-0.2,15,0.1c7.5,0.4,14.9,1.3,22.3,1.9c4.1,0.3,8.2,0.5,12.2,0.8
			c6.8,0.4,13.7,0.8,20.5,1c8.3,0.3,16.6,0.3,25,0.7c3.5,0.2,7,1,10.6,1.3c3.6,0.3,7.2,0.1,10.8,0.2c6.4,0.1,12.9,0.2,19.3,0.4
			c6.6,0.2,13.3,0.6,19.9,1c11.3,0.7,22.6,1.5,33.9,2.1c2.5,0.1,5-0.3,6.9-0.5c2.9,0.1,5.3,0,7.6,0.4c6.6,1,11.1,5.9,10.9,12.7
			c-0.3,9.3-1.1,18.6-1.7,28c-1.7,25.2-3.3,50.4-5,75.6c-1.9,28.1-3.9,56.2-5.7,84.3c-1.7,26.6-3.1,53.2-4.8,79.8
			c-1.8,29.1-3.9,58.2-5.8,87.3c-1.2,18.6-2.2,37.3-3.4,56c-2.1,33.9-4.4,67.8-6.5,101.6c-1,15.4-1.7,30.8-2.6,46.1
			c-1.5,25.1-3.1,50.1-4.6,75.2c-1.4,22.8-2.8,45.6-4.4,68.4c-0.6,8-6.2,12.9-14.8,12.4c-16.8-1.1-33.6-1.5-50.4-2.4
			c-13.5-0.7-26.9-1.5-40.4-2.2c-11.4-0.6-22.8-0.9-34.2-1.5c-12.6-0.7-25.3-1.5-37.9-2.2c-11.3-0.6-22.7-1.1-34-1.6
			c-15.1-0.6-30.3-1.1-45.4-1.8c-8.8-0.4-17.6-1.2-26.3-1.6c-11.3-0.5-22.6-0.7-33.9-1.2c-7.5-0.3-15-1.2-22.5-1.5
			c-13.4-0.7-26.8-1.1-40.2-1.7c-8.9-0.4-17.7-1.3-26.5-1.7c-14.1-0.7-28.2-1.1-42.3-1.7c-12-0.5-24-0.9-36-1.5
			c-20-1-40.1-2.2-60.1-3.2c-19.6-1-39.1-1.7-58.7-2.6c-6.8-0.3-13.6-0.8-20.5-1.2c-8.7-0.6-13.9-5.7-13.7-14.4
			c0.6-19.3,1.6-38.6,2.3-57.8c0.4-10.7,0.3-21.4,0.7-32.1c0.6-16,1.5-32,2.1-48c0.5-12.6,0.8-25.2,1.3-37.8
			c0.8-23.8,1.5-47.7,2.4-71.5c0.8-22.2,2-44.3,2.8-66.5c0.5-14.6,0.6-29.3,1.1-43.9c0.5-14.7,1.4-29.4,2-44.1
			c0.4-11,0.6-21.9,1-32.9c0.7-20,1.4-40,2.1-60c0.9-24.7,1.7-49.3,2.6-74c0.5-16.3,0.9-32.5,1.5-48.8c0.9-22.9,1.8-45.8,2.8-68.8
			c0.2-5.5,0.4-11.1,0.7-16.6c0.4-7.5,7.3-12.2,14.7-11.2c7.3,0.9,14.7,0.7,22,1.1c10.3,0.5,20.5,1.2,30.8,1.6
			c5.8,0.2,11.5-0.2,17.3,0c4.7,0.2,9.3,1.1,14,1.3c7.1,0.3,14.2,0.3,21.3,0.4c2.1,0.1,4.3,0.4,6.4,0.5c4.9,0.2,9.8,0.2,14.6,0.5
			c2.4,0.1,4.8,0.8,7.2,0.9c4.1,0.2,8.3-0.1,12.4,0.1c3.5,0.2,6.9,1.1,10.4,1.3c5.3,0.4,10.5,0.5,15.8,0.8c6.3,0.3,12.7,1,19,0.8
			c3.7-0.1,7.2,1.9,11.1,0.2c1.3-0.6,3.3,0.7,5,1c3.9,0.7,5.2-0.3,5.6-4.3c0.2-1.9,0.4-3.7,0.6-5.6c0.5-3.8,2.6-6.5,5.8-8.6
			c0.7-0.4,0.8-1.6,1.1-2.1c14.7-2.2,29.2,1.7,44.5,1c2.4-28.7,17.4-46.6,46.3-52.1c7.4,1.9,15.5-0.9,22.5,3.3
			c6.6,3.9,14.2,7.1,19.4,12.4c5.2,5.4,10.1,12.1,11.6,20c1.5,7.6,2.2,15.3,3.4,23.7c0.9-1.1,1.5-1.7,1.9-2.2c6,1.9,11.9,2.2,18,1.5
			c2.8-0.4,5.8,0.2,8.7,0.4c0.8,0,1.6,0.4,2.3,0.3c3.9-0.7,7.5,0.8,11.1,1.5c3.7,0.8,7.4,7.5,7.3,11.8
			C728,276.4,728.1,279.6,728.1,282.8z M505.4,871.9c0,0,0.1,0,0.1,0c-0.2,3.4-0.3,6.8-0.5,10.2c-0.2,2.9,0.5,4.4,3.9,4.5
			c14.2,0.5,28.4,1.3,42.6,2c16.8,0.8,33.6,1.6,50.4,2.4c13.7,0.6,27.4,1.1,41.1,1.7c11.4,0.5,22.8,1.3,34.2,1.9
			c11.4,0.6,22.9,1,34.3,1.6c8.9,0.4,17.8,1,26.8,1.5c8.3,0.4,16.6,0.7,24.9,1.1c9.7,0.5,19.3,1.2,29,1.6
			c11.9,0.5,23.8,0.8,35.7,1.4c5.1,0.3,5.5,0.3,5.8-4.7c0.8-11.8,1.4-23.7,2.1-35.5c1.1-19.4,2.4-38.8,3.5-58.2
			c0.9-16.4,1.7-32.8,2.6-49.2c1.5-25.6,3.3-51.2,4.8-76.7c1.3-22.4,2.4-44.9,3.7-67.3c1.2-20.4,2.7-40.8,3.9-61.2
			c1.2-20,2.3-40.1,3.5-60.1c1.5-24.8,2.9-49.7,4.5-74.5c0.7-12,1.7-23.9,2.5-35.9c0.4-6.7,0.7-13.4,1-20c0.1-2.2-0.3-3.8-3.3-3.8
			c-4.3,0-8.7-0.5-13-0.7c-10.8-0.5-21.5-0.7-32.3-1.3c-15.3-0.8-30.5-1.9-45.8-2.7c-14.7-0.7-29.4-1.1-44.1-1.9
			c-2.6-0.1-3.5,0.8-3.7,3c-0.3,2.8-0.4,5.5-0.8,8.3c-0.8,6.3-6.2,11.4-12.3,11.2c-7.5-0.2-15-0.8-22.5-1.3
			c-14.2-0.8-28.5-1.7-42.7-2.4c-15.6-0.8-31.2-1.3-46.9-2.1c-9.3-0.5-18.6-1.2-27.8-1.7c-12.2-0.7-24.3-1-36.5-1.9
			c-9.1-0.6-13.2-5.2-13-14.6c0-2.3,0.3-4.6,0.1-6.8c-0.1-1-1.2-2.3-2.1-2.6c-1.7-0.6-3.6-0.7-5.5-0.8c-11.7-0.6-23.3-1.2-35-1.7
			c-6.2-0.3-12.3-0.3-18.5-0.7c-5.8-0.4-11.6-1.2-17.5-1.5c-6.9-0.4-13.8-0.3-20.7-0.6c-13.3-0.7-26.6-1.4-39.9-2.4
			c-2.8-0.2-3.6,0.7-3.7,3.2c-0.3,6.8-0.6,13.6-0.9,20.4c-1,24.3-2,48.7-2.9,73c-0.8,21.6-1.4,43.1-2.2,64.7c-1,28-2.2,56-3.2,84
			c-0.8,21.8-1.7,43.6-2.5,65.5c-1.2,30.4-2.3,60.8-3.7,91.2c-0.2,4,1.3,5.2,4.7,5.4c6.9,0.4,13.7,0.8,20.6,1.1
			c19.3,0.9,38.5,1.7,57.8,2.5c9.5,0.4,19.1,0.7,28.6,1.1c8.7,0.4,17.4,0.7,26,1.7c7.1,0.8,10.8,5.8,10.5,12.9
			c-0.5,12.2-1.2,24.5-1.8,36.7C507.9,819.4,506.7,845.7,505.4,871.9z M513.6,299.9c0,0.3,0.1,0.7,0.1,1c-0.7-0.8-1.4-1.6-2.1-2.4
			c-1.9,2.1-3.7-0.3-5.5-0.3c-7.4-0.2-14.7-0.9-22.1-1.3c-13.9-0.8-27.7-1.6-41.6-2.3c-9.6-0.5-19.2-1.1-28.8-1.5
			c-4.4-0.2-8.8,0-13.2-0.3c-5.7-0.4-11.3-1.4-17-1.7c-9.8-0.5-19.6-0.8-29.4-1.1c-1.6,0-3.1,0.6-4.7,0.5
			c-8.2-0.6-16.3-1.4-24.5-2.1c-2.4-0.2-3.8,0.7-3.8,3.4c0,3.3-0.3,6.5-0.4,9.8c-0.8,22.2-1.5,44.3-2.3,66.5
			c-0.5,16.1-1,32.3-1.6,48.4c-0.6,17.8-1.3,35.5-1.9,53.3c-0.3,7.4-0.2,14.9-0.5,22.3c-0.6,16.7-1.4,33.5-2,50.2
			c-0.5,12.7-0.7,25.4-1.2,38.1c-0.6,14.8-1.5,29.7-2,44.5c-0.5,12.7-0.6,25.4-1,38.2c-0.5,12.9-1.4,25.7-1.8,38.6
			c-0.9,24.3-1.7,48.6-2.6,73c-0.9,22.6-1.9,45.3-2.8,67.9c-0.6,14-1.1,28-1.6,42c-0.7,17-1.5,34.1-2.2,51.1
			c-0.4,8.8-0.6,17.7-0.8,26.5c0,1.7-0.2,3.3,2.4,3.4c6.5,0.4,12.9,1.1,19.4,1.4c6.4,0.2,12.7-0.2,19.1,0c6.7,0.2,13.4,1.1,20.1,1.1
			c8.8,0.1,17.5,2,26.3,1.1c4.4-0.4,8.8,0.7,13.3,1c4.6,0.3,9.2,0.4,13.9,0.6c1.6,0.1,3.3,0,4.9,0c3,0.6,6.1,1.3,9.2,1.4
			c8.9,0.2,17.9,0.1,26.8,0.2c5.3,0.1,10.6,0.4,15.9,0.7c2.5,0.1,5,0.3,7.5,0.4c5.1,0.2,10.3,0.4,15.4,0.6c1.8,0.1,3.6,0,5.4,0.1
			c5.5,0.5,11,1.2,16.5,1.5c3.7,0.2,7.5-0.4,11.3-0.2c9.9,0.7,19.8,1.8,29.8,2.4c3.1,0.2,6.3-0.6,9.5-0.5c5.3,0.2,10.6,0.7,15.9,1
			c2.9,0.2,5.8,0,8.6,0.1c1.3,0.1,2.6,0.7,3.9,0.7c4.6,0.1,9.2-0.1,13.8,0.2c7.9,0.4,15.7,1.3,23.5,1.6c9.5,0.4,19.1,0.4,28.6,0.8
			c7.1,0.3,14.2,0.8,21.3,1.2c11.9,0.7,23.8,1.4,35.7,1.9c17.1,0.7,34.2,1.2,51.2,2c6.9,0.3,13.7,1.1,20.5,1.6
			c5.9,0.4,11.8,0.8,17.7,1c5.5,0.2,10.9,0.2,16.4,0.4c8,0.3,16,0.8,24,1.2c6.2,0.3,12.3,0.6,18.5,0.8c4.2,0.1,8.5,0.3,12.7,0
			c2.3-0.1,4.5-1.6,7,0.2c1.2,0.8,3-0.1,3.1-2.5c0.9-17.3,2-34.5,3-51.8c0.6-10.1,0.8-20.2,1.4-30.3c0.9-15.6,2.1-31.3,3-46.9
			c0.8-13.2,1.4-26.4,2.1-39.6c0.8-14,1.8-27.9,2.6-41.9c0.7-12.8,1.2-25.7,2-38.5c0.8-13.6,2-27.2,2.8-40.8
			c0.8-14.5,1.3-28.9,2.2-43.4c0.6-9.9,1.6-19.8,2.3-29.7c0.9-12.8,1.7-25.7,2.5-38.5c0.5-8.8,0.6-17.6,1.2-26.5
			c1.1-15.7,2.5-31.3,3.6-47c0.9-12.6,1.5-25.1,2.2-37.7c0.9-15.5,1.8-30.9,2.9-46.4c1.2-18.1,2.6-36.2,3.9-54.3
			c0.9-12.3,1.9-24.6,2.5-37c0.3-6.6,0.1-13.3,0.1-20c-0.5,0.2-1.3,0.7-2,0.6c-6-0.5-12-1.3-18-1.6c-9.6-0.5-19.1-0.5-28.7-0.9
			c-7.6-0.3-15.2-0.9-22.7-1.3c-8.6-0.5-17.1-1.1-25.7-1.5c-1.5-0.1-3.1,0.8-4.6,1.2c-2.1-0.9-4.3-1.2-6.5-1.4
			c-5.7-0.5-11.5-1-17.3-1.2c-6.8-0.3-13.7-0.2-20.5-0.5c-6.3-0.3-12.5-0.9-18.8-1.2c-6.2-0.3-12.3-0.5-18.5-0.7
			c-3.5-0.1-7-0.2-10.5-0.3c-0.7,0-1.7,0.7-1.9,0.4c-3.3-3.2-3.4-0.6-3.5,1.9c-0.1,2-0.3,4.1,0.1,6c0.1,0.8,1.7,1.3,2.6,1.9
			c0.6-2.3,0.8-0.5,1.6,0c3.8,2.8,8.4,1.4,12.6,2.4c2.8,0.7,6-0.2,9,0c4.3,0.3,8.5,1.1,12.8,1.2c8.7,0.2,17.5,0.1,26.3,0.2
			c3.8,0,7.5,0.1,11.3,0.4c5.4,0.4,10.8,1.3,16.3,1.6c8,0.5,16,0.6,24,1.1c6.6,0.4,13.2,1.2,19.8,1.5c5.2,0.2,10.3-0.3,15.5,0
			c9,0.5,10.5,1.6,12.6,10.3c0.8,3.2,0.4,6.7,0.2,10c-1.2,20.7-2.5,41.4-3.7,62.2c-0.7,12.2-1.2,24.4-1.9,36.6
			c-0.5,8.3-1.4,16.7-2.1,25c-0.1,1.2,0.1,2.5,0.1,3.8c0.1,1.5,0.3,3,0.2,4.5c-0.7,8.9-1.5,17.9-2.2,26.8c-0.3,4.1-0.5,8.2-0.8,12.2
			c-0.7,10.2-1.7,20.3-2.1,30.5c-0.3,7.8-0.1,15.7-0.1,24c-0.4-1-0.6-1.7-1.2-3c-0.3,1.2-0.4,1.7-0.4,2.1c-1,17.9-2.1,35.7-3.1,53.6
			c-0.8,14.3-1.7,28.6-2.5,42.8c-1,17.1-2,34.2-2.9,51.3c-0.1,0.9,0.3,1.9,0.5,2.8c0.4,1.6,0.7,3.2,1.3,5.6
			c-1.3-1.1-1.7-1.5-2.6-2.1c-0.3,9-0.4,17.7-0.9,26.3c-0.4,7.2-1.4,14.4-1.9,21.6c-0.3,4,0.1,8.1-0.2,12.1c-1,14.3-2.2,28.6-3.1,43
			c-1,16.3-1.8,32.6-2.7,48.9c-0.6,11.7-1.2,23.4-2,35.1c-0.4,6.4-5.9,12.3-11.8,12.3c-8.6,0-17.3-0.5-25.9-0.9
			c-3.4-0.1-6.9-0.3-10.3-0.5c-4.4-0.3-8.8-0.9-13.1-1c-7-0.3-13.9-0.1-20.9-0.4c-7.3-0.3-14.7-1.1-22-1.5
			c-11.2-0.6-22.3-1-33.5-1.6c-6.9-0.4-13.8-1.1-20.7-1.5c-8.7-0.5-17.4-0.3-26.2-1.5c-6.2-0.9-12.6-0.2-19-0.1
			c-4.2,0.1-8.3,0.6-12.5,0.3c-3.2-0.2-6.2-1.5-9.4-1.7c-6-0.4-12.1-0.3-18.1-0.4c-7.2-0.2-14.4-0.4-21.5-0.6c-1.6,0-3.2,0-4.7-0.1
			c-4.9-0.4-9.8-1-14.7-1.3c-5.5-0.4-11-0.6-16.6-0.8c-1.3,0-2.7,0.5-3.8,0.7c-1.3-0.4-2.7-1.3-4.1-1.3c-6.1-0.2-12.3,0.1-18.4-0.2
			c-9.1-0.4-18.2-1.3-27.3-1.8c-2.6-0.1-5.2,0.6-7.7,0.5c-8.4-0.2-13.3-6.2-18.5-11.6c-3.4-3.6-6.4-7.6-9.8-11.2
			c-2.8-2.9-6.2-5.2-9-8.1c-6.7-7-13.3-14.1-19.9-21.2c-6.2-6.6-12.3-13.3-18.6-19.9c-1.7-1.8-4-3-5.7-4.8
			c-4.5-4.7-8.8-9.7-13.3-14.5c-1.1-1.1-2.9-1.6-3.8-2.8c-3.3-3.9-6.1-8.1-9.6-11.9c-4.2-4.6-8.8-8.8-13.2-13.2
			c-1.9-1.9-4-3.6-5.8-5.6c-3.1-3.6-5.9-7.4-9.1-11c-1-1.1-2.7-1.6-4-2.5c-1.3-1-2.5-2.3-3.6-3.5c-3.2-3.7-6-7.9-9.6-11.2
			c-3.6-3.3-5.1-7.4-5.5-11.7c-0.4-4.2,0.5-8.5,0.6-12.7c0.1-3.8-0.4-7.6,0.1-11.3c0.7-5.5-0.5-11,1.2-16.6
			c1.3-4.2-0.2-9.1-0.5-13.3c0.2,0.4,0.8,1.3,2,3.1c0-1.7,0-2.4,0-3.2c-0.2-4-0.7-8-0.6-12c0.2-5.3,1-10.6,1.3-15.8
			c0.1-1.8-0.7-3.7-0.7-5.5c0.1-4.1,0.6-8.1,0.7-12.2c0.1-3.4-1.4-7.7,0.2-9.9c2.7-3.8,0.4-6-0.5-8.3c0.6-1.4,1.3-2.5,1.4-3.6
			c0.3-4.1,0.7-8.2,0.7-12.3c0-4.6-0.6-9.1-0.4-13.7c0.3-5.8,2.3-11.5,0.9-17.4c-0.1-0.2,0-0.5,0.1-0.7c2.3-5.1,0.9-10.4,0.8-15.6
			c-0.1-2.6-0.5-5.2-0.3-7.8c0.3-3.5,1.4-6.9,1.7-10.4c0.3-3.2,0-6.5-0.1-9.8c-0.1-2.7-2-5.2,0.9-8.2c1.4-1.5-0.1-5.7,0-8.6
			c0.2-5.4-1.9-11,0.9-16.3c0.4-0.7-0.1-1.7-0.1-2.6c-0.1-5.8-0.5-11.6-0.4-17.3c0.1-4.9,1-9.8,1.2-14.7c0.4-7.6,0.5-15.2,0.9-22.7
			c0.4-9.5,0.9-19,1.3-28.5c0.2-4.2,0.6-8.4,0.6-12.7c0-7.6-0.2-15.3-0.2-22.9c0-1.6,0.8-3.1,1.3-4.8c-0.6-0.6-1.3-1.2-1.2-1.2
			c0.5-3.7,1.2-6.7,1.3-9.6c0.2-4.6-0.2-9.2-0.1-13.8c0.2-6.2,0.5-12.5,1-18.7c0.4-6.4,0.8-12.8,1.6-19.2c1.1-8.8,2.8-11.7,11.4-13
			c4.5-0.7,9.5-1.7,14.2,0.9c1,0.5,2.6-0.1,3.9-0.1c2.4-0.1,4.9-0.5,7.3-0.4c6,0.4,11.9,1,17.9,1.5c5.6,0.4,11.2,0.6,16.8,0.9
			c2.5,0.1,5,0.4,7.4,0.5c6.2,0.3,12.4,0.5,18.5,0.9c5.8,0.4,11.7,1.2,17.5,1.3c8.8,0.1,17.6,0.3,26.3,1c8.5,0.7,17.1,0.7,26.1,1
			c0.2-3.1,0.7-5.6,0.5-8c-0.1-1.3-1.3-3.2-2.4-3.5C517.2,298.8,515.3,299.6,513.6,299.9z M556.4,337.8c0.1-0.3,0.2-0.5,0.2-0.8
			c0.9,0.7,1.8,1.8,2.7,1.9c2.9,0.2,5.9,0.1,8.8-0.1c6.6-0.5,13.3,0.2,19.7,0.7c5.6,0.4,11.3,0.1,16.9,0.8c7.3,0.9,14.8,1,22.1,1.5
			c5.3,0.4,10.6,1.2,15.9,1.4c6.5,0.3,13,0,19.5,0.2c4.9,0.1,9.8,0.8,14.7,0.9c5.9,0.2,11.8,0,17.7,0.3c4.9,0.3,4.9,0.6,5.1-4.5
			c0.4-8.2,0.9-16.4,1.3-24.5c0.5-8.6,0.9-17.1,1.3-25.7c0.1-2.1,0.3-4.4-3.2-4.2c-3.2,0.2-6.5-0.1-9.7-0.2
			c-3.6-0.1-7.3-0.2-10.9-0.4c-7.1-0.4-14.2-0.9-21.3-1.3c-6.2-0.3-12.4-0.5-18.5-0.9c-6.3-0.4-12.6-1.1-19-1.4
			c-8.9-0.5-17.9-0.7-26.9-1.3c-12.1-0.7-24.1-1.6-36.2-2.3c-2.7-0.2-5.4,0-8.4,0c-0.7,18.2-1.5,36.2-2.1,54.2
			c-0.1,1.8,0.5,5.1,1.4,5.3C550.4,338.3,553.5,337.8,556.4,337.8z M480.5,867.2c0.4-0.2,0.8-0.3,1.2-0.5c0.4-5.6,1-11.2,1.3-16.8
			c0.7-14.7,1.2-29.5,1.8-44.2c0.5-11.6,1-23.2,1.7-34.7c0.2-3.2-0.6-4.8-4.2-4.5c-2.6,0.2-5.1-0.4-7.7-0.5
			c-9-0.4-18.1-0.7-27.1-1.1c-9.5-0.4-19-1-28.5-1.5c-8.5-0.5-17-1.1-25.5-1.5c-3.8-0.2-7.6,0-11.3,0c-0.2,0.4-0.4,0.9-0.6,1.3
			C414.6,797.8,447.6,832.5,480.5,867.2z M651,258.2c0.3-3.7,1-6.8,0.7-9.7c-1.2-10.6-9-20.3-22.6-21.6c-6.9-0.6-13,1.7-18.5,5.9
			c-5.7,4.3-9.6,13.4-8,20.1c0.2,0.9,1.2,2.1,1.9,2.1c3.2,0.1,6.4-0.1,9.6-0.2c2.1,0,4.2,0,6.2,0.2c3.8,0.3,7.5,1.7,11.5,0.9
			c3.1-0.6,6.6,0.6,9.9,0.8c1,0.1,2.1-0.3,4.1-0.7C646.3,256.4,648,257.1,651,258.2z"/>
		<g>
			<path class="st1" d="M862.5,354.6c-4.3,0-8.7-0.5-13-0.7c-10.8-0.5-21.5-0.7-32.3-1.3c-15.3-0.8-30.5-1.9-45.8-2.7
				c-14.7-0.7-29.4-1.1-44.1-1.9c-2.6-0.1-3.5,0.8-3.7,3c-0.3,2.8-0.4,5.5-0.8,8.3c-0.8,6.3-6.2,11.4-12.3,11.2
				c-7.5-0.2-15-0.8-22.5-1.3c-14.2-0.8-28.5-1.7-42.7-2.4c-15.6-0.8-31.2-1.3-46.9-2.1c-9.3-0.5-18.6-1.2-27.8-1.7
				c-12.2-0.7-24.3-1-36.5-1.9c-9.1-0.6-13.2-5.2-13-14.6c0-2.3,0.3-4.6,0.1-6.8c-0.1-1-1.2-2.3-2.1-2.6c-1.7-0.6-3.6-0.7-5.5-0.8
				c-11.7-0.6-23.3-1.2-35-1.7c-6.2-0.3-12.3-0.3-18.5-0.7c-5.8-0.4-11.6-1.2-17.5-1.5c-6.9-0.4-13.8-0.3-20.7-0.6
				c-13.3-0.7-26.6-1.4-39.9-2.4c-2.8-0.2-3.6,0.7-3.7,3.2c-0.3,6.8-0.6,13.6-0.9,20.4c-1,24.3-2,48.7-2.9,73
				c-0.8,21.6-1.4,43.1-2.2,64.7c-1,28-2.2,56-3.2,84c-0.8,21.8-1.7,43.6-2.5,65.5c-1.2,30.4-2.3,60.8-3.7,91.2
				c-0.2,4,1.3,5.2,4.7,5.4c6.9,0.4,13.7,0.8,20.6,1.1c19.3,0.9,38.5,1.7,57.8,2.5c9.5,0.4,19.1,0.7,28.6,1.1
				c8.7,0.4,17.4,0.7,26,1.7c7.1,0.8,10.8,5.8,10.5,12.9c-0.5,12.2-1.2,24.5-1.8,36.7c-1.3,26.2-2.5,52.5-3.8,78.7c0,0,0.1,0,0.1,0
				c-0.2,3.4-0.3,6.8-0.5,10.2c-0.2,2.9,0.5,4.4,3.9,4.5c14.2,0.5,28.4,1.3,42.6,2c16.8,0.8,33.6,1.6,50.4,2.4
				c13.7,0.6,27.4,1.1,41.1,1.7c11.4,0.5,22.8,1.3,34.2,1.9c11.4,0.6,22.9,1,34.3,1.6c8.9,0.4,17.8,1,26.8,1.5
				c8.3,0.4,16.6,0.7,24.9,1.1c9.7,0.5,19.3,1.2,29,1.6c11.9,0.5,23.8,0.8,35.7,1.4c5.1,0.3,5.5,0.3,5.8-4.7
				c0.8-11.8,1.4-23.7,2.1-35.5c1.1-19.4,2.4-38.8,3.5-58.2c0.9-16.4,1.7-32.8,2.6-49.2c1.5-25.6,3.3-51.2,4.8-76.7
				c1.3-22.4,2.4-44.9,3.7-67.3c1.2-20.4,2.7-40.8,3.9-61.2c1.2-20,2.3-40.1,3.5-60.1c1.5-24.8,2.9-49.7,4.5-74.5
				c0.7-12,1.7-23.9,2.5-35.9c0.4-6.7,0.7-13.4,1-20C865.8,356.3,865.4,354.6,862.5,354.6z"/>
			<path class="st2" d="M678.2,669.7C678.2,669.7,678.3,669.7,678.2,669.7c0.1,0.1,0.1,0.1,0.1,0.1L678.2,669.7z"/>
		</g>
		<path class="st3" d="M513.6,299.9c1.7-0.3,3.6-1,5.1-0.6c1.1,0.3,2.3,2.2,2.4,3.5c0.2,2.4-0.3,4.9-0.5,8c-8.9-0.3-17.5-0.3-26.1-1
			c-8.8-0.7-17.5-0.8-26.3-1c-5.8-0.1-11.7-0.9-17.5-1.3c-6.2-0.4-12.3-0.6-18.5-0.9c-2.5-0.1-5-0.4-7.4-0.5
			c-5.6-0.3-11.2-0.5-16.8-0.9c-6-0.4-11.9-1.1-17.9-1.5c-2.4-0.1-4.9,0.2-7.3,0.4c-1.3,0.1-2.9,0.7-3.9,0.1
			c-4.6-2.6-9.6-1.6-14.2-0.9c-8.6,1.3-10.4,4.2-11.4,13c-0.8,6.4-1.1,12.8-1.6,19.2c-0.4,6.2-0.8,12.5-1,18.7
			c-0.1,4.6,0.2,9.2,0.1,13.8c-0.1,2.9-0.7,5.9-1.3,9.6c0,0,0.6,0.6,1.2,1.2c-0.4,1.6-1.2,3.2-1.3,4.8c0,7.6,0.2,15.3,0.2,22.9
			c0,4.2-0.4,8.4-0.6,12.7c-0.5,9.5-0.9,19-1.3,28.5c-0.3,7.6-0.5,15.2-0.9,22.7c-0.3,4.9-1.1,9.8-1.2,14.7
			c-0.1,5.8,0.2,11.6,0.4,17.3c0,0.9,0.4,1.9,0.1,2.6c-2.8,5.3-0.7,10.9-0.9,16.3c-0.1,3,1.4,7.1,0,8.6c-2.8,3-0.9,5.5-0.9,8.2
			c0.1,3.3,0.4,6.5,0.1,9.8c-0.3,3.5-1.3,6.9-1.7,10.4c-0.2,2.6,0.2,5.2,0.3,7.8c0.1,5.2,1.6,10.5-0.8,15.6
			c-0.1,0.2-0.2,0.5-0.1,0.7c1.4,5.9-0.6,11.6-0.9,17.4c-0.2,4.5,0.4,9.1,0.4,13.7c0,4.1-0.3,8.2-0.7,12.3c-0.1,1.1-0.8,2.1-1.4,3.6
			c0.9,2.3,3.3,4.5,0.5,8.3c-1.6,2.2-0.1,6.5-0.2,9.9c-0.1,4.1-0.6,8.1-0.7,12.2c0,1.8,0.8,3.7,0.7,5.5c-0.3,5.3-1.1,10.6-1.3,15.8
			c-0.1,4,0.4,8,0.6,12c0,0.7,0,1.5,0,3.2c-1.1-1.8-1.7-2.7-2-3.1c0.2,4.1,1.7,9.1,0.5,13.3c-1.7,5.6-0.5,11.1-1.2,16.6
			c-0.5,3.7,0,7.6-0.1,11.3c-0.1,4.3-1,8.6-0.6,12.7c0.4,4.3,1.9,8.4,5.5,11.7c3.6,3.3,6.4,7.5,9.6,11.2c1.1,1.3,2.3,2.5,3.6,3.5
			c1.2,1,3,1.4,4,2.5c3.1,3.5,6,7.4,9.1,11c1.8,2,3.9,3.7,5.8,5.6c4.4,4.4,9,8.6,13.2,13.2c3.4,3.7,6.3,8,9.6,11.9
			c1,1.2,2.8,1.7,3.8,2.8c4.5,4.8,8.8,9.7,13.3,14.5c1.7,1.8,4,3,5.7,4.8c6.3,6.6,12.4,13.2,18.6,19.9c6.6,7.1,13.2,14.2,19.9,21.2
			c2.8,2.9,6.2,5.2,9,8.1c3.4,3.6,6.4,7.6,9.8,11.2c5.2,5.3,10.1,11.4,18.5,11.6c2.6,0.1,5.2-0.7,7.7-0.5c9.1,0.5,18.2,1.3,27.3,1.8
			c6.1,0.3,12.3,0,18.4,0.2c1.4,0,2.8,0.9,4.1,1.3c1.2-0.2,2.5-0.7,3.8-0.7c5.5,0.2,11.1,0.4,16.6,0.8c4.9,0.3,9.8,0.9,14.7,1.3
			c1.6,0.1,3.2,0.1,4.7,0.1c7.2,0.2,14.4,0.4,21.5,0.6c6,0.1,12.1,0.1,18.1,0.4c3.2,0.2,6.2,1.6,9.4,1.7c4.1,0.2,8.3-0.3,12.5-0.3
			c6.3-0.1,12.8-0.8,19,0.1c8.7,1.2,17.4,1.1,26.2,1.5c6.9,0.4,13.8,1.1,20.7,1.5c11.2,0.6,22.3,1,33.5,1.6c7.3,0.4,14.7,1.2,22,1.5
			c6.9,0.3,13.9,0.2,20.9,0.4c4.4,0.2,8.8,0.7,13.1,1c3.4,0.2,6.9,0.4,10.3,0.5c8.6,0.3,17.3,0.9,25.9,0.9c5.9,0,11.4-5.9,11.8-12.3
			c0.8-11.7,1.3-23.4,2-35.1c0.9-16.3,1.7-32.6,2.7-48.9c0.9-14.3,2.2-28.6,3.1-43c0.3-4-0.1-8.1,0.2-12.1
			c0.5-7.2,1.5-14.4,1.9-21.6c0.5-8.6,0.6-17.3,0.9-26.3c0.8,0.7,1.2,1,2.6,2.1c-0.6-2.5-0.9-4.1-1.3-5.6c-0.2-0.9-0.6-1.9-0.5-2.8
			c0.9-17.1,1.9-34.2,2.9-51.3c0.8-14.3,1.7-28.6,2.5-42.8c1-17.9,2.1-35.7,3.1-53.6c0-0.5,0.2-0.9,0.4-2.1c0.5,1.4,0.8,2,1.2,3
			c0-8.3-0.3-16.2,0.1-24c0.5-10.2,1.4-20.3,2.1-30.5c0.3-4.1,0.5-8.2,0.8-12.2c0.7-8.9,1.5-17.9,2.2-26.8c0.1-1.5-0.1-3-0.2-4.5
			c-0.1-1.3-0.2-2.5-0.1-3.8c0.7-8.3,1.6-16.6,2.1-25c0.8-12.2,1.2-24.4,1.9-36.6c1.2-20.7,2.5-41.4,3.7-62.2
			c0.2-3.3,0.6-6.8-0.2-10c-2.1-8.7-3.7-9.8-12.6-10.3c-5.2-0.3-10.3,0.2-15.5,0c-6.6-0.3-13.2-1.1-19.8-1.5c-8-0.5-16-0.6-24-1.1
			c-5.4-0.3-10.8-1.2-16.3-1.6c-3.7-0.3-7.5-0.4-11.3-0.4c-8.8-0.1-17.5,0-26.3-0.2c-4.3-0.1-8.5-1-12.8-1.2c-3-0.2-6.1,0.7-9,0
			c-4.2-1-8.9,0.4-12.6-2.4c-0.7-0.5-1-2.3-1.6,0c-0.9-0.6-2.5-1.1-2.6-1.9c-0.4-1.9-0.2-4-0.1-6c0.1-2.4,0.2-5.1,3.5-1.9
			c0.3,0.3,1.3-0.4,1.9-0.4c3.5,0,7,0.2,10.5,0.3c6.2,0.2,12.4,0.3,18.5,0.7c6.3,0.3,12.5,1,18.8,1.2c6.8,0.3,13.7,0.2,20.5,0.5
			c5.8,0.2,11.5,0.8,17.3,1.2c2.2,0.2,4.4,0.5,6.5,1.4c1.5-0.4,3.1-1.3,4.6-1.2c8.6,0.4,17.1,1,25.7,1.5c7.6,0.5,15.2,1,22.7,1.3
			c9.6,0.4,19.1,0.4,28.7,0.9c6,0.3,12,1.1,18,1.6c0.7,0.1,1.5-0.4,2-0.6c0,6.7,0.3,13.4-0.1,20c-0.6,12.3-1.6,24.7-2.5,37
			c-1.3,18.1-2.7,36.2-3.9,54.3c-1.1,15.5-2,30.9-2.9,46.4c-0.8,12.6-1.3,25.2-2.2,37.7c-1.1,15.7-2.5,31.3-3.6,47
			c-0.6,8.8-0.7,17.6-1.2,26.5c-0.7,12.8-1.6,25.7-2.5,38.5c-0.7,9.9-1.8,19.8-2.3,29.7c-0.9,14.5-1.3,28.9-2.2,43.4
			c-0.8,13.6-1.9,27.2-2.8,40.8c-0.8,12.8-1.3,25.7-2,38.5c-0.8,14-1.8,27.9-2.6,41.9c-0.8,13.2-1.3,26.4-2.1,39.6
			c-0.9,15.6-2.1,31.3-3,46.9c-0.6,10.1-0.9,20.2-1.4,30.3c-1,17.3-2.1,34.5-3,51.8c-0.1,2.4-1.9,3.3-3.1,2.5
			c-2.5-1.8-4.6-0.4-7-0.2c-4.2,0.2-8.5,0.1-12.7,0c-6.2-0.2-12.3-0.5-18.5-0.8c-8-0.4-16-0.9-24-1.2c-5.5-0.2-10.9-0.2-16.4-0.4
			c-5.9-0.3-11.8-0.6-17.7-1c-6.8-0.5-13.7-1.3-20.5-1.6c-17.1-0.8-34.2-1.3-51.2-2c-11.9-0.5-23.8-1.3-35.7-1.9
			c-7.1-0.4-14.2-1-21.3-1.2c-9.5-0.4-19.1-0.3-28.6-0.8c-7.9-0.3-15.7-1.2-23.5-1.6c-4.6-0.3-9.2-0.1-13.8-0.2
			c-1.3,0-2.6-0.7-3.9-0.7c-2.9-0.1-5.8,0-8.6-0.1c-5.3-0.3-10.6-0.9-15.9-1c-3.2-0.1-6.4,0.8-9.5,0.5c-9.9-0.7-19.9-1.7-29.8-2.4
			c-3.7-0.3-7.5,0.4-11.3,0.2c-5.5-0.3-11-1-16.5-1.5c-1.8-0.1-3.6,0-5.4-0.1c-5.1-0.2-10.3-0.4-15.4-0.6c-2.5-0.1-5-0.3-7.5-0.4
			c-5.3-0.2-10.6-0.6-15.9-0.7c-8.9-0.1-17.9,0-26.8-0.2c-3.1-0.1-6.2-0.8-9.2-1.4c-1.6,0-3.3,0.1-4.9,0c-4.6-0.2-9.3-0.3-13.9-0.6
			c-4.4-0.3-8.9-1.4-13.3-1c-8.9,0.8-17.5-1.1-26.3-1.1c-6.7,0-13.4-0.9-20.1-1.1c-6.4-0.2-12.7,0.2-19.1,0
			c-6.5-0.2-12.9-1-19.4-1.4c-2.5-0.1-2.4-1.8-2.4-3.4c0.3-8.8,0.5-17.7,0.8-26.5c0.7-17,1.5-34.1,2.2-51.1c0.6-14,1.1-28,1.6-42
			c0.9-22.6,1.9-45.3,2.8-67.9c0.9-24.3,1.6-48.6,2.6-73c0.5-12.9,1.4-25.7,1.8-38.6c0.5-12.7,0.6-25.4,1-38.2
			c0.6-14.8,1.4-29.7,2-44.5c0.5-12.7,0.7-25.4,1.2-38.1c0.6-16.7,1.4-33.4,2-50.2c0.3-7.4,0.2-14.9,0.5-22.3
			c0.6-17.8,1.3-35.5,1.9-53.3c0.6-16.1,1-32.3,1.6-48.4c0.7-22.2,1.5-44.3,2.3-66.5c0.1-3.3,0.4-6.5,0.4-9.8c0-2.7,1.4-3.6,3.8-3.4
			c8.2,0.7,16.3,1.5,24.5,2.1c1.5,0.1,3.1-0.6,4.7-0.5c9.8,0.3,19.6,0.5,29.4,1.1c5.7,0.3,11.3,1.3,17,1.7c4.4,0.3,8.8,0.1,13.2,0.3
			c9.6,0.4,19.2,1,28.8,1.5c13.9,0.8,27.7,1.5,41.6,2.3c7.4,0.4,14.7,1.1,22.1,1.3c1.8,0.1,3.6,2.4,5.5,0.3c0.7,0.8,1.4,1.6,2.1,2.4
			C513.6,300.6,513.6,300.2,513.6,299.9z"/>
		<path class="st4" d="M556.4,337.8c-3,0-6,0.4-8.8-0.3c-0.9-0.2-1.4-3.5-1.4-5.3c0.6-18,1.4-36,2.1-54.2c3,0,5.7-0.1,8.4,0
			c12.1,0.7,24.1,1.6,36.2,2.3c8.9,0.5,17.9,0.8,26.9,1.3c6.3,0.4,12.6,1,19,1.4c6.2,0.4,12.4,0.6,18.5,0.9
			c7.1,0.4,14.2,0.9,21.3,1.3c3.6,0.2,7.3,0.3,10.9,0.4c3.2,0.1,6.5,0.4,9.7,0.2c3.5-0.2,3.3,2,3.2,4.2c-0.4,8.6-0.9,17.1-1.3,25.7
			c-0.4,8.2-0.9,16.4-1.3,24.5c-0.2,5-0.2,4.8-5.1,4.5c-5.9-0.4-11.8-0.1-17.7-0.3c-4.9-0.2-9.8-0.8-14.7-0.9
			c-6.5-0.2-13,0.1-19.5-0.2c-5.3-0.2-10.6-1.1-15.9-1.4c-7.4-0.5-14.8-0.6-22.1-1.5c-5.6-0.7-11.3-0.4-16.9-0.8
			c-6.5-0.4-13.1-1.2-19.7-0.7c-2.9,0.2-5.9,0.3-8.8,0.1c-0.9-0.1-1.8-1.2-2.7-1.9C556.6,337.3,556.5,337.6,556.4,337.8z"/>
		<path class="st4" d="M480.5,867.2c-33-34.7-66-69.4-98.9-104.1c0.2-0.4,0.4-0.9,0.6-1.3c3.8,0,7.6-0.1,11.3,0
			c8.5,0.4,17,1,25.5,1.5c9.5,0.5,19,1.1,28.5,1.5c9,0.4,18.1,0.7,27.1,1.1c2.6,0.1,5.2,0.6,7.7,0.5c3.5-0.2,4.3,1.4,4.2,4.5
			c-0.6,11.6-1.2,23.2-1.7,34.7c-0.6,14.7-1.1,29.5-1.8,44.2c-0.3,5.6-0.8,11.2-1.3,16.8C481.3,866.9,480.9,867,480.5,867.2z"/>
		<path class="st4" d="M651,258.2c-3-1.2-4.6-1.8-5.3-2.1c-2,0.3-3,0.7-4.1,0.7c-3.3-0.2-6.7-1.4-9.9-0.8c-4.1,0.7-7.7-0.6-11.5-0.9
			c-2.1-0.2-4.2-0.2-6.2-0.2c-3.2,0-6.4,0.3-9.6,0.2c-0.7,0-1.7-1.3-1.9-2.1c-1.6-6.7,2.3-15.8,8-20.1c5.6-4.2,11.7-6.5,18.5-5.9
			c13.7,1.3,21.4,11,22.6,21.6C652,251.5,651.3,254.6,651,258.2z"/>
		<path class="st5" d="M729.2,677.8c-0.2,0-0.4,0-0.6,0l-247-11.6c-6.9-0.3-12.2-6.2-11.9-13.1c0.3-6.9,6.2-12.2,13.1-11.9l247,11.6
			c6.9,0.3,12.2,6.2,11.9,13.1C741.3,672.6,735.8,677.8,729.2,677.8z"/>
		<path class="st5" d="M729.2,743c-0.2,0-0.4,0-0.6,0l-247-11.6c-6.9-0.3-12.2-6.2-11.9-13.1c0.3-6.9,6.2-12.2,13.1-11.9l247,11.6
			c6.9,0.3,12.2,6.2,11.9,13.1C741.3,737.8,735.8,743,729.2,743z"/>
		<path class="st5" d="M729.2,808.9c-0.2,0-0.4,0-0.6,0L542,800.1c-6.9-0.3-12.2-6.2-11.9-13.1c0.3-6.9,6.2-12.2,13.1-11.9
			l186.6,8.7c6.9,0.3,12.2,6.2,11.9,13.1C741.3,803.6,735.8,808.9,729.2,808.9z"/>
		<path class="st6" d="M546.3,563c1.1-2.6,2.2-5.2,3.4-7.7c2.2-4.8,4.5-9.5,6.7-14.3c2.3-5,4.5-10.1,6.8-15
			c2.5-5.3,5.2-10.4,7.8-15.7c2.7-5.5,5.2-11.1,7.8-16.7c4.9-10.5,9.7-21,14.6-31.5c2.1-4.5,4.4-9,6.8-13.3c2.1-3.7,5.4-5.5,9.7-6
			c6.2-0.7,9.8,2.6,11.8,7.8c3.2,8.4,6,17.1,9.1,25.6c3.5,9.7,7.1,19.3,10.6,28.9c2.1,5.9,4.2,11.7,6.3,17.6
			c2.2,6.3,4.5,12.5,6.7,18.8c2.9,8.3,5.7,16.6,8.4,24.9c1.9,6-4.5,12.9-10.8,12.5c-5.5-0.3-8.6-3.2-10.5-7.6
			c-2.7-5.9-5-12.1-7.3-18.2c-1.8-4.8-2.9-9.9-5.2-14.4c-0.9-1.7-4.4-2.4-6.9-2.6c-5.6-0.5-11.3-0.9-16.9-0.3
			c-4.4,0.5-8.5-0.8-12.7-0.8c-2,0-4-0.1-6-0.2c-3.6-0.2-4.1,3-5.1,5.1c-4.7,9.1-9,18.5-13.4,27.7c-2.7,5.6-9.2,7.9-14.8,5.4
			C548.4,570.6,546.8,568.2,546.3,563z M619,516.1c0.5-12.7-6.3-22.3-10.3-32.9c-4.5,8.7-8.6,17.2-12.5,25.9
			c-1.5,3.3-0.1,5.7,3.5,5.9C605.9,515.5,612.2,515.8,619,516.1z"/>
		<path class="st6" d="M680.9,482.3c-4.3-0.9-8.3-1.3-12.1-2.5c-6.1-2-7.7-6.7-6.8-11.7c0.7-4.1,7-7.8,11.5-7.2
			c5.7,0.7,7.8-0.7,8.8-6.2c0.7-4.1,1.2-8.1,5.3-10.7c3.9-2.4,8.1-3,11.8-0.9c4,2.3,6.4,5.8,5.6,11.4c-1.2,8.2,0.6,7.5,7.8,8.7
			c2.3,0.4,4.7,1.2,6.8,2.2c3.7,1.7,5.1,4.7,4,8.7c-1.1,4.3-3.6,6.6-7.9,7.1c-3.2,0.4-6.5,0.7-9.7,1.2c-0.9,0.1-2.1,1-2.3,1.8
			c-0.6,2.5-0.9,5.1-1.2,7.7c-0.4,4-3.5,7-7.4,8c-6,1.5-10.8,0.1-13.4-5.6c-1.1-2.4-1-5.4-1.2-8.1
			C680.5,484.8,680.8,483.3,680.9,482.3z"/>
	</g>
</g>
</svg>
