<?xml version="1.0" encoding="utf-8"?>
<!-- Generator: Adobe Illustrator 27.9.6, SVG Export Plug-In . SVG Version: 9.03 Build 54986)  -->
<svg version="1.1" id="레이어_1" xmlns="http://www.w3.org/2000/svg" xmlns:xlink="http://www.w3.org/1999/xlink" x="0px"
	 y="0px" viewBox="0 0 1223.8 1220.7" style="enable-background:new 0 0 1223.8 1220.7;" xml:space="preserve">
<style type="text/css">
	.st0{fill:#EDD9B0;}
	.st1{fill:#D66D51;}
	.st2{fill:#FFF7EB;}
	.st3{fill:#E5C62C;}
</style>
<g>
	<circle class="st0" cx="611.9" cy="610.3" r="608"/>
	<g>
		<path d="M853.2,785.2c6.9-0.5,11.8,0.7,14.2,6.6c3.7,9.1-2.6,13.9-8.8,19.3c5.9,6.5,11.7,12.7,17.5,19.1
			c23.7,26.2,47.6,52,70.9,78.6c21.7,24.8,16.6,66.3-9.7,85.9c-25.2,18.8-57.6,17.6-80.3-4.2c-14.6-14-27.7-29.6-41.4-44.6
			c-15.3-16.7-30.6-33.4-45.8-50.1c-2.7-3-4.5-0.8-6.2,0.8c-4.6,4.3-9.6,6.6-15.8,3.6c-5.6-2.7-6.2-7.7-6.1-14.1
			c-4.2,3.7-7.6,6.6-11,9.7c-26.1,23.5-51.8,47.5-78.5,70.3c-36.4,31-92.4,27-124.7-8.1c-35.8-39-71.4-78.2-107.2-117.2
			c-31.3-34.1-62.7-68.1-94.1-102.2c-21.6-23.4-43.5-46.4-64.6-70.2c-18.8-21.4-33.2-45.6-43.6-72.3
			c-12.6-32.4-18.6-65.9-17.5-100.5c1-29.8,7.1-58.6,18.4-86.4c14-34.6,34.9-64.3,62-89.6c21.8-20.4,46.8-36.1,74.5-47.6
			c25-10.4,50.9-16.7,77.9-18.4c35.6-2.3,70.4,1.9,104.1,14.3c16.2,5.9,31.8,13,46.1,22.3c11.4,7.4,22.2,15.7,32.9,24.2
			c4.2,3.3,6.8,2.9,10.8,0c35.1-25.2,74.2-40.1,117-45c29.7-3.4,59.2-1.5,88.3,5.2c22.3,5.2,43.5,13.5,63.4,24.9
			c13.7,7.9,27.2,16.1,38.5,27.2c11,10.8,22.6,21.1,32.8,32.6c12.2,13.8,21.8,29.6,30.1,46.2c13.1,26.5,21.8,54.2,25,83.6
			c3.1,28.1,2.2,56-4,83.8c-10.7,48-32.8,90-67.9,124.5c-20.6,20.3-42.7,39.1-64.2,58.5C875.3,765.3,864.7,774.8,853.2,785.2z
			 M827.1,775.6c3.2-2.8,6.2-5.4,9.1-8c23.2-20.8,46.5-41.4,69.4-62.5c13.9-12.8,27.9-25.8,40.5-39.9c19.5-21.8,33-47.3,41.9-75.2
			c9.6-29.7,13-59.9,10.1-91c-1.7-18.1-4.5-36.1-11-52.9c-6.2-15.9-13.8-31.3-22-46.2c-11.2-20.4-27.1-37.3-44.7-52.5
			c-17.1-14.8-36.1-26.6-56.8-35.8c-16.7-7.4-34.1-12.4-52-15.5c-10.1-1.8-20.5-3.7-30.7-3.4c-17.2,0.5-34.6,1.9-51.6,4.4
			c-25.9,3.9-50.1,13.6-72.5,27.1c-9.7,5.8-18.7,12.8-28,19.2c-7,4.8-13.1,4.6-19.1-0.8c-13.5-12.2-27.6-23.5-43.3-32.8
			c-26.3-15.7-54.5-25.7-84.6-30c-23.8-3.4-47.7-2.8-71.5,1.6c-30.1,5.5-57.9,16.3-83.4,33.1c-39,25.8-67.5,60.2-85.3,103.6
			c-7.4,18.2-12.4,36.9-15,56.2c-2.4,18-2.3,36.1-0.5,54.3c2.6,25.9,10.2,50.2,21.1,73.5c9.5,20.4,22.5,38.6,37.5,55.2
			c27.2,30.2,55,59.8,82.6,89.6c16.2,17.5,32.5,34.7,48.6,52.3c17.4,19,34.5,38.3,51.8,57.4c24.8,27.2,49.8,54.1,74.6,81.4
			c10.4,11.4,22.8,19.8,37.8,22.9c23.1,4.8,43.5-1.4,60.9-17.3c8.6-7.8,17.3-15.6,26-23.4c21.6-19.5,43.3-39,64.9-58.6
			c1-0.9,2.2-3.1,1.8-3.5c-2.3-3-4.7-6.2-7.8-8.3c-1.2-0.8-4.3,0.9-6.3,1.9c-20.2,10-41.7,15.8-63.8,18.9
			c-24.5,3.4-49.1,2.8-73.5-1.8c-22.2-4.2-43.4-11.2-63.5-21.7c-32.2-16.8-58.8-39.7-80.2-69c-12.9-17.6-23.3-36.5-30.4-57
			c-10.7-30.6-15.3-62-12.2-94.6c2.1-21.8,6.6-42.9,14.3-63.4c11.4-30.2,29-56.3,51.7-79.3c19.2-19.4,41.3-34.8,65.9-46.3
			c30.6-14.3,63-21.2,96.8-21c20.8,0.1,41.1,2.7,61.1,8.3c17,4.8,33.2,11.4,48.8,19.9c16.6,9.1,31.7,20.2,45.5,33
			c13.2,12.2,24.7,25.9,34.8,40.9c14.5,21.7,24.9,45.1,31.2,70.2c4.8,19,6.8,38.6,6.8,58.3c-0.1,18.5-2.6,36.8-7.3,54.7
			c-5.5,20.9-13.3,41.1-25,59.5c-2.1,3.3-3.1,6.1,1.3,8.6C823.7,770.9,824.9,773.1,827.1,775.6z M622.3,848.3
			C733,850,830.3,761,829.1,641.8c-1.1-106.5-89.9-204.9-211.9-201.4c-55.7,1.6-103.2,22.9-141.7,63.3
			c-40.2,42.2-58.5,93.1-55.9,151C424,755.7,507.2,846.5,622.3,848.3z M785.4,876.7c1.7,2.1,2.9,3.7,4.2,5.1
			c25.8,28.5,51.6,57,77.5,85.4c5.7,6.3,11.8,11.8,20.3,14.8c16,5.6,36.5-1.5,44.6-16.3c8.8-16,6.1-32-7.7-47
			c-25.3-27.4-50.5-54.9-75.6-82.3c-8.3-9.1-8.3-9.2-17.3-1.1C816.2,848.9,801,862.6,785.4,876.7z M803.3,786.4
			c-9,9.2-17.1,18.3-26.1,26.4c-9.1,8.2-19.1,15.3-29,23.2c6.8,7.6,13.8,15.3,20.9,23.2c1.8-1.4,3.3-2.4,4.7-3.6
			c15.2-13.7,30.4-27.3,45.5-41.1c5.7-5.2,6-3.9,0.7-9.7C814.4,798.7,809,792.6,803.3,786.4z"/>
		<path class="st1" d="M827.1,775.6c-2.2-2.4-3.4-4.7-5.3-5.8c-4.4-2.5-3.4-5.2-1.3-8.6c11.6-18.4,19.5-38.5,25-59.5
			c4.7-17.8,7.3-36.1,7.3-54.7c0.1-19.7-2-39.2-6.8-58.3c-6.3-25.1-16.7-48.6-31.2-70.2c-10.1-15-21.6-28.7-34.8-40.9
			c-13.8-12.8-28.9-23.9-45.5-33c-15.6-8.5-31.8-15.1-48.8-19.9c-20-5.6-40.4-8.2-61.1-8.3c-33.8-0.2-66.2,6.7-96.8,21
			c-24.6,11.5-46.7,26.8-65.9,46.3c-22.7,22.9-40.2,49.1-51.7,79.3c-7.7,20.4-12.2,41.5-14.3,63.4c-3.1,32.6,1.5,64,12.2,94.6
			c7.1,20.5,17.5,39.4,30.4,57c21.4,29.3,48.1,52.3,80.2,69c20.1,10.5,41.4,17.5,63.5,21.7c24.4,4.6,49,5.2,73.5,1.8
			c22.1-3.1,43.6-8.9,63.8-18.9c2-1,5.2-2.7,6.3-1.9c3.1,2.1,5.5,5.3,7.8,8.3c0.4,0.5-0.8,2.7-1.8,3.5
			c-21.6,19.6-43.2,39.1-64.9,58.6c-8.7,7.8-17.3,15.6-26,23.4c-17.5,15.9-37.8,22.1-60.9,17.3c-15-3.1-27.4-11.5-37.8-22.9
			c-24.8-27.2-49.8-54.2-74.6-81.4c-17.4-19-34.4-38.4-51.8-57.4c-16.1-17.6-32.4-34.8-48.6-52.3c-27.6-29.8-55.4-59.5-82.6-89.6
			c-15-16.6-28-34.8-37.5-55.2c-10.9-23.3-18.5-47.7-21.1-73.5c-1.8-18.2-1.9-36.2,0.5-54.3c2.6-19.3,7.5-38.1,15-56.2
			c17.8-43.4,46.3-77.8,85.3-103.6c25.4-16.9,53.3-27.7,83.4-33.1c23.8-4.4,47.7-5,71.5-1.6c30.1,4.3,58.3,14.4,84.6,30
			c15.7,9.4,29.8,20.6,43.3,32.8c6,5.4,12.1,5.6,19.1,0.8c9.3-6.4,18.3-13.4,28-19.2c22.4-13.5,46.5-23.2,72.5-27.1
			c17.1-2.6,34.4-3.9,51.6-4.4c10.2-0.3,20.5,1.7,30.7,3.4c17.9,3.1,35.3,8.1,52,15.5c20.7,9.2,39.7,21,56.8,35.8
			c17.6,15.2,33.4,32.1,44.7,52.5c8.2,14.9,15.8,30.4,22,46.2c6.6,16.9,9.3,34.8,11,52.9c2.9,31.1-0.5,61.3-10.1,91
			c-9,27.9-22.4,53.4-41.9,75.2c-12.6,14.1-26.6,27-40.5,39.9c-22.9,21.1-46.2,41.7-69.4,62.5C833.2,770.2,830.2,772.8,827.1,775.6z
			"/>
		<path class="st2" d="M622.3,848.3c-115.1-1.7-198.3-92.6-202.8-193.5c-2.6-57.9,15.7-108.8,55.9-151c38.4-40.4,86-61.7,141.7-63.3
			c122.1-3.5,210.9,94.8,211.9,201.4C830.3,761,733,850,622.3,848.3z M625,811.8c92.9,0.2,170.8-76.1,166.7-174.9
			c-3.7-87.7-76.6-162.3-173.2-159.6c-89.2,2.6-165.7,76.9-162,174.7C459.8,741,534,812.7,625,811.8z"/>
		<path class="st2" d="M785.4,876.7c15.6-14.1,30.8-27.8,46-41.4c9-8.1,8.9-8,17.3,1.1c25.2,27.5,50.3,55,75.6,82.3
			c13.8,14.9,16.5,31,7.7,47c-8.2,14.8-28.6,22-44.6,16.3c-8.4-3-14.6-8.5-20.3-14.8c-25.9-28.4-51.7-56.9-77.5-85.4
			C788.3,880.4,787.1,878.8,785.4,876.7z"/>
		<path class="st2" d="M803.3,786.4c5.6,6.2,11.1,12.3,16.7,18.3c5.3,5.8,5,4.5-0.7,9.7c-15.1,13.7-30.3,27.4-45.5,41.1
			c-1.3,1.2-2.8,2.2-4.7,3.6c-7.1-7.9-14.1-15.6-20.9-23.2c9.9-7.9,19.9-15,29-23.2C786.2,804.7,794.3,795.6,803.3,786.4z"/>
		<path d="M625,811.8C534,812.7,459.8,741,456.5,652c-3.7-97.8,72.7-172.1,162-174.7c96.6-2.8,169.5,71.8,173.2,159.6
			C795.8,735.7,717.9,812,625,811.8z M767.1,647.6c2.1-82.5-67.8-147.7-146.7-145.9c-75.8,1.7-143.2,65-139.3,150.1
			c3.3,71.8,63.9,138.2,148.5,135.8C706.4,785.4,766.7,723.4,767.1,647.6z"/>
		<path class="st3" d="M767.1,647.6c-0.4,75.8-60.7,137.8-137.5,140c-84.5,2.4-145.1-64-148.5-135.8c-4-85.1,63.5-148.4,139.3-150.1
			C699.3,499.9,769.1,565.1,767.1,647.6z"/>
	</g>
	<path class="st2" d="M523.2,657.1c-6.1,0-11-4.9-11-11c0-61.5,50-111.5,111.5-111.5c6.1,0,11,4.9,11,11s-4.9,11-11,11
		c-49.3,0-89.5,40.1-89.5,89.5C534.2,652.1,529.3,657.1,523.2,657.1z"/>
</g>
</svg>
