<?xml version="1.0" encoding="utf-8"?>
<!-- Generator: Adobe Illustrator 27.9.6, SVG Export Plug-In . SVG Version: 9.03 Build 54986)  -->
<svg version="1.1" id="레이어_1" xmlns="http://www.w3.org/2000/svg" xmlns:xlink="http://www.w3.org/1999/xlink" x="0px"
	 y="0px" viewBox="0 0 1223.8 1220.7" style="enable-background:new 0 0 1223.8 1220.7;" xml:space="preserve">
<style type="text/css">
	.st0{fill:#EDD9B0;}
	.st1{fill:#E5C62C;}
	.st2{fill:#D66D51;}
	.st3{fill:#D89C23;}
	.st4{fill:#F2E6D6;}
</style>
<g>
	<circle class="st0" cx="611.9" cy="610.3" r="615.8"/>
	<g>
		<path d="M734,882.5c-2.1,3.3-4.4,6.4-6.2,9.9c-5.3,10.8-15.5,11.1-23.6,5.4c-20.7-14.6-42-28.3-63-42.4c-3.5-2.4-7.2-4.6-10.5-7.2
			c-2.9-2.3-5.3-2.1-8.4-0.4c-18.7,10.4-37.4,20.6-56.2,30.8c-8.1,4.4-16.2,8.8-24.3,13.1c-6.9,3.7-14.3,1.4-17.9-5.6
			c-2.4-4.6-4.7-9.2-7.7-15c-2.4,4.7-4.2,8.1-5.8,11.5c-17.6,37.1-35.1,74.1-52.7,111.2c-1.8,3.7-3.4,7.5-5.2,11.2
			c-2.5,5.2-6.2,8.1-12.3,8.2c-5.9,0.1-8.8-3.7-11.2-7.8c-3.1-5.3-5.5-11-8.3-16.4c-9.3-17.9-18.7-35.7-28-53.6
			c-2.8-5.3-5.6-10.6-8.2-16c-1.3-2.7-3-3.6-5.9-2.9c-12.4,2.9-24.8,5.6-37.2,8.5c-19.7,4.6-39.3,9.2-58.9,13.8
			c-7.8,1.8-14-0.9-15.6-8c-0.8-3.3,0.3-7.6,1.8-10.8c7.5-16.6,15.5-33.1,23.2-49.6c15.2-32.8,30.2-65.7,45.4-98.5
			c11.1-24.1,22.3-48.1,33.4-72.2c1.6-3.6,4.7-7.6,4-10.7c-0.6-2.6-5.7-4.3-9-6.2c-18.2-10.6-36.4-21.1-54.6-31.7
			c-6.6-3.8-13.1-7.7-19.4-11.9c-7.4-4.9-8.4-11.4-3.4-18.8c17-25.1,33.8-50.3,50.9-75.3c2.6-3.8,1-6.5-0.7-9.6
			c-11.1-19.1-22.1-38.2-33.2-57.4c-4.6-8-9.2-15.9-13.5-24.1c-3.2-6-0.7-12.8,5.5-15.9c11.2-5.6,22.5-11.1,33.8-16.6
			c16.4-8,32.7-16.1,49.2-23.8c4.1-1.9,5.8-3.7,5.7-8.8c-0.3-20.8,0.3-41.5,0.4-62.3c0.1-9.2,0-18.4-0.3-27.6
			c-0.4-11.9,6.8-16.8,16.3-15.9c17.6,1.7,35.3,2.6,52.9,3.9c12.7,0.9,25.4,1.6,38,2.6c4.4,0.3,7-0.8,9.3-5.1
			c7-13,14.8-25.5,22.3-38.2c8.3-14,16.3-28.1,24.9-41.9c5.1-8.3,12.2-9.3,20.3-4c1.5,1,3,1.9,4.4,2.9c12.2,8.1,24.4,16.2,36.5,24.3
			c12.5,8.4,24.9,17,37.2,25.6c2.3,1.6,4.2,2.1,6.8,0.6c11.2-6.4,22.4-12.8,33.6-19.1c17.1-9.6,34.1-19.4,51.4-28.7
			c6.9-3.7,13.6-1.4,17,5.5c10.1,20.5,19.9,41,29.9,61.6c4,8.2,8.1,16.3,11.7,24.6c1.4,3.3,3.4,4.3,6.7,4.4c11,0,21.9,0.2,32.9,0.3
			c13.5,0.2,26.9,0.3,40.4,0.5c7.9,0.1,15.8-0.1,23.7,0.3c8,0.4,12,4.7,11.5,12.9c-0.9,14.9-2.3,29.8-3.5,44.7
			c-1.3,15.8-2,31.6-4.1,47.3c-0.9,6.6,0.9,9.4,6.4,12.4c15.1,8.3,29.8,17.4,44.7,26.1c11.1,6.5,22.1,13.1,33.3,19.5
			c7.2,4.1,9.6,11.7,4.4,19.1c-5.9,8.5-11.9,17-17.8,25.5c-12.3,17.5-24.5,35-36.9,52.4c-1.8,2.5-1.9,4.7-0.4,7.3
			c4.7,8.1,9.3,16.2,13.9,24.4c6,10.7,11.9,21.5,17.8,32.3c4.6,8.3,8.9,16.8,13.7,25c4.4,7.5,1.3,14.7-5.9,18.3
			c-8.2,4.1-16.6,8-25,11.9c-16.7,7.8-33.4,15.6-50.1,23.5c-3.4,1.6-6.8,3.4-10.3,4.9c-2.2,0.9-2.9,2-2.1,4.3
			c7.2,19.7,14.3,39.3,21.4,59c5.6,15.4,11.2,30.8,16.8,46.2c9.1,25,18.4,50,27.5,75c5.1,14.1,10,28.4,15.1,42.5
			c2.2,6.1,4.6,12,6.9,18c1.9,5.1,0.9,9.7-3,13.3c-3.7,3.5-8.4,4-13.2,2.5c-8.5-2.7-16.9-5.7-25.4-8.4
			c-21.7-7.1-43.4-14.2-65.1-21.4c-9.2-3-9-3-14,4.9c-16.4,25.9-32.8,51.7-49.3,77.4c-6.5,10.1-17.7,9.2-22.4-1.8
			c-3.8-8.8-6.7-18.1-10.1-27.1c-6.7-17.8-13.4-35.5-20.1-53.3c-5.2-14-10.3-28-15.4-41.9c-2.1-5.7-4.4-11.3-6.6-17
			C734.9,882.6,734.4,882.5,734,882.5z M958.6,654.3c-3.3-6.2-6.1-11.7-9-17c-11.9-21.3-23.8-42.7-35.8-63.9
			c-2.6-4.5-2.4-8.7-0.1-12.9c1.6-2.9,3.5-5.7,5.5-8.5c9.1-12.9,18.4-25.7,27.5-38.6c6.2-8.8,12.2-17.9,18.5-26.7
			c3.7-5.1,3.9-4.8-1.5-8c-10.3-5.9-20.5-11.9-30.7-17.8c-13.3-7.7-26.5-15.5-39.9-23.1c-8.2-4.7-14.5-10.2-11.5-21
			c0.3-1,0-2,0.1-3.1c1-12.8,2-25.7,3.1-38.5c1.3-15.1,2.7-30.2,3.8-45.4c0.1-0.9-1.6-2.8-2.5-2.9c-11.5-0.3-23.1-0.3-34.6-0.3
			c-19-0.1-38.1-0.1-57.1-0.3c-5.8,0-10.1-2.7-12.7-8c-7.8-16.1-15.6-32.1-23.3-48.2c-5.3-10.9-10.5-21.9-15.6-32.9
			c-1.7-3.6-3.3-4.3-7-2.1c-12.4,7.5-24.9,14.7-37.5,21.8c-13.2,7.5-26.6,14.5-39.7,22.2c-5.7,3.3-10.8,3.4-16-0.1
			c-11.3-7.6-22.5-15.4-33.7-23c-13.5-9.2-27.1-18.4-40.7-27.5c-2.6-1.8-4.6-1.4-6.4,1.7c-14.4,25.1-29.1,50.1-43.5,75.3
			c-4.3,7.5-10.4,9.8-18.7,9c-13.5-1.3-27-2.3-40.6-3.2c-15-1.1-30.1-1.9-45.1-3.3c-3.3-0.3-3.6,0.6-3.6,3.4c0.1,12,0,24-0.1,36
			c-0.1,18.1-0.3,36.3-0.4,54.4c0,5.5-2.8,9.4-7.3,11.7c-12.8,6.4-25.9,12.3-38.8,18.6c-14.1,6.8-28.2,13.7-42.2,20.7
			c-0.9,0.4-1.8,2.8-1.4,3.6c7.5,13.4,15.2,26.7,22.9,40c7.8,13.4,15.5,26.8,23.3,40.2c2.2,3.7,1.8,7.3-0.5,10.8
			c-6.9,10.4-13.8,20.7-20.7,31c-9.7,14.5-19.4,28.9-29.2,43.3c-1.6,2.4-1.4,3.7,1.3,5.2c7.2,3.9,14.2,8,21.3,12.2
			c11.5,6.7,22.9,13.5,34.4,20.3c7.7,4.5,15.4,9,23.1,13.6c3.6,2.1,5.4,5.6,5.2,9.6c-0.7,15.2-1.6,30.4-2.6,45.6
			c-0.9,14.1-1.8,28.3-3,42.4c-0.3,3.7,0.8,4.9,4.5,4.8c12.4,0,24.8,0.3,37.3,0.5c16.2,0.3,32.5,0.6,48.7,0.9
			c6,0.1,11.3,1.7,14.2,7.7c1.8,3.8,3.7,7.6,5.6,11.4c11,22,22,43.9,32.8,66c1.5,3.1,3,3.7,6.1,2c12.7-7,25.4-13.9,38.1-20.8
			c13.1-7.1,26.3-14.2,39.4-21.3c4.3-2.3,8.5-1.9,12.6,0.4c1.8,1,3.2,2.5,4.9,3.7c23,15.3,46.1,30.6,69.1,46c2.4,1.6,3.3,1.4,4.7-1
			c2.9-5.2,5.9-10.4,9.1-15.5c11.8-19.1,23.7-38,35.3-57.2c4.2-6.9,9.8-8.9,17.4-7.9c7.4,0.9,14.9,1.2,22.3,1.8
			c9.8,0.7,19.5,1.5,29.3,2.2c12.1,0.9,24.1,1.7,36.7,2.6c0.3-8.3,0.8-16.1,1-23.9c0.2-9.8,0.2-19.6,0.4-29.4
			c0.3-12.6,0.7-25.1,1-37.7c0.1-5.5,2.8-9.2,7.5-11.4c20.6-9.8,41.3-19.4,62-29.1C943,661.6,950.5,658.1,958.6,654.3z M801.7,988.7
			c0.5,0.1,0.9,0.2,1.4,0.3c2-3.3,4-6.6,6.1-9.9c12.7-20,25.3-40,38.1-60c4.2-6.7,10.7-8.9,18.2-6.4c12,4,24.1,8.1,36.1,12.1
			c13.3,4.5,26.5,9.1,39.8,13.6c1.5,0.5,3.2,0.8,5.6,1.4c-18.7-51.3-37-101.7-55.4-152c-0.2-0.6-1.3-0.9-2.5-1.7
			c0,7.8,0.1,15.1,0,22.4c-0.2,8.1-7.1,14.2-15.2,13.6c-6.1-0.4-12.2-1-18.3-1.5c-24.7-1.9-49.3-3.8-74-5.8
			c-3.3-0.3-5.4,0.6-7.3,3.5c-6,9.8-12.4,19.5-18.5,29.3c-2.1,3.4-3.7,7.1-2.2,11.2c1.9,5.1,3.9,10.2,5.8,15.3
			c5.8,15.7,11.5,31.5,17.2,47.2c6,16.5,12,33,18,49.4C797,976.9,799.4,982.8,801.7,988.7z M371.5,760.2c-0.3-0.1-0.7-0.1-1-0.2
			c-23.2,49.7-46.4,99.4-70,149.8c17.4-3.9,33.8-7.6,50.2-11.4c11.7-2.7,23.3-5.6,35-8.1c7.3-1.6,12,0.6,15.4,6.3
			c3.1,5.3,6.2,10.6,9,16.1c8.8,17.3,17.4,34.7,26.1,52.1c1.3,2.6,2.8,5.2,4.4,8.1c5.4-11.1,10.5-21.4,15.4-31.9
			c8.5-17.8,16.8-35.7,25.2-53.6c6.7-14.3,13.4-28.5,20-42.8c0.4-0.8,0.2-2-0.2-2.8c-5.8-11.5-11.8-22.9-17.4-34.6
			c-2.2-4.6-5.4-6.5-10.3-6.5c-14.8-0.1-29.5-0.4-44.3-0.7c-15.1-0.2-30.1-0.5-45.2-0.7c-6.4-0.1-14.4-6.3-14.2-11.3
			c0.3-6,0.8-12.1,1.2-18.1C371,766.7,371.2,763.4,371.5,760.2z"/>
		<path class="st1" d="M958.6,654.3c-8.1,3.8-15.6,7.4-23.2,10.9c-20.7,9.7-41.3,19.4-62,29.1c-4.7,2.2-7.4,5.9-7.5,11.4
			c-0.2,12.6-0.7,25.1-1,37.7c-0.2,9.8-0.2,19.6-0.4,29.4c-0.2,7.8-0.6,15.7-1,23.9c-12.6-0.9-24.7-1.8-36.7-2.6
			c-9.8-0.7-19.5-1.4-29.3-2.2c-7.4-0.6-14.9-0.9-22.3-1.8c-7.6-0.9-13.2,1-17.4,7.9c-11.5,19.2-23.5,38.1-35.3,57.2
			c-3.1,5.1-6.2,10.2-9.1,15.5c-1.3,2.4-2.3,2.6-4.7,1c-23-15.4-46.1-30.7-69.1-46c-1.7-1.1-3.2-2.7-4.9-3.7
			c-4.1-2.3-8.3-2.7-12.6-0.4c-13.1,7.1-26.3,14.2-39.4,21.3c-12.7,6.9-25.5,13.8-38.1,20.8c-3.1,1.7-4.5,1.1-6.1-2
			c-10.8-22-21.9-44-32.8-66c-1.9-3.8-3.7-7.6-5.6-11.4c-2.9-6-8.2-7.6-14.2-7.7c-16.2-0.3-32.5-0.6-48.7-0.9
			c-12.4-0.2-24.8-0.5-37.3-0.5c-3.7,0-4.8-1.1-4.5-4.8c1.2-14.1,2.1-28.3,3-42.4c1-15.2,1.9-30.4,2.6-45.6c0.2-4-1.6-7.4-5.2-9.6
			c-7.7-4.6-15.4-9.1-23.1-13.6c-11.5-6.8-22.9-13.6-34.4-20.3c-7-4.1-14.1-8.2-21.3-12.2c-2.6-1.4-2.9-2.8-1.3-5.2
			c9.8-14.4,19.5-28.9,29.2-43.3c6.9-10.3,13.8-20.7,20.7-31c2.3-3.5,2.6-7.1,0.5-10.8c-7.8-13.4-15.6-26.8-23.3-40.2
			c-7.7-13.3-15.4-26.6-22.9-40c-0.4-0.7,0.5-3.1,1.4-3.6c14-7,28.1-13.9,42.2-20.7c12.9-6.2,26-12.2,38.8-18.6
			c4.5-2.2,7.3-6.2,7.3-11.7c0.1-18.1,0.3-36.3,0.4-54.4c0.1-12,0.2-24,0.1-36c0-2.8,0.3-3.7,3.6-3.4c15,1.4,30,2.2,45.1,3.3
			c13.5,1,27.1,1.9,40.6,3.2c8.3,0.8,14.4-1.5,18.7-9c14.4-25.2,29.1-50.2,43.5-75.3c1.8-3.1,3.8-3.5,6.4-1.7
			c13.6,9.1,27.1,18.3,40.7,27.5c11.3,7.7,22.4,15.4,33.7,23c5.2,3.5,10.3,3.5,16,0.1c13.1-7.7,26.5-14.8,39.7-22.2
			c12.6-7.1,25.1-14.3,37.5-21.8c3.6-2.2,5.3-1.6,7,2.1c5.1,11,10.3,22,15.6,32.9c7.7,16.1,15.5,32.2,23.3,48.2
			c2.5,5.2,6.8,7.9,12.7,8c19,0.1,38.1,0.2,57.1,0.3c11.5,0.1,23.1,0.1,34.6,0.3c0.9,0,2.6,1.9,2.5,2.9c-1.1,15.1-2.5,30.2-3.8,45.4
			c-1.1,12.8-2.1,25.7-3.1,38.5c-0.1,1,0.1,2.1-0.1,3.1c-2.9,10.8,3.3,16.3,11.5,21c13.3,7.6,26.6,15.4,39.9,23.1
			c10.3,5.9,20.5,11.9,30.7,17.8c5.4,3.1,5.2,2.9,1.5,8c-6.3,8.8-12.3,17.8-18.5,26.7c-9.1,12.9-18.4,25.7-27.5,38.6
			c-1.9,2.7-3.8,5.5-5.5,8.5c-2.3,4.2-2.5,8.4,0.1,12.9c12.1,21.2,23.9,42.6,35.8,63.9C952.6,642.6,955.3,648.1,958.6,654.3z
			 M627.2,583.8c-0.6,13.6-1.3,27.2-1.6,40.8c-0.1,3.4-1.2,4.4-4.3,4.2c-5.7-0.4-11.4-0.8-17.1-0.7c-4.9,0.1-9.8,1.1-12,6.4
			c-1.8,4.4-1.8,8.9,1.4,12.8c3.2,4,8,3.9,12.5,4.2c20.5,1,40.9,1.9,61.4,2.8c2.8,0.1,5.6,0.2,8.3-0.3c6.6-1.2,10.6-6.4,10.2-12.7
			c-0.3-5.7-5-9.9-11.7-10.3c-5.5-0.3-11.1-0.6-16.7-0.7c-8.4-0.2-8.5-0.2-8.2-8.8c1-28.3,2.1-56.5,3.2-84.8
			c1.1-26.1,2.3-52.1,3.4-78.1c0.3-8.1-6.4-13.7-14.1-11.4c-2.7,0.8-5.4,2.4-7.5,4.3c-7.8,6.9-15.3,14.1-22.9,21.1
			c-5.6,5.2-11.2,10.4-16.8,15.5c-6.7,6.1-4.3,16.7,4.4,19.7c4.8,1.6,8.6-0.2,12.1-3.2c5.2-4.5,10.1-9.3,15.3-13.9
			c0.9-0.8,2.2-1.2,3.2-1.8c0.5,1.3,1.3,2.6,1.3,3.9c0,3.2-0.4,6.4-0.6,9.6C629.3,529.7,628.3,556.7,627.2,583.8z"/>
		<path class="st2" d="M801.7,988.7c-2.3-6-4.8-11.9-7-17.9c-6.1-16.5-12-32.9-18-49.4c-5.7-15.7-11.4-31.5-17.2-47.2
			c-1.9-5.1-3.9-10.2-5.8-15.3c-1.5-4.1,0.1-7.8,2.2-11.2c6.1-9.8,12.4-19.4,18.5-29.3c1.8-2.9,4-3.8,7.3-3.5
			c24.6,2,49.3,3.9,74,5.8c6.1,0.5,12.2,1.1,18.3,1.5c8.1,0.6,14.9-5.5,15.2-13.6c0.2-7.3,0-14.6,0-22.4c1.2,0.7,2.3,1,2.5,1.7
			c18.4,50.3,36.7,100.7,55.4,152c-2.4-0.6-4-0.9-5.6-1.4c-13.3-4.5-26.5-9.1-39.8-13.6c-12-4.1-24.1-8.1-36.1-12.1
			c-7.5-2.5-14-0.3-18.2,6.4c-12.7,20-25.4,40-38.1,60c-2.1,3.3-4.1,6.6-6.1,9.9C802.7,988.9,802.2,988.8,801.7,988.7z"/>
		<path class="st2" d="M371.5,760.2c-0.3,3.2-0.5,6.5-0.8,9.7c-0.4,6-0.9,12.1-1.2,18.1c-0.2,5.1,7.8,11.3,14.2,11.3
			c15.1,0.2,30.1,0.5,45.2,0.7c14.8,0.2,29.5,0.5,44.3,0.7c4.9,0,8.1,1.9,10.3,6.5c5.6,11.6,11.6,23,17.4,34.6
			c0.4,0.8,0.5,2.1,0.2,2.8c-6.6,14.3-13.3,28.6-20,42.8c-8.4,17.9-16.7,35.8-25.2,53.6c-4.9,10.4-10,20.8-15.4,31.9
			c-1.6-2.9-3.1-5.5-4.4-8.1c-8.7-17.4-17.3-34.8-26.1-52.1c-2.8-5.5-5.9-10.8-9-16.1c-3.4-5.7-8.2-7.9-15.4-6.3
			c-11.7,2.5-23.3,5.5-35,8.1c-16.4,3.8-32.7,7.4-50.2,11.4c23.6-50.4,46.8-100.1,70-149.8C370.8,760.1,371.2,760.1,371.5,760.2z"/>
		<path class="st3" d="M645.4,771c-58.9,0-114.2-22.9-155.8-64.5c-41.6-41.6-64.5-97-64.5-155.8c0-58.9,22.9-114.2,64.5-155.8
			s97-64.5,155.8-64.5c58.9,0,114.2,22.9,155.8,64.5c41.6,41.6,64.5,97,64.5,155.8c0,58.9-22.9,114.2-64.5,155.8
			C759.6,748.1,704.3,771,645.4,771z M645.4,347.9c-111.8,0-202.8,91-202.8,202.8s91,202.8,202.8,202.8
			c111.8,0,202.8-91,202.8-202.8S757.2,347.9,645.4,347.9z"/>
		<circle class="st4" cx="645.4" cy="550.6" r="177.8"/>
		<path d="M627.2,583.8c1.1-27.1,2.2-54.2,3.3-81.2c0.1-3.2,0.6-6.4,0.6-9.6c0-1.3-0.8-2.6-1.3-3.9c-1.1,0.6-2.3,1-3.2,1.8
			c-5.1,4.6-10.1,9.4-15.3,13.9c-3.4,3-7.2,4.8-12.1,3.2c-8.7-3-11.1-13.6-4.4-19.7c5.6-5.2,11.2-10.3,16.8-15.5
			c7.6-7.1,15.2-14.2,22.9-21.1c2.1-1.9,4.8-3.5,7.5-4.3c7.8-2.2,14.5,3.3,14.1,11.4c-1.1,26.1-2.4,52.1-3.4,78.1
			c-1.2,28.2-2.2,56.5-3.2,84.8c-0.3,8.6-0.2,8.5,8.2,8.8c5.6,0.1,11.1,0.4,16.7,0.7c6.7,0.4,11.3,4.6,11.7,10.3
			c0.4,6.3-3.7,11.5-10.2,12.7c-2.7,0.5-5.5,0.4-8.3,0.3c-20.5-0.9-41-1.8-61.4-2.8c-4.5-0.2-9.3-0.1-12.5-4.2
			c-3.1-3.9-3.2-8.4-1.4-12.8c2.2-5.3,7-6.4,12-6.4c5.7-0.1,11.4,0.3,17.1,0.7c3.1,0.2,4.2-0.8,4.3-4.2
			C625.9,611,626.6,597.4,627.2,583.8z"/>
	</g>
</g>
</svg>
