<?xml version="1.0" encoding="utf-8"?>
<!-- Generator: Adobe Illustrator 27.9.6, SVG Export Plug-In . SVG Version: 9.03 Build 54986)  -->
<svg version="1.1" id="레이어_1" xmlns="http://www.w3.org/2000/svg" xmlns:xlink="http://www.w3.org/1999/xlink" x="0px"
	 y="0px" viewBox="0 0 1223.8 1220.7" style="enable-background:new 0 0 1223.8 1220.7;" xml:space="preserve">
<style type="text/css">
	.st0{fill:#EDD9B0;}
	.st1{fill:#6FA3C6;}
	.st2{fill:#FFF7EB;}
	.st3{fill:#D66D51;}
</style>
<g>
	<circle class="st0" cx="611.9" cy="610.3" r="610.4"/>
	<g>
		<path d="M801.6,619.3c-0.6,10.2-0.9,20.4-1.9,30.6c-1,9.8-0.9,19.7-1.7,29.5c-0.6,7.6-0.9,15.2-1.3,22.8c-0.1,2-0.1,3.9,0.1,5.9
			c0.5,6.2-7.1,12-12.9,9.8c-6.5-2.4-12.4-5.9-18.3-9.6c-6.2-3.8-13-6.5-19.3-10.1c-4-2.3-8.3-3.9-12.4-5.9
			c-7.3-3.5-14.8-6.3-22.4-9.1c-8.9-3.3-18-5.9-27-8.7c-9.7-3.1-19.6-4.9-29.3-7.5c-9.6-2.6-19.5-3.7-29.3-4.7
			c-9.3-1-18.7-1.8-28-2.4c-9.2-0.6-18.3,0.3-27.5-0.5c-5-0.4-10.1,0.6-15.1,1c-16.3,1.4-32.6,3.3-48.6,6.7
			c-21.7,4.6-43,10.6-63.6,19c-6.9,2.8-13.7,6-20.5,9c-3.9,1.7-12.2-0.9-14.6-5c-0.9-1.6-2.2-3-2.2-5.4c0.1-8.2,0.9-16.4,1.1-24.5
			c0.3-11.1,1-22.3,0.8-33.4c-0.1-7.8,0.6-15.6,1-23.4c0.5-9.5,0.8-19,1.5-28.5c0.2-2.6-1.6-4.3-2.9-5c-7.4-3.7-13.7-9-20.4-13.7
			c-5.9-4.1-12.1-7.6-17.8-12c-8.1-6.2-16.8-11.5-25.2-17.2c-6.1-4.2-12-8.8-18.3-12.8c-11.4-7.2-22.2-15.4-33.4-22.8
			c-12.4-8.3-24.6-16.8-37-25.1c-4-2.6-8.5-4.6-11.9-7.7c-3.7-3.3-7.8-5.8-11.7-8.4c-5.1-3.3-9.5-7.7-14.9-10.5
			c-4.3-2.2-7.6-6-10.2-10c-1.8-2.8-1.2-6.3,1.4-9.1c4.5-4.8,10.5-6.8,16.3-9.2c13.3-5.5,26.6-11,39.9-16.5
			c9.8-4,19.6-8.2,29.6-11.8c12.2-4.5,24-10,36.1-14.9c9.3-3.8,18.7-7.3,28-11.1c10.7-4.4,21.2-9.2,31.9-13.5
			c9.7-3.9,19.6-7.6,29.2-11.7c10.1-4.3,20.6-7.7,30.5-12.3c12.2-5.6,24.9-9.9,37.1-15.3c13.1-5.8,26.6-10.5,39.7-16.4
			c6.4-2.9,13.3-4.8,19.7-7.7c10.6-4.9,21.5-8.9,32.3-13.2c8.8-3.5,17.5-7.3,26.2-10.8c3.6-1.4,7.4-2.3,10.7-4.3
			c6.5-3.7,12-0.8,17.5,2.3c6.1,3.5,12.5,6.6,18.4,10.4c5.8,3.7,11.8,7,17.9,10c6.1,3,11.3,7.3,17.6,10c6.4,2.6,12.2,6.6,18.1,10.1
			c9.7,5.8,20,10.8,29.7,16.6c5.9,3.5,11.9,7,18,10.1c7.7,4,14.5,9.5,22.8,12.5c4.3,1.5,7.5,5.4,11.9,7.3
			c6.8,2.9,12.8,7.4,19.6,10.6c7,3.3,13.2,8.3,20.2,11.8c10.3,5.2,19.9,11.6,30.1,16.9c7.9,4.1,15.4,8.7,23.3,12.8
			c4.5,2.4,8.7,5.5,13.2,8.2c2.1,1.3,4.7,1.5,6.6,3.7c1.3,1.4,3.1,0.3,4.6-0.9c2.6-1.9,4.4-4.9,7.9-5.6c8.2-1.6,14.4,6.1,14,13.9
			c-0.4,7.2-0.3,6.9,6.1,10.2c3.3,1.7,6.4,3.9,9.8,5.6c3.9,1.9,7.4,4.5,11.2,6.4c10.3,5.1,19.9,11.4,29.9,17
			c8.3,4.6,16.9,8.7,24.6,14.2c1.9,1.4,4.5,1.7,6.3,3.6c6.1,6.3,5.2,14.6-2.6,18.5c-19.4,9.6-38.2,20.4-57.5,30.2
			c-10.1,5.1-20.1,10.3-29.9,15.9c-4.4,2.5-7.3,6.6-6.7,12.3c0.4,4.1-0.8,8-1,12.1c-0.8,11.9-1.4,23.8-2.2,35.7
			c-0.8,12.4-1.7,24.9-2.5,37.3c-0.2,2.7-0.1,5.6-0.6,8.2c-0.9,4.7,2,6.5,5.1,7.6c7.1,2.7,12.3,8,17.1,13.3
			c2.9,3.2,4.2,7.7,6.3,11.6c4.2,7.7,2.9,15.9,2.8,24.1c-0.2,13.5-2.4,26.8-2.7,40.3c-0.3,11.2-5.6,20.8-14.2,28.1
			c-7.9,6.7-16.8,10.3-27.4,11c-7.1,0.5-13.4-0.6-19.8-2.8c-9.4-3.1-16.4-9.2-21.9-17.1c-6.4-9.1-8.2-19.5-7.6-30.4
			c0.3-5,1.5-10,1.4-14.8c-0.2-6.7,1.4-13.1,1.2-19.7c-0.7-21.4,9.4-36.5,28.5-45.6c9.4-4.5,9.8-5.3,9.8-15.6
			c0-5.9,0.5-11.9,1.3-17.8c1.1-8.7,0.9-17.5,1.5-26.3c0.8-10.7,1.5-21.4,2.2-32.2c0.1-1.1,0.8-2.5-0.4-3.3c-1-0.6-1.9,0.6-2.8,1.1
			c-24.3,12.7-48.7,25.3-72.9,38.2c-4.7,2.5-10.1,3.9-13.6,8.4c-1.3,1.7-2.4,3.5-2.6,5.7c-0.4,5.2-0.7,10.5-1,15.7
			C801.5,619.3,801.6,619.3,801.6,619.3z M413.2,474.6c-1-8.7,2.7-14.4,9.5-18c5.5-2.9,11.2-5.6,17.1-7.8c8.8-3.4,17.7-6.5,26.6-9.6
			c12-4.2,24.2-7.4,36.4-10.4c8.4-2.1,17.1-3.4,25.8-4.5c11.4-1.5,22.7-3.1,34.1-4.4c6.8-0.8,14-0.4,21-0.4
			c12.7,0,25.6-0.1,38.2,1.3c10.2,1.2,20.4,2.3,30.6,3.8c12.2,1.8,24.2,4.5,36,7.5c10.5,2.6,20.9,6.1,31.2,9.3
			c12.9,4,24.7,10.5,37.4,14.6c4.6,1.5,8,6.2,13.5,6.3c0.1,0,0.2,0.5,0.3,0.7c0.5,1.2,1.6,1.6,2.7,2.1c5.1,2.5,10,5.6,15.3,7.6
			c6,2.2,9.6,8.5,16.4,9.1c1.3,3.5,4,6.6,3.8,10.6c-0.5,12.1-1.1,24.2-1.7,36.4c-0.4,9-1.1,18.1-1.5,27.1c-0.1,3.3-0.2,6.6-1,9.8
			c-0.3,1.3-0.1,2.7,1,3.6c0.8,0.7,1.5-0.1,2.1-0.4c10.2-5.3,20.4-10.6,30.5-15.9c15.7-8.2,31.4-16.3,47-24.7
			c4.5-2.4,9.8-4.5,10.8-10.6c0.3-2,0-4.2,0.2-6.2c0.5-5.9,1.4-11.8,1.5-17.6c0.2-9.3,0.7-18.6,1.6-27.9c1-10.3,1.3-20.7,1.9-31
			c0.1-2.4-1.2-4-3.1-5.1c-5.1-2.9-10.1-5.9-15.4-8.3c-6.6-3.1-12.5-7.5-19.2-10.4c-4.6-2-8.7-5.1-12.8-8c-2.8-2-6.4-2.6-9.1-4.6
			c-6.8-5.1-14.7-8.3-21.9-12.8c-7.4-4.6-15.5-8.2-22.9-12.8c-2.8-1.8-5.7-3.6-8.6-4.9c-6.4-2.9-12.4-6.5-18.5-9.6
			c-6.8-3.5-13.1-8-19.8-11.7c-9.2-5-18.2-10.2-27.3-15.4c-13.2-7.5-26.2-15.5-39.8-22.5c-8.6-4.4-16.9-9.4-25.3-14
			c-11.1-6-22.1-12.3-33.1-18.7c-1.9-1.1-3.9-1.1-5.7-0.4c-5,1.8-10.1,3.7-15,5.8c-18.5,7.7-36.9,15.6-55.4,23.2
			c-11.6,4.8-23.4,9.3-34.9,14.3c-18,7.7-36.2,14.8-54.2,22.2c-11.6,4.7-23.3,9.5-34.9,14.2c-17.1,7-34.1,14-51.2,21
			c-11.7,4.8-23.4,9.6-35.1,14.3c-7.3,2.9-14.6,5.8-21.8,8.8c-7,2.9-13.8,6.4-20.9,8.8c-6.9,2.3-13.4,5.6-20.2,7.9
			c-7.7,2.6-14.9,6.8-22.7,9.2c-2.2,0.7-4.1,1.8-5.6,3.4c-1,1.1-1.7,2.1,0.1,4.1c3.1,3.3,6.8,5.7,10.4,8.2c3,2.1,5.4,5.1,8.9,6.4
			c4.8,1.7,8.5,5.1,12.5,8c3.6,2.5,6.7,5.7,10.5,7.9c3.9,2.3,8,4.2,11.6,7.1c3.5,2.8,6.9,6.2,10.7,7.8c7,3,12.1,8.7,18.5,12.4
			c4.3,2.4,8.2,5.7,12.4,8.2c12.1,7.1,22.9,16.2,35,23.5c8.8,5.3,16.3,12.7,26,16.7c4.3,1.7,5.5,1.6,6.5-2.7
			c0.5-1.9,0.6-3.8,0.5-5.8c-0.1-4.6,0.1-9.2,0.3-13.8C411.8,502.3,412.5,488.1,413.2,474.6z M428.9,660c-0.3,0-0.6,0-0.9,0
			c0,1.2-0.1,2.4,0,3.6c0.3,5.1,0.4,5.2,5.2,3c3.6-1.6,7-3.7,10.7-4.7c8.9-2.4,17.5-5.6,26.3-8c6.9-1.9,13.9-3.7,20.8-5.5
			c6.5-1.7,13.3-2.4,19.9-3.7c4.9-0.9,9.8-1.5,14.7-2c6.9-0.7,13.8-1.6,20.7-2c8.6-0.5,17.2-1,25.8-1.5c7.9-0.5,15.7-0.2,23.6,0.3
			c6.5,0.4,13.1,0.6,19.6,1.5c7.7,1,15.5,1.7,23.2,2.7c5.5,0.7,11.3,1,16.5,3.1c2.2,0.9,4.4,1.3,6.7,1.7c8.2,1.5,16.4,3.4,24.4,5.8
			c7,2.1,14,4.4,21,6.6c10.9,3.4,21.4,7.8,31.8,12.3c9.6,4.2,18.9,9.1,28.3,13.6c4.7,2.2,8.7-0.2,9.2-5.4c0.4-4.2,0.7-8.4,0.9-12.6
			c0.9-17.6,1.5-35.2,2.7-52.7c0.7-10.2,1.7-20.3,2-30.5c0.2-9.9,1.1-19.7,1.5-29.6c0.4-9.6,1.3-19.2,2-28.9
			c0.4-5.4,0.2-10.8,0.5-16.2c0.2-3.9,0.9-7.8,1.2-11.7c0.1-1.3,0.3-2.4-1.3-3.3c-10.9-5.9-21.5-12.2-32.8-17.4
			c-11.6-5.3-23.4-10.2-35.2-15c-10.6-4.3-21.6-6.9-32.5-10.2c-15.9-4.8-32.5-7.1-49-9.1c-17-2-34.1-3.4-51.3-2.7
			c-16.6,0.7-33.1,1.8-49.6,4.4c-14.6,2.3-29.1,4.8-43.3,9.2c-4.7,1.5-9.9,1.7-14.4,3.6c-11.4,4.8-23.5,8-34.7,13.4
			c-3.8,1.8-8.3,6.5-8.4,9.5c-0.6,15.6-1.2,31.2-1.8,46.8c-0.4,10.5-0.6,21-1.3,31.5c-0.8,11.2-0.6,22.5-1,33.7
			c-0.5,13.7-1.4,27.5-1.9,41.2C428.6,643.2,428.9,651.6,428.9,660z M870.1,724.3c0.1,2,0.1,3.9-0.1,5.9
			c-1.3,13.9,8.6,27.1,24.5,26.5c12.6-0.5,23.9-12.3,24.7-26.1c0.7-11.9,1.9-23.7,2.2-35.5c0.2-6,1.9-11.9-1.2-18.1
			c-3.8-7.4-11.9-13.8-20.4-14c-13.4-0.3-25.9,11.7-26.9,25.3c-0.4,4.8-0.2,9.7-1,14.5C870.7,709.9,871.5,717.1,870.1,724.3z
			 M980.2,475.3c-2.1,0.8-3.8,0.9-4.4-0.6c-1.8-3.9-5.9-4-9-5.7c-5.5-3-10.7-6.6-16.2-9.7c-6.5-3.6-13-7.3-19.6-10.7
			c-2.8-1.4-6.5,0-6.4,2.6c0.2,6.2-0.9,12.3-1.7,18.4c-0.6,4.4-0.3,8.9-0.6,13.4c-0.5,7.3-1.1,14.7-1.6,22c-0.2,3.4,0.7,4,3.8,2.5
			c13.1-6.2,25.8-13.1,38.4-20.2C968.7,484,975.7,482.2,980.2,475.3z"/>
		<path d="M797.8,960c-7.9-1-15.8-2.3-23.7-3.2c-7.9-0.9-15.8-1.8-23.6-3.2c-7.4-1.4-14.9-1.7-22.3-3.2c-5.8-1.2-11.9-1.5-17.8-2.5
			c-5.7-0.9-11.4-1.5-17-2.3c-10.6-1.4-21.3-2.5-31.8-4.3c-9.1-1.6-18.2-2.9-27.3-4.1c-4-0.5-8-0.6-11.9,1.5
			c-2.8,1.5-6.3,0.8-9.5,0.6c-5.1-0.3-10.1-0.9-15.2-0.8c-3,0.1-6.1-0.8-9.3-0.9c-8.5-0.1-17-1.2-25.6-0.8c-2.3,0.1-4.2-1.6-5.9-2.8
			c-4.2-2.8-8.5-1.8-12.8-1.6c-9.8,0.5-19.7,0.6-29.5,0.9c-12.2,0.3-24.5,0.8-36.7,0.7c-10.3,0-20.6,0.3-30.9,0.4
			c-9.4,0.1-18.9,0.2-28.3,0.8c-8.8,0.5-17.6,0.6-26.4,0.3c-5.3-0.2-10.7,0.4-16.1,0.5c-10.1,0.2-20.2,0.6-30.2,0.4
			c-5-0.1-9.9,1.1-14.9,0.8c-10.1-0.6-20.3,1.5-30.1-0.4c-3.4-0.7-6.4-4.8-7.5-9.2c-0.6-2.4-1.7-4.4-1.2-7.1c0.5-2.8-2-5.1-2.5-8.1
			c-1.6-9.2-3.4-18.2-4.1-27.5c-0.7-8.7-0.8-17.5-0.6-26.2c0.3-9,1.5-17.9,2.6-26.8c1.7-13.2,5.4-25.9,9-38.7
			c1.1-3.9,3.4-7.1,6.8-9.4c1.8-1.2,3.6-1.3,5.8-1.1c6.8,0.5,13.4,2.4,20.4,2.6c6.9,0.2,13.7,2.2,20.6,3.2c6.9,1,13.9,1.9,20.9,2.8
			c4.6,0.6,9.2,1.1,13.8,1.8c8.6,1.3,17.2,3.1,25.9,3.9c8.1,0.7,15.9,2.7,24,3.5c6.3,0.6,12.6,2,18.8,2.8c11.6,1.4,23.2,3,34.8,4.8
			c11.8,1.8,23.8,3.1,35.6,5.1c9.2,1.6,18.8,1.9,28,3.6c5.5,1,9.7-1.9,14.8-1.7c4.9,0.2,10,0.1,14.8,0.5c11.4,1,22.8,1.5,34.2,1.9
			c4.2,0.1,8.3,0.9,12.5,1.3c0.4,0,0.9-0.1,1,0c3.2,4.7,7.8,3.4,12.3,3.3c13.1-0.1,26.2-1,39.3-0.7c5.3,0.1,10.7-0.7,16-0.6
			c13,0.3,25.9-0.7,38.9-0.6c14.2,0.2,28.3-0.9,42.5-1.2c17.7-0.4,35.5-0.5,53.3-0.8c16.2-0.3,32.4-0.6,48.7-1
			c4.8-0.1,9,4.1,10.3,8.7c1.3,4.6,1.8,9.3,3.8,13.8c0.7,1.6-0.2,4.2,0.2,6.5c2.3,13.3,3.1,26.7,2.5,40.1c-0.7,18.6-3,36.9-7.8,55
			c-1.8,6.7-4.2,13.2-6.1,19.9c-1.8,6.4-6.9,9.6-13.5,8.7c-6.4-0.9-12.8-2.2-19.3-2.8c-7.6-0.7-15.3-1.8-22.8-3.1
			c-8.5-1.4-17.2-1.8-25.6-3.9C800.7,960.2,799.2,960.2,797.8,960z M500,912.6c5.6,0,11.3,0.1,16.9,0c7.8-0.1,15.6-0.6,23.4-0.6
			c5.8,0,11.4-3.2,11.8-8c0.9-9.3,1.5-18.7,2-28c0.5-11.3,0.7-22.6,1.3-33.8c0.2-3.2-1-4.3-3.8-4.5c-10.8-0.7-21.5-2.8-32.1-4.4
			c-11.1-1.7-22.3-3.1-33.4-4.7c-14.5-2.1-29.1-3.8-43.5-6.2c-6.4-1.1-12.9-2.1-19.3-2.8c-11.4-1.2-22.7-3.5-34.2-4.5
			c-9-0.7-17.9-2.9-26.8-4.2c-2.4-0.4-4.8,0.6-6.9-0.1c-5.6-1.9-11.5-1.9-17.1-3.2c-4.1-1-8.3-0.5-12.5-1.4c-4.8-1.1-9.8,2.3-11,7
			c-1.6,6.6-3.3,13.1-4.6,19.8c-1.8,9.6-3,19.2-3.2,28.8c-0.3,11.9-0.5,23.8,1.4,35.7c1,6,1.8,12,3,17.9c0.4,1.7,1.2,2.2,3,2.1
			c13.2-0.9,26.5-1.1,39.7-1.3c9.5-0.2,19-0.5,28.4-0.9c11.3-0.5,22.5,0,33.8-0.9c8.3-0.7,16.8,0,25.2-0.3c10.8-0.4,21.6,0,32.3-0.3
			C482.6,913.4,491.3,913,500,912.6z M649.7,842.6c-2.1,0.1-4.2,0.3-6.3,0.3c-5.2-0.1-9.7,4.1-9.9,9.5c-0.2,6.2-0.1,12.3-0.8,18.4
			c-1.5,13.9-1.2,27.8-2.4,41.7c-0.3,3.3,0.9,4.9,4.4,4.7c2.6-0.1,5.4,0,7.9,0.5c3.6,0.7,7.3,0.7,11,1.8c5.2,1.5,10.9,1.8,16.4,2.4
			c14.8,1.4,29.4,5,44.2,6.1c7.4,0.6,14.7,2.4,22.1,3.5c11.4,1.6,22.8,3,34.2,4.6c10.7,1.5,21.4,2.9,32.1,4.7
			c4.5,0.7,9.2,0.7,13.6,1.8c5.2,1.2,10.5,1.8,15.8,2.7c7.2,1.2,14.3,2.2,21.5,3.2c3.8,0.5,7.6,1.4,10.3-2.6c1.4-2,2.6-3.9,3.3-6.2
			c3.1-9.5,4.7-19.3,6.5-29.1c2.6-14.6,2.5-29.3,2.1-44c-0.3-8.4-1.8-16.8-3.3-25.1c-0.5-2.6-1.7-3.3-3.9-3.3c-3,0-5.9,0.1-8.9,0.2
			c-17.5,0.2-34.9,0.8-52.4,1c-21.4,0.2-42.7,1.1-64.1,1.6c-16.4,0.4-32.7,0.6-49.1,0.8 M577.1,905.1c0.2,5.7,2.2,8.2,6.7,7.6
			c5.2-0.7,10,0.7,15,1.5c4.4,0.8,7-2.1,7.5-6.6c0.7-6.5-0.9-13.1,0.8-19.5c1.7-6.3-1.8-13.1,1.6-19.3c0.2-0.3,0-0.8,0-1.2
			c0-7.3-1.6-14.6,0-22c0.4-1.9-0.8-3.4-2.1-2.7c-3.8,2-7-0.9-10.5-0.8c-4.1,0.2-8.3-0.3-12.5-0.6c-0.8,0-1.2,0.6-1.3,1.2
			c-0.7,4.1-1.9,8.1-1.9,12.2c-0.1,6.9,0.6,13.9-2,20.5c-0.3,0.9-0.4,1.7-0.2,2.7c0.7,3.1,1,6.2-0.6,9.2c-0.3,0.6-0.7,1.5,0.2,1.5
			c2.8,0.2,1.4,1.4,1.1,2.8C577.6,896.4,578.4,901.3,577.1,905.1z"/>
		<path class="st1" d="M413.2,474.6c-0.7,13.5-1.4,27.7-2.1,41.9c-0.2,4.6-0.4,9.2-0.3,13.8c0.1,2-0.1,3.9-0.5,5.8
			c-1,4.3-2.3,4.5-6.5,2.7c-9.7-4-17.2-11.4-26-16.7c-12-7.3-22.8-16.4-35-23.5c-4.3-2.5-8.2-5.8-12.4-8.2
			c-6.5-3.7-11.5-9.4-18.5-12.4c-3.9-1.7-7.3-5.1-10.7-7.8c-3.6-2.9-7.7-4.8-11.6-7.1c-3.7-2.2-6.9-5.4-10.5-7.9
			c-4-2.8-7.8-6.2-12.5-8c-3.5-1.3-5.9-4.3-8.9-6.4c-3.5-2.5-7.3-4.9-10.4-8.2c-1.8-1.9-1.1-3-0.1-4.1c1.5-1.6,3.5-2.7,5.6-3.4
			c7.9-2.4,15-6.6,22.7-9.2c6.9-2.4,13.4-5.6,20.2-7.9c7.1-2.4,13.9-5.9,20.9-8.8c7.2-3,14.5-5.8,21.8-8.8
			c11.7-4.7,23.4-9.5,35.1-14.3c17.1-7,34.1-14,51.2-21c11.6-4.8,23.3-9.5,34.9-14.2c18.1-7.4,36.3-14.5,54.2-22.2
			c11.6-4.9,23.3-9.5,34.9-14.3c18.5-7.6,36.9-15.5,55.4-23.2c4.9-2.1,10-4,15-5.8c1.9-0.7,3.8-0.7,5.7,0.4
			c10.9,6.4,22,12.6,33.1,18.7c8.5,4.6,16.7,9.6,25.3,14c13.5,6.9,26.5,14.9,39.8,22.5c9.1,5.2,18.1,10.4,27.3,15.4
			c6.8,3.7,13.1,8.2,19.8,11.7c6.2,3.2,12.2,6.8,18.5,9.6c2.9,1.3,5.8,3.1,8.6,4.9c7.4,4.7,15.4,8.3,22.9,12.8
			c7.2,4.4,15,7.7,21.9,12.8c2.7,2,6.2,2.6,9.1,4.6c4.1,2.8,8.2,6,12.8,8c6.8,2.9,12.6,7.4,19.2,10.4c5.3,2.5,10.3,5.5,15.4,8.3
			c1.9,1.1,3.2,2.6,3.1,5.1c-0.6,10.3-0.9,20.7-1.9,31c-0.9,9.3-1.4,18.6-1.6,27.9c-0.1,5.9-1.1,11.8-1.5,17.6
			c-0.2,2.1,0.1,4.2-0.2,6.2c-0.9,6.1-6.2,8.2-10.8,10.6c-15.6,8.4-31.3,16.5-47,24.7c-10.2,5.3-20.3,10.6-30.5,15.9
			c-0.7,0.3-1.4,1.1-2.1,0.4c-1.1-0.9-1.3-2.3-1-3.6c0.8-3.2,0.8-6.5,1-9.8c0.4-9,1-18.1,1.5-27.1c0.6-12.1,1.2-24.2,1.7-36.4
			c0.2-4-2.5-7.1-3.8-10.6c-6.8-0.6-10.4-6.8-16.4-9.1c-5.3-2-10.2-5.1-15.3-7.6c-1.1-0.5-2.2-0.9-2.7-2.1c-0.1-0.2-0.2-0.7-0.3-0.7
			c-5.5-0.1-8.9-4.8-13.5-6.3c-12.8-4.2-24.6-10.7-37.4-14.6c-10.4-3.2-20.7-6.7-31.2-9.3c-11.9-3-23.8-5.7-36-7.5
			c-10.2-1.5-20.4-2.7-30.6-3.8c-12.6-1.4-25.5-1.3-38.2-1.3c-7,0-14.2-0.4-21,0.4c-11.4,1.3-22.7,3-34.1,4.4
			c-8.7,1.1-17.4,2.5-25.8,4.5c-12.2,3-24.5,6.2-36.4,10.4c-8.9,3.1-17.8,6.2-26.6,9.6c-5.8,2.2-11.6,4.9-17.1,7.8
			C415.9,460.2,412.2,465.9,413.2,474.6z"/>
		<path class="st2" d="M428.9,660c0-8.4-0.2-16.8,0.1-25.2c0.5-13.7,1.4-27.5,1.9-41.2c0.4-11.2,0.3-22.5,1-33.7
			c0.7-10.5,0.9-21,1.3-31.5c0.6-15.6,1.2-31.2,1.8-46.8c0.1-3,4.7-7.7,8.4-9.5c11.2-5.3,23.3-8.5,34.7-13.4
			c4.5-1.9,9.7-2.1,14.4-3.6c14.2-4.4,28.7-6.9,43.3-9.2c16.5-2.6,33-3.8,49.6-4.4c17.2-0.7,34.3,0.7,51.3,2.7
			c16.5,2,33.1,4.3,49,9.1c10.8,3.3,21.9,5.8,32.5,10.2c11.8,4.8,23.6,9.7,35.2,15c11.3,5.2,21.9,11.5,32.8,17.4
			c1.6,0.9,1.5,2,1.3,3.3c-0.4,3.9-1,7.8-1.2,11.7c-0.3,5.4-0.2,10.8-0.5,16.2c-0.6,9.6-1.6,19.3-2,28.9c-0.4,9.9-1.3,19.7-1.5,29.6
			c-0.2,10.2-1.2,20.3-2,30.5c-1.2,17.5-1.8,35.1-2.7,52.7c-0.2,4.2-0.5,8.4-0.9,12.6c-0.6,5.3-4.5,7.7-9.2,5.4
			c-9.5-4.5-18.8-9.4-28.3-13.6c-10.4-4.6-20.9-8.9-31.8-12.3c-7-2.2-14-4.5-21-6.6c-8-2.4-16.2-4.3-24.4-5.8
			c-2.3-0.4-4.5-0.8-6.7-1.7c-5.3-2.1-11-2.4-16.5-3.1c-7.7-1-15.5-1.7-23.2-2.7c-6.5-0.9-13.1-1.1-19.6-1.5
			c-7.8-0.4-15.6-0.8-23.6-0.3c-8.6,0.5-17.2,1-25.8,1.5c-7,0.4-13.8,1.4-20.7,2c-4.9,0.5-9.9,1-14.7,2c-6.6,1.3-13.4,2-19.9,3.7
			c-6.9,1.8-13.9,3.5-20.8,5.5c-8.8,2.5-17.4,5.7-26.3,8c-3.7,1-7.1,3.1-10.7,4.7c-4.8,2.1-4.9,2-5.2-3c-0.1-1.2,0-2.4,0-3.6
			C428.2,660,428.6,660,428.9,660z"/>
		<path class="st2" d="M870.1,724.3c1.4-7.1,0.6-14.4,1.7-21.5c0.8-4.7,0.6-9.7,1-14.5c1-13.6,13.5-25.6,26.9-25.3
			c8.5,0.2,16.6,6.6,20.4,14c3.1,6.2,1.4,12.1,1.2,18.1c-0.3,11.9-1.5,23.7-2.2,35.5c-0.8,13.8-12.1,25.6-24.7,26.1
			c-15.9,0.6-25.8-12.6-24.5-26.5C870.2,728.2,870.3,726.2,870.1,724.3z"/>
		<path class="st1" d="M980.2,475.3c-4.5,6.9-11.4,8.8-17.3,12c-12.6,7-25.3,14-38.4,20.2c-3.1,1.5-4,0.9-3.8-2.5
			c0.4-7.3,1.1-14.7,1.6-22c0.3-4.5,0.1-9,0.6-13.4c0.8-6.1,1.9-12.1,1.7-18.4c-0.1-2.6,3.5-4,6.4-2.6c6.7,3.3,13.1,7,19.6,10.7
			c5.5,3.1,10.7,6.7,16.2,9.7c3.1,1.7,7.1,1.8,9,5.7C976.4,476.1,978.1,476.1,980.2,475.3z"/>
		<path class="st2" d="M500,912.6c-8.7,0.4-17.5,0.9-26.1,1.1c-10.7,0.3-21.6-0.1-32.3,0.3c-8.4,0.3-16.9-0.4-25.2,0.3
			c-11.3,1-22.5,0.4-33.8,0.9c-9.5,0.4-18.9,0.7-28.4,0.9c-13.3,0.2-26.5,0.4-39.7,1.3c-1.8,0.1-2.7-0.4-3-2.1
			c-1.3-5.9-2.1-11.9-3-17.9c-1.9-11.9-1.6-23.8-1.4-35.7c0.2-9.6,1.3-19.3,3.2-28.8c1.3-6.7,3-13.2,4.6-19.8c1.2-4.7,6.2-8.1,11-7
			c4.1,1,8.4,0.5,12.5,1.4c5.7,1.3,11.5,1.4,17.1,3.2c2.1,0.7,4.5-0.2,6.9,0.1c9,1.3,17.9,3.4,26.8,4.2c11.5,1,22.8,3.3,34.2,4.5
			c6.5,0.7,12.9,1.7,19.3,2.8c14.5,2.5,29,4.1,43.5,6.2c11.1,1.6,22.3,3,33.4,4.7c10.7,1.6,21.3,3.7,32.1,4.4c2.9,0.2,4,1.3,3.8,4.5
			c-0.6,11.3-0.7,22.6-1.3,33.8c-0.5,9.4-1.1,18.7-2,28c-0.4,4.8-6.1,8-11.8,8c-7.8,0-15.6,0.4-23.4,0.6
			C511.3,912.7,505.7,912.6,500,912.6z"/>
		<path class="st2" d="M694.1,841.6c16.4-0.1,32.7-0.4,49.1-0.8c21.4-0.5,42.7-1.4,64.1-1.6c17.5-0.1,35-0.8,52.4-1
			c3,0,5.9-0.2,8.9-0.2c2.2,0,3.5,0.7,3.9,3.3c1.4,8.3,3,16.7,3.3,25.1c0.5,14.7,0.6,29.4-2.1,44c-1.8,9.8-3.4,19.6-6.5,29.1
			c-0.7,2.3-2,4.2-3.3,6.2c-2.8,3.9-6.6,3.1-10.3,2.6c-7.2-1-14.4-2-21.5-3.2c-5.3-0.9-10.5-1.5-15.8-2.7c-4.4-1-9.1-1-13.6-1.8
			c-10.7-1.8-21.4-3.2-32.1-4.7c-11.4-1.6-22.8-3-34.2-4.6c-7.4-1.1-14.7-2.9-22.1-3.5c-14.9-1.2-29.4-4.7-44.2-6.1
			c-5.5-0.5-11.2-0.8-16.4-2.4c-3.7-1.1-7.4-1.1-11-1.8c-2.5-0.5-5.3-0.6-7.9-0.5c-3.5,0.1-4.7-1.4-4.4-4.7
			c1.2-13.9,0.9-27.8,2.4-41.7c0.7-6.1,0.6-12.3,0.8-18.4c0.2-5.3,4.6-9.5,9.9-9.5L694.1,841.6z"/>
		<path class="st3" d="M577.1,905.1c1.4-3.8,0.5-8.7,1.8-13.3c0.4-1.4,1.7-2.7-1.1-2.8c-0.9-0.1-0.5-0.9-0.2-1.5
			c1.6-3,1.3-6.1,0.6-9.2c-0.2-1-0.2-1.8,0.2-2.7c2.6-6.7,1.9-13.6,2-20.5c0-4.1,1.2-8.1,1.9-12.2c0.1-0.6,0.4-1.3,1.3-1.2
			c4.2,0.2,8.3,0.7,12.5,0.6c3.5-0.2,6.7,2.8,10.5,0.8c1.4-0.7,2.6,0.8,2.1,2.7c-1.6,7.3,0,14.6,0,22c0,0.4,0.2,0.9,0,1.2
			c-3.5,6.2,0.1,13-1.6,19.3c-1.7,6.4-0.2,13-0.8,19.5c-0.5,4.5-3,7.4-7.5,6.6c-4.9-0.9-9.7-2.3-15-1.5
			C579.2,913.3,577.3,910.9,577.1,905.1z"/>
	</g>
</g>
</svg>
