<?xml version="1.0" encoding="UTF-8"?>
<svg xmlns="http://www.w3.org/2000/svg" version="1.1" viewBox="0 0 872.9 254">
  <defs>
    <style>
      .cls-1 {
        fill: #fdfdfe;
      }

      .cls-2 {
        fill: #3a1f65;
      }

      .cls-3 {
        fill: #882376;
      }

      .cls-4 {
        fill: #8a8c90;
      }

      .cls-5 {
        fill: #164e8d;
      }

      .cls-6 {
        fill: #6b206e;
      }

      .cls-7 {
        fill: #8e9093;
      }

      .cls-8 {
        fill: #8d8f93;
      }

      .cls-9 {
        fill: #fcfcfd;
      }

      .cls-10 {
        fill: #8e8f93;
      }

      .cls-11 {
        fill: #8b8e92;
      }

      .cls-12 {
        fill: #888b91;
      }

      .cls-13 {
        fill: #8d9093;
      }

      .cls-14 {
        fill: #db1983;
      }

      .cls-15 {
        fill: #fefefe;
      }

      .cls-16 {
        fill: #8e9094;
      }

      .cls-17 {
        fill: #8d8f92;
      }

      .cls-18 {
        fill: #092461;
      }

      .cls-19 {
        fill: #341d62;
      }

      .cls-20 {
        fill: #1d7cbf;
      }

      .cls-21 {
        fill: #aa207d;
      }

      .cls-22 {
        fill: #fdfdfd;
      }
    </style>
  </defs>
  <!-- Generator: Adobe Illustrator 28.7.1, SVG Export Plug-In . SVG Version: 1.2.0 Build 142)  -->
  <g>
    <g id="_레이어_1" data-name="레이어_1">
      <path class="cls-20" d="M251.4,64.3c.8-4.2-1.1-8.4-.9-12.1.7-12.6,1.7-25.3,1-37.9-.1-1.9.2-3.6.8-5.4.7-2.4.2-3.7-2.6-5.3-3.8-2.1-6.7,1-10,.1-8.5-2.4-17.3.9-25.8-1.4-1-.3-2.3.3-3.4.5-3.6.4-7.1.9-10.8-.2-4-1.2-8.3-.6-12.3.8-1.8.6-3.6,1.4-5.3,1-8.4-1.9-16.8,0-25.3-.2-2.7,0-4.9-2.7-7.6-1.4-3.4,1.5-6.5,1.3-10.1.4-1.9-.5-7.6-1.8-6.8,2.8,1.4,7.8-1.9,14.7-2.3,22.2-.5,9.5-4.2,18.5-4.9,28.2-.8,10.7-4.6,21.1-5.3,32-.6,10.4-2.9,20.6-5.4,30.8-.6,2.5-.5,4.4,2.4,4,8.9-1.4,17.8.9,26.7,0,3.9,0,7.6,3.9,8.1,8.1.6,4.9-1.4,9.5-1.5,14,0,7-2.3,13.3-3.5,20-.9,4.9-1,5.4,4.2,5.3,12.8-.2,24.5-4,35.5-10.4,9.8-5.7,17.8-13.4,24.3-22.6,3.6-5.1,6-.3,8.6.8,3.9,1.6.8,3.5-.3,4.9-4.3,5.7-8.8,11.3-14.2,16.1-15.9,14.1-34.5,20.8-55.6,21.3-1.5,0-3.9-.3-4,1.1-.2,3.5-2.7,6-3.2,9.6-.9,6-1.1,12-1.9,18-.9,6.3-1.6,12.7-3.5,18.7-2,6.2-.3,12.7-2.5,18.9-1.7,4.9.2,7.3,5.5,6.2,8-1.6,16.2,1.9,23.9-1.6,5.2,3.6,11-.8,16.1.9,3.2,1.1,6.2,2.1,9.5,1.8,4.6-.5,8.8-3.4,13.7-1.4.5.2,1.4-.8,2.2-1,.8-.2,2-.4,2.3,0,2.6,3.3,5,1.8,7.7,0,1.4-.9,3.2-.7,4.7.3,1.1.7,2.4,1.5,3.7,1.2,5.8-1.6,11.5.7,17.2.6,3.1,0,7.6.8,8.7-3.2,1.2-4.7,2-10,1.7-14.5-.6-8.2-1.9-16.2.1-24.3.2-.6.3-1.4.1-1.9-3.2-7.3-1.9-14.9-1.1-22.2.4-3.9-1.8-8.5,0-11,3.6-4.9-2-9.6,1.1-13.9-4.3-6.4,1.7-13.7-2-20.4-.8-1.4,2.4-4.7,2.1-6.8-1.3-7.5,1.2-15,0-22.4-1.3-8.2-2.6-16.1,1.2-23.9.2-.4.2-1,.1-1.5-2-7.7-2.5-15.4-1-23.3ZM207.5,51.2c-1.7-1.1-3.6-1.3-4.8.6-1.4,2.5,1.5,2.4,2.5,3.3,2.4,2.1,6.1,2.2,8.1,4.9-1.2,1.7-2.7-.5-3.8.7,0,1.6,1.9,2.1,2.5,4.5-4.5-2.5-8.5-4.7-12.5-6.9,0,0,0,0,0,0-1-.4-1.9-.7-2.9-1.1-2.6.5-1.3-5.4-5.1-3.1-2.5.7-4.8.4-7-.8,0,0,0,0,0,0-3.2-.6-6.1.5-8.9,1.9-2.1,2.3-4.1,4.8-6.4,6.9-3.6,3.4-8.6,2.2-10.5-2.3-2.7-6.3.2-16.4,6.3-19.8,9.3-5.3,18.9-4.6,28.2.2,1.4.7,2.8.7,4.2,1.1,0,0,0,0,0,0,0,0,0,0,0,0,6.2,4.2,12.6,8.3,17.3,14.5-2.4-1.6-4.8-3.1-7.2-4.7Z"/>
      <path class="cls-14" d="M75.5,186.9c-.5.3-1,.5-1.5.7.5-.1,1-.3,1.5-.7Z"/>
      <path class="cls-15" d="M872.4,80c0-.3,0-.7,0-1,.1-2.1-.6-3.2-2.9-2.8-3.8.6-3.8-1.7-3.8-4.6,0-18.6,0-37.3.1-55.9,0-3.5-.5-5-4.5-5-19.2.2-38.3.2-57.5,0-3.3,0-4.9.7-4.5,4.4.3,2.8.3,5.7,0,8.5-.4,3.7.8,4.9,4.7,4.8,12-.3,24,0,36-.2,3.2,0,4.8.8,4.3,4.2-.2,1.1-.1,2.3,0,3.5.4,3.5-.9,4.7-4.5,4.6-8.7-.2-17.3,0-26,0-13.5,0-13.5,0-13.2,13.7,0,3.1,1,4,4.1,3.9,9.5-.2,19,0,28.5,0q11.1,0,11.1,10.8c0,.8-.1,1.7,0,2.5.6,3.7-.8,5-4.6,4.9-10.7-.2-21.3,0-32,0-15.3,0-15.2,0-14.8,15.2,0,2.9,1,3.8,3.8,3.8,7-.1,14,.1,21-.1,3.4-.1,4.6.8,4.6,4.4-.1,9.7,0,9.7-9.7,9.7-13.2,0-13,0-12.9,13,0,3.5,1.3,4.2,4.4,4.1,11.8-.1,23.7.1,35.5-.2,4.2,0,4.5,1.8,4.5,5.1,0,3.4-.5,5.1-4.6,5-11.7-.3-23.3,0-35-.2-3.8,0-4.8,1.1-4.7,4.8.2,11.8.2,23.6,0,35.5,0,3.3.9,4.3,4.2,4.3,9.8-.2,19.7,0,29.5,0,7.3,0,14.7,0,22,0,12.1,0,12,0,12-12.4,0-3.3-.9-4.4-4.2-4.3-12,.2-24-.1-36,.2-4.3.1-5.8-.9-5.7-5.5,0-4.2.8-5.8,5.5-5.7,11.5.4,23,0,34.5.2,3.4,0,4.7-.8,4.6-4.5-.2-11.7-.2-23.3,0-35,0-3.9-1.3-4.9-4.9-4.6-3.8.3-7.7-.2-11.5.1-4.6.4-6.1-1-5.8-5.8.5-8.3.1-8.3,8.7-8.3,1.8,0,3.7.1,5.5,0,4.7-.4,11.2,2.2,13.8-1.1,2.4-3.1.7-9.2.8-14Z"/>
      <path class="cls-1" d="M489.9,118.4c-.3-3.5-.2-7,0-10.5.2-3-.9-4.2-4-4-4.8.2-9.7,0-14.5,0q-10.5,0-10.5-10.3t10.5-10.5c12.4,0,12.2,0,12.4-12.1,0-3.7-1-4.9-4.8-4.8-12.2.2-24.3-.1-36.5.2-5.5.1-4-3.4-4.2-6.3-.3-3.2,0-5.3,4.3-5.2,11.7.3,23.3,0,35,.2,4.1,0,5.1-1.2,5-5.1-.3-11.3-.3-22.6,0-34,.1-4.1-1-5.5-5.2-5.4-16,.2-32,.1-48,.1-13.1,0-13,0-12.8,13.1,0,3.3,1.1,4.2,4.4,4.2,11.7-.2,23.3.1,35-.2,4.2-.1,4.9,1.4,4.9,5.2,0,3.7-.6,5.3-4.9,5.2-11.7-.3-23.3,0-35-.2-2.7,0-4.4.2-4.4,3.7.1,12.7.1,25.3,0,38,0,2.6.9,3.6,3.5,3.5,4.3-.1,8.7.3,13-.1,5-.5,7,1,6.3,6.3-.6,4.6,1.8,10.6-.9,13.5-3,3.2-9.1.8-13.9,1.1-4.5.3-10.1-1.8-13.1.8-3.3,2.9-.5,8.8-1.2,13.4-.6,4.3,1.4,4.9,5.1,4.9,11.5-.2,23,0,34.5,0,11.8,0,23.7-.1,35.5,0,3.6,0,4.7-1.1,4.4-4.6Z"/>
      <path class="cls-15" d="M585.8,57.8c2.1-5.7,5.9-3.9,9.3-3.8,4,0,2.4,3.7,2.4,5.8.1,10.7.2,21.3,0,32,0,3.8,1.1,5,4.9,4.7,3.6-.3,7.3-.3,11,0,3.9.4,5.2-.9,5.1-4.9-.3-12.6,0-25.3,0-38,0-12.8-.1-25.6,0-38.5,0-3.6-1.1-4.7-4.6-4.5-3.8.2-7.7.3-11.5,0-3.6-.3-5.1.8-4.9,4.7.3,5.1,0,10.3,0,15.5,0,1.3.2,2.7-1.3,3.5-3.2,1.8-9.7-.3-11.4-3.7-6.5-13.5-17.3-20.9-32.1-21.9-15-1-27.1,4.8-35.2,17.6-7.6,12-7.9,24.8-.8,36.9,8,13.7,20.7,20.2,36.5,18.8,15.6-1.3,26.9-9.6,32.4-24.3ZM550,61.9c-9.4,0-17.1-7.5-17-16.6.1-9.1,7.9-16.5,17.3-16.3,9.2.1,16.7,7.5,16.7,16.4,0,9.2-7.5,16.5-17,16.5Z"/>
      <path class="cls-15" d="M378,99.3c.4-3.2-.8-4.4-4.2-4.3-6.8.2-13.7,0-20.5.1-3.2,0-4.6-.7-4.3-4.2.3-3.8,0-7.7.2-11.5.1-2.8-.9-3.8-3.8-3.7-4.7.2-9.3.2-14,0-3-.2-4.2.8-4.1,3.9.2,3.6-.2,7.3.1,11,.3,3.7-1.2,4.6-4.6,4.4-3.3-.2-6.7-.1-10,0-4.6.2-10.6-2-13.5.8-3.2,3-.6,9.1-1.1,13.9-.4,3.7,1.2,4.5,4.6,4.4,5.8-.2,11.6,0,18.6,0-23.5,18.6-27.9,39.2-13.1,57.3,13.6,16.4,38.7,18.3,54.9,4.2,7.6-6.7,12.1-15,12.5-25.2.8-16.2-7.2-27.6-20.7-35.9,3-.4,5.6-.3,8.2-.4,4.6-.2,10.6,2,13.5-.8,3.2-3,.7-9.1,1.2-13.9ZM337.8,164.6c-9.4,0-17-7.5-16.9-16.7,0-9,7.5-16.2,16.8-16.3,9.6,0,17.1,7.1,17.1,16.4,0,9.3-7.5,16.6-17,16.6Z"/>
      <path class="cls-1" d="M647.5,176.6c-.3-10.3,0-20.6,0-30.9,0-10.5-.2-21,0-31.4,0-3.6-1.1-4.5-4.5-4.5-19.3.1-38.6.2-57.9,0-3.7,0-4.9.9-4.8,4.8.2,20.5.2,40.9,0,61.4,0,3.6.7,5,4.6,4.9,19.5-.2,38.9-.1,58.4,0,3.2,0,4.3-.8,4.2-4.2ZM625.9,160.6c0,2.8-1,3.8-3.8,3.7-5.2-.2-10.3-.2-15.5,0-3.4.2-4.8-.8-4.6-4.4.3-4.8,0-9.6,0-14.5,0-5,.1-10,0-15,0-2.6.5-4,3.5-3.9,5.7.2,11.3.1,17,0,2.7,0,3.4,1.2,3.4,3.6,0,10.1-.1,20.3,0,30.4Z"/>
      <path class="cls-15" d="M306,77c4.5-.2,9-.2,13.5,0,2.7.1,4.2-.9,5.5-3.3,3.7-7.1,7.8-13.9,11.4-21,1.6-3.2,2.5-2.4,3.8,0,1.7,3.2,4,6.3,5,9.7,4,12.4,12,16.9,24.7,14.6,3.5-.6,4.4-.7,2.4-4.2-7.2-12.7-14.1-25.6-21.2-38.4-1.7-3.1-2.1-4.7,2.4-4.4,4.5.3,9,0,13.5.1,3.1.1,4.7-.6,4.4-4.1-.3-3.6-.3-7.3,0-11,.2-3.4-1.1-4.3-4.3-4.2-9.7.2-19.3,0-29,0-6,0-12-.1-18,0-4.8.2-11.1-2.2-13.9,1-2.9,3.3-.5,9.5-.9,14.5-.2,2.8.8,3.9,3.7,3.8,4.2-.2,8.3,0,12.5,0q5.3,0,2.8,4.7c-6.8,12.7-13.6,25.5-20.5,38.2-1.6,2.9-1.5,4.2,2.3,4Z"/>
      <path class="cls-22" d="M687.7,80.1c4.5,0,9-.3,13.5,0,3.4.2,5-1.1,6.3-4.2,3.9-9.5,8.2-18.8,12.2-28.1,2,.5,2.1,2,2.7,3.2,3.6,8.2,7.2,16.4,10.7,24.7,1.3,3.1,3,4.7,6.7,4.4,4.1-.4,8.3-.2,12.5,0,4,.2,4.1-1.1,2.4-4.3-7.8-14.7-15.4-29.5-23.1-44.2-3.8-7.3-7.6-14.6-11.4-21.9-.6.2-.9.2-.9.3-11.3,22.4-22.6,44.8-33.8,67.2-1.2,2.5.2,2.8,2.2,2.8Z"/>
      <path class="cls-9" d="M630.9,96.5c4-.3,8-.3,12,0,3.9.3,4.7-1.3,4.6-4.9-.2-12.6,0-25.3,0-37.9,0-13,0-26,0-38.9,0-3-.8-4.2-3.9-4.1-4.3.2-8.7.3-13,0-3.4-.2-4.1,1.1-4.1,4.3.1,25.6.1,51.3,0,76.9,0,3.4.7,4.9,4.4,4.6Z"/>
      <path class="cls-9" d="M679.7,119.2c-.2,2.8.7,3.8,3.6,3.8,24.8,0,49.7,0,74.5,0,2.5,0,3.6-.8,3.5-3.5-.2-3.7-.3-7.3,0-11,.3-3.9-1.3-4.7-4.9-4.6-12,.2-24,0-36,0-8.7,0-17.3-.2-26,0-4.7.1-10.9-2.3-13.8,1.1-2.9,3.2-.5,9.3-.9,14Z"/>
      <path class="cls-8" d="M607.2,224c-.3-2.2,0-4.8-3.5-5-3.3-.1-5.8.2-6.9,4-.8,2.9-2.2,5.6-3.2,8.4-.3.9-.3,2.2-1.6,2.2-1.1,0-1.4-1.2-1.8-2.2-1.1-3-2.5-5.8-3.3-8.9-.9-3.5-3.4-3.4-6.2-3.5-3.2,0-3.3,2-3.6,4.2-1.3,7.5-2.6,15.1-4,22.6-.3,1.9-1.5,4.2,1.9,4.3,2.5,0,5.5,1,5.9-3.3.4-4,1.2-8,1.9-12.1.4,0,.8,0,1.1,0,1.8,4.3,3.5,8.6,5.3,12.9.4,1.1.9,2.2,2.3,2.4,1.7.2,2.3-1.2,2.8-2.4,1.4-3,2.6-6.1,3.9-9.2.5-1.2.4-3.1,2.1-3,1.9.1,1.1,2.1,1.3,3.2.4,2.6.8,5.3.9,7.9.2,3.7,2.7,3.5,5.3,3.5,3.6,0,3-2.4,2.7-4.5-1-7.2-2.1-14.5-3.3-21.7Z"/>
      <path class="cls-10" d="M410.6,223.5c0-3-.6-4.5-4.1-4.6-3.7,0-4,1.9-3.9,4.7.1,4.1,0,8.2,0,12.7-2.1-.5-2.6-1.6-3.3-2.5-3.3-4.2-6.7-8.3-9.8-12.6-2.1-2.8-5-2.6-7.7-2-3.1.6-1.9,3.5-2,5.4-.1,7.2,0,14.3,0,21.5,0,3,1.1,4.1,4.1,4.1,3.2,0,3.9-1.4,3.9-4.2,0-4.2-.6-8.5.4-12.6,2,.1,2.5,1.5,3.3,2.5,3.1,3.9,6.3,7.8,9.2,11.8,2.2,3.1,5.2,2.9,8.1,2.3,3.1-.6,1.8-3.5,1.8-5.5.1-7,0-14,.1-21Z"/>
      <path class="cls-7" d="M522.3,218.2c-9.9,0-16.7,6.8-16.8,16.5,0,9.6,6.9,16.4,16.8,16.4,9.9,0,17-6.7,17.1-16.2.1-9.6-7.2-16.8-17.1-16.8ZM522.3,243.3c-4.6,0-8.6-4-8.7-8.5,0-4.7,4.3-8.8,9.1-8.7,4.7.2,8.2,3.9,8.1,8.8,0,5.1-3.5,8.4-8.5,8.3Z"/>
      <path class="cls-13" d="M819.4,218.2c-9.7,0-16.8,7.2-16.7,16.6,0,9.4,7.2,16.3,17,16.3,9.9,0,16.9-6.8,16.9-16.3,0-9.8-7.1-16.7-17.2-16.6ZM819.4,243.2c-4.9,0-8.2-3.6-8.2-8.7,0-4.9,3.8-8.5,8.5-8.5,4.6,0,8.7,4.1,8.7,8.6,0,4.7-4.2,8.7-9.1,8.6Z"/>
      <path class="cls-8" d="M349.5,218.2c-9.8,0-16.8,6.8-16.9,16.4-.1,9.5,6.9,16.5,16.7,16.6,9.8,0,17.1-6.7,17.2-16.1.1-9.7-7-16.9-17-16.9ZM349.7,243.3c-4.6,0-8.8-3.8-8.9-8.3,0-4.8,4.1-9,8.9-8.9,4.6,0,8.6,4,8.6,8.6,0,4.7-3.8,8.5-8.5,8.6Z"/>
      <path class="cls-13" d="M773.6,218.2c-9.8,0-16.8,6.8-16.9,16.4-.1,9.4,7,16.5,16.8,16.5,9.9,0,17.1-6.7,17.2-16.1,0-9.8-7.1-16.8-17-16.8ZM773.7,243.3c-4.5,0-8.8-3.8-8.9-8.2-.2-4.7,4-9,8.7-9,4.6,0,8.7,3.8,8.8,8.3.2,4.9-3.7,8.9-8.6,8.9Z"/>
      <path class="cls-7" d="M448.5,233c-1.7,0-3.3,0-5,0-2,0-3.2.7-3.2,2.8,0,1.9.5,3.2,2.7,3.4,1.2,0,3.1-.5,3.3,1.3.2,1.9-1.7,2.8-3.2,3.3-3.1,1.1-5.9.4-8.2-2-3.3-3.4-3.3-10-.2-13.8,3-3.6,6.2-3.6,11.2.2,3,2.3,5.3.5,7.1-1.1,2.2-2-.5-3.5-1.7-4.8-4.8-4.9-10.7-5-16.7-3.2-6.8,2-11,8.9-10.6,16.8.4,7.2,5.2,13.2,12,14.7,7.9,1.8,15-1.2,18.3-7.6,3.9-7.5,2.4-10.1-5.7-10Z"/>
      <path class="cls-11" d="M738.4,219c-4.8.2-3.2,3.6-3.4,6.2-.2,2.1,1.6,4.8-1.8,5.8-6.6,1.9-9.3-.1-9.4-6.9,0-.7,0-1.3,0-2,.1-2.9-1.8-3.1-4-3-2.1,0-4.1-.1-4.1,2.9,0,8.5,0,17,0,25.4,0,2.7,1.8,2.8,3.7,2.8,1.9,0,4.3.5,4.4-2.6,0-1.8.2-3.7,0-5.5-.4-3.7,1.1-5,4.8-4.9,6.7.1,6.7,0,6.4,6.4,0,1,0,2,0,3-.2,2.9,1.4,3.7,4,3.6,2.6,0,4.6-.2,4.5-3.7-.1-4,0-8,0-12,0-1.8,0-3.7,0-5.5,0-1.8-.2-3.7,0-5.5.5-4-1.6-4.8-5-4.6Z"/>
      <path class="cls-7" d="M488.1,240.9c-1.9-2.1-2-3.4.6-5.1,3.6-2.4,4.3-6.3,3-10.2-1.3-4-4.3-6.3-8.5-6.5-3.1-.2-6.3,0-9.5-.1-3.3-.2-4.4,1.1-4.3,4.3.2,7.3.1,14.6,0,21.9,0,2.9,0,5.1,4.1,5.1,4,0,4.3-2,4.1-5,0-1.4-.5-3,.9-5.2,1.5,2.3,3.1,4.1,4,6.1,2,4.6,5.9,4.2,9.7,4,2,0,2.3-1.1,1.1-2.6-1.7-2.2-3.4-4.5-5.3-6.6ZM480.1,233c-2.8.3-2.5-1.9-2.6-3.4,0-2-.2-4.2,2.4-4.2,2.2,0,3.7,1.4,3.8,3.7,0,2.3-1.3,3.7-3.6,3.9Z"/>
      <path class="cls-16" d="M658.2,231c-.8-.3-1.6-.5-2.3-.9-1-.6-2.1-1.3-1.8-2.6.3-1.5,1.5-2.2,3-2.2,1,0,2.1.1,2.9.6,3.2,1.7,3.7-1,4.6-2.8,1.5-2.7-1-3.2-2.6-3.7-2.8-1-5.9-1.5-8.8-.7-4.3,1.3-7.2,4-7.7,8.8-.5,4.9,1.4,8,6.2,9.4,1.4.4,2.9.8,4.2,1.5,1.3.7,2.7,1.6,2.2,3.4-.5,1.6-1.9,2.4-3.5,2.3-1.3,0-2.9-.2-3.8-1-3.1-2.5-4.1-.5-5.5,1.9-1.8,3.2.9,3.7,2.7,4.6,2.1,1,4.4,1.4,6.8,1.4,6.4,0,11.1-3.5,11.8-8.5.9-6.2-1.3-9.1-8.4-11.4Z"/>
      <path class="cls-17" d="M698.1,242.7c-3.8,1-7,.1-9.3-3-2.2-3.1-2.2-6.7-.1-9.8,2.1-3.1,5.3-4.4,9.2-3.2,4.3,1.4,5.3.5,4.6-4-.7-4.6-4.4-3.6-7.3-4-5.6-.5-9.6,2.2-13,6.2-4.3,5.1-4.6,12.9-.8,18.6,3.8,5.8,11.6,8.6,17.9,6.9,4.7-1.3,3.6-5,3-7.7-.7-3.2-2.7-.4-4.1,0Z"/>
      <path class="cls-12" d="M864.1,243.3c-5.1.8-6.5-1.6-5.9-6.2.2-1.8,0-3.7,0-5.5,0-3,0-6,0-9,.1-3.4-2-3.6-4.6-3.6-2.7,0-4,.9-3.9,3.8.1,4.7,0,9.3,0,14,0,14.3,0,14.2,14.1,13.5,2.4-.1,3.8-.6,3.7-3.4,0-2.5-1-3.9-3.5-3.6Z"/>
      <path class="cls-4" d="M315,218.9c-4.9,0-4.1,3.2-4.1,6.1,0,5,0,10,0,15,0,2.3-.4,5-3.6,3-3.2-1.9-3.9,1-5,2.3-1.6,2.1.6,3.3,2,4.3,5.8,3.8,14.4-.4,15-7.4.3-3.3,0-6.6,0-10h0c0-2.5,0-5,0-7.5,0-3.1.4-5.9-4.4-5.8Z"/>
      <path class="cls-14" d="M127.9,137.2c-3.2.5-6.3-.1-9.3.2-4.2.5-8.4-.6-12.8.6-5.3,1.4-8.1-1.7-7.8-7.5,0-2,.5-3.9,1-5.9,1.1-5,3.3-9.9,3.2-14.9-.1-12,3.5-23.5,4.9-35.2.5-4.1-.5-4.5-3.8-4.4-6.4.2-12.6,1.3-18.7,3-17.4,5.1-31.4,15.1-41.8,29.9-3.5,4.9-5.7.5-8.2-.6-3.4-1.5-1.2-3.4,0-5.1,4.9-6.8,10.5-12.9,17-18.2,15.5-12.7,33.4-18.9,53.4-19.2,2,0,4.6.9,5.1-2.4,1.6-10.4,2.6-20.8,5.6-31,1.8-6.3.1-13.2,2.8-19.4.8-1.8.6-3.5-.9-5-4.7-1.9-9.3-1.1-14,0-.2,0-.3.1-.5.2-4.2,2.6-7.6-1.6-11-1.6-3.8,0-7.8,3.4-11.7,1-2.2-1.4-4.3-1.6-6.5-1.5-4.1.1-7.9,1.7-12.4.5-4.6-1.2-9.7,1.1-14.6-.4-1.1-.3-2.7-.5-3.4.1-4,3.4-8.5,1.5-12.8,1.6-5.2.1-10.3,0-15.5.2-2.9,0-5.4,2.1-8.7,1.1-3.6-1.1-4.9.5-3.7,4.1.9,2.9,1.9,5.7-.2,8.5-.7.9-.4,1.7,0,2.7,1.9,5.4.5,11.1,1.1,16.7.8,8.3-4.4,16.9.9,25.2.4.6.1,2.1-.4,2.8-2.3,3.6-1.9,7.2-.4,10.9.6,1.4.8,3-.3,4.3-1.1,1.4-.6,2.4.5,3.4,2.7,2.5,1.3,5.1-.3,7.1-2.1,2.6-3.3,4.5,0,7,1.4,1,.4,2.4-.3,3.5-.7,1.1-1.9,2.3-1.2,3.6,2,3.6-2.1,8,1.5,11.3.2.2,0,1.4-.5,1.8-2.7,2.8-2.1,6.1-1.4,9.3,1,4.2,2.5,8.2,0,12.4-1,1.5.8,3.1,1.5,4.5,1.3,2.7,2.1,5.3-.4,7.8-.8.8-.7,1.7-.8,2.7-.5,4.7,3.4,9.5-.1,14.2-.4.6-.2,2.1.3,2.9,4,6.4-1.4,13.2,1.1,19.9,1.4,3.7.9,8.9-2.9,12.5-1.3,1.3.2,2.9.9,4.5,1.1,2.3,3.3,5,.8,7.7-3.4,3.7-2.6,8.1-2.1,12.3.8,6.8,1.2,13.7,1.1,20.5,0,2.6.5,4.9,3.3,4,4.5-1.5,8.5-.8,12.6.8,1.5.6,3,.3,4.4-.4,6.6-3.5,13.9-1.2,20.7-1.3,4.6,0,9.6.3,14.4.6,6.4.3,12.5.4,19,0,7.4-.6,15,1.4,22.5-1,2-.7,4.4-.5,6.2.9,4,3.2,8.8-.3,13,1.6.5.3,1.2-.4,1.3-1.2,1-5.8,2.6-11.6,2.7-17.5,0-3.4.5-7.1,1.4-9.8,2-6.4,1.5-13.1,3.7-19.6,2.3-6.5,2-14,2.6-21.1.4-4.3,2.6-8,2.4-12.3-.2-4.3-.9-8.7,1.5-12.4,2.9-4.6.5-9.7,2.2-14.7,2.4-6.7,0-8.6-7.2-7.4ZM82.7,203.2s0,0,0,0c-5.7,3.9-11.4.9-17.1,0-2.3-.4-4.3-1.5-6.1-2.9,0,0,0,0,0,0-3,.3-5.4-.8-7.4-3.1-3.2-3.8-7.8-5.9-11.6-9-.7-.6-1.8-.9-1.3-2.6,2.3.4,3.8,2.2,5.7,3.2.8.4,1.7.6,2.2-.2.6-.8-.3-1.5-.6-2.2,0,0,0,0,0,0h0c-1.1,0-2.1-.2-2.9-1.1h0c-.6-.8-1.1-1.7-1.8-2.3-3-2.3-1.2-3.6,1-4.8l-2.5-2.1c.2-.3.4-.7.6-1,3.6,2.1,7.1,4.2,10.7,6.3h0c2.3,1.1,5.1,1.2,7,3.1,1.6.7.5,2.9,2,3.7,0,0,0,0,0,0,.2-.7.1-1.5,1.1-1.8,0,0,0,0,0,0,2.8-1.8,5.3.7,7.9.8,2,0,3.9,0,5.9,0,2.7-1.5,4.7-3.4,6.4-6,1.9-2.9,4.9-5.3,8.4-4,3.4,1.2,5.1,4.4,5.3,8.3.5,9.5-4.9,14.6-12.9,17.9Z"/>
      <path class="cls-5" d="M197.4,41.4s0,0,0,0c2,4.8.3,6.7-6.4,6.6,4.5,2.2,2.4,4.2.5,6.2,3.7-2.3,2.4,3.6,5.1,3.1-.2-.8-1.4-2.1-.1-2.4,1.7-.3,3.3,1,4.4,2.2.7.7-.8,1-1.4,1.3h0s0,0,0,0c4,2.2,8,4.4,12.5,6.9-.6-2.4-2.5-2.9-2.5-4.5,1.1-1.2,2.6,1.1,3.8-.7-2-2.7-5.7-2.8-8.1-4.9-1-.9-3.9-.9-2.5-3.3,1.1-1.9,3-1.7,4.8-.6,2.4,1.5,4.8,3.1,7.2,4.7-4.7-6.2-11.1-10.2-17.3-14.5Z"/>
      <path class="cls-5" d="M191.1,48c6.7,0,8.3-1.8,6.4-6.6.9,9.4-7.2,3-10.3,5.5.8,3.1,8.7,1.5,4.4,7.3,1.9-2,4-4-.5-6.2Z"/>
      <path class="cls-18" d="M196.6,57.2c1,.4,1.9.7,2.9,1.1-.6-1.4-1.4-2.1-2.9-1.1Z"/>
      <path class="cls-18" d="M200.9,57c-1.1-1.2-2.8-2.5-4.4-2.2-1.3.3-.1,1.6.1,2.4,1.5-1,2.3-.3,2.9,1.1h0c.6-.3,2.1-.6,1.4-1.3Z"/>
      <path class="cls-5" d="M175.7,55.2c2.8-1.4,5.6-2.5,8.9-1.9-3.4-1.6-6.3-.5-8.9,1.9Z"/>
      <path class="cls-5" d="M175.7,55.2c2.6-2.4,5.4-3.6,8.9-1.9,0,0,0,0,0,0-3.5-1.8-6.6-1.8-8.9,1.9Z"/>
      <path class="cls-3" d="M55.6,196.8c.3-2.6,1.7-4.2,4.4-4.5.2,0,.3-.2.3-.2-.3-.1-.6-.3-.9-.5-.5-.5-.8-1-.9-1.3-3.8-2-7.9-3-12-4.1,0,0,0,0,0,0,.3.7,1.2,1.4.6,2.2-.5.8-1.5.6-2.2.2-1.9-1-3.4-2.8-5.7-3.2-.5,1.7.6,2,1.3,2.6,3.8,3.1,8.4,5.2,11.6,9,2,2.4,4.4,3.4,7.4,3.1-1.4-1-4.2-.4-3.9-3.4ZM50.9,189.6c2.3-.1,3.3,1.5,4.8,1.9q-2.6,1.8-4.8-1.9Z"/>
      <path class="cls-3" d="M56.8,195.9c.7-1.5,1.8-2.6,3.9-2.2,1.7.4,4.6,2.3,5,0,.4-2.2-3.2-1.7-5-2.6-.3-.1-.6,0-1,0-.4-.3-.8-.5-1.3-.7.1.4.4.8.9,1.3.3.2.6.3.9.5,0,0,0,.2-.3.2-2.7.3-4.1,1.9-4.4,4.5-.3,3,2.5,2.4,3.9,3.4h0c-1.1-1.4-4-1.6-2.7-4.3Z"/>
      <path class="cls-6" d="M58.4,189.6c.2-.7,1-1.2,2.1-1.7-1.5-.8-.4-3-2-3.7-.3,1.8-1.3,2.1-2.7,1.3-1.8-1-3.7-2.1-5.5-3.2-.5-.3-1.4-.6-.3-1.2.4-.2,1,0,1.4,0-3.6-2.1-7.1-4.2-10.7-6.3-.2.3-.4.7-.6,1l2.5,2.1c3.6,2,3.8,4.3.8,7.1,0,0,0,0,0,0h0c.7.9,1.8,1,2.9,1.1h0c5-1.7,8.7.2,12,3.4Z"/>
      <path class="cls-6" d="M58.4,189.6c.4.4.9.9,1.3,1.4-1.5-1.5.8-2,.8-3.1,0,0,0,0,0,0-1.1.4-1.9,1-2.1,1.7Z"/>
      <path class="cls-6" d="M58.4,189.6c-3.2-3.2-7-5.1-12-3.4,4.1,1.1,8.2,2.1,12,4.1,0-.2,0-.5,0-.7Z"/>
      <path class="cls-6" d="M58.5,190.3c.4.2.9.5,1.3.7-.4-.5-.9-.9-1.3-1.4,0,.2,0,.4,0,.7Z"/>
      <path class="cls-21" d="M41.8,182.8c.7.6,1.2,1.5,1.8,2.3,0-2.4,0-4.8-.8-7.1-2.2,1.2-3.9,2.5-1,4.8Z"/>
      <path class="cls-21" d="M42.7,178c.9,2.3.8,4.7.8,7.1,0,0,0,0,0,0,3-2.7,2.8-5.1-.8-7.1Z"/>
      <path class="cls-3" d="M65.6,203.1c5.7,1,11.4,4,17.1,0-5.7,2.5-11.4,0-17.1,0Z"/>
      <path class="cls-3" d="M65.6,203.1c5.7.1,11.4,2.6,17.1,0,0,0,0,0,0,0-5.7,1.3-11.4-.7-17.1,0Z"/>
      <path class="cls-19" d="M58.6,184.2c-2-1.9-4.7-1.9-7-3.1h0,0c1.9,2.1,3.7,2.9,7,3.1Z"/>
      <path class="cls-19" d="M50.1,181.2c-1.1.6-.2.9.3,1.2,1.8,1.1,3.6,2.1,5.5,3.2,1.5.8,2.5.5,2.7-1.3-3.3-.2-5.1-1-7-3.1h0c-.5,0-1-.1-1.4,0Z"/>
      <path class="cls-6" d="M69.9,187.5c1.3,0,2.7.4,4,.1.5-.2,1-.4,1.5-.7-2,0-3.9,0-5.9,0-2.7,0-5.1-2.6-7.9-.8h0c3-.7,5.5,1.3,8.3,1.4Z"/>
      <path class="cls-6" d="M73.9,187.7c-1.3.3-2.7,0-4-.1-2.8,0-5.3-2.2-8.3-1.4,4.1.6,8.1,3.1,12.3,1.5Z"/>
      <path class="cls-2" d="M50.9,189.6q2.3,3.7,4.8,1.9c-1.6-.4-2.5-2-4.8-1.9Z"/>
    </g>
  </g>
</svg>