<?xml version="1.0" encoding="utf-8"?>
<!-- Generator: Adobe Illustrator 27.9.6, SVG Export Plug-In . SVG Version: 9.03 Build 54986)  -->
<svg version="1.1" id="레이어_1" xmlns="http://www.w3.org/2000/svg" xmlns:xlink="http://www.w3.org/1999/xlink" x="0px"
	 y="0px" viewBox="0 0 1083.31 53.31" style="enable-background:new 0 0 1083.31 53.31;" xml:space="preserve">
<style type="text/css">
	.st0{fill:#FFFFFF;}
</style>
<g>
	<path class="st0" d="M19.71,15.65c0,8.77,5.44,17.9,13.69,21.41l-3.33,4.74c-6.14-2.69-10.88-8.42-13.33-15.27
		c-2.34,7.37-7.08,13.63-13.28,16.61L0,38.34c8.19-3.8,13.63-13.63,13.63-22.69v-5.03H1.87V5.64h29.59v4.97H19.71V15.65z
		 M43.69,0.38v52.81h-6.08V0.38H43.69z"/>
	<path class="st0" d="M98.95,22.2v4.91H51.1V22.2h34.51c1.35-5.91,1.46-10.35,1.46-14.33H57.13V2.95h35.85v4.09
		c0,4.15,0,8.83-1.35,15.15H98.95z M56.9,33.48h36.09v19.07H56.9V33.48z M62.8,47.75h24.27v-9.48H62.8V47.75z"/>
	<path class="st0" d="M139.02,4.71h5.97v36.03h-25.09V4.71h6.02v13.45h13.1V4.71z M139.02,22.96h-13.1v12.93h13.1V22.96z
		 M167.21,25.71h-8.25v27.55h-6.02V0.38h6.02v20.29h8.25V25.71z"/>
	<path class="st0" d="M216.73,42.02v4.97h-47.84v-4.97h20.82v-9.01h-15.03V16h30.41V8.92h-30.53V4.06h36.5v16.73h-30.47v7.37h31.64
		v4.85h-16.49v9.01H216.73z"/>
	<path class="st0" d="M283.7,35.53h-21.11v17.55h-6.02V35.53h-20.82v-4.97h47.96V35.53z M277.91,24.48h-35.79V3.36h35.15v4.85
		h-28.95v11.41h29.59V24.48z"/>
	<path class="st0" d="M316.69,31.03c-5.85-2.05-10.12-6.26-12.46-11.4c-2.28,5.79-6.67,10.29-12.87,12.52l-3.28-4.68
		c8.48-2.87,12.98-10,12.98-17.72V3.6h6.08v6.2c0,7.02,4.56,13.69,12.57,16.44L316.69,31.03z M302.54,47.29h29.42v4.91h-35.44V35.53
		h6.02V47.29z M337.34,16.17v4.97h-7.49v18.13h-6.02V0.32h6.02v15.85H337.34z"/>
	<path class="st0" d="M374.96,31.26c-4.62,0.94-9.47,1.46-14.15,1.81v18.54h-6.02V33.43c-4.97,0.18-9.65,0.23-13.74,0.23l-0.7-4.97
		c9.53,0,22.81-0.18,34.21-1.87L374.96,31.26z M343.91,13.72c0-6.49,5.73-11.05,13.63-11.05c7.9,0,13.63,4.56,13.63,11.05
		c0,6.55-5.73,11.11-13.63,11.11C349.64,24.83,343.91,20.27,343.91,13.72z M349.7,13.72c0,3.74,3.28,6.14,7.84,6.14
		c4.62,0,7.84-2.4,7.84-6.14c0-3.68-3.22-6.08-7.84-6.08C352.97,7.63,349.7,10.03,349.7,13.72z M384.03,0.38v52.87H378V0.38H384.03z
		"/>
	<path class="st0" d="M439.18,41.61v4.97h-47.84v-4.97H439.18z M402.68,4.01v9.24h25.03V4.01h5.97v27.84h-36.96V4.01H402.68z
		 M402.68,26.99h25.03v-8.95h-25.03V26.99z"/>
	<path class="st0" d="M451.53,35.36c8.6-0.06,14.39-0.35,21.11-1.58l0.58,4.85c-7.31,1.4-13.74,1.75-23.57,1.75h-4.15V5.23h23.98
		v4.91h-17.96V35.36z M486.79,0.32v52.99h-6.02V24.07h-14.15V19.1h14.15V0.32H486.79z"/>
	<path class="st0" d="M510.49,14.88c0,9.01,3.39,18.13,10.76,22.4l-3.51,4.39c-4.97-2.92-8.25-8.13-10.12-14.27
		c-1.87,6.67-5.26,12.34-10.35,15.56l-3.63-4.44c7.49-4.68,11-14.21,11-23.63v-3.8h-9.3V6.11h23.86v4.97h-8.71V14.88z M523.12,1.37
		h5.67v49.25h-5.67V23.83h-7.78v-4.91h7.78V1.37z M539.5,0.32v52.81h-5.73V0.32H539.5z"/>
	<path class="st0" d="M555.14,34.71c7.49-0.06,15.38-0.7,23.69-2.4l0.64,5.03c-9.07,1.87-17.6,2.52-25.79,2.52h-4.5V5.53h5.97V34.71
		z M589.71,0.38v52.81h-6.02V0.38H589.71z"/>
	<path class="st0" d="M644.88,41.44v4.97h-47.84v-4.97H644.88z M640.2,31.14c-8.6-1.75-16.03-7.25-19.48-14.5
		c-3.45,7.25-10.88,12.75-19.48,14.5l-2.57-4.97c10.41-1.93,18.89-10.06,18.89-18.42V3.77h6.38v3.98c0,8.42,8.48,16.55,18.89,18.42
		L640.2,31.14z"/>
	<path class="st0" d="M686.59,31.38c-4.45-2.05-7.6-5.67-9.36-10.12c-1.93,4.91-5.26,9.18-10.18,11.46l-3.33-4.56
		c7.02-3.39,10.53-10.47,10.53-16.79V4.01h5.85v7.37c0,6.2,3.22,12.4,9.77,15.44L686.59,31.38z M710.16,47.29v4.91h-36.38V35.3h6.08
		v11.99H710.16z M692.61,18.1h-7.43v-4.97h7.43V1.37h5.67v37.08h-5.67V18.1z M708.7,39.98h-5.73V0.38h5.73V39.98z"/>
	<path class="st0" d="M764.24,41.79v4.91h-47.9v-4.91H764.24z M758.86,33.13h-36.61V4.65h36.2V9.5h-30.06v6.78h28.89v4.74h-28.89
		v7.25h30.47V33.13z"/>
	<path class="st0" d="M795.7,25.06c-7.78,1.23-14.21,1.4-23.92,1.4h-4.09V12.25h17.55v-4.8h-17.66V2.84h23.63v13.74h-17.55v5.21
		c8.48,0,14.45-0.23,21.52-1.4L795.7,25.06z M811.19,47.99v4.74h-36.5V39.22h28.66v-4.27h-28.78v-4.56h34.74v13.16h-28.72v4.45
		H811.19z M803.3,15.41h-9.12v-4.85h9.12V0.38h6.02v27.66h-6.02V15.41z"/>
	<path class="st0" d="M836.33,13.42c0,9.71,5.38,19.42,13.69,23.16l-3.51,4.8c-6.08-2.87-10.7-8.71-13.1-15.85
		c-2.4,7.66-7.08,13.92-13.45,17.02l-3.57-5.03c8.42-3.8,13.92-13.92,13.92-24.1V4.77h6.02V13.42z M860.31,0.32v52.99h-6.08V0.32
		H860.31z"/>
	<path class="st0" d="M876.79,35.94c8.77-0.06,15.38-0.35,23.04-1.58l0.58,4.85c-8.25,1.35-15.5,1.64-25.27,1.64h-4.39V4.94h26.08
		v4.97h-20.06v9.83h18.01v4.85h-18.01V35.94z M911.24,0.32v52.93h-6.02V0.32H911.24z"/>
	<path class="st0" d="M937.63,36.88c4.5-0.18,9.01-0.53,13.22-1.11l0.53,4.45c-11.05,1.93-23.16,1.99-32.23,1.99l-0.82-4.97
		c3.98,0,8.54,0,13.28-0.12V28.8c-6.55-1.17-11.17-5.97-11.17-12.46c0-7.49,6.02-12.69,14.15-12.69s14.1,5.21,14.1,12.69
		c0,6.49-4.5,11.23-11.05,12.4V36.88z M934.59,23.83c4.8,0,8.25-2.87,8.25-7.49s-3.45-7.54-8.25-7.54s-8.3,2.92-8.3,7.54
		S929.79,23.83,934.59,23.83z M967.69,26.7h-7.72v26.44h-6.02V0.38h6.02v21.29h7.72V26.7z"/>
	<path class="st0" d="M1017.12,10.38h-31.17v-4.8h12.58v-5.61h6.02v5.61h12.57V10.38z M1001.5,31.5c-7.6,0-12.81-3.74-12.81-9.47
		c0-5.67,5.21-9.48,12.81-9.48c7.66,0,12.81,3.8,12.81,9.48C1014.31,27.75,1009.17,31.5,1001.5,31.5z M993.37,34.89h33.75v17.66
		h-33.75V34.89z M1001.5,26.99c4.21,0,7.08-1.87,7.08-4.97c0-3.04-2.87-4.91-7.08-4.91s-7.02,1.87-7.02,4.91
		C994.48,25.12,997.29,26.99,1001.5,26.99z M999.34,47.75h21.87v-8.13h-21.87V47.75z M1034.61,18.92h-7.49V32.2h-6.02V0.38h6.02
		v13.57h7.49V18.92z"/>
	<path class="st0" d="M1050.79,6.52c0,12.22-1.4,24.39-8.54,34.8l-4.62-2.63c5.97-8.31,7.66-17.19,8.07-27.25h-6.73V6.52H1050.79z
		 M1067.58,1.61h5.67v49.01h-5.67V25.59h-6.38c-1.17,6.55-3.28,12.98-7.19,18.77l-4.68-2.63c6.61-9.3,7.84-20,8.01-30.3h-4.85V6.52
		h10c0,4.56-0.12,9.36-0.64,14.15h5.73V1.61z M1083.31,0.32v52.93h-5.73V0.32H1083.31z"/>
</g>
</svg>
