<?xml version="1.0" encoding="utf-8"?>
<!-- Generator: Adobe Illustrator 27.9.6, SVG Export Plug-In . SVG Version: 9.03 Build 54986)  -->
<svg version="1.1" id="레이어_1" xmlns="http://www.w3.org/2000/svg" xmlns:xlink="http://www.w3.org/1999/xlink" x="0px"
	 y="0px" viewBox="0 0 454.79 212.48" style="enable-background:new 0 0 454.79 212.48;" xml:space="preserve">
<style type="text/css">
	.st0{fill:none;}
	.st1{fill:#FFFFFF;}
	.st2{fill:#D39828;}
</style>
<path class="st0" d="M376.08,177.31c1.04,0.01,2.08-0.1,3.11,0.07c0.29,0.05,0.34,0.15,0.33,0.4c-0.01,0.78,0,1.56,0,2.57
	c0.05,1.24-0.06,2.7-0.07,4.16c0,0.19-0.09,0.4,0.27,0.44c1.21,0.13,2.43-0.02,3.64,0.16c0.41,0.06,0.53-0.11,0.52-0.52
	c-0.07-2.6,0-5.2-0.07-7.8c-0.06-2.53-0.2-5.07-0.08-7.6c0.02-0.39-0.12-0.53-0.49-0.51c-0.99,0.05-1.98-0.07-2.97-0.12
	c-0.37-0.02-0.42,0.09-0.42,0.41c-0.03,1.71,0.08,3.41-0.08,5.12c-0.03,0.37-0.17,0.48-0.51,0.45c-1.17-0.11-2.36-0.05-3.53-0.29
	c-0.22-0.05-0.48-0.06-0.5,0.29c-0.03,0.78-0.06,1.56,0.18,2.32C375.52,177.19,375.73,177.3,376.08,177.31z"/>
<path class="st0" d="M335.67,188.5c0.7-0.06,1.4-0.08,2.1-0.11c3.29-0.12,6.58-0.05,9.87-0.08c2.2-0.02,4.4,0,6.6,0.03
	c0.4,0,0.55-0.1,0.52-0.52c-0.05-0.55-0.03-1.1-0.04-1.65c-0.02-0.88-0.02-0.88-0.92-0.88c-3.54,0-7.07,0.01-10.61-0.01
	c-1.04,0-2.08-0.04-3.12-0.1c-0.96-0.05-1.15-0.25-1.13-1.2c0.02-0.78,0.08-1.56,0.1-2.34c0.01-0.43,0.17-0.57,0.62-0.56
	c4.66,0.09,9.32-0.05,13.98,0.06c0.28,0.01,0.36-0.07,0.35-0.35c-0.02-0.88-0.04-1.76-0.01-2.64c0.01-0.35-0.11-0.38-0.39-0.36
	c-0.91,0.05-1.82,0.1-2.73,0.12c-2.33,0.03-4.65,0.08-6.98-0.05c-1.52-0.08-3.04-0.17-4.56-0.3c-0.2-0.02-0.31-0.1-0.3-0.3
	c0-0.99,0.01-1.99,0.02-2.98c0-0.24,0.11-0.34,0.36-0.34c0.47,0,0.94-0.05,1.41-0.06c4.43-0.02,8.86-0.14,13.29,0.07
	c0.28,0.01,0.4-0.01,0.39-0.34c-0.02-0.78-0.02-1.56,0.02-2.35c0.02-0.38-0.14-0.47-0.48-0.48c-0.55-0.01-1.1,0.06-1.66,0.07
	c-2.79,0.02-5.57,0.01-8.36,0.01c-2.82-0.15-5.64-0.1-8.45-0.28c-0.34-0.02-0.23,0.19-0.23,0.35c0,1.16-0.03,2.31-0.04,3.47
	c-0.05,4.59-0.03,9.19,0.04,13.78C335.34,188.46,335.41,188.52,335.67,188.5z"/>
<path class="st0" d="M310.31,182.74c0.17-0.43,0.57-0.49,0.97-0.52c0.39-0.03,0.39,0.3,0.5,0.54c0.27,0.57,0.52,1.16,0.85,1.7
	c0.46,0.76,0.91,1.54,1.62,2.11c0.74,0.6,1.56,0.42,1.97-0.43c0.17-0.36,0.29-0.77,0.54-1.08c0.34-0.42,0.21-0.76-0.06-1.11
	c-0.56-0.73-1.13-1.45-1.69-2.18c-1.09-1.42-1.91-2.94-2.02-4.79c-0.09-1.41-0.2-2.81-0.18-3.94c0-0.87-0.01-1.46,0.01-2.04
	c0.01-0.32-0.06-0.48-0.43-0.46c-0.89,0.04-1.77-0.11-2.66-0.03c-0.45,0.04-0.58,0.19-0.57,0.62c0.04,1.47,0.02,2.93-0.16,4.38
	c-0.29,2.4-1.11,4.59-2.45,6.61c-0.57,0.86-1.28,1.59-2.02,2.29c-0.18,0.17-0.4,0.32-0.45,0.61c-0.16,0.82,0.22,1.41,0.78,1.91
	c0.57,0.51,1.23,0.45,1.88,0.17c0.44-0.19,0.87-0.44,1.29-0.69c0.92-0.55,1.59-1.31,1.9-2.37
	C310.01,183.59,310.15,183.16,310.31,182.74z"/>
<path class="st0" d="M316.49,178.85c0.53,0.23,1.1,0.29,1.65,0.38c0.5,0.08,0.72,0.24,0.71,0.79c-0.02,3.16,0,6.32-0.02,9.48
	c0,0.51-0.11,1.02-0.17,1.53c-0.03,0.2-0.04,0.34,0.24,0.34c0.88-0.01,1.77,0.01,2.65,0.02c0.17,0,0.29-0.03,0.26-0.24
	c-0.1-0.75,0.09-1.49,0.08-2.23c-0.02-0.92,0.03-1.84,0.03-2.75c-0.01-4.42-0.15-8.85,0.06-13.27c0.05-1-0.07-2,0.17-2.99
	c0.14-0.59-0.04-0.72-0.69-0.74c-0.08,0-0.16,0-0.24,0c-0.71-0.04-1.44,0-2.14-0.13c-0.5-0.1-0.55,0.11-0.52,0.45
	c0.14,1.32,0.21,2.65,0.18,3.8c0,0.75,0,1.32,0,1.89c0,0.64-0.35,0.93-0.97,0.81c-0.57-0.1-1.15-0.17-1.73-0.18
	c-0.84-0.01-0.84-0.01-0.91,0.83C315.04,177.77,315.45,178.42,316.49,178.85z"/>
<path class="st0" d="M324.34,191.79c0.03,0.18,0.11,0.28,0.33,0.28c0.94-0.01,1.88-0.05,2.82,0.08c0.26,0.04,0.42-0.01,0.42-0.38
	c0-2.85,0.03-5.7,0.04-8.55c0.01-2.21,0-4.43,0-6.64c-0.01,0-0.03,0-0.04,0c0-2.46-0.01-4.91,0.01-7.36c0-0.41-0.18-0.45-0.5-0.45
	c-0.77,0-1.53,0-2.3-0.02c-0.6-0.01-0.69,0.04-0.71,0.64c-0.03,1.06-0.06,2.11-0.09,3.17c-0.05,2.19,0,4.38-0.02,6.57
	c-0.01,1.18-0.02,2.37-0.06,3.55c-0.1,2.97-0.03,5.95,0.07,8.92C324.33,191.66,324.33,191.73,324.34,191.79z"/>
<path class="st0" d="M60.21,47.77c0.39,1.79,1.06,2.24,2.62,2.26c1.82,0.03,1.72-1.29,1.95-2.54c0.68-3.7,1.38-7.4,2.21-11.78
	c2,3.89,2.02,7.85,2.74,11.61c0.27,1.41,0.33,2.75,2.27,2.72c1.69-0.02,2.23-0.81,2.6-2.41c1.21-5.3,2.56-10.56,3.8-15.85
	c0.27-1.16,1.65-2.74-0.64-3.3c-1.94-0.47-2.71,0.62-3.05,2.66c-0.64,3.8-1.51,7.55-2.28,11.31c-1.1-3.44-1.54-6.81-2.35-10.06
	c-0.39-1.55,0.25-4.11-2.73-4.02c-2.85,0.09-2.35,2.29-2.68,4.05c-0.59,3.07-1.14,6.15-1.73,9.33c-0.99-0.61-1.04-1.41-1.18-2.17
	c-0.56-3.06-1.17-6.11-1.69-9.19c-0.37-2.21-1.83-2.1-3.26-1.9c-2.03,0.29-0.81,1.84-0.62,2.68C57.48,36.73,58.99,42.21,60.21,47.77
	z"/>
<path class="st0" d="M86.82,180.99c0.37-0.02,0.78-0.04,1.2-0.1c2.75-0.4,4.38-3.62,2.56-5.99c-0.96-1.24-2.19-1.98-3.77-1.95
	c-1.35,0.03-2.47,0.58-3.5,1.51c-1.22,1.11-1.18,3.27-0.57,4.31C83.65,180.35,85,181.01,86.82,180.99z"/>
<path class="st0" d="M82.91,49.54c2.74,1.06,5.4,0.58,7.43-2.02c0.46-0.58,1.04-1.34,0.65-2.09c-0.39-0.75-1.28-0.42-1.97-0.47
	c-1.33-0.09-1.94,1.4-3.11,1.69c-1.2,0.3-2.11-0.2-2.78-1.19c-0.41-0.61-0.93-1.42-0.46-2.14c0.55-0.84,1.52-0.37,2.3-0.4
	c1.54-0.06,3.1-0.17,4.62,0.02c2.22,0.27,2.27-1.01,1.99-2.8c-0.67-4.29-3.21-6.81-6.7-6.58c-3.76,0.25-5.96,3.22-5.96,8.09
	C78.75,45.21,79.62,48.27,82.91,49.54z M85.04,37.06c1.29,0.03,2.82,0.48,2.72,2.29c-0.1,1.81-1.68,0.64-2.53,1.05
	c-0.85-0.42-2.38,0.77-2.51-1.01C82.62,37.95,83.77,37.02,85.04,37.06z"/>
<path class="st0" d="M119.97,185.86c2.3-0.02,4.59-0.01,6.89-0.01v0c2.36,0,4.72,0,7.07,0c0.22,0,0.32-0.06,0.32-0.31
	c0.01-1.55-0.08-3.1,0.09-4.65c0.04-0.34-0.12-0.41-0.42-0.4c-0.62,0.03-1.24,0.03-1.85,0.03c-3.95-0.02-7.91-0.05-11.86-0.09
	c-0.33,0-0.49,0.05-0.5,0.43c-0.04,1.51-0.1,3.02-0.18,4.52C119.5,185.77,119.6,185.86,119.97,185.86z"/>
<path class="st0" d="M120.72,40.46c0.85-0.42,2.38,0.77,2.54-1.08c0.15-1.7-1.25-2.07-2.4-2.24c-1.35-0.21-2.4,0.66-2.48,2.1
	C118.26,41.35,119.94,39.96,120.72,40.46z"/>
<path class="st0" d="M411.37,178.29c0-3.09,0-6.19,0.02-9.28c0-0.26-0.06-0.32-0.31-0.35c-1.04-0.15-2.08-0.02-3.12-0.11
	c-0.31-0.03-0.35,0.16-0.36,0.39c-0.02,0.54-0.05,1.07-0.06,1.61c-0.01,2.2,0,4.4,0,7.54c0.05,2.76-0.09,6.47-0.18,10.18
	c-0.08,3.48-0.03,6.97-0.03,10.46c0,0.48-0.02,0.98-0.02,1.46c0,0.1-0.06,0.23,0.18,0.22c1.2-0.06,2.4-0.09,3.6-0.11
	c0.31,0,0.38-0.09,0.38-0.39c-0.02-0.84-0.08-1.68-0.09-2.52C411.35,191.02,411.37,184.65,411.37,178.29z"/>
<path class="st0" d="M432.39,188.82c-0.9,0.06-1.81,0.12-2.7,0.22c-1.54,0.17-3.09,0.24-4.64,0.33c-0.9,0.06-1.82-0.02-2.72-0.01
	c-0.36,0-0.48-0.15-0.49-0.5c-0.04-0.86-0.01-1.72-0.05-2.59c-0.05-0.89-0.06-1.79,0.04-2.68c0.02-0.16-0.01-0.31,0.26-0.3
	c2.65,0.16,5.3-0.17,7.95,0.03c0.25,0.02,0.32-0.07,0.32-0.33c0.01-0.83-0.02-1.67,0.11-2.48c0.08-0.5-0.06-0.49-0.44-0.48
	c-2.59,0.07-5.17,0.21-7.77,0.13c-0.35-0.01-0.45-0.13-0.46-0.45c-0.02-1.53-0.05-3.06-0.07-4.59c-0.01-0.28,0.12-0.36,0.39-0.37
	c1.29-0.04,2.57-0.1,3.86-0.13c1.86-0.05,3.71-0.16,5.57-0.05c0.31,0.01,0.39-0.08,0.37-0.38c-0.07-0.87,0.05-1.75-0.1-2.62
	c-0.05-0.28-0.12-0.34-0.39-0.33c-0.58,0.03-1.16,0.03-1.74,0.03c-1.97-0.02-3.94-0.04-5.91-0.07c-2-0.03-4-0.08-5.9-0.12
	c0,4.73,0,9.45,0,14.17c0,2.45-0.01,4.89,0,7.33c0,0.26-0.09,0.53,0.41,0.5c3.06-0.18,6.11-0.33,9.17-0.46
	c1.76-0.08,3.52-0.1,5.28-0.13c0.24,0,0.3-0.06,0.3-0.3c0.01-0.91,0.04-1.82,0.05-2.72C433.08,188.84,433.04,188.78,432.39,188.82z"
	/>
<path class="st0" d="M439.62,196.66c-0.02-1.88-0.02-3.75-0.07-5.63c-0.07-3.14-0.02-6.29-0.02-8.22
	c-0.02-5.33,0.03-9.45-0.09-13.56c-0.01-0.41-0.15-0.49-0.52-0.48c-0.8,0.02-1.6,0.03-2.4,0c-1.15-0.03-1.05-0.17-1.05,1.07
	c0,5.64,0.02,11.29,0.03,16.93c0,2.63,0,5.25,0,7.87c0,1.83,0.01,3.65-0.01,5.47c0,0.3,0.06,0.37,0.37,0.37
	c1.07,0,2.14-0.13,3.21-0.19c0.39-0.02,0.57-0.14,0.55-0.58C439.59,198.7,439.62,197.68,439.62,196.66z"/>
<path class="st0" d="M328.24,196.53c-1.34-0.05-2.69-0.1-4.03-0.17c-1.83-0.1-3.67,0.01-5.5-0.1c-1.53-0.1-3.06,0.06-4.59-0.11
	c-0.3-0.03-0.57-0.13-0.62-0.43c-0.04-0.27-0.13-0.54-0.11-0.81c0.11-1.54-0.33-3.06-0.11-4.6c0.05-0.34-0.11-0.52-0.47-0.52
	c-0.97,0-1.94,0.01-2.92-0.08c-0.61-0.06-0.65,0-0.63,0.61c0.06,2.37-0.13,4.74-0.11,7.12c0,0.62,0.03,1.24-0.04,1.85
	c-0.04,0.36,0.05,0.41,0.36,0.4c1.52-0.08,3.04-0.02,4.56-0.01c3.66,0.03,7.32,0.03,10.98-0.09c1.11,0,2.21-0.01,3.32,0.01
	c0.31,0,0.43-0.09,0.42-0.42c-0.03-0.7-0.02-1.4-0.01-2.1C328.75,196.71,328.63,196.54,328.24,196.53z"/>
<path class="st0" d="M404.86,189.07c-1.04-0.71-1.96-1.56-2.66-2.6c-0.82-1.23-1.4-2.59-1.86-3.99c-0.58-1.76-0.92-3.55-1.13-5.4
	c-0.22-1.89-0.32-3.78-0.35-5.67c-0.01-0.47-0.18-0.59-0.58-0.59c-0.81,0-1.63,0-2.44,0c0-0.03,0-0.06,0-0.1
	c-0.19-0.01-0.39-0.02-0.59-0.04c-0.22-0.02-0.28,0.06-0.27,0.28c0.07,2-0.13,3.98-0.36,5.96c-0.21,1.75-0.39,3.51-0.89,5.21
	c-0.41,1.38-0.83,2.74-1.56,3.99c-0.56,0.97-1.12,1.91-1.99,2.65c-0.56,0.47-1.19,0.83-1.79,1.23c-0.5,0.33-0.6,0.63-0.24,1.13
	c0.58,0.8,1.15,1.62,1.89,2.29c0.21,0.19,0.43,0.51,0.85,0.23c1.62-1.1,2.82-2.59,3.89-4.19c0.76-1.14,1.28-2.39,1.73-3.67
	c0.11-0.32,0.33-0.36,0.61-0.36c0.28,0,0.44,0.1,0.53,0.39c0.17,0.61,0.44,1.18,0.76,1.73c0.66,1.14,1.55,2.11,2.32,3.17
	c0.51,0.69,1.02,1.41,1.77,1.85c0.79,0.47,1.28,0.56,1.95-0.15c0.51-0.54,0.71-1.22,0.93-1.9
	C405.63,189.76,405.54,189.53,404.86,189.07z"/>
<path class="st0" d="M384.37,197.78c-0.01-0.7-0.06-0.75-0.74-0.75c-4.38,0.02-8.76-0.01-13.14-0.1c-0.15,0-0.29-0.01-0.44-0.02
	c-0.97-0.04-1.01-0.08-1.08-1.02c-0.06-0.93,0.1-1.1,1.02-1.1c4.2,0,8.4,0.04,12.6-0.1c0.16-0.01,0.33-0.06,0.48-0.05
	c0.39,0.02,0.43-0.16,0.44-0.49c0.04-2.42-0.12-4.85,0.09-7.27c0.03-0.33-0.12-0.42-0.43-0.42c-0.79,0.03-1.59,0.05-2.38,0.08
	c-1.87,0.09-3.75,0.09-5.63,0.09c-1.91,0-3.82-0.05-5.72-0.06c-1.33-0.01-2.67,0.05-3.99-0.12c-0.46-0.06-0.67,0-0.69,0.47
	c-0.02,0.76-0.05,1.53-0.08,2.29c-0.02,0.31,0.08,0.4,0.41,0.41c1.64,0.04,3.28-0.11,4.92-0.11c2.72,0.01,5.44,0.01,8.16,0
	c0.39,0,0.77,0.06,1.16,0.1c0.12,0.01,0.22,0.03,0.23,0.18c0.04,0.6,0.12,1.19,0.09,1.8c-0.02,0.27-0.12,0.36-0.39,0.36
	c-1.42,0-2.83,0.07-4.25,0.03c-3.22-0.1-6.44,0-9.66-0.14c-0.38-0.01-0.46,0.11-0.45,0.47c0.01,2.21,0,4.43,0,6.65
	c0,0.34-0.12,0.77,0.05,0.99c0.19,0.24,0.64,0.03,0.97,0.03c2.93,0.01,5.87,0.01,8.8,0.01c0-0.03,0-0.06,0-0.1
	c1.35,0,2.7-0.01,4.06,0c1.71,0.01,3.42-0.05,5.13,0.05c0.4,0.02,0.5-0.11,0.48-0.49C384.35,198.89,384.38,198.33,384.37,197.78z"/>
<path class="st0" d="M369.15,183.97c1.98-0.02,3.95-0.28,5.93-0.29c0.55,0,0.76-0.15,0.78-0.7c0.01-0.62,0.15-1.22,0.12-1.84
	c-0.04-0.71-0.14-0.83-0.84-0.73c-0.91,0.14-1.84,0.18-2.76,0.19c-1.97,0.02-3.94,0.01-5.92,0.01c-1.27,0-1.27-0.01-1.24-1.3
	c0.02-0.94,0.02-0.94,0.92-0.94c1.91,0,3.81,0,5.72,0c0.38,0,0.75-0.01,1.12,0c0.31,0.01,0.38-0.1,0.4-0.42
	c0.06-1.1-0.06-2.2-0.03-3.31c0.03-1.57-0.08-3.14,0.16-4.73c-0.24,0-0.46-0.01-0.69,0c-2.31,0.08-4.62,0.14-6.94,0.09
	c-1.42-0.03-2.83-0.07-4.25-0.11c-0.15,0-0.33-0.09-0.32,0.2c0.02,0.96,0.02,1.91,0.02,2.87c0,0.21,0.07,0.26,0.29,0.25
	c0.54-0.02,1.06-0.14,1.6-0.12c1.84,0.05,3.67-0.07,5.51,0.09c0.92,0.08,1.02,0.14,0.96,1.07c-0.01,0.15,0,0.3,0,0.44
	c-0.01,0.6-0.17,0.75-0.79,0.79c-1.28,0.1-2.56-0.02-3.85,0.12c-1.05,0.11-2.11,0.1-3.16,0.09c-0.52-0.01-0.62,0.19-0.62,0.65
	c0.02,2.46,0.01,4.92,0,7.38c0,0.34,0.08,0.42,0.43,0.43c1.76,0.05,3.51-0.12,5.26-0.11C367.69,184.04,368.43,183.97,369.15,183.97z
	"/>
<path class="st0" d="M357.41,193.58c0.02-0.45-0.15-0.58-0.55-0.56c-0.13,0.01-0.26-0.02-0.39,0.01c-1.16,0.18-2.33,0.06-3.5,0.16
	c-1.31,0.11-2.64,0.04-3.95,0.07c-2.69,0.05-5.38,0.01-8.07,0.01c0,0.01,0,0.03,0,0.04c-1.99,0-3.98,0.01-5.96,0
	c-0.8,0-1.6-0.03-2.39-0.04c-0.19,0-0.35,0-0.35,0.27c0,0.95-0.01,1.89-0.03,2.83c-0.01,0.22,0.07,0.3,0.28,0.28
	c0.31-0.03,0.61-0.07,0.92-0.08c0.93-0.04,1.86,0.07,2.79,0.08c3.67,0.01,7.33,0.04,11-0.01c2.86-0.03,5.73-0.12,8.59-0.06
	c0.49,0.01,0.97,0.05,1.46,0.08c0.24,0.01,0.35-0.05,0.31-0.34C357.44,195.4,357.37,194.49,357.41,193.58z"/>
<path class="st1" d="M253.21,76.83c-7.18,0-13.63,0-20.27,0c3.81,4.01,4.92,5.37,4.97,8.84c0.16,11.93,0.06,23.85,0.06,36.19
	c-0.59-0.59-0.9-0.79-1.06-1.08c-7.32-14.01-14.63-28.03-21.89-42.08c-0.6-1.16-0.89-2.17-2.46-2.12
	c-4.94,0.13-9.89,0.05-14.83,0.05c3.62,3.43,4.78,7.38,4.75,12.16c-0.11,14.63-0.02,29.26-0.05,43.89
	c-0.01,6.35,1.17,13.11-5.28,17.54c7.05,0,13.34,0,20.28,0c-3.73-2.65-5.32-5.98-5.36-9.94c-0.12-12.07-0.04-24.15-0.04-37.15
	c0.93,1.54,1.46,2.33,1.91,3.16c6.33,11.79,12.63,23.59,18.97,35.37c3.32,6.16,7.89,10.59,14.58,12.58c0-1.66,0-3.08,0-4.49
	c0-19.47,0.03-38.93-0.02-58.39C247.46,85.77,247.88,80.46,253.21,76.83z"/>
<path class="st1" d="M398,87.72c0.03,16.73,0,33.46,0.01,50.19c0,4.6-0.37,9.05-4.26,12.49c7.17,0,13.78,0,21.44,0
	c-4.34-2.95-4.5-7.15-4.66-11.08c-0.28-6.78-0.05-13.59-0.16-20.38c-0.03-2.11,0.94-2.27,2.44-2.26c5.95,0.05,11.9,0.1,17.85-0.03
	c1.95-0.04,2.4,0.73,2.37,2.71c-0.1,6.27-0.1,12.55-0.01,18.82c0.06,4.53-0.53,8.75-3.99,12.18c7.04,0,13.64,0,20.82,0
	c-3.79-3.32-4.19-7.5-4.19-11.85c0.01-16.34,0.03-32.68-0.01-49.02c-0.01-4.85,0.13-9.55,4.7-12.74c-7.53,0-14.49,0-22.12,0
	c3.42,2.39,4.68,5.51,4.74,9.16c0.1,6.01-0.03,12.02,0.07,18.04c0.03,1.92-0.6,2.44-2.27,2.41c-6.07-0.09-12.14-0.09-18.21,0
	c-1.8,0.03-2.2-0.79-2.17-2.56c0.07-5.23-0.14-10.46,0.09-15.68c0.19-4.24,0.42-8.65,4.96-11.2c-7.64,0-14.71,0-22.28,0
	C397.41,79.6,398,83.55,398,87.72z"/>
<path class="st1" d="M135.76,139.49c-5.03,0.95-10.03,1.03-15.53,0.82c10.17-21.39,20.13-42.32,30.29-63.68
	c-14.33,0-28.2,0-42.06-0.01c-0.86,0-1.53,0.01-1.92,1.17c-1.57,4.72-3.25,9.39-5.12,14.74c2.06-1.22,3.47-2.1,4.91-2.9
	c6.19-3.45,12.77-4.75,19.65-3.86c4.99,0.64,4.97,0.75,2.45,5.65c-10.03,19.48-20.05,38.97-30.42,59.14c15.52,0,30.48,0,45.45,0
	c0.81,0,1.65,0.15,2.06-1.01c1.72-4.88,3.48-9.75,5.53-15.47C145.51,136.61,140.79,138.54,135.76,139.49z"/>
<path class="st1" d="M157.38,89.18c0.05,16.33,0.02,32.67,0.02,49c0,4.48-0.5,8.77-4.42,12.37c13.38,0,26.07-0.01,38.75,0.02
	c1.13,0,1.77-0.5,2.08-1.66c1.35-4.95,2.71-9.9,4.34-15.86c-8.26,7.47-16.9,8.46-26.15,6.3c-1.57-0.37-2.27-0.83-2.24-2.68
	c0.07-5.88,0.09-11.76-0.01-17.64c-0.03-2,0.75-2.39,2.35-2.36c4.06,0.09,8.23-0.55,11.56,3.05c0-4.93,0-9.43,0-13.96
	c-4.2,1.08-8.26,0.37-12.28,0.58c-1.62,0.09-1.61-1.09-1.61-2.34c0.01-4.57,0.09-9.15-0.03-13.72c-0.06-2.12,0.81-2.55,2.51-2.77
	c6.65-0.86,13.2-1.35,19.22,4.14c0-4.5-0.16-8.39,0.06-12.25c0.15-2.62-0.8-2.88-2.87-2.86c-10.47,0.13-20.94,0.06-31.4,0.06
	c-1.46,0-2.91,0-5.17,0C157,80.01,157.36,84.57,157.38,89.18z"/>
<path class="st1" d="M49.67,55.64c12.61,3.58,25.19,7.26,37.73,11.12c2.18,0.67,2.59-0.04,3.07-2.09
	c3.1-13.09,6.24-26.17,9.57-39.19c0.67-2.64,0.08-3.34-2.15-3.96c-9.86-2.75-19.68-5.71-29.51-8.61c-3.09-0.91-6.16-1.85-9.42-2.84
	c-1.35,0.1-1.19,1.57-1.43,2.55c-3.24,13.18-6.37,26.39-9.67,39.55C47.29,54.37,47.64,55.06,49.67,55.64z M94.3,28.48
	c1.19-0.15,1.87,0.56,1.54,1.87c-0.42,1.66,0.39,4.48-1.24,4.78c-2.19,0.4-0.76-2.37-1.44-3.48C93.59,30.52,92.27,28.75,94.3,28.48z
	 M84.88,33.58c3.49-0.23,6.02,2.28,6.7,6.58c0.28,1.79,0.23,3.07-1.99,2.8c-1.52-0.19-3.08-0.08-4.62-0.02
	c-0.78,0.03-1.75-0.43-2.3,0.4c-0.47,0.72,0.05,1.53,0.46,2.14c0.67,0.99,1.58,1.49,2.78,1.19c1.17-0.3,1.78-1.78,3.11-1.69
	c0.69,0.05,1.58-0.28,1.97,0.47c0.39,0.75-0.19,1.51-0.65,2.09c-2.03,2.6-4.69,3.08-7.43,2.02c-3.29-1.27-4.15-4.33-3.98-7.88
	C78.92,36.8,81.12,33.82,84.88,33.58z M56.81,28.51c1.43-0.2,2.89-0.31,3.26,1.9c0.52,3.07,1.13,6.13,1.69,9.19
	c0.14,0.76,0.19,1.56,1.18,2.17c0.59-3.18,1.14-6.26,1.73-9.33c0.34-1.76-0.16-3.96,2.68-4.05c2.98-0.1,2.34,2.47,2.73,4.02
	c0.82,3.25,1.25,6.62,2.35,10.06c0.77-3.77,1.64-7.52,2.28-11.31c0.34-2.04,1.11-3.13,3.05-2.66c2.28,0.55,0.91,2.14,0.64,3.3
	c-1.24,5.29-2.59,10.55-3.8,15.85c-0.37,1.6-0.91,2.39-2.6,2.41c-1.94,0.03-2-1.32-2.27-2.72c-0.72-3.76-0.74-7.72-2.74-11.61
	c-0.82,4.38-1.53,8.08-2.21,11.78c-0.23,1.25-0.13,2.57-1.95,2.54c-1.57-0.02-2.23-0.48-2.62-2.26c-1.22-5.56-2.74-11.04-4.02-16.58
	C56,30.35,54.78,28.79,56.81,28.51z"/>
<path class="st1" d="M341.98,77.77c-1.09,4.5-2.12,9.01-3.31,14.15c5.01-4.27,10.32-4.91,15.85-4.97c2.73-0.03,3.62,0.65,3.58,3.84
	c-0.16,15.68-0.09,31.36-0.06,47.03c0.01,4.62-0.4,9.05-4.09,12.54c7.43,0,14.38,0,22.29,0c-3.69-2.54-5.28-5.58-5.46-9.42
	c-0.79-17.23-0.15-34.47-0.35-51.71c-0.01-0.89-0.06-1.73,1.03-2.17c4.03-1.6,11.94,0.61,15.13,4.7c0.86-4.09,1.36-7.88,2.5-11.41
	c1.15-3.57-0.14-3.78-2.85-3.78c-14.15,0.02-28.29-0.07-42.44-0.35C342.36,76.2,342.21,76.85,341.98,77.77z"/>
<path class="st1" d="M307.68,150.36c-4.06-3.38-4.31-7.83-4.34-12.22c-0.08-16.18-0.07-32.36-0.01-48.53
	c0.02-4.78,0.3-9.57,4.63-12.72c-7.45,0-14.48,0-21.79,0c4.09,3.59,4.85,6.63,4.77,14.97c-0.15,14.48-0.11,28.96-0.08,43.44
	c0.01,5.41,0.24,10.82-3.96,15.08C293.89,150.36,300.47,150.36,307.68,150.36z"/>
<path class="st1" d="M53.9,76.84c3.01,4.16,1.72,8.74,1.97,13.06c0.09,1.52-0.91,1.56-1.93,1.56c-3.09-0.01-6.18-0.01-9.28,0
	c-1,0-2.03-0.01-1.94-1.54c0.26-4.44-1.11-9.12,1.79-13.1c-3.32,0-6.45,0-8.7,0c1.22,12.3,1.42,24.4-0.15,36.51
	c2.44,0,5.57,0,8.91,0c-3.13-4.9-1.46-10.25-1.83-15.33c-0.11-1.47,0.93-1.57,1.95-1.57c3.09,0.01,6.18,0.01,9.28,0
	c1.04,0,1.99,0.16,1.91,1.62c-0.27,5.11,1.08,10.43-1.81,15.31c3.31,0,6.44,0,8.74,0c-1.23-12.29-1.55-24.47,0.21-36.52
	C60.44,76.84,57.32,76.84,53.9,76.84z"/>
<path class="st1" d="M84.22,113.5c6.9,0,6.9,0,8.33-7.4c0.02-0.1,0-0.2-0.02-0.31c-4.15,1.95-8.4,3.05-12.95,2.04
	c-0.92-0.2-2.21-0.06-2.23-1.38c-0.05-3.23-1.28-7.22,0.57-9.45c1.38-1.66,4.93-1.05,7.38,0.44c0.15,0.09,0.35,0.07,0.53,0.1
	c0.55-6.12,0.52-6.44-4.65-5.98c-3.92,0.34-3.94-1.69-4.04-4.97c-0.11-3.59,0.85-4.87,4.12-4.51c2.78,0.3,5.67-0.38,8.45,1.81
	c0-2.13-0.01-3.82,0-5.51c0.01-0.98-0.02-1.71-1.3-1.69c-6.44,0.07-12.88,0.03-18.49,0.03c1.68,12.44,1.73,24.55,0.02,36.77
	C74.24,113.5,79.23,113.5,84.22,113.5z"/>
<path class="st1" d="M92.52,105.71c0,0.03,0.01,0.05,0.01,0.08c0.01-0.01,0.03-0.01,0.04-0.02
	C92.58,105.77,92.53,105.72,92.52,105.71z"/>
<path class="st1" d="M14.7,84.96c-0.11,6.91-0.06,13.82-0.03,20.73c0.01,2.72,0.07,5.43-2.12,7.76c3.78,0,7.09,0,11.66,0
	c-3.15-2.04-3.14-4.48-3.13-7c0.04-6.26,0.01-12.52,0.01-18.77c0-5.5,1.92-7.06,6.71-5.35c0.81,0.29,1.5,0.95,2.31,1.47
	c0.36-1.53,0.6-2.8,0.95-4.04c0.68-2.36,0.41-3.19-2.29-3.06C21.92,77,15.03,76.89,8.16,76.66c-1.99-0.07-2.79,0.37-3.01,2.54
	C5,80.63,4.4,81.99,3.79,84.12c3.07-1.88,5.72-1.98,8.43-2.06C14.34,81.99,14.73,82.86,14.7,84.96z"/>
<path class="st1" d="M120.92,50.01c0.36,0,0.72,0.04,1.07-0.01c2.03-0.26,3.53-1.44,4.55-3.32c0.2-0.36,0.17-1.31,0.03-1.37
	c-1.69-0.68-3.22-0.31-4.55,1.06c-0.16,0.16-0.43,0.24-0.66,0.27c-1.69,0.15-2.9-0.77-3-2.53c-0.12-2.09,1.56-0.94,2.39-1.06
	c1.52-0.21,3.08-0.04,4.62-0.07c0.8-0.01,1.86,0.17,1.82-1.19c-0.09-3.07-0.52-6.05-3.46-7.54c-2.62-1.33-5.12-0.97-7.3,1.07
	c-2.12,1.98-2.66,7.1-1.39,10.63C116.11,48.94,118.24,49.93,120.92,50.01z M118.38,39.23c0.08-1.44,1.13-2.31,2.48-2.1
	c1.15,0.18,2.55,0.55,2.4,2.24c-0.17,1.85-1.69,0.66-2.54,1.08C119.94,39.96,118.26,41.35,118.38,39.23z"/>
<path class="st1" d="M100.82,36.24c1.15,4.08,2.52,8.1,3.62,12.2c0.41,1.55,1.23,1.63,2.35,1.63c1.08-0.01,2.06,0.11,2.5-1.43
	c1.43-4.97,2.96-9.9,4.43-14.77c-3.08-1.2-4.22,0.13-4.69,2.99c-0.39,2.41-1.16,4.74-1.75,7.11c-0.21,0.03-0.41,0.06-0.62,0.09
	c-0.73-2.97-1.5-5.92-2.17-8.9c-0.51-2.27-2.15-1.86-3.41-1.59C99.13,33.99,100.58,35.41,100.82,36.24z"/>
<path class="st1" d="M9.55,37.4c4.15,0.08,8.3,0.04,12.45-0.01c0.82-0.01,2.08,0.54,2.1-1.21c0.01-1.69-1.2-1.3-2.06-1.3
	c-3.44-0.04-6.88-0.08-10.31,0.01c-1.49,0.04-2.1-0.43-2.09-2.19c0.01-2,1.21-1.54,2.18-1.55c3.32-0.03,6.64,0.04,9.96-0.04
	c0.89-0.02,2.38,0.69,2.3-1.34c-0.07-1.65-1.33-1.14-2.16-1.16c-2.13-0.07-4.27-0.02-6.4-0.02c-2.02,0-4.05,0.18-6.04-0.05
	c-2.3-0.27-3.03,0.76-2.64,3.07C7.2,33.83,5.5,37.32,9.55,37.4z"/>
<path class="st1" d="M29.95,39.17c2.61-2.91,5.08-2.4,7.6,0.08c0.24,0.24,0.64,0.32,0.98,0.42c0.98,0.27,1.27-0.31,1.21-1.27
	c-0.04-0.63,0.05-1.41-0.64-1.64c-3.04-1.03-3.72-3.7-3.91-6.69c-0.08-1.21-0.64-1.54-1.61-1.52c-0.85,0.02-1.22,0.41-1.31,1.39
	c-0.26,2.91-0.74,5.68-3.8,6.8c-0.98,0.36-0.92,1.61-0.62,2.37C28.37,40.37,29.49,39.67,29.95,39.17z"/>
<path class="st1" d="M7.93,43.11c0.83,0,1.67,0.12,2.48-0.01c3.14-0.52,4.64,0.63,4.11,4.36c-0.13,0.94-0.62,2.6,1.19,2.56
	c1.81-0.04,1.25-1.71,1.11-2.62c-0.57-3.82,1.1-4.77,4.14-4.29c0.69,0.11,1.42,0.02,2.13,0.01c0.82-0.01,1.7,0.09,1.74-1.28
	c0.04-1.37-0.8-1.36-1.65-1.36c-2.36,0-4.73,0-7.09,0c-2.72,0-5.44,0-8.16,0.01c-0.71,0-1.45,0.01-1.54,1.1
	C6.28,42.86,7,43.11,7.93,43.11z"/>
<path class="st1" d="M37.45,50.04c2.14,0,4.28,0,6.42,0c0.86,0,1.71,0.04,1.67-1.35c-0.05-1.38-0.94-1.27-1.76-1.27
	c-2.85-0.02-5.71-0.08-8.56,0.01c-2.02,0.06-3.94,0.25-3.42-3.06c0.17-1.06-0.23-1.63-1.35-1.69c-1.41-0.07-1.42,0.8-1.51,1.95
	c-0.35,4.63,0.26,5.39,4.6,5.41C34.83,50.04,36.14,50.04,37.45,50.04z"/>
<path class="st1" d="M44.37,42.88c1.9-0.08,0.78-1.99,1.06-3.06c0.4-1.54-1.15-4.25,2.1-4.05c0.21,0.01,0.67-0.63,0.63-0.7
	c-1.26-2.15-2.57-4.28-3.91-6.46c-1.39-0.06-1.19,1.14-1.2,2.14c-0.02,2.97-0.1,5.96,0.04,8.93C43.15,40.84,42.13,42.98,44.37,42.88
	z"/>
<path class="st1" d="M92.58,105.77l0.02-0.24c0,0-0.08,0.17-0.08,0.18c0,0,0,0,0,0c0,0,0,0,0,0L92.58,105.77z"/>
<path class="st1" d="M92.52,105.71C92.52,105.71,92.52,105.71,92.52,105.71c0.01,0.01,0.06,0.06,0.06,0.06L92.52,105.71z"/>
<path class="st1" d="M85.23,40.4c0.85-0.41,2.42,0.77,2.53-1.05c0.1-1.81-1.43-2.26-2.72-2.29c-1.27-0.03-2.42,0.89-2.31,2.33
	C82.85,41.17,84.38,39.98,85.23,40.4z"/>
<path class="st2" d="M243.23,59.96c3.09,0.13,6.15,0.35,9.22,0.93c6.27,1.2,7.3,2.42,7.3,9.54c0.01,21.95,0,43.91,0.01,65.87
	c0,5.17-0.06,10.29-4.58,13.83c7.7,0,14.98,0,22.77,0c-4.1-3.02-4.82-7.12-4.81-11.57c0.01-22.61,0-45.22,0-67.83
	c0-7.56,1.34-9.17,8.12-9.76c10.57-0.91,21.13-0.88,31.7-0.01c5.23,0.43,7.21,2.7,7.22,8.43c0.01,22.87,0.02,45.74,0,68.61
	c0,4.63-0.68,9.02-4.88,12.24c7.79,0,15.02,0,23.47,0c-4.22-2.65-4.9-6.3-5.27-10.1c-0.1-1.03-0.16-2.08-0.16-3.12
	c-0.01-22.35-0.02-44.7,0-67.04c0.01-6.25,1.52-8.01,7.12-9.04c3.18-0.58,6.36-0.86,9.57-0.98c1.34-0.05,2.73-0.21,3.09-1.99
	c0.38-1.88-0.62-2.79-2.14-3.47c-16.62-7.37-33.24-14.78-49.83-22.22c-3.03-1.36-5.98-1.39-8.99-0.04
	c-16.6,7.42-33.21,14.84-49.83,22.22c-1.52,0.68-2.48,1.57-2.13,3.47C240.52,59.76,241.89,59.9,243.23,59.96z"/>
<path class="st1" d="M36.34,189.58c0-0.39-0.16-0.62-0.65-0.61c-6.23,0.02-12.47,0.01-18.7,0.01c-1.21,0-2.41,0-3.62,0
	c-3,0-6,0.01-8.99,0c-0.33,0-0.54,0.05-0.48,0.44c0.01,0.07-0.02,0.13-0.1,0.15c0,0.49,0,0.98,0,1.47c0.16,0.08,0.09,0.22,0.1,0.34
	c0.02,0.62,0.02,1.24,0.03,1.86c0.01,0.44,0.26,0.67,0.69,0.72c1.04,0.13,2.1,0.15,3.14,0.18c2.75,0.06,5.5,0.04,8.25-0.08
	c0.35-0.02,0.69-0.18,1.05-0.05c0.1,0.03,0.26,0,0.23,0.17c-0.06,0.36,0.09,0.7,0.1,1.06c0.02,1.07-0.03,2.14,0.07,3.21
	c0.11,1.19,0.1,2.4,0.12,3.6c0.02,1.21,0.01,2.41,0.03,3.61c0.01,0.59,0.1,0.68,0.68,0.68c1.41-0.01,2.83-0.05,4.24-0.05
	c0.28,0,0.34-0.12,0.31-0.35c-0.03-0.29-0.09-0.58-0.09-0.86c-0.02-3.48-0.02-6.96,0.09-10.44c0.01-0.36,0.1-0.53,0.51-0.5
	c0.62,0.04,1.24,0.03,1.86,0.02c2.56-0.04,5.13-0.05,7.69-0.27c0.97-0.08,1.95-0.02,2.93-0.02c0.71,0,0.75,0,0.7-0.74
	C36.46,191.94,36.36,190.76,36.34,189.58z"/>
<path class="st1" d="M204.93,196.47c-0.02-1.64,0.05-3.28,0.08-4.91c0.04-2.35,0.02-4.7,0.02-7.05c0-1.18,0-2.36,0-3.54
	c0-4.25-0.01-8.5,0.01-12.76c0-0.46-0.15-0.65-0.62-0.64c-1.01,0.02-2.02,0.01-3.03,0.01c-0.76,0-0.83,0.05-0.84,0.81
	c-0.01,1.43-0.12,2.85-0.18,4.27c-0.06,1.41-0.17,2.82-0.12,4.23c0.03,1.04-0.01,2.09,0.02,3.13c0.01,0.44-0.17,0.58-0.56,0.56
	c-1.02-0.05-2.03,0.08-3.05,0c-0.41-0.03-0.62,0.16-0.61,0.61c0.02,0.98,0.01,1.95,0.01,2.93c0,0.67,0.16,0.78,0.82,0.85
	c0.99,0.09,1.98,0.09,2.97,0.09c0.24,0,0.4,0.08,0.36,0.31c-0.11,0.65,0.05,1.28,0.05,1.92c0.02,2.1,0.02,4.19-0.09,6.29
	c-0.01,0.17,0,0.35,0,0.57c-0.37-0.16-0.63-0.36-0.86-0.6c-0.96-0.97-1.89-1.97-2.66-3.09c-1.89-2.76-3-5.8-3.16-9.17
	c-0.03-0.64-0.04-1.29-0.1-1.93c-0.1-1.07-0.19-2.15-0.27-3.23c-0.02-0.31,0.12-0.43,0.46-0.47c1.2-0.14,2.4-0.02,3.6-0.16
	c0.63-0.07,1.02-0.32,1.03-0.85c0.02-1.04,0.02-2.09,0-3.13c-0.01-0.41-0.26-0.67-0.66-0.7c-0.76-0.07-1.52-0.13-2.27-0.15
	c-3.96-0.11-7.91-0.09-11.87,0.04c-0.42,0.01-0.63,0.13-0.63,0.62c-0.01,1.3,0.1,2.6-0.07,3.89c-0.02,0.17-0.03,0.36,0.25,0.37
	c0.45,0.01,0.91,0.08,1.36,0.08c1.16,0.01,2.31,0.01,3.47-0.03c0.4-0.01,0.49,0.12,0.48,0.5c-0.02,1.56,0,3.12-0.1,4.68
	c-0.04,0.73-0.13,1.44-0.28,2.15c-0.45,2.13-1.15,4.17-2.04,6.16c-0.67,1.49-1.55,2.83-2.58,4.09c-0.5,0.6-1.15,1.06-1.56,1.74
	c-0.16,0.26-0.28,0.55-0.06,0.81c0.79,0.97,1.65,1.87,2.69,2.6c0.46,0.32,0.73,0.29,1.11-0.12c0.4-0.44,0.77-0.92,1.13-1.4
	c0.85-1.13,1.44-2.42,2.17-3.62c0.51-0.84,0.98-1.7,1.13-2.7c0.07-0.48,0.17-0.96,0.28-1.53c0.23,0.28,0.41,0.48,0.56,0.69
	c0.99,1.42,1.53,3.09,2.58,4.48c0.79,1.04,1.5,2.13,2.41,3.08c0.67,0.7,1.21,0.66,1.91-0.07c0.79-0.83,1.32-2,2.67-2.12
	c0.07,0.63,0.2,1.31,0.19,1.98c-0.02,2.18,0.18,4.35,0.11,6.53c-0.01,0.19,0.08,0.35,0.09,0.52c0.01,0.25,0.12,0.33,0.36,0.35
	c1.18,0.15,2.35,0.11,3.53,0.02c0.56-0.04,0.62-0.32,0.6-0.76c-0.02-0.58-0.06-1.16-0.08-1.74
	C204.97,200.12,204.96,198.29,204.93,196.47z"/>
<path class="st1" d="M119.04,169.72c-1.45,0.06-2.89-0.14-4.34-0.11c-0.46,0.01-0.62,0.12-0.61,0.6c0.03,2.36,0.04,4.71,0.09,7.07
	c0.07,3.54,0.04,7.07,0.03,10.61c0,0.34,0.07,0.67,0.06,1.01c-0.04,1.48-0.21,1.77,1.49,1.79c3.78,0.06,7.56,0.02,11.34,0.02
	c0-0.03,0-0.05,0-0.08c1.22,0,2.44,0,3.66,0c2.48,0,4.95,0,7.43-0.01c0.34,0,0.68,0.01,1.02-0.08c0.29-0.08,0.4-0.23,0.4-0.51
	c-0.03-1.17,0.15-2.33,0.1-3.5c-0.05-1.18-0.07-2.38-0.03-3.56c0.07-2.37-0.02-4.74,0.08-7.12c0.08-1.94,0.02-3.88,0.04-5.82
	c0-0.32-0.13-0.41-0.39-0.41c-0.66-0.01-1.33-0.04-1.99-0.1c-0.87-0.07-1.75,0.17-2.62,0.08c-0.44-0.04-0.56,0.14-0.55,0.56
	c0.02,1.5,0,2.99,0.01,4.49c0,0.34,0.16,0.76,0.02,1c-0.21,0.33-0.66,0.04-1,0.05c-2.67,0.06-5.34,0.1-8.02,0.13
	c-1.82,0.02-3.65,0.02-5.47,0.04c-0.25,0-0.42-0.02-0.4-0.33c0.16-1.79,0.03-3.58,0.1-5.37C119.48,169.87,119.4,169.7,119.04,169.72
	z M119.7,180.88c0.01-0.39,0.18-0.43,0.5-0.43c3.95,0.04,7.91,0.06,11.86,0.09c0.62,0,1.24,0,1.85-0.03
	c0.31-0.01,0.46,0.06,0.42,0.4c-0.17,1.55-0.08,3.1-0.09,4.65c0,0.24-0.11,0.31-0.32,0.31c-2.36-0.01-4.72,0-7.07,0v0
	c-2.29,0-4.59-0.01-6.89,0.01c-0.37,0-0.47-0.09-0.45-0.46C119.6,183.89,119.66,182.39,119.7,180.88z"/>
<path class="st1" d="M9.11,168.66c-1.01,0.01-1.09,0.01-1.11,1.1c0,0.07,0,0.13,0,0.19c0.01,3.52-0.03,7.03,0.09,10.54
	c0.05,1.48-0.01,2.96,0.1,4.44c0.01,0.18-0.06,0.4,0.26,0.42c0.79,0.05,1.57,0.17,2.36,0.18c2.8,0.02,5.6,0.03,8.41,0.01
	c4.28-0.02,8.56,0.23,12.84,0c0.28-0.01,0.57,0.05,0.57-0.39c-0.01-1.37-0.02-2.74-0.02-4.1c0-0.24-0.08-0.36-0.33-0.38
	c-0.44-0.02-0.87-0.09-1.31-0.1c-2.3-0.09-4.59,0.01-6.89,0.02c-3.4,0.02-6.81,0.05-10.21,0.08c-0.23,0-0.35-0.01-0.35-0.3
	c0.05-2.12,0.09-4.24,0.13-6.36c0.01-0.32,0.13-0.45,0.47-0.42c0.92,0.06,1.85,0.12,2.77,0.12c4.28,0.01,8.57,0.02,12.85,0
	c0.82,0,1.64-0.13,2.46-0.18c0.22-0.01,0.22-0.13,0.22-0.29c0-1.29,0-2.57-0.01-3.86c0-0.4-0.2-0.64-0.61-0.62
	c-0.54,0.02-1.07-0.09-1.6-0.1c-3.5,0-7.01,0-10.51,0c0,0,0-0.01,0-0.01C16.19,168.65,12.65,168.62,9.11,168.66z"/>
<path class="st1" d="M165.68,191.41c-0.99-0.03-1.95,0.26-2.93,0.29c-1.28,0.04-2.54,0.22-3.81,0.28c-1.75,0.09-3.5,0.14-5.24,0.22
	c-0.69,0.03-0.69,0.01-0.69-0.7c0-4.33-0.05-8.66,0.1-12.99c0-0.96,0.01-1.92,0-2.88c0-0.27,0.03-0.39,0.37-0.39
	c2.95,0.03,5.9,0.04,8.84,0.03c0.54,0,1.08-0.1,1.63,0c0.58,0.1,0.65-0.02,0.59-0.65c-0.12-1.11-0.19-2.23-0.18-3.35
	c0.01-0.89-0.07-0.96-0.97-0.96c-2.96-0.01-5.93-0.01-8.89-0.01c-2,0-4,0-5.99,0.2c-0.29,0.03-0.46,0.14-0.46,0.44
	c0.02,1.26-0.14,2.52-0.19,3.78c-0.05,1.5-0.04,3.01-0.01,4.51c0.03,1.66-0.03,3.31,0.07,4.97c0.12,1.99,0.07,3.99,0.13,5.99
	c0.05,1.8,0.11,3.6,0.1,5.41c0,0.3,0.12,0.6,0.11,0.91c-0.01,0.24,0.16,0.36,0.41,0.38c0.94,0.06,1.87,0.05,2.81,0.03
	c1.86-0.05,3.72-0.19,5.59-0.22c1.07-0.02,2.13-0.09,3.19-0.19c1.62-0.15,3.25-0.28,4.87-0.4c0.72-0.06,0.99-0.33,1-1.05
	c0.01-1.07-0.01-2.13,0.01-3.2C166.12,191.52,166.03,191.42,165.68,191.41z"/>
<path class="st1" d="M176,167.17c-0.51-0.03-1,0.1-1.5,0.11c-1.01,0.03-2.01-0.12-3.01-0.12c-0.39,0-0.5,0.11-0.49,0.49
	c0.02,2.07,0.01,4.14,0.01,6.21c0.02,0,0.03,0,0.05,0c0,2.09-0.01,4.17,0.01,6.25c0.01,0.43-0.18,0.53-0.51,0.44
	c-0.29-0.08-0.58-0.06-0.86-0.09c-0.88-0.06-1.75,0.1-2.62,0.1c-1.3-0.01-2.59-0.14-3.89-0.11c-0.41,0.01-0.56,0.17-0.56,0.51
	c-0.01,1.22,0.01,2.44,0.01,3.67c0,0.31,0.17,0.51,0.46,0.5c0.52-0.01,1.03,0.12,1.55,0.12c1.97-0.01,3.94,0.03,5.91,0.01
	c0.41,0,0.47,0.14,0.47,0.5c0,2.2,0.02,4.39,0.08,6.59c0.07,2.59,0,5.17,0.1,7.76c0.07,1.85,0.01,3.71,0.02,5.57
	c0,0.6,0.09,0.68,0.67,0.68c1.33,0,2.66,0.02,4-0.09c0.34-0.03,0.48-0.16,0.5-0.5c0.03-0.52-0.1-1.03-0.1-1.55
	c0.04-4.16-0.11-8.33,0.08-12.49c0.07-1.56-0.01-3.12,0.08-4.68c0.11-1.77,0.07-3.56,0.08-5.34c0.03-4.69-0.04-9.38-0.05-14.07
	C176.48,167.26,176.34,167.19,176,167.17z"/>
<path class="st1" d="M264.31,178.42c-0.56,1.08-1.34,1.98-2.15,2.87c-1.11,1.24-2.42,2.21-3.82,3.07c-1.13,0.69-2.43,0.84-3.71,1
	c-0.25,0.03-0.47,0.07-0.5,0.35c-0.03,0.26-0.06,0.55,0.04,0.77c0.51,1.21,1.08,2.39,1.97,3.39c0.24,0.27,0.48,0.32,0.82,0.23
	c1.58-0.43,3.04-1.14,4.49-1.88c1.39-0.71,2.66-1.61,3.77-2.72c1.33-1.32,2.45-2.8,3.32-4.46c0.1-0.19,0.11-0.55,0.33-0.54
	c0.28,0.01,0.36,0.37,0.5,0.59c0.4,0.66,0.73,1.37,1.23,1.97c0.96,1.13,2.03,2.15,3.13,3.14c0.62,0.55,1.25,1.09,1.92,1.56
	c1.52,1.06,3.24,1.76,4.96,2.44c1.08,0.42,1.32,0.34,1.97-0.63c0.66-0.99,1.12-2.08,1.61-3.15c0.25-0.55,0.05-0.93-0.51-1.14
	c-0.21-0.08-0.42-0.15-0.64-0.2c-1.15-0.28-2.28-0.6-3.35-1.13c-2.46-1.21-4.35-3-5.77-5.34c-1.34-2.21-2.31-4.52-2.29-7.16
	c0-0.45,0.12-0.89,0.18-1.33c0.08-0.55-0.04-0.68-0.57-0.68c-0.7,0-1.4,0-2.1,0c0,0,0,0,0-0.01c-0.65,0-1.3,0-1.96,0
	c-0.68,0-0.73,0.04-0.72,0.71c0.01,0.97,0.04,1.95-0.12,2.91C266.02,174.97,265.19,176.71,264.31,178.42z"/>
<path class="st1" d="M104.71,167.08c-0.96-0.03-1.91,0.15-2.87,0.1c-0.5-0.02-1.01,0.01-1.51-0.01c-0.35-0.01-0.51,0.1-0.5,0.47
	c0.03,1.38-0.08,2.77-0.08,4.14c0.01,3.56-0.06,7.12,0.06,10.69c0.09,2.72,0.02,5.45,0.02,8.18c0.01,4.3-0.04,8.59,0.1,12.89
	c0,0.72,0,1.43,0,2.15c0,0.63,0.01,0.66,0.66,0.67c1.34,0.02,2.67,0,4.01,0.02c0.42,0,0.51-0.22,0.51-0.58
	c0.01-5.42,0-10.84,0.08-16.26c0.09-7.1-0.04-14.2,0.12-21.29c0-0.14,0.02-0.29,0.05-0.43C105.44,167.18,105.37,167.1,104.71,167.08
	z"/>
<path class="st1" d="M239.64,190.73c0.02-0.26-0.1-0.38-0.37-0.38c-0.6-0.02-1.21-0.01-1.79,0.13c-1.71,0.41-3.47,0.42-5.2,0.66
	c-0.8,0.11-1.62,0.11-2.41,0.23c-1.71,0.27-3.43,0.36-5.15,0.46c-0.34,0.02-0.45-0.08-0.44-0.43c0.04-1.48,0.06-2.95,0.07-4.43
	c0.01-2.59,0-5.18,0-7.77c0.01,0,0.02,0,0.04,0c0-2.61,0-5.22,0-7.82c0-0.64-0.02-0.67-0.69-0.67c-1.12,0-2.25,0.01-3.37,0
	c-1.08-0.01-0.93,0.18-0.99,0.96c-0.1,1.32-0.06,2.66-0.1,3.99c-0.05,1.59-0.12,3.19-0.11,4.79c0.01,1.13-0.04,2.26,0.06,3.39
	c0.08,0.93-0.07,1.87,0,2.81c0.1,1.47,0.03,2.95,0.11,4.43c0.08,1.54,0.08,3.08,0.11,4.63c0,0.05,0,0.1,0.01,0.14
	c0.05,0.6,0.18,0.76,0.79,0.75c1.8-0.03,3.61,0.08,5.41-0.08c1.37-0.12,2.74-0.22,4.1-0.29c1.16-0.07,2.32-0.2,3.47-0.32
	c1.87-0.2,3.72-0.56,5.61-0.59c0.71-0.01,0.91-0.3,0.93-1.01C239.78,193.11,239.55,191.92,239.64,190.73z"/>
<path class="st1" d="M247.07,169.08c-0.02-0.47,0.02-0.94,0.1-1.4c0.06-0.36-0.07-0.52-0.47-0.51c-0.58,0.02-1.17,0.13-1.74,0.08
	c-0.78-0.07-1.56-0.01-2.33-0.07c-0.34-0.03-0.42,0.08-0.44,0.42c-0.06,1,0.06,1.99,0.04,3c-0.11,5.09-0.01,10.18-0.1,15.28
	c-0.08,4.65-0.12,9.31,0.07,13.96c0.03,0.85,0,1.69,0,2.54c0.02,0,0.04,0,0.06,0c0,1.17,0.01,2.34-0.01,3.52
	c-0.01,0.39,0.15,0.49,0.52,0.49c1.25,0.02,2.5-0.07,3.75,0.05c0.71,0.07,0.81-0.1,0.67-0.81c-0.03-0.17-0.02-0.36-0.02-0.54
	c-0.07-2.67,0.12-5.33,0.09-8C247.18,187.75,247.48,178.41,247.07,169.08z"/>
<path class="st1" d="M212.27,167.17c-1.43,0.01-2.87,0-4.3,0c-0.16,0-0.29,0.01-0.29,0.23c0,0.43-0.1,0.86-0.1,1.3
	c0.01,3.81-0.02,7.63,0.01,11.44c0.04,5.65-0.12,11.3,0.08,16.95c0.06,1.61-0.02,3.22,0.09,4.82c0.08,1.13,0.02,2.28,0.02,3.42
	c0,0.64,0.16,0.83,0.79,0.84c1.08,0.02,2.17,0.03,3.25-0.01c0.36-0.01,0.67-0.13,0.65-0.67c-0.05-1.52-0.03-3.04-0.02-4.56
	c0.02-1.45,0.04-2.89,0.06-4.34c0.06-4.81,0.02-9.61,0.02-14.42c0.01,0,0.01,0,0.02,0c0-1.69,0-3.39,0-5.08c0-3.14,0-6.29,0-9.43
	C212.55,167.44,212.67,167.17,212.27,167.17z"/>
<path class="st1" d="M83.52,184.77c1.55,0.48,3.12,0.47,4.7,0.35c0.66-0.05,1.32-0.16,1.95-0.37c2.21-0.73,3.81-2.16,4.78-4.26
	c0.5-1.08,0.75-2.24,0.74-3.43c0-0.66-0.13-1.32-0.18-1.97c-0.15-1.99-1.15-3.5-2.73-4.61c-1.84-1.29-3.92-1.87-6.54-1.85
	c-0.38-0.02-1.12,0.05-1.86,0.18c-1.38,0.24-2.59,0.91-3.78,1.59c-0.56,0.32-1.04,0.75-1.38,1.31c-0.86,1.44-1.44,2.96-1.59,4.66
	c-0.17,1.86,0.14,3.57,1.3,5.08C80.12,183.02,81.61,184.18,83.52,184.77z M83.3,174.46c1.03-0.93,2.15-1.48,3.5-1.51
	c1.58-0.03,2.82,0.71,3.77,1.95c1.82,2.36,0.19,5.59-2.56,5.99c-0.42,0.06-0.84,0.09-1.2,0.1c-1.82,0.03-3.17-0.64-4.08-2.22
	C82.13,177.73,82.08,175.57,83.3,174.46z"/>
<path class="st1" d="M49.95,183.01c0.09-0.22,0.17-0.25,0.35-0.02c1.49,1.95,3.11,3.78,4.99,5.37c0.68,0.57,1.34,1.17,2.15,1.56
	c0.36,0.17,0.64,0.17,0.95-0.14c0.91-0.9,1.45-2.02,1.99-3.14c0.24-0.51,0.13-0.8-0.35-1.11c-0.43-0.28-0.91-0.5-1.33-0.81
	c-2.3-1.7-3.94-3.92-5.09-6.52c-0.78-1.75-0.94-3.61-1.02-5.49c-0.04-0.86-0.03-1.72,0.09-2.57c0.05-0.35-0.11-0.52-0.46-0.5
	c-0.93,0.04-1.84-0.19-2.62-0.1c-0.58,0-1,0.02-1.42,0c-0.36-0.02-0.48,0.11-0.49,0.47c-0.01,1.71,0.07,3.41-0.08,5.12
	c-0.06,0.63-0.14,1.25-0.26,1.86c-0.18,0.93-0.63,1.75-1.06,2.59c-0.66,1.28-1.25,2.6-2.27,3.65c-1.15,1.19-2.3,2.4-3.89,3.02
	c-0.46,0.18-0.58,0.46-0.55,0.89c0.01,0.23,0.04,0.46,0.12,0.67c0.44,1.09,1.19,1.96,2.07,2.72c0.43,0.37,0.93,0.35,1.4,0.06
	c1.17-0.72,2.26-1.54,3.25-2.52C47.91,186.57,49.15,184.94,49.95,183.01z"/>
<path class="st1" d="M72.15,178.12c-1.2-0.01-2.4,0.05-3.6,0.1c-0.76,0.03-0.75,0.01-0.74-0.75c0.03-3.33-0.03-6.67,0.2-10
	c0.03-0.38-0.08-0.49-0.48-0.5c-1.5-0.04-2.98,0.15-4.48,0.11c-0.61-0.01-0.72,0.12-0.77,0.72c-0.04,0.47,0.1,0.93,0.1,1.4
	c-0.01,0.99-0.03,1.98-0.09,2.96c-0.08,1.41,0.08,2.82,0.01,4.23c-0.04,0.81,0.01,1.62,0.05,2.44c0.11,1.99,0.03,3.99,0.1,5.99
	c0.12,3.43,0.09,6.86,0.12,10.29c0,0.03,0,0.06,0,0.1c-0.03,0.39,0.14,0.58,0.54,0.56c0.57-0.03,1.13-0.05,1.7-0.07
	c0.76-0.02,1.52,0.05,2.28-0.09c0.42-0.08,0.69-0.22,0.65-0.71c-0.08-1.06-0.16-2.13-0.19-3.2c-0.03-1.38-0.01-2.77-0.01-4.15
	c0,0,0,0,0,0c0-1.43,0-2.87,0-4.3c0-0.21-0.07-0.44,0.33-0.42c1.4,0.05,2.8,0.05,4.2,0.07c0.33,0.01,0.46-0.12,0.46-0.46
	c0-1.28-0.07-2.57,0.07-3.85C72.65,178.23,72.51,178.13,72.15,178.12z"/>
<path class="st1" d="M96.93,186.74c-1.31,0-2.6,0.23-3.91,0.27c-1.41,0.05-2.81,0.13-4.22,0.19c-1.28,0.05-2.56,0.14-3.84,0.13
	c-1.82-0.01-3.64,0.05-5.46,0.09c-0.11,0-0.22,0.04-0.33,0.06c-0.61,0.08-1.23,0.08-1.83,0.1c-0.42,0.01-0.87-0.02-1.3-0.05
	c-0.24-0.02-0.36,0.08-0.36,0.34c0,1.22,0.01,2.43,0.17,3.64c0.08,0.56,0.35,0.7,0.83,0.7c1.16,0,2.31,0,3.47,0s2.31,0.01,3.47,0
	c0.32,0,0.48,0.07,0.47,0.43c-0.01,1.3,0.05,2.6,0.07,3.9c0.04,2.6,0.05,5.2,0.12,7.8c0.02,0.67,0.12,0.78,0.8,0.78
	c1.19,0,2.38,0,3.57,0c0.77,0,0.8-0.02,0.8-0.8c0-2.74,0.01-5.48,0-8.23c0-1.41,0.01-2.82,0.11-4.24c0.01-0.15-0.04-0.33,0.22-0.33
	c1.41,0.01,2.8-0.18,4.2-0.28c1.04-0.08,2.09-0.11,3.1-0.41c0.38-0.11,0.67-0.31,0.82-0.77c0.23-0.68,0.05-1.36,0.19-2.02
	C98.32,186.93,97.91,186.74,96.93,186.74z"/>
<path class="st1" d="M143.03,197.19c0-0.23-0.05-0.36-0.32-0.39c-0.6-0.05-1.19-0.1-1.79-0.1c-1.17-0.01-2.34-0.03-3.51-0.05
	c-3.32-0.07-6.64-0.05-9.96-0.04c-3.37,0.02-6.73,0.06-10.1,0.18c-0.94,0.04-1.89,0.01-2.83,0.01c0,0,0,0,0,0.01
	c-1.01,0-2.02,0-3.03,0c-0.28,0-0.6,0.03-0.6,0.4c-0.03,1.36-0.04,2.73-0.06,4.1c0,0.26,0.12,0.38,0.39,0.38
	c0.96,0.01,1.91,0.07,2.87,0.08c7.75,0.07,15.5-0.14,23.25,0.11c1.83,0.06,3.67,0.04,5.51-0.08c0.31-0.02,0.4-0.18,0.37-0.43
	c-0.11-0.88-0.15-1.77-0.17-2.65C143.02,198.19,143.03,197.69,143.03,197.19z"/>
<path class="st1" d="M67.84,200.72c-4.84,0.03-9.67,0.06-14.51,0.1c-0.99,0.01-1.99,0.01-2.98,0.05c-0.26,0.01-0.3-0.09-0.31-0.3
	c-0.01-0.45-0.01-0.91-0.02-1.37c-0.06-1.88-0.12-3.77-0.17-5.66c-0.01-0.65,0.02-0.65-0.63-0.65c-1.28,0.01-2.56,0.18-3.84,0.09
	c-0.4-0.03-0.52,0.17-0.58,0.48c-0.03,0.14-0.02,0.29-0.02,0.43c0.01,3.7-0.03,7.4,0.09,11.1c0.03,0.83,0.05,0.88,0.88,0.89
	c2.15,0.02,4.3-0.01,6.45,0.04c2.07,0.04,4.14,0.01,6.2,0.01c3.35,0.02,6.69-0.06,10.04-0.23c0.35-0.02,0.39-0.15,0.39-0.43
	c-0.01-1.27-0.13-2.53-0.2-3.79C68.59,200.73,68.59,200.71,67.84,200.72z"/>
<path class="st1" d="M284.8,196.71c-0.11,0-0.23,0-0.34,0c-8.13,0.01-16.26-0.05-24.39,0.09c-1.89,0.03-3.78,0.02-5.67,0
	c-0.36,0-0.7,0.14-1.06,0.11c-0.15-0.01-0.21,0.08-0.19,0.21c0.13,1.25-0.22,2.49-0.02,3.74c0.06,0.36,0.22,0.47,0.52,0.51
	c0.29,0.04,0.6,0.11,0.86,0.08c0.97-0.09,1.93-0.02,2.9,0.01c1.72,0.06,3.45,0.05,5.18,0.07c3.3,0.03,6.61,0.1,9.91-0.03
	c1.82-0.07,3.65-0.01,5.72-0.01c2-0.05,4.25,0.08,6.49-0.1c0.41-0.03,0.59-0.13,0.63-0.62c0.08-1.15,0.03-2.31,0.08-3.46
	C285.44,196.81,285.21,196.71,284.8,196.71z"/>
<path class="st1" d="M444.5,162.27H299.15c-3.14,0-5.69,2.55-5.69,5.69v33.11c0,3.14,2.55,5.69,5.69,5.69H444.5
	c3.14,0,5.69-2.55,5.69-5.69v-33.11C450.18,164.82,447.64,162.27,444.5,162.27z M375.24,174.54c0.01-0.35,0.27-0.34,0.5-0.29
	c1.16,0.24,2.35,0.18,3.53,0.29c0.34,0.03,0.47-0.08,0.51-0.45c0.16-1.71,0.05-3.41,0.08-5.12c0.01-0.33,0.05-0.43,0.42-0.41
	c0.99,0.04,1.98,0.17,2.97,0.12c0.38-0.02,0.51,0.12,0.49,0.51c-0.12,2.54,0.02,5.07,0.08,7.6c0.06,2.6,0,5.21,0.07,7.8
	c0.01,0.41-0.11,0.58-0.52,0.52c-1.21-0.18-2.43-0.04-3.64-0.16c-0.36-0.04-0.27-0.25-0.27-0.44c0.01-1.46,0.12-2.93,0.07-4.16
	c0-1.01-0.01-1.8,0-2.57c0-0.25-0.04-0.35-0.33-0.4c-1.04-0.17-2.08-0.06-3.11-0.07c-0.35,0-0.56-0.12-0.66-0.44
	C375.18,176.11,375.21,175.32,375.24,174.54z M335.29,174.41c0.01-1.15,0.04-2.31,0.04-3.47c0-0.15-0.1-0.37,0.23-0.35
	c2.81,0.18,5.63,0.13,8.45,0.28c2.79,0,5.57,0.01,8.36-0.01c0.55,0,1.1-0.08,1.66-0.07c0.34,0.01,0.5,0.1,0.48,0.48
	c-0.03,0.78-0.04,1.56-0.02,2.35c0.01,0.33-0.11,0.36-0.39,0.34c-4.43-0.21-8.86-0.09-13.29-0.07c-0.47,0-0.94,0.06-1.41,0.06
	c-0.25,0-0.36,0.1-0.36,0.34c-0.01,0.99-0.02,1.99-0.02,2.98c0,0.2,0.1,0.28,0.3,0.3c1.52,0.13,3.04,0.22,4.56,0.3
	c2.33,0.13,4.65,0.08,6.98,0.05c0.91-0.01,1.82-0.07,2.73-0.12c0.27-0.01,0.4,0.02,0.39,0.36c-0.03,0.88-0.01,1.76,0.01,2.64
	c0.01,0.27-0.07,0.35-0.35,0.35c-4.66-0.11-9.32,0.02-13.98-0.06c-0.45-0.01-0.61,0.14-0.62,0.56c-0.02,0.78-0.08,1.56-0.1,2.34
	c-0.02,0.94,0.17,1.15,1.13,1.2c1.04,0.06,2.08,0.1,3.12,0.1c3.54,0.01,7.07,0.01,10.61,0.01c0.89,0,0.9,0,0.92,0.88
	c0.01,0.55-0.01,1.1,0.04,1.65c0.03,0.42-0.12,0.52-0.52,0.52c-2.2-0.02-4.4-0.05-6.6-0.03c-3.29,0.03-6.58-0.04-9.87,0.08
	c-0.7,0.03-1.4,0.05-2.1,0.11c-0.26,0.02-0.33-0.05-0.34-0.31C335.26,183.6,335.24,179.01,335.29,174.41z M324.25,182.68
	c0.04-1.19,0.05-2.37,0.06-3.55c0.02-2.19-0.03-4.38,0.02-6.57c0.02-1.06,0.05-2.11,0.09-3.17c0.02-0.59,0.11-0.65,0.71-0.64
	c0.76,0.02,1.53,0.02,2.3,0.02c0.32,0,0.5,0.04,0.5,0.45c-0.02,2.45-0.01,4.91-0.01,7.36c0.01,0,0.03,0,0.04,0
	c0,2.21,0.01,4.43,0,6.64c-0.01,2.85-0.05,5.7-0.04,8.55c0,0.37-0.16,0.41-0.42,0.38c-0.94-0.13-1.88-0.08-2.82-0.08
	c-0.21,0-0.29-0.1-0.33-0.28c-0.01-0.06-0.01-0.13-0.01-0.19C324.22,188.62,324.16,185.65,324.25,182.68z M315.14,176.64
	c0.07-0.84,0.07-0.84,0.91-0.83c0.58,0,1.16,0.08,1.73,0.18c0.63,0.12,0.97-0.17,0.97-0.81c0-0.57,0-1.14,0-1.89
	c0.03-1.15-0.04-2.47-0.18-3.8c-0.04-0.34,0.01-0.55,0.52-0.45c0.7,0.13,1.42,0.09,2.14,0.13c0.08,0,0.16,0,0.24,0
	c0.65,0.02,0.83,0.15,0.69,0.74c-0.24,1-0.12,2-0.17,2.99c-0.21,4.42-0.07,8.85-0.06,13.27c0,0.92-0.04,1.84-0.03,2.75
	c0.01,0.74-0.18,1.48-0.08,2.23c0.03,0.21-0.09,0.24-0.26,0.24c-0.88-0.01-1.77-0.02-2.65-0.02c-0.28,0-0.26-0.15-0.24-0.34
	c0.07-0.51,0.17-1.02,0.17-1.53c0.01-3.16-0.01-6.32,0.02-9.48c0-0.55-0.21-0.72-0.71-0.79c-0.56-0.09-1.12-0.15-1.65-0.38
	C315.45,178.42,315.04,177.77,315.14,176.64z M307.99,186.4c-0.42,0.25-0.84,0.5-1.29,0.69c-0.64,0.28-1.31,0.34-1.88-0.17
	c-0.56-0.5-0.94-1.1-0.78-1.91c0.06-0.29,0.27-0.44,0.45-0.61c0.74-0.71,1.45-1.43,2.02-2.29c1.34-2.01,2.16-4.21,2.45-6.61
	c0.18-1.46,0.2-2.92,0.16-4.38c-0.01-0.43,0.12-0.57,0.57-0.62c0.89-0.08,1.78,0.07,2.66,0.03c0.36-0.02,0.44,0.15,0.43,0.46
	c-0.02,0.59-0.01,1.17-0.01,2.04c-0.02,1.13,0.1,2.54,0.18,3.94c0.11,1.85,0.93,3.37,2.02,4.79c0.56,0.73,1.14,1.45,1.69,2.18
	c0.27,0.35,0.4,0.69,0.06,1.11c-0.25,0.31-0.36,0.71-0.54,1.08c-0.41,0.85-1.22,1.03-1.97,0.43c-0.71-0.57-1.16-1.35-1.62-2.11
	c-0.33-0.54-0.58-1.13-0.85-1.7c-0.11-0.24-0.11-0.57-0.5-0.54c-0.4,0.03-0.8,0.09-0.97,0.52c-0.16,0.42-0.3,0.86-0.43,1.29
	C309.58,185.08,308.91,185.85,307.99,186.4z M328.34,199.59c-1.11-0.02-2.21-0.01-3.32-0.01c-3.66,0.12-7.32,0.12-10.98,0.09
	c-1.52-0.01-3.04-0.06-4.56,0.01c-0.3,0.01-0.4-0.04-0.36-0.4c0.07-0.61,0.05-1.23,0.04-1.85c-0.02-2.37,0.17-4.74,0.11-7.12
	c-0.01-0.61,0.02-0.67,0.63-0.61c0.97,0.1,1.94,0.08,2.92,0.08c0.36,0,0.52,0.18,0.47,0.52c-0.22,1.54,0.22,3.06,0.11,4.6
	c-0.02,0.27,0.07,0.54,0.11,0.81c0.04,0.31,0.31,0.4,0.62,0.43c1.53,0.17,3.06,0.01,4.59,0.11c1.84,0.11,3.67,0,5.5,0.1
	c1.34,0.07,2.69,0.12,4.03,0.17c0.39,0.01,0.51,0.18,0.5,0.54c-0.01,0.7-0.01,1.4,0.01,2.1
	C328.77,199.5,328.65,199.59,328.34,199.59z M357.24,196.65c-0.49-0.02-0.97-0.07-1.46-0.08c-2.86-0.05-5.73,0.03-8.59,0.06
	c-3.67,0.04-7.33,0.02-11,0.01c-0.93,0-1.86-0.12-2.79-0.08c-0.31,0.02-0.61,0.05-0.92,0.08c-0.21,0.02-0.28-0.05-0.28-0.28
	c0.02-0.95,0.03-1.89,0.03-2.83c0-0.27,0.17-0.27,0.35-0.27c0.8,0.01,1.6,0.04,2.39,0.04c1.99,0.01,3.98,0,5.96,0
	c0-0.01,0-0.03,0-0.04c2.69,0,5.38,0.03,8.07-0.01c1.32-0.02,2.64,0.05,3.95-0.07c1.17-0.1,2.34,0.02,3.5-0.16
	c0.13-0.02,0.26,0,0.39-0.01c0.39-0.02,0.57,0.11,0.55,0.56c-0.04,0.91,0.03,1.82,0.14,2.72
	C357.59,196.6,357.48,196.66,357.24,196.65z M361.7,184.14c-0.34-0.01-0.43-0.09-0.43-0.43c0.02-2.46,0.02-4.92,0-7.38
	c0-0.46,0.1-0.66,0.62-0.65c1.05,0.02,2.11,0.02,3.16-0.09c1.28-0.13,2.57-0.02,3.85-0.12c0.62-0.05,0.78-0.19,0.79-0.79
	c0-0.15,0-0.29,0-0.44c0.05-0.94-0.05-0.99-0.96-1.07c-1.84-0.15-3.67-0.04-5.51-0.09c-0.54-0.02-1.07,0.1-1.6,0.12
	c-0.22,0.01-0.29-0.03-0.29-0.25c0-0.96,0-1.91-0.02-2.87c-0.01-0.29,0.17-0.21,0.32-0.2c1.42,0.04,2.83,0.08,4.25,0.11
	c2.31,0.05,4.62,0,6.94-0.09c0.23-0.01,0.45,0,0.69,0c-0.24,1.59-0.12,3.16-0.16,4.73c-0.02,1.1,0.1,2.2,0.03,3.31
	c-0.02,0.32-0.09,0.43-0.4,0.42c-0.37-0.01-0.75,0-1.12,0c-1.91,0-3.81,0-5.72,0c-0.91,0-0.91,0-0.92,0.94
	c-0.02,1.29-0.02,1.3,1.24,1.3c1.97,0,3.94,0.01,5.92-0.01c0.92-0.01,1.84-0.05,2.76-0.19c0.7-0.11,0.8,0.02,0.84,0.73
	c0.03,0.62-0.11,1.23-0.12,1.84c-0.01,0.55-0.22,0.7-0.78,0.7c-1.98,0.01-3.95,0.27-5.93,0.29c-0.72,0-1.46,0.07-2.18,0.06
	C365.21,184.02,363.46,184.19,361.7,184.14z M383.9,199.93c-1.71-0.1-3.42-0.04-5.13-0.05c-1.35-0.01-2.7,0-4.06,0
	c0,0.03,0,0.07,0,0.1c-2.93,0-5.87,0.01-8.8-0.01c-0.33,0-0.78,0.21-0.97-0.03c-0.17-0.21-0.05-0.65-0.05-0.99
	c0-2.22,0.01-4.43,0-6.65c0-0.35,0.08-0.48,0.45-0.47c3.22,0.14,6.44,0.05,9.66,0.14c1.42,0.04,2.83-0.02,4.25-0.03
	c0.27,0,0.37-0.09,0.39-0.36c0.04-0.61-0.05-1.2-0.09-1.8c-0.01-0.15-0.11-0.17-0.23-0.18c-0.38-0.04-0.76-0.1-1.16-0.1
	c-2.72,0.01-5.44,0.01-8.16,0c-1.64,0-3.28,0.15-4.92,0.11c-0.33-0.01-0.42-0.1-0.41-0.41c0.04-0.76,0.06-1.53,0.08-2.29
	c0.02-0.47,0.22-0.53,0.69-0.47c1.32,0.17,2.66,0.11,3.99,0.12c1.91,0.01,3.82,0.06,5.72,0.06c1.88,0,3.75,0,5.63-0.09
	c0.79-0.04,1.59-0.06,2.38-0.08c0.31-0.01,0.46,0.08,0.43,0.42c-0.21,2.42-0.05,4.85-0.09,7.27c-0.01,0.33-0.04,0.51-0.44,0.49
	c-0.15-0.01-0.32,0.05-0.48,0.05c-4.2,0.14-8.4,0.1-12.6,0.1c-0.92,0-1.08,0.17-1.02,1.1c0.07,0.94,0.1,0.97,1.08,1.02
	c0.15,0.01,0.29,0.02,0.44,0.02c4.38,0.09,8.76,0.12,13.14,0.1c0.68,0,0.73,0.05,0.74,0.75c0.01,0.55-0.02,1.11,0.01,1.66
	C384.4,199.82,384.3,199.95,383.9,199.93z M405.38,190.52c-0.22,0.68-0.42,1.35-0.93,1.9c-0.67,0.71-1.15,0.62-1.95,0.15
	c-0.75-0.44-1.26-1.16-1.77-1.85c-0.77-1.06-1.66-2.03-2.32-3.17c-0.32-0.55-0.59-1.12-0.76-1.73c-0.08-0.29-0.25-0.4-0.53-0.39
	c-0.27,0-0.49,0.04-0.61,0.36c-0.45,1.28-0.96,2.53-1.73,3.67c-1.08,1.61-2.28,3.09-3.89,4.19c-0.41,0.28-0.63-0.04-0.85-0.23
	c-0.74-0.67-1.31-1.48-1.89-2.29c-0.36-0.5-0.26-0.8,0.24-1.13c0.6-0.4,1.23-0.76,1.79-1.23c0.87-0.73,1.43-1.68,1.99-2.65
	c0.73-1.25,1.15-2.61,1.56-3.99c0.5-1.7,0.68-3.46,0.89-5.21c0.23-1.98,0.44-3.96,0.36-5.96c-0.01-0.22,0.05-0.3,0.27-0.28
	c0.19,0.02,0.39,0.03,0.59,0.04c0,0.03,0,0.06,0,0.1c0.81,0,1.63,0,2.44,0c0.4,0,0.57,0.12,0.58,0.59c0.03,1.89,0.14,3.79,0.35,5.67
	c0.21,1.84,0.54,3.64,1.13,5.4c0.46,1.4,1.04,2.76,1.86,3.99c0.7,1.04,1.62,1.89,2.66,2.6
	C405.54,189.53,405.63,189.76,405.38,190.52z M411.09,200.3c-1.2,0.02-2.4,0.05-3.6,0.11c-0.24,0.01-0.18-0.13-0.18-0.22
	c0-0.49,0.02-0.98,0.02-1.46c0.01-3.49-0.05-6.97,0.03-10.46c0.09-3.71,0.23-7.42,0.18-10.18c0-3.15,0-5.35,0-7.54
	c0-0.54,0.03-1.07,0.06-1.61c0.01-0.23,0.05-0.42,0.36-0.39c1.04,0.09,2.08-0.04,3.12,0.11c0.25,0.04,0.31,0.09,0.31,0.35
	c-0.01,3.09-0.01,6.19-0.02,9.28c0,6.36-0.02,12.73,0.01,19.1c0,0.84,0.07,1.68,0.09,2.52C411.47,200.2,411.4,200.29,411.09,200.3z
	 M433.07,189.49c-0.01,0.91-0.04,1.82-0.05,2.72c0,0.23-0.06,0.29-0.3,0.3c-1.76,0.03-3.52,0.05-5.28,0.13
	c-3.06,0.13-6.11,0.28-9.17,0.46c-0.5,0.03-0.41-0.24-0.41-0.5c0-2.44,0-4.89,0-7.33c0-4.72,0-9.44,0-14.17
	c1.9,0.04,3.9,0.08,5.9,0.12c1.97,0.03,3.94,0.06,5.91,0.07c0.58,0.01,1.16,0,1.74-0.03c0.27-0.01,0.34,0.05,0.39,0.33
	c0.15,0.87,0.03,1.75,0.1,2.62c0.02,0.3-0.06,0.4-0.37,0.38c-1.86-0.1-3.71,0-5.57,0.05c-1.29,0.03-2.57,0.09-3.86,0.13
	c-0.27,0.01-0.39,0.09-0.39,0.37c0.03,1.53,0.06,3.06,0.07,4.59c0,0.32,0.11,0.43,0.46,0.45c2.59,0.08,5.18-0.07,7.77-0.13
	c0.38-0.01,0.52-0.02,0.44,0.48c-0.14,0.81-0.1,1.65-0.11,2.48c0,0.25-0.07,0.35-0.32,0.33c-2.65-0.2-5.3,0.12-7.95-0.03
	c-0.27-0.02-0.24,0.13-0.26,0.3c-0.09,0.89-0.08,1.79-0.04,2.68c0.05,0.86,0.01,1.73,0.05,2.59c0.02,0.35,0.14,0.5,0.49,0.5
	c0.91-0.01,1.82,0.07,2.72,0.01c1.55-0.1,3.09-0.16,4.64-0.33c0.89-0.1,1.8-0.15,2.7-0.22
	C433.04,188.78,433.08,188.84,433.07,189.49z M439.08,200.29c-1.07,0.06-2.13,0.19-3.21,0.19c-0.32,0-0.38-0.07-0.37-0.37
	c0.01-1.82,0.01-3.65,0.01-5.47c0-2.63,0-5.25,0-7.87c-0.01-5.64-0.03-11.29-0.03-16.93c0-1.24-0.09-1.1,1.05-1.07
	c0.8,0.02,1.6,0.02,2.4,0c0.37-0.01,0.5,0.08,0.52,0.48c0.12,4.11,0.08,8.23,0.09,13.56c0,1.93-0.05,5.08,0.02,8.22
	c0.04,1.88,0.05,3.75,0.07,5.63c0.01,1.01-0.02,2.03,0.01,3.04C439.65,200.15,439.47,200.27,439.08,200.29z"/>
</svg>
