<?xml version="1.0" encoding="utf-8"?>
<!-- Generator: Adobe Illustrator 27.9.5, SVG Export Plug-In . SVG Version: 9.03 Build 54986)  -->
<svg version="1.1" id="레이어_1" xmlns="http://www.w3.org/2000/svg" xmlns:xlink="http://www.w3.org/1999/xlink" x="0px"
	 y="0px" viewBox="0 0 732.43 100.49" style="enable-background:new 0 0 732.43 100.49;" xml:space="preserve">
<style type="text/css">
	.st0{fill:#FFFFFF;}
	.st1{fill:#0B1633;}
</style>
<g>
	<rect x="477.66" y="23.1" class="st0" width="230.24" height="58.46"/>
	<g>
		<g>
			<path class="st1" d="M67.77,58.18c-0.01-0.61-0.25-0.96-1.02-0.96c-9.76,0.03-19.52,0.02-29.28,0.02c-1.89,0-3.77,0-5.66,0
				c-4.69,0-9.39,0.01-14.08,0c-0.52,0-0.85,0.08-0.75,0.69c0.02,0.11-0.03,0.2-0.15,0.23c0,0.77,0,1.53,0,2.3
				c0.26,0.12,0.15,0.35,0.15,0.54c0.03,0.97,0.03,1.94,0.05,2.91c0.02,0.69,0.4,1.05,1.08,1.14c1.63,0.2,3.29,0.24,4.92,0.27
				c4.3,0.1,8.61,0.07,12.91-0.12c0.55-0.02,1.09-0.28,1.65-0.08c0.16,0.06,0.41,0,0.37,0.27c-0.09,0.57,0.15,1.1,0.16,1.66
				c0.03,1.67-0.05,3.35,0.11,5.03c0.18,1.87,0.15,3.75,0.18,5.63c0.03,1.89,0.02,3.77,0.05,5.66c0.02,0.93,0.16,1.07,1.07,1.06
				c2.22-0.01,4.43-0.07,6.65-0.08c0.44,0,0.52-0.19,0.48-0.55c-0.05-0.45-0.14-0.9-0.15-1.35c-0.03-5.45-0.02-10.9,0.14-16.35
				c0.02-0.56,0.15-0.83,0.79-0.78c0.96,0.07,1.94,0.04,2.91,0.03c4.01-0.06,8.03-0.08,12.03-0.42c1.52-0.13,3.06-0.03,4.59-0.03
				c1.11,0,1.17-0.01,1.1-1.16C67.95,61.87,67.79,60.03,67.77,58.18z M331.86,77.53c-0.12-2.85-0.13-5.71-0.17-8.57
				c-0.03-2.56,0.08-5.13,0.12-7.69c0.06-3.68,0.03-7.36,0.03-11.04c0-1.85,0-3.7-0.01-5.55c0-6.66-0.01-13.31,0.01-19.97
				c0-0.72-0.23-1.01-0.97-1c-1.58,0.03-3.16,0.01-4.74,0.01c-1.19,0-1.3,0.08-1.31,1.27c-0.02,2.23-0.19,4.46-0.28,6.68
				c-0.09,2.21-0.26,4.41-0.19,6.63c0.05,1.63-0.02,3.27,0.03,4.9c0.02,0.69-0.26,0.9-0.88,0.87c-1.59-0.07-3.18,0.13-4.77,0.01
				c-0.65-0.05-0.97,0.25-0.96,0.95c0.03,1.53,0.01,3.06,0.01,4.59c0,1.05,0.24,1.23,1.28,1.33c1.55,0.15,3.09,0.14,4.64,0.13
				c0.38,0,0.63,0.12,0.56,0.49c-0.18,1.01,0.08,2.01,0.09,3.01c0.03,3.28,0.03,6.57-0.14,9.84c-0.01,0.27,0,0.54,0,0.9
				c-0.57-0.25-0.99-0.57-1.35-0.94c-1.5-1.52-2.96-3.09-4.16-4.84c-2.96-4.31-4.69-9.08-4.95-14.35c-0.05-1.01-0.07-2.02-0.16-3.03
				c-0.16-1.68-0.29-3.37-0.42-5.06c-0.04-0.48,0.19-0.68,0.71-0.74c1.87-0.22,3.76-0.04,5.63-0.26c0.99-0.12,1.59-0.5,1.61-1.33
				c0.02-1.63,0.03-3.26,0-4.9c-0.01-0.63-0.41-1.04-1.04-1.1c-1.18-0.11-2.37-0.2-3.56-0.23c-6.19-0.17-12.39-0.14-18.58,0.06
				c-0.65,0.02-0.98,0.2-0.99,0.97c-0.02,2.03,0.16,4.07-0.1,6.1c-0.03,0.26-0.04,0.57,0.4,0.58c0.71,0.02,1.42,0.13,2.13,0.13
				c1.81,0.01,3.62,0.01,5.43-0.04c0.63-0.02,0.76,0.19,0.75,0.78c-0.04,2.44,0,4.88-0.15,7.32c-0.07,1.14-0.2,2.26-0.43,3.36
				c-0.7,3.33-1.79,6.53-3.2,9.64c-1.05,2.34-2.43,4.43-4.05,6.4c-0.78,0.94-1.8,1.66-2.44,2.72c-0.25,0.4-0.43,0.86-0.09,1.27
				c1.24,1.52,2.59,2.94,4.21,4.07c0.71,0.5,1.15,0.46,1.73-0.19c0.63-0.7,1.2-1.44,1.77-2.18c1.34-1.77,2.26-3.78,3.4-5.67
				c0.79-1.32,1.54-2.66,1.77-4.23c0.11-0.75,0.27-1.5,0.44-2.39c0.36,0.44,0.64,0.75,0.88,1.09c1.54,2.22,2.4,4.83,4.04,7.01
				c1.23,1.63,2.35,3.34,3.77,4.82c1.06,1.1,1.89,1.03,2.98-0.11c1.24-1.3,2.07-3.13,4.17-3.33c0.1,0.99,0.31,2.05,0.3,3.1
				c-0.03,3.41,0.28,6.82,0.17,10.23c-0.01,0.29,0.12,0.55,0.14,0.82c0.02,0.39,0.18,0.51,0.56,0.55c1.85,0.23,3.68,0.16,5.53,0.03
				c0.88-0.06,0.98-0.49,0.95-1.19C331.95,79.35,331.9,78.44,331.86,77.53z M189.67,55.53c0,0.53,0.11,1.04,0.09,1.58
				c-0.05,2.32-0.33,2.77,2.33,2.81c5.92,0.09,11.84,0.03,17.75,0.03c0-0.04,0-0.08,0-0.12c1.91,0,3.82,0,5.74,0
				c3.88,0,7.76,0,11.63-0.01c0.53,0,1.06,0.02,1.59-0.12c0.45-0.12,0.63-0.36,0.62-0.81c-0.04-1.83,0.24-3.65,0.15-5.48
				c-0.08-1.85-0.11-3.72-0.05-5.57c0.11-3.71-0.04-7.43,0.12-11.14c0.13-3.03,0.03-6.07,0.06-9.1c0.01-0.49-0.21-0.64-0.61-0.65
				c-1.04-0.01-2.08-0.05-3.11-0.14c-1.37-0.12-2.73,0.26-4.11,0.13c-0.7-0.07-0.87,0.22-0.87,0.87c0.03,2.35,0.01,4.69,0.02,7.04
				c0,0.53,0.26,1.19,0.02,1.56c-0.33,0.51-1.03,0.06-1.57,0.08c-4.18,0.09-8.36,0.15-12.55,0.2c-2.86,0.04-5.71,0.03-8.57,0.07
				c-0.39,0-0.66-0.03-0.62-0.51c0.25-2.8,0.05-5.61,0.15-8.41c0.02-0.5-0.11-0.76-0.68-0.74c-2.26,0.09-4.52-0.22-6.79-0.17
				c-0.72,0.02-0.97,0.18-0.96,0.94c0.04,3.69,0.07,7.38,0.14,11.07C189.72,44.46,189.67,49.99,189.67,55.53z M198.26,44.56
				c0.02-0.6,0.28-0.68,0.79-0.68c6.19,0.06,12.38,0.1,18.57,0.14c0.97,0.01,1.94,0,2.9-0.05c0.48-0.02,0.72,0.09,0.66,0.62
				c-0.27,2.42-0.12,4.85-0.14,7.27c0,0.38-0.16,0.48-0.51,0.48c-3.69-0.01-7.38,0-11.07,0c0,0,0,0.01,0,0.01
				c-3.59,0-7.19-0.01-10.78,0.01c-0.58,0-0.74-0.14-0.71-0.72C198.1,49.28,198.2,46.92,198.26,44.56z M23.72,50.9
				c0.02,0.28-0.09,0.63,0.4,0.67c1.23,0.08,2.46,0.27,3.7,0.28c4.39,0.04,8.77,0.05,13.16,0.03c6.7-0.03,13.4,0.36,20.1,0
				c0.44-0.02,0.9,0.07,0.89-0.61c-0.02-2.14-0.03-4.28-0.03-6.43c0-0.37-0.12-0.57-0.52-0.59c-0.68-0.04-1.37-0.14-2.05-0.16
				c-3.59-0.13-7.19,0.01-10.78,0.03c-5.33,0.03-10.66,0.08-15.99,0.12c-0.35,0-0.55-0.01-0.54-0.48c0.09-3.32,0.14-6.64,0.2-9.95
				c0.01-0.5,0.2-0.7,0.74-0.67c1.44,0.1,2.89,0.19,4.33,0.19c6.71,0.02,13.41,0.02,20.12-0.01c1.28-0.01,2.57-0.2,3.85-0.28
				c0.34-0.02,0.35-0.21,0.35-0.46c0-2.01,0-4.03-0.01-6.04c0-0.62-0.31-1-0.95-0.98c-0.84,0.03-1.67-0.15-2.51-0.15
				c-5.48-0.01-10.97,0-16.45,0c0,0,0-0.01,0-0.01c-5.53,0-11.07-0.04-16.6,0.03c-1.59,0.02-1.7,0.01-1.73,1.72c0,0.1,0,0.2,0,0.31
				c0.01,5.5-0.04,11,0.15,16.5C23.64,46.27,23.54,48.59,23.72,50.9z M270.24,61.05c-1.55-0.04-3.05,0.4-4.58,0.46
				c-2,0.07-3.98,0.35-5.96,0.44c-2.73,0.13-5.47,0.22-8.21,0.34c-1.08,0.05-1.09,0.01-1.09-1.09c0-6.78-0.07-13.56,0.15-20.33
				c0-1.5,0.01-3.01-0.01-4.51c0-0.42,0.04-0.62,0.57-0.61c4.62,0.04,9.23,0.06,13.85,0.04c0.85,0,1.68-0.16,2.55-0.01
				c0.9,0.16,1.02-0.03,0.92-1.01c-0.19-1.74-0.3-3.49-0.28-5.24c0.01-1.39-0.1-1.5-1.53-1.5c-4.64-0.01-9.28-0.02-13.92-0.02
				c-3.13,0-6.26,0-9.37,0.31c-0.46,0.05-0.73,0.22-0.72,0.69c0.04,1.98-0.23,3.94-0.29,5.92c-0.08,2.35-0.06,4.71-0.02,7.06
				c0.04,2.59-0.04,5.18,0.11,7.78c0.19,3.12,0.12,6.25,0.2,9.38c0.08,2.82,0.18,5.64,0.15,8.46c0,0.48,0.19,0.93,0.17,1.43
				c-0.02,0.37,0.25,0.57,0.65,0.6c1.47,0.1,2.93,0.08,4.4,0.04c2.92-0.07,5.83-0.3,8.75-0.35c1.67-0.03,3.33-0.14,5-0.3
				c2.54-0.24,5.08-0.43,7.62-0.63c1.13-0.09,1.55-0.51,1.56-1.64c0.01-1.67-0.02-3.34,0.01-5.01
				C270.93,61.22,270.78,61.07,270.24,61.05z M286.4,23.1c-0.79-0.05-1.56,0.16-2.35,0.18c-1.58,0.05-3.14-0.18-4.72-0.19
				c-0.61,0-0.78,0.17-0.77,0.77c0.03,3.24,0.01,6.48,0.01,9.72c0.02,0,0.05,0,0.07,0c0,3.26-0.02,6.53,0.02,9.79
				c0.01,0.68-0.29,0.83-0.8,0.68c-0.45-0.13-0.9-0.1-1.35-0.13c-1.38-0.09-2.74,0.16-4.11,0.15c-2.03-0.01-4.06-0.21-6.1-0.17
				c-0.64,0.01-0.88,0.27-0.88,0.81c-0.01,1.91,0.01,3.82,0.01,5.74c0,0.49,0.26,0.79,0.73,0.79c0.82-0.01,1.61,0.19,2.42,0.18
				c3.08-0.02,6.17,0.04,9.25,0.01c0.64-0.01,0.74,0.22,0.74,0.78c0,3.44,0.03,6.88,0.13,10.32c0.11,4.05-0.01,8.1,0.15,12.15
				c0.11,2.9,0.02,5.81,0.03,8.72c0,0.94,0.14,1.06,1.05,1.06c2.09,0,4.17,0.03,6.25-0.14c0.54-0.04,0.76-0.25,0.79-0.79
				c0.04-0.82-0.16-1.62-0.15-2.42c0.07-6.52-0.18-13.04,0.13-19.56c0.11-2.44-0.02-4.88,0.13-7.32c0.17-2.78,0.11-5.58,0.13-8.37
				c0.05-7.34-0.06-14.68-0.07-22.02C287.15,23.25,286.92,23.13,286.4,23.1z M411.84,58.63c0.37,0.42,0.75,0.5,1.28,0.36
				c2.47-0.68,4.77-1.78,7.04-2.94c2.18-1.12,4.16-2.52,5.9-4.25c2.08-2.07,3.83-4.38,5.2-6.98c0.16-0.3,0.17-0.86,0.52-0.85
				c0.43,0.02,0.56,0.58,0.78,0.93c0.63,1.04,1.14,2.15,1.93,3.09c1.5,1.77,3.17,3.37,4.9,4.91c0.96,0.86,1.95,1.7,3.01,2.44
				c2.38,1.67,5.07,2.75,7.76,3.81c1.69,0.67,2.07,0.53,3.09-0.99c1.03-1.55,1.75-3.25,2.51-4.94c0.39-0.86,0.08-1.46-0.8-1.78
				c-0.33-0.12-0.67-0.23-1.01-0.31c-1.8-0.43-3.57-0.94-5.24-1.76c-3.85-1.89-6.81-4.7-9.03-8.36c-2.09-3.46-3.61-7.08-3.59-11.21
				c0-0.71,0.18-1.39,0.29-2.09c0.13-0.86-0.06-1.06-0.9-1.07c-1.1-0.01-2.19,0-3.29,0c0,0,0-0.01,0-0.01c-1.02,0-2.04,0-3.06,0
				c-1.06,0-1.14,0.06-1.13,1.12c0.01,1.52,0.06,3.06-0.19,4.56c-0.49,3.01-1.78,5.72-3.16,8.4c-0.87,1.69-2.1,3.09-3.36,4.5
				c-1.74,1.93-3.78,3.47-5.97,4.8c-1.76,1.07-3.8,1.32-5.81,1.57c-0.39,0.05-0.74,0.11-0.78,0.54c-0.04,0.4-0.09,0.86,0.06,1.21
				C409.57,55.22,410.45,57.07,411.84,58.63z M174.79,22.96c-1.5-0.05-2.99,0.24-4.49,0.16c-0.79-0.04-1.58,0.01-2.37-0.01
				c-0.54-0.02-0.8,0.15-0.79,0.73c0.05,2.16-0.13,4.33-0.12,6.49c0.01,5.58-0.1,11.15,0.09,16.73c0.15,4.26,0.03,8.53,0.04,12.8
				c0.01,6.73-0.06,13.45,0.15,20.17c0,1.12,0,2.24,0,3.37c0,0.99,0.01,1.03,1.03,1.05c2.09,0.03,4.18,0.01,6.27,0.03
				c0.66,0.01,0.79-0.34,0.8-0.91c0.02-8.48,0-16.97,0.12-25.45c0.15-11.11-0.06-22.22,0.19-33.33c0.01-0.23,0.04-0.45,0.07-0.68
				C175.94,23.11,175.82,22.99,174.79,22.96z M386.01,59.97c0.03-0.41-0.15-0.58-0.58-0.6c-0.94-0.03-1.89-0.02-2.8,0.2
				c-2.68,0.63-5.44,0.65-8.15,1.04c-1.25,0.18-2.53,0.17-3.77,0.36c-2.68,0.42-5.36,0.57-8.06,0.72c-0.53,0.03-0.7-0.12-0.69-0.67
				c0.06-2.31,0.1-4.62,0.11-6.93c0.02-4.06,0-8.11,0-12.17c0.02,0,0.04,0,0.06,0c0-4.08,0-8.16,0-12.24c0-1-0.04-1.05-1.08-1.06
				c-1.76-0.01-3.52,0.01-5.28,0c-1.69-0.01-1.45,0.28-1.55,1.5c-0.15,2.07-0.09,4.16-0.16,6.25c-0.08,2.5-0.19,5-0.17,7.5
				c0.02,1.77-0.06,3.53,0.1,5.3c0.13,1.46-0.1,2.92,0,4.4c0.16,2.3,0.05,4.62,0.18,6.94c0.13,2.41,0.13,4.83,0.18,7.24
				c0,0.08,0.01,0.15,0.01,0.23c0.07,0.93,0.29,1.18,1.24,1.17c2.82-0.05,5.64,0.12,8.47-0.12c2.14-0.18,4.28-0.34,6.42-0.46
				c1.82-0.1,3.63-0.31,5.43-0.5c2.93-0.32,5.83-0.89,8.79-0.92c1.1-0.01,1.42-0.47,1.46-1.57
				C386.24,63.7,385.87,61.85,386.01,59.97z M397.65,26.08c-0.03-0.74,0.03-1.46,0.16-2.19c0.1-0.57-0.11-0.83-0.74-0.8
				c-0.91,0.04-1.84,0.21-2.72,0.12c-1.22-0.11-2.44-0.02-3.65-0.12c-0.53-0.04-0.66,0.13-0.7,0.67c-0.09,1.57,0.1,3.12,0.07,4.69
				c-0.18,7.97-0.01,15.94-0.15,23.91c-0.13,7.28-0.19,14.57,0.1,21.85c0.05,1.32,0.01,2.65,0.01,3.98c0.03,0,0.06,0,0.09,0
				c0,1.83,0.02,3.67-0.01,5.5c-0.01,0.61,0.23,0.77,0.81,0.77c1.96,0.02,3.92-0.1,5.87,0.08c1.1,0.1,1.27-0.16,1.06-1.26
				c-0.05-0.27-0.03-0.56-0.03-0.84c-0.1-4.18,0.18-8.35,0.15-12.52C397.82,55.31,398.29,40.69,397.65,26.08z M343.17,23.1
				c-2.24,0.02-4.49,0-6.73,0c-0.25,0-0.45,0.01-0.45,0.35c0,0.68-0.16,1.35-0.16,2.04c0.02,5.97-0.02,11.94,0.02,17.91
				c0.06,8.84-0.18,17.69,0.13,26.53c0.09,2.52-0.03,5.03,0.14,7.55c0.12,1.78,0.02,3.57,0.03,5.36c0,1,0.25,1.29,1.24,1.31
				c1.7,0.03,3.4,0.04,5.09-0.02c0.56-0.02,1.05-0.21,1.02-1.06c-0.08-2.38-0.05-4.76-0.03-7.14c0.02-2.26,0.06-4.53,0.09-6.79
				c0.09-7.52,0.03-15.05,0.03-22.57c0.01,0,0.02,0,0.03,0c0-2.65,0-5.31,0-7.96c0-4.92,0-9.85,0-14.77
				C343.61,23.53,343.8,23.1,343.17,23.1z M141.63,50.65c2.42,0.75,4.89,0.73,7.36,0.54c1.03-0.08,2.06-0.25,3.06-0.57
				c3.46-1.14,5.96-3.37,7.48-6.66c0.78-1.68,1.17-3.5,1.16-5.36c0-1.03-0.21-2.06-0.29-3.09c-0.23-3.12-1.8-5.48-4.28-7.23
				c-2.88-2.02-6.14-2.92-10.24-2.9c-0.59-0.03-1.75,0.08-2.91,0.28c-2.17,0.37-4.06,1.42-5.92,2.49c-0.87,0.5-1.63,1.17-2.16,2.06
				c-1.35,2.25-2.26,4.64-2.5,7.29c-0.26,2.91,0.22,5.59,2.04,7.96C136.3,47.92,138.63,49.72,141.63,50.65z M141.28,34.51
				c1.61-1.46,3.37-2.32,5.48-2.36c2.47-0.05,4.41,1.11,5.91,3.05c2.85,3.7,0.3,8.75-4.01,9.37c-0.66,0.1-1.31,0.14-1.88,0.16
				c-2.85,0.04-4.96-1.01-6.39-3.47C139.44,39.63,139.37,36.24,141.28,34.51z M89.07,47.89c0.14-0.34,0.26-0.4,0.55-0.03
				c2.34,3.05,4.88,5.91,7.81,8.4c1.06,0.9,2.1,1.83,3.37,2.44c0.56,0.27,0.99,0.27,1.49-0.22c1.42-1.41,2.27-3.16,3.11-4.92
				c0.38-0.8,0.2-1.26-0.55-1.75c-0.68-0.44-1.43-0.78-2.08-1.26c-3.6-2.66-6.16-6.14-7.98-10.2c-1.22-2.74-1.47-5.66-1.6-8.6
				c-0.06-1.34-0.05-2.69,0.14-4.03c0.08-0.55-0.17-0.82-0.71-0.79c-1.45,0.06-2.88-0.3-4.1-0.15c-0.9,0-1.57,0.03-2.23-0.01
				c-0.56-0.03-0.76,0.17-0.76,0.74c-0.02,2.67,0.12,5.34-0.12,8.01c-0.09,0.98-0.22,1.95-0.4,2.91c-0.29,1.46-0.99,2.74-1.66,4.04
				c-1.03,2.01-1.95,4.08-3.55,5.72c-1.81,1.86-3.6,3.76-6.09,4.73c-0.72,0.28-0.91,0.71-0.87,1.39c0.02,0.36,0.06,0.71,0.19,1.04
				c0.69,1.71,1.86,3.07,3.24,4.25c0.68,0.58,1.45,0.55,2.19,0.09c1.84-1.13,3.55-2.42,5.09-3.94
				C85.88,53.48,87.82,50.93,89.07,47.89z M123.82,40.24c-1.88-0.02-3.76,0.08-5.64,0.16c-1.19,0.05-1.18,0.01-1.17-1.17
				c0.04-5.22-0.04-10.44,0.31-15.65c0.04-0.6-0.13-0.77-0.75-0.78c-2.34-0.06-4.67,0.23-7.01,0.18c-0.96-0.02-1.13,0.18-1.21,1.13
				c-0.06,0.74,0.16,1.46,0.16,2.2c-0.01,1.55-0.05,3.09-0.14,4.64c-0.13,2.2,0.13,4.41,0.02,6.62c-0.06,1.26,0.02,2.54,0.08,3.82
				c0.17,3.12,0.05,6.25,0.15,9.38c0.18,5.37,0.14,10.74,0.19,16.11c0,0.05,0,0.1,0,0.15c-0.05,0.61,0.22,0.91,0.85,0.88
				c0.89-0.04,1.77-0.08,2.66-0.11c1.19-0.04,2.38,0.08,3.57-0.15c0.66-0.12,1.08-0.36,1.02-1.12c-0.12-1.66-0.25-3.33-0.29-5
				c-0.05-2.17-0.01-4.33-0.01-6.5c0,0,0,0,0,0c0-2.24,0-4.49,0-6.73c0-0.34-0.11-0.69,0.51-0.67c2.19,0.08,4.38,0.07,6.57,0.12
				c0.52,0.01,0.72-0.18,0.72-0.72c0.01-2.01-0.11-4.02,0.11-6.03C124.6,40.41,124.39,40.25,123.82,40.24z M162.62,53.73
				c-2.05,0.01-4.08,0.36-6.12,0.42c-2.2,0.07-4.4,0.21-6.6,0.3c-2,0.08-4.01,0.22-6.02,0.2c-2.85-0.02-5.7,0.08-8.54,0.14
				c-0.17,0-0.35,0.06-0.52,0.08c-0.95,0.13-1.92,0.13-2.87,0.15c-0.66,0.01-1.36-0.03-2.04-0.08c-0.37-0.03-0.57,0.12-0.57,0.53
				c-0.01,1.9,0.01,3.8,0.27,5.7c0.12,0.88,0.56,1.1,1.3,1.09c1.81,0,3.62,0,5.43,0c1.81,0,3.62,0.01,5.43-0.01
				c0.5-0.01,0.75,0.11,0.74,0.68c-0.02,2.03,0.08,4.06,0.11,6.09c0.06,4.07,0.08,8.14,0.19,12.22c0.03,1.05,0.19,1.22,1.25,1.22
				c1.86,0,3.72,0,5.59,0c1.21,0,1.25-0.03,1.25-1.25c0-4.29,0.01-8.58,0-12.87c-0.01-2.21,0.01-4.42,0.16-6.63
				c0.02-0.24-0.07-0.53,0.35-0.52c2.2,0.01,4.38-0.28,6.57-0.45c1.63-0.12,3.27-0.17,4.85-0.63c0.59-0.17,1.04-0.49,1.28-1.2
				c0.36-1.06,0.08-2.13,0.3-3.15C164.79,54.03,164.15,53.73,162.62,53.73z M234.78,70.08c0-0.35-0.08-0.57-0.5-0.6
				c-0.93-0.07-1.86-0.15-2.81-0.16c-1.83-0.02-3.66-0.05-5.49-0.09c-5.2-0.11-10.4-0.08-15.6-0.06
				c-5.27,0.03-10.54,0.09-15.81,0.29c-1.48,0.06-2.96,0.01-4.44,0.01c0,0,0,0.01,0,0.01c-1.58,0-3.16,0-4.74,0
				c-0.44,0-0.93,0.04-0.95,0.62c-0.05,2.14-0.07,4.27-0.09,6.41c0,0.4,0.19,0.59,0.61,0.6c1.5,0.01,3,0.11,4.49,0.12
				c12.13,0.11,24.26-0.23,36.39,0.17c2.87,0.09,5.75,0.06,8.62-0.13c0.49-0.03,0.63-0.28,0.58-0.67c-0.17-1.38-0.23-2.77-0.27-4.15
				C234.77,71.67,234.78,70.88,234.78,70.08z M117.07,75.61c-7.57,0.05-15.14,0.1-22.72,0.15c-1.55,0.01-3.11,0.02-4.66,0.08
				c-0.41,0.02-0.48-0.14-0.48-0.46c-0.01-0.71-0.02-1.43-0.04-2.14c-0.09-2.95-0.2-5.9-0.26-8.85c-0.02-1.02,0.03-1.02-0.99-1.02
				c-2.01,0.01-4.01,0.28-6.02,0.14c-0.62-0.04-0.81,0.27-0.91,0.75c-0.05,0.22-0.03,0.46-0.03,0.68
				c0.01,5.79-0.05,11.58,0.14,17.37c0.04,1.3,0.08,1.38,1.38,1.39c3.36,0.03,6.73-0.02,10.09,0.05c3.24,0.07,6.47,0.01,9.71,0.01
				c5.24,0.03,10.48-0.09,15.71-0.36c0.54-0.03,0.61-0.23,0.61-0.68c-0.02-1.98-0.21-3.96-0.31-5.93
				C118.24,75.64,118.24,75.61,117.07,75.61z M456.71,69.34c-0.18,0-0.36,0-0.54,0c-12.73,0.02-25.45-0.07-38.18,0.14
				c-2.96,0.05-5.92,0.03-8.88,0c-0.57,0-1.09,0.22-1.66,0.17c-0.23-0.02-0.32,0.13-0.3,0.34c0.2,1.95-0.35,3.89-0.04,5.85
				c0.09,0.57,0.35,0.74,0.81,0.8c0.45,0.06,0.93,0.17,1.35,0.13c1.52-0.14,3.02-0.03,4.54,0.02c2.7,0.1,5.4,0.08,8.1,0.1
				c5.17,0.04,10.34,0.15,15.52-0.05c2.85-0.11,5.71-0.02,8.95-0.02c3.13-0.08,6.65,0.13,10.16-0.15c0.64-0.05,0.93-0.21,0.98-0.97
				c0.13-1.8,0.05-3.61,0.13-5.41C457.71,69.51,457.35,69.33,456.71,69.34z M706.71,15.42H479.18c-4.92,0-8.9,3.99-8.9,8.91v51.83
				c0,4.92,3.99,8.91,8.9,8.91h227.53c4.92,0,8.9-3.99,8.9-8.91V24.33C715.61,19.41,711.63,15.42,706.71,15.42z M598.3,34.64
				c0.02-0.54,0.43-0.52,0.78-0.45c1.82,0.38,3.68,0.28,5.52,0.45c0.53,0.05,0.74-0.12,0.8-0.71c0.24-2.67,0.08-5.34,0.12-8.01
				c0.01-0.51,0.07-0.67,0.66-0.65c1.55,0.07,3.1,0.27,4.65,0.18c0.59-0.03,0.8,0.19,0.77,0.8c-0.19,3.97,0.03,7.94,0.13,11.9
				c0.1,4.07,0,8.15,0.11,12.22c0.02,0.63-0.17,0.91-0.81,0.81c-1.89-0.29-3.8-0.05-5.7-0.25c-0.56-0.06-0.43-0.39-0.43-0.69
				c0.01-2.29,0.18-4.58,0.1-6.52c0-1.58-0.01-2.81,0.01-4.03c0.01-0.39-0.07-0.55-0.52-0.62c-1.62-0.26-3.25-0.1-4.87-0.11
				c-0.55,0-0.87-0.19-1.03-0.69C598.2,37.09,598.25,35.86,598.3,34.64z M535.76,34.44c0.02-1.81,0.06-3.62,0.06-5.43
				c0-0.24-0.16-0.58,0.36-0.54c4.41,0.28,8.82,0.2,13.23,0.43c4.36,0,8.72,0.01,13.08-0.01c0.86,0,1.72-0.13,2.59-0.1
				c0.53,0.01,0.78,0.15,0.75,0.75c-0.05,1.22-0.06,2.45-0.03,3.67c0.02,0.52-0.17,0.56-0.61,0.54c-6.94-0.33-13.87-0.14-20.81-0.11
				c-0.74,0-1.47,0.09-2.21,0.09c-0.4,0-0.57,0.15-0.57,0.52c-0.01,1.56-0.02,3.11-0.03,4.67c0,0.31,0.16,0.44,0.48,0.46
				c2.38,0.21,4.76,0.35,7.15,0.48c3.65,0.2,7.29,0.12,10.93,0.07c1.43-0.02,2.85-0.11,4.27-0.18c0.42-0.02,0.62,0.03,0.6,0.57
				c-0.05,1.37-0.02,2.75,0.02,4.13c0.01,0.43-0.11,0.55-0.55,0.54c-7.29-0.17-14.59,0.03-21.88-0.1c-0.71-0.01-0.96,0.21-0.97,0.88
				c-0.03,1.22-0.13,2.44-0.15,3.66c-0.03,1.47,0.26,1.79,1.76,1.87c1.63,0.08,3.26,0.15,4.89,0.15c5.54,0.02,11.07,0.01,16.61,0.01
				c1.4,0,1.4,0,1.44,1.38c0.02,0.86-0.01,1.72,0.06,2.58c0.05,0.66-0.19,0.82-0.81,0.81c-3.44-0.04-6.88-0.08-10.32-0.05
				c-5.15,0.05-10.31-0.06-15.46,0.13c-1.09,0.04-2.19,0.08-3.28,0.17c-0.41,0.03-0.52-0.07-0.53-0.48
				C535.71,48.82,535.67,41.63,535.76,34.44z M518.48,47.37c0.06-1.85,0.08-3.71,0.1-5.56c0.03-3.43-0.04-6.86,0.03-10.29
				c0.04-1.65,0.08-3.3,0.14-4.96c0.03-0.93,0.17-1.01,1.11-0.99c1.2,0.03,2.4,0.03,3.59,0.03c0.5,0,0.78,0.07,0.78,0.71
				c-0.04,3.84-0.02,7.68-0.02,11.52c0.02,0,0.04,0,0.06,0c0,3.47,0.01,6.93,0,10.4c-0.02,4.46-0.07,8.92-0.07,13.38
				c0,0.58-0.25,0.65-0.66,0.59c-1.47-0.2-2.94-0.13-4.42-0.12c-0.33,0-0.46-0.15-0.51-0.43c-0.02-0.1-0.02-0.2-0.02-0.3
				C518.43,56.68,518.32,52.02,518.48,47.37z M504.2,37.93c0.11-1.32,0.11-1.32,1.43-1.31c0.91,0.01,1.81,0.12,2.71,0.28
				c0.98,0.18,1.52-0.27,1.52-1.27c0-0.89,0-1.78,0-2.96c0.04-1.8-0.06-3.87-0.29-5.94c-0.06-0.54,0.02-0.87,0.81-0.72
				c1.09,0.21,2.23,0.15,3.35,0.2c0.13,0.01,0.25,0,0.38,0c1.01,0.03,1.29,0.24,1.07,1.16c-0.37,1.56-0.18,3.13-0.26,4.69
				c-0.33,6.92-0.11,13.85-0.1,20.78c0,1.44-0.07,2.87-0.04,4.31c0.02,1.17-0.28,2.32-0.12,3.49c0.05,0.34-0.14,0.38-0.4,0.38
				c-1.38-0.02-2.77-0.03-4.15-0.03c-0.44,0-0.41-0.23-0.37-0.54c0.1-0.8,0.27-1.6,0.27-2.4c0.02-4.95-0.01-9.89,0.02-14.84
				c0.01-0.86-0.33-1.12-1.12-1.24c-0.87-0.13-1.75-0.23-2.59-0.59C504.7,40.7,504.05,39.69,504.2,37.93z M493.01,53.2
				c-0.65,0.39-1.32,0.78-2.01,1.08c-1.01,0.44-2.05,0.53-2.94-0.27c-0.87-0.78-1.47-1.72-1.22-2.99c0.09-0.45,0.43-0.69,0.71-0.96
				c1.16-1.1,2.27-2.24,3.17-3.59c2.09-3.15,3.38-6.59,3.84-10.34c0.28-2.28,0.31-4.57,0.25-6.86c-0.02-0.67,0.18-0.9,0.9-0.97
				c1.4-0.13,2.78,0.11,4.17,0.05c0.57-0.02,0.69,0.23,0.67,0.73c-0.03,0.92-0.01,1.84-0.01,3.2c-0.03,1.77,0.15,3.97,0.29,6.18
				c0.18,2.89,1.46,5.27,3.17,7.49c0.88,1.14,1.78,2.27,2.65,3.41c0.42,0.55,0.62,1.08,0.09,1.75c-0.38,0.48-0.57,1.12-0.84,1.68
				c-0.64,1.33-1.91,1.61-3.08,0.67c-1.11-0.9-1.82-2.12-2.54-3.31c-0.51-0.84-0.9-1.76-1.33-2.65c-0.18-0.37-0.17-0.9-0.78-0.85
				c-0.62,0.05-1.25,0.14-1.51,0.81c-0.26,0.66-0.47,1.34-0.67,2.02C495.51,51.14,494.45,52.33,493.01,53.2z M524.87,73.85
				c-1.73-0.02-3.47-0.01-5.2-0.01c-5.73,0.19-11.46,0.18-17.19,0.14c-2.38-0.02-4.76-0.1-7.14,0.02c-0.48,0.02-0.63-0.05-0.56-0.62
				c0.11-0.96,0.08-1.93,0.07-2.9c-0.02-3.72,0.26-7.43,0.17-11.14c-0.02-0.95,0.04-1.05,0.99-0.96c1.52,0.15,3.04,0.13,4.56,0.13
				c0.56,0,0.81,0.28,0.73,0.81c-0.34,2.41,0.35,4.79,0.17,7.2c-0.03,0.42,0.11,0.85,0.17,1.27c0.07,0.48,0.49,0.62,0.96,0.68
				c2.39,0.27,4.79,0.02,7.18,0.17c2.87,0.18,5.75,0.01,8.62,0.16c2.1,0.11,4.21,0.19,6.32,0.26c0.62,0.02,0.79,0.28,0.78,0.84
				c-0.02,1.1-0.02,2.19,0.02,3.29C525.54,73.7,525.36,73.85,524.87,73.85z M570.12,69.24c-0.76-0.04-1.52-0.11-2.28-0.12
				c-4.48-0.08-8.96,0.05-13.45,0.1c-5.74,0.07-11.48,0.03-17.22,0.01c-1.45,0-2.91-0.19-4.36-0.12c-0.48,0.02-0.96,0.08-1.44,0.13
				c-0.33,0.03-0.44-0.09-0.43-0.43c0.03-1.48,0.05-2.96,0.05-4.44c0-0.43,0.26-0.43,0.55-0.42c1.25,0.02,2.5,0.06,3.75,0.07
				c3.11,0.01,6.22,0,9.34,0c0-0.02,0-0.05,0-0.07c4.21,0,8.42,0.05,12.63-0.02c2.06-0.03,4.14,0.07,6.19-0.1
				c1.83-0.16,3.66,0.03,5.48-0.25c0.2-0.03,0.41,0,0.61-0.01c0.61-0.03,0.89,0.17,0.86,0.88c-0.06,1.42,0.05,2.85,0.23,4.27
				C570.66,69.16,570.49,69.26,570.12,69.24z M577.1,49.67c-0.54-0.01-0.67-0.14-0.67-0.67c0.03-3.85,0.03-7.7,0-11.56
				c0-0.73,0.16-1.03,0.97-1.02c1.65,0.03,3.31,0.04,4.95-0.13c2.01-0.21,4.02-0.03,6.02-0.18c0.97-0.07,1.22-0.3,1.23-1.24
				c0-0.23-0.01-0.46,0.01-0.69c0.08-1.47-0.08-1.56-1.51-1.68c-2.88-0.25-5.75-0.06-8.63-0.14c-0.85-0.02-1.67,0.16-2.51,0.19
				c-0.35,0.02-0.45-0.05-0.45-0.39c0-1.5,0-2.99-0.03-4.49c-0.01-0.46,0.26-0.33,0.5-0.32c2.22,0.06,4.44,0.12,6.65,0.17
				c3.62,0.08,7.24-0.01,10.86-0.14c0.35-0.01,0.71,0,1.08,0c-0.38,2.48-0.2,4.95-0.25,7.41c-0.04,1.73,0.15,3.45,0.05,5.18
				c-0.03,0.5-0.15,0.67-0.63,0.66c-0.59-0.02-1.17,0-1.76,0c-2.98,0-5.97,0-8.95-0.01c-1.42,0-1.42,0-1.45,1.47
				c-0.04,2.02-0.04,2.03,1.95,2.03c3.09,0,6.17,0.02,9.26-0.01c1.44-0.01,2.89-0.08,4.32-0.29c1.09-0.17,1.26,0.03,1.31,1.14
				c0.05,0.97-0.17,1.92-0.19,2.88c-0.02,0.86-0.35,1.1-1.21,1.1c-3.1,0.01-6.18,0.42-9.28,0.45c-1.13,0.01-2.28,0.11-3.42,0.1
				C582.59,49.48,579.85,49.74,577.1,49.67z M611.85,74.38c-2.68-0.16-5.35-0.07-8.03-0.08c-2.12-0.01-4.23,0-6.35,0
				c0,0.05,0,0.1,0,0.15c-4.59,0-9.18,0.01-13.77-0.01c-0.52,0-1.22,0.33-1.52-0.05c-0.26-0.34-0.07-1.02-0.07-1.55
				c0-3.47,0.02-6.94-0.01-10.41c0-0.55,0.12-0.75,0.71-0.73c5.04,0.22,10.09,0.07,15.12,0.22c2.23,0.07,4.43-0.03,6.65-0.04
				c0.42,0,0.58-0.14,0.61-0.56c0.06-0.94-0.08-1.87-0.14-2.81c-0.01-0.25-0.17-0.26-0.36-0.29c-0.6-0.07-1.2-0.16-1.81-0.16
				c-4.26,0.02-8.52,0.02-12.78,0.01c-2.57-0.01-5.13,0.24-7.71,0.17c-0.51-0.01-0.66-0.15-0.64-0.64c0.06-1.2,0.09-2.39,0.13-3.59
				c0.02-0.74,0.35-0.84,1.07-0.74c2.07,0.27,4.16,0.17,6.24,0.19c2.99,0.02,5.97,0.1,8.96,0.1c2.94,0,5.88-0.01,8.81-0.14
				c1.24-0.06,2.48-0.09,3.73-0.13c0.48-0.02,0.71,0.13,0.67,0.65c-0.33,3.79-0.08,7.59-0.14,11.38c-0.01,0.52-0.07,0.8-0.68,0.77
				c-0.23-0.01-0.49,0.07-0.75,0.08c-6.57,0.22-13.14,0.15-19.72,0.16c-1.44,0-1.7,0.27-1.59,1.72c0.1,1.46,0.16,1.52,1.69,1.59
				c0.23,0.01,0.46,0.02,0.69,0.03c6.85,0.14,13.71,0.18,20.57,0.15c1.06,0,1.14,0.08,1.16,1.18c0.01,0.87-0.03,1.74,0.02,2.6
				C612.64,74.21,612.47,74.42,611.85,74.38z M645.48,59.66c-0.34,1.06-0.65,2.11-1.46,2.96c-1.04,1.11-1.81,0.97-3.05,0.24
				c-1.17-0.7-1.98-1.81-2.77-2.9c-1.21-1.65-2.6-3.18-3.63-4.96c-0.5-0.86-0.93-1.75-1.2-2.71c-0.13-0.46-0.39-0.62-0.82-0.62
				c-0.43,0-0.77,0.07-0.95,0.57c-0.7,2.01-1.51,3.96-2.71,5.75c-1.68,2.52-3.56,4.83-6.09,6.56c-0.65,0.44-0.99-0.06-1.32-0.36
				c-1.16-1.04-2.05-2.32-2.96-3.58c-0.56-0.78-0.41-1.25,0.37-1.77c0.94-0.63,1.93-1.19,2.8-1.93c1.36-1.15,2.24-2.64,3.11-4.15
				c1.14-1.96,1.8-4.09,2.44-6.24c0.79-2.67,1.07-5.42,1.39-8.16c0.37-3.1,0.69-6.2,0.57-9.33c-0.01-0.34,0.08-0.47,0.42-0.44
				c0.3,0.03,0.61,0.04,0.92,0.06c0,0.05,0,0.1,0,0.15c1.27,0,2.54,0,3.82,0c0.63,0,0.9,0.19,0.91,0.93
				c0.05,2.97,0.21,5.92,0.55,8.88c0.33,2.88,0.85,5.7,1.76,8.45c0.73,2.2,1.62,4.33,2.91,6.24c1.1,1.63,2.53,2.96,4.17,4.07
				C645.73,58.1,645.86,58.46,645.48,59.66z M654.41,74.96c-1.88,0.02-3.76,0.08-5.64,0.17c-0.38,0.02-0.28-0.2-0.28-0.35
				c0-0.76,0.03-1.53,0.03-2.29c0.01-5.46-0.08-10.92,0.05-16.37c0.14-5.8,0.36-11.61,0.28-15.93c0-4.92-0.01-8.36,0-11.81
				c0-0.84,0.05-1.68,0.09-2.52c0.01-0.36,0.08-0.65,0.57-0.61c1.62,0.14,3.26-0.07,4.88,0.17c0.39,0.06,0.49,0.15,0.49,0.55
				c-0.02,4.84-0.02,9.69-0.02,14.53c-0.01,9.97-0.03,19.93,0.01,29.9c0.01,1.31,0.1,2.63,0.14,3.95
				C655.01,74.81,654.89,74.95,654.41,74.96z M688.82,58.04c-0.02,1.42-0.07,2.84-0.08,4.26c0,0.36-0.09,0.46-0.47,0.46
				c-2.75,0.05-5.51,0.08-8.26,0.2c-4.79,0.21-9.57,0.44-14.36,0.73c-0.78,0.05-0.64-0.38-0.64-0.78c0-3.83,0.01-7.65,0.01-11.48
				c0-7.39,0-14.78,0-22.18c2.97,0.06,6.1,0.13,9.24,0.18c3.08,0.05,6.17,0.09,9.26,0.12c0.91,0.01,1.82,0,2.73-0.04
				c0.42-0.02,0.53,0.08,0.61,0.52c0.23,1.37,0.05,2.74,0.15,4.1c0.04,0.47-0.09,0.62-0.58,0.59c-2.91-0.16-5.81,0.01-8.72,0.08
				c-2.01,0.05-4.02,0.14-6.04,0.2c-0.42,0.01-0.61,0.15-0.61,0.58c0.04,2.4,0.09,4.79,0.12,7.19c0.01,0.5,0.18,0.69,0.72,0.7
				c4.06,0.12,8.11-0.1,12.16-0.21c0.6-0.02,0.82-0.04,0.69,0.75c-0.21,1.27-0.16,2.59-0.18,3.89c0,0.4-0.1,0.54-0.5,0.51
				c-4.15-0.32-8.3,0.19-12.45-0.05c-0.42-0.02-0.38,0.21-0.4,0.46c-0.14,1.4-0.13,2.81-0.06,4.2c0.07,1.35,0.02,2.7,0.09,4.05
				c0.03,0.54,0.22,0.78,0.78,0.77c1.42-0.01,2.85,0.11,4.26,0.02c2.42-0.16,4.84-0.25,7.26-0.53c1.4-0.16,2.82-0.24,4.23-0.34
				C688.78,56.93,688.83,57.02,688.82,58.04z M698.22,74.95c-1.67,0.09-3.34,0.3-5.02,0.3c-0.49,0-0.59-0.12-0.58-0.58
				c0.02-2.86,0.01-5.71,0.01-8.57c0-4.11,0.01-8.21,0-12.32c-0.01-8.84-0.04-17.68-0.05-26.51c0-1.94-0.14-1.72,1.65-1.67
				c1.25,0.04,2.5,0.03,3.75,0c0.58-0.02,0.79,0.12,0.81,0.76c0.19,6.44,0.12,12.89,0.15,21.23c0,3.03-0.08,7.96,0.03,12.88
				c0.07,2.94,0.08,5.88,0.1,8.81c0.01,1.59-0.03,3.18,0.02,4.77C699.12,74.73,698.84,74.91,698.22,74.95z"/>
		</g>
	</g>
</g>
</svg>
