<?xml version="1.0" encoding="utf-8"?>
<!-- Generator: Adobe Illustrator 27.9.6, SVG Export Plug-In . SVG Version: 9.03 Build 54986)  -->
<svg version="1.1" id="레이어_1" xmlns="http://www.w3.org/2000/svg" xmlns:xlink="http://www.w3.org/1999/xlink" x="0px"
	 y="0px" viewBox="0 0 493.87 58.57" style="enable-background:new 0 0 493.87 58.57;" xml:space="preserve">
<style type="text/css">
	.st0{fill:none;}
	.st1{fill:#FFFFFF;}
</style>
<rect class="st0" width="493.87" height="58.57"/>
<g>
	<path class="st1" d="M8.88,34.67c0.08-0.02,0.11-0.08,0.1-0.15c-0.07-0.42,0.16-0.47,0.51-0.47c3.2,0.01,6.39,0,9.59,0
		c1.29,0,2.57,0,3.86,0c6.65,0,13.3,0.01,19.95-0.01c0.53,0,0.69,0.24,0.7,0.65c0.02,1.26,0.13,2.51,0.21,3.77
		c0.05,0.79,0.01,0.79-0.75,0.79c-1.04,0-2.09-0.07-3.13,0.02c-2.73,0.23-5.46,0.24-8.2,0.29c-0.66,0.01-1.32,0.03-1.98-0.02
		c-0.44-0.03-0.53,0.16-0.54,0.54c-0.11,3.71-0.11,7.42-0.1,11.14c0,0.31,0.06,0.61,0.1,0.92c0.03,0.25-0.03,0.38-0.33,0.38
		c-1.51,0.01-3.02,0.05-4.53,0.05c-0.62,0-0.72-0.09-0.73-0.72c-0.02-1.28-0.01-2.57-0.03-3.86c-0.02-1.28,0-2.57-0.12-3.84
		c-0.11-1.14-0.05-2.28-0.08-3.42c-0.01-0.38-0.17-0.74-0.11-1.13c0.03-0.18-0.14-0.15-0.25-0.18c-0.38-0.14-0.75,0.03-1.12,0.05
		c-2.93,0.13-5.87,0.15-8.8,0.08c-1.11-0.02-2.24-0.05-3.35-0.19c-0.46-0.06-0.72-0.3-0.74-0.77C9,37.92,9,37.26,8.98,36.6
		c0-0.13,0.07-0.28-0.1-0.36C8.88,35.72,8.88,35.19,8.88,34.67z"/>
	<path class="st1" d="M207.6,34.06c-0.11,0.61-0.22,1.12-0.3,1.63c-0.16,1.06-0.67,1.98-1.21,2.88c-0.77,1.29-1.4,2.66-2.31,3.86
		c-0.39,0.51-0.78,1.01-1.2,1.49c-0.4,0.44-0.69,0.47-1.18,0.13c-1.1-0.77-2.02-1.74-2.87-2.77c-0.23-0.28-0.11-0.59,0.06-0.87
		c0.44-0.72,1.13-1.21,1.66-1.85c1.1-1.34,2.04-2.77,2.76-4.36c0.96-2.12,1.7-4.3,2.18-6.57c0.16-0.75,0.25-1.52,0.3-2.29
		c0.1-1.66,0.08-3.32,0.1-4.99c0.01-0.4-0.08-0.54-0.51-0.53c-1.23,0.04-2.47,0.04-3.7,0.03c-0.48,0-0.97-0.07-1.45-0.09
		c-0.3-0.01-0.29-0.22-0.27-0.4c0.18-1.38,0.06-2.77,0.07-4.15c0-0.52,0.23-0.64,0.67-0.66c4.22-0.14,8.44-0.16,12.66-0.04
		c0.81,0.02,1.62,0.08,2.43,0.16c0.43,0.04,0.7,0.31,0.71,0.75c0.02,1.11,0.02,2.22,0,3.34c-0.01,0.56-0.42,0.83-1.09,0.9
		c-1.28,0.15-2.56,0.02-3.83,0.18c-0.36,0.04-0.51,0.18-0.49,0.51c0.09,1.15,0.18,2.3,0.28,3.44c0.06,0.69,0.08,1.38,0.11,2.06
		c0.18,3.6,1.35,6.84,3.37,9.78c0.82,1.19,1.81,2.26,2.84,3.3c0.25,0.25,0.53,0.47,0.92,0.64c0-0.24-0.01-0.43,0-0.61
		c0.12-2.24,0.12-4.47,0.1-6.71c-0.01-0.68-0.18-1.36-0.06-2.05c0.04-0.25-0.13-0.33-0.39-0.33c-1.05,0-2.11,0.01-3.16-0.09
		c-0.71-0.07-0.87-0.19-0.87-0.9c0-1.04,0.01-2.09-0.01-3.13c-0.01-0.48,0.21-0.68,0.65-0.65c1.08,0.08,2.17-0.05,3.25,0
		c0.42,0.02,0.62-0.12,0.6-0.6c-0.03-1.11,0.02-2.22-0.02-3.34c-0.05-1.51,0.07-3.01,0.13-4.52c0.06-1.52,0.18-3.03,0.19-4.55
		c0.01-0.81,0.08-0.87,0.89-0.87c1.08,0,2.16,0.02,3.23-0.01c0.5-0.01,0.66,0.19,0.66,0.68c-0.01,4.54-0.01,9.07-0.01,13.61
		c0,1.26,0,2.52,0,3.78c0,2.51,0.02,5.02-0.02,7.52c-0.03,1.75-0.1,3.49-0.08,5.24c0.03,1.95,0.04,3.89,0.12,5.84
		c0.03,0.62,0.06,1.24,0.09,1.86c0.02,0.48-0.05,0.77-0.65,0.81c-1.26,0.09-2.51,0.14-3.77-0.02c-0.26-0.03-0.37-0.11-0.38-0.38
		c-0.01-0.18-0.1-0.36-0.1-0.56c0.07-2.32-0.14-4.64-0.12-6.97c0.01-0.72-0.14-1.43-0.21-2.11c-1.44,0.14-2,1.38-2.84,2.27
		c-0.74,0.78-1.31,0.83-2.03,0.08c-0.97-1.01-1.73-2.18-2.57-3.29c-1.12-1.48-1.7-3.26-2.75-4.77
		C208.04,34.57,207.84,34.36,207.6,34.06z"/>
	<path class="st1" d="M140.39,35.9c-4.03,0-8.06,0.04-12.1-0.02c-1.81-0.03-1.63-0.33-1.59-1.91c0.01-0.37-0.06-0.72-0.06-1.08
		c0-3.77,0.04-7.54-0.03-11.31c-0.05-2.51-0.07-5.03-0.1-7.54c-0.01-0.52,0.17-0.63,0.65-0.64c1.54-0.03,3.08,0.18,4.62,0.12
		c0.39-0.02,0.47,0.16,0.46,0.5c-0.07,1.91,0.06,3.82-0.1,5.73c-0.03,0.33,0.16,0.35,0.42,0.35c1.95-0.02,3.89-0.02,5.84-0.05
		c2.85-0.04,5.7-0.08,8.55-0.14c0.37-0.01,0.85,0.3,1.07-0.05c0.16-0.25-0.01-0.7-0.02-1.06c-0.01-1.6,0.01-3.2-0.01-4.79
		c-0.01-0.44,0.12-0.64,0.59-0.6c0.93,0.09,1.87-0.17,2.8-0.09c0.71,0.06,1.41,0.09,2.12,0.1c0.27,0,0.42,0.1,0.41,0.44
		c-0.02,2.07,0.05,4.14-0.04,6.2c-0.11,2.53-0.01,5.06-0.08,7.59c-0.04,1.26-0.02,2.53,0.04,3.79c0.06,1.25-0.13,2.49-0.1,3.74
		c0.01,0.31-0.12,0.47-0.42,0.55c-0.36,0.1-0.72,0.09-1.08,0.09c-2.64,0.01-5.28,0-7.93,0.01c-1.3,0-2.61,0-3.91,0
		C140.39,35.84,140.39,35.87,140.39,35.9z M140.13,30.71C140.13,30.71,140.13,30.71,140.13,30.71c2.51,0,5.03-0.01,7.54,0
		c0.23,0,0.34-0.06,0.35-0.33c0.01-1.65-0.09-3.3,0.1-4.95c0.04-0.36-0.12-0.44-0.45-0.42c-0.66,0.03-1.32,0.04-1.98,0.03
		c-4.22-0.03-8.43-0.05-12.65-0.09c-0.35,0-0.53,0.05-0.54,0.46c-0.04,1.61-0.11,3.22-0.19,4.83c-0.02,0.39,0.09,0.49,0.48,0.49
		C135.23,30.7,137.68,30.71,140.13,30.71z"/>
	<path class="st1" d="M25.86,12.37c3.74,0,7.47,0,11.21,0c0.57,0,1.13,0.13,1.71,0.1c0.43-0.02,0.65,0.24,0.65,0.66
		c0,1.37,0,2.74,0.01,4.12c0,0.17,0,0.3-0.24,0.31c-0.88,0.06-1.75,0.19-2.62,0.19c-4.57,0.02-9.14,0.02-13.71,0
		c-0.98,0-1.97-0.07-2.95-0.13c-0.37-0.03-0.5,0.11-0.51,0.45c-0.04,2.26-0.08,4.52-0.14,6.78c-0.01,0.31,0.13,0.33,0.37,0.32
		c3.63-0.03,7.26-0.06,10.89-0.08c2.45-0.01,4.9-0.11,7.34-0.02c0.47,0.02,0.93,0.08,1.4,0.11c0.27,0.02,0.35,0.15,0.35,0.4
		c0,1.46,0,2.92,0.02,4.38c0,0.46-0.31,0.4-0.61,0.41c-4.56,0.25-9.13-0.02-13.69,0c-2.99,0.01-5.98,0.01-8.97-0.02
		c-0.84-0.01-1.68-0.14-2.52-0.19c-0.34-0.02-0.26-0.26-0.27-0.45c-0.12-1.58-0.06-3.16-0.11-4.74c-0.13-3.75-0.09-7.49-0.1-11.24
		c0-0.07,0-0.14,0-0.21c0.02-1.16,0.1-1.16,1.18-1.17C18.32,12.34,22.09,12.37,25.86,12.37C25.86,12.37,25.86,12.37,25.86,12.37z"/>
	<path class="st1" d="M168.13,22.9c-0.15,4.62-0.1,9.24-0.1,13.85c0,0.75,0.01,0.77,0.74,0.74c1.86-0.08,3.73-0.14,5.59-0.23
		c1.35-0.06,2.7-0.25,4.06-0.3c1.04-0.04,2.06-0.34,3.12-0.31c0.37,0.01,0.47,0.11,0.46,0.47c-0.02,1.14,0,2.27-0.01,3.41
		c0,0.77-0.29,1.06-1.06,1.12c-1.73,0.13-3.46,0.26-5.19,0.43c-1.13,0.11-2.27,0.18-3.4,0.2c-1.99,0.03-3.97,0.19-5.96,0.24
		c-1,0.03-2,0.04-3-0.03c-0.27-0.02-0.45-0.15-0.44-0.41c0.01-0.34-0.12-0.65-0.11-0.97c0.02-1.93-0.05-3.84-0.1-5.77
		c-0.06-2.13-0.01-4.27-0.14-6.39c-0.11-1.77-0.05-3.53-0.08-5.3c-0.03-1.6-0.04-3.21,0.01-4.81c0.05-1.35,0.23-2.68,0.2-4.03
		c-0.01-0.32,0.18-0.44,0.49-0.47c2.12-0.21,4.26-0.21,6.39-0.21c3.16,0,6.32,0,9.48,0.01c0.97,0,1.05,0.08,1.04,1.02
		c-0.01,1.19,0.06,2.38,0.19,3.57c0.07,0.67-0.01,0.8-0.63,0.69c-0.59-0.1-1.16,0-1.74,0c-3.14,0.01-6.29,0-9.43-0.03
		c-0.36,0-0.39,0.13-0.39,0.42C168.13,20.85,168.13,21.87,168.13,22.9z"/>
	<path class="st1" d="M187.22,17.93c0-2.2,0.01-4.41-0.01-6.62c0-0.41,0.11-0.53,0.52-0.53c1.07,0,2.14,0.16,3.21,0.13
		c0.54-0.02,1.06-0.16,1.6-0.12c0.35,0.02,0.51,0.1,0.51,0.51c0.01,5,0.08,10,0.05,15c-0.01,1.9,0.03,3.81-0.09,5.7
		c-0.1,1.67-0.01,3.33-0.09,4.99c-0.21,4.44-0.04,8.88-0.09,13.33c-0.01,0.55,0.13,1.09,0.1,1.65c-0.02,0.37-0.17,0.51-0.54,0.54
		c-1.42,0.11-2.84,0.09-4.26,0.09c-0.62,0-0.71-0.09-0.72-0.72c-0.01-1.98,0.06-3.96-0.02-5.94c-0.11-2.76-0.03-5.52-0.1-8.28
		c-0.06-2.34-0.09-4.69-0.09-7.03c0-0.38-0.07-0.54-0.5-0.53c-2.1,0.02-4.2-0.02-6.31-0.01c-0.56,0-1.1-0.14-1.65-0.13
		c-0.32,0.01-0.49-0.2-0.49-0.53c0-1.3-0.02-2.61-0.01-3.91c0-0.37,0.16-0.54,0.6-0.55c1.39-0.03,2.77,0.11,4.15,0.12
		c0.93,0,1.86-0.17,2.8-0.1c0.31,0.02,0.61,0.01,0.92,0.09c0.35,0.1,0.55,0,0.55-0.47c-0.03-2.22-0.01-4.45-0.01-6.67
		C187.26,17.93,187.24,17.93,187.22,17.93z"/>
	<path class="st1" d="M291.87,13.2c0.75,0,1.49,0,2.24,0c0.57,0,0.7,0.14,0.61,0.73c-0.07,0.48-0.19,0.94-0.2,1.42
		c-0.01,2.81,1.02,5.28,2.45,7.63c1.51,2.49,3.53,4.41,6.15,5.7c1.14,0.56,2.35,0.91,3.57,1.2c0.23,0.06,0.46,0.13,0.69,0.21
		c0.6,0.22,0.81,0.63,0.55,1.22c-0.52,1.15-1.01,2.31-1.71,3.36c-0.69,1.04-0.95,1.13-2.1,0.67c-1.83-0.72-3.66-1.46-5.29-2.6
		c-0.72-0.5-1.39-1.08-2.05-1.66c-1.18-1.05-2.32-2.14-3.34-3.34c-0.54-0.64-0.88-1.4-1.32-2.1c-0.15-0.24-0.24-0.62-0.53-0.63
		c-0.24-0.01-0.24,0.38-0.35,0.58c-0.93,1.77-2.13,3.35-3.54,4.75c-1.18,1.18-2.53,2.14-4.02,2.9c-1.55,0.79-3.11,1.54-4.79,2.01
		c-0.36,0.1-0.62,0.04-0.87-0.24c-0.95-1.06-1.55-2.33-2.1-3.62c-0.1-0.24-0.07-0.55-0.04-0.82c0.03-0.3,0.27-0.34,0.53-0.37
		c1.37-0.17,2.76-0.34,3.96-1.07c1.49-0.91,2.89-1.95,4.07-3.27c0.86-0.96,1.7-1.91,2.29-3.06c0.94-1.83,1.82-3.68,2.15-5.73
		c0.17-1.02,0.14-2.07,0.13-3.11c-0.01-0.72,0.05-0.76,0.77-0.76C290.48,13.2,291.18,13.2,291.87,13.2
		C291.87,13.2,291.87,13.2,291.87,13.2z"/>
	<path class="st1" d="M111.41,49.58c-0.14-4.58-0.1-9.16-0.1-13.75c0-2.91,0.08-5.82-0.03-8.72c-0.13-3.8-0.06-7.6-0.06-11.4
		c0-1.47,0.12-2.94,0.08-4.42c-0.01-0.4,0.17-0.51,0.54-0.5c0.54,0.02,1.08-0.02,1.62,0.01c1.02,0.05,2.04-0.15,3.06-0.11
		c0.7,0.02,0.78,0.1,0.67,0.78c-0.02,0.15-0.05,0.31-0.05,0.46c-0.17,7.57-0.03,15.14-0.13,22.71c-0.08,5.78-0.07,11.56-0.08,17.34
		c0,0.39-0.09,0.63-0.54,0.62c-1.42-0.01-2.85,0-4.27-0.02c-0.69-0.01-0.7-0.04-0.7-0.72C111.4,51.11,111.41,50.35,111.41,49.58z"/>
	<path class="st1" d="M244.12,23.62c0,2.76,0.01,5.53,0,8.29c-0.01,1.58-0.03,3.15-0.07,4.73c-0.01,0.38,0.11,0.48,0.47,0.46
		c1.84-0.1,3.67-0.2,5.49-0.49c0.84-0.13,1.71-0.12,2.57-0.24c1.85-0.26,3.72-0.27,5.55-0.71c0.62-0.15,1.26-0.16,1.91-0.13
		c0.3,0.01,0.42,0.13,0.4,0.41c-0.09,1.27,0.15,2.54,0.11,3.81c-0.02,0.76-0.24,1.07-0.99,1.07c-2.02,0.02-3.99,0.41-5.99,0.63
		c-1.23,0.13-2.46,0.27-3.7,0.34c-1.46,0.08-2.92,0.19-4.38,0.31c-1.92,0.16-3.85,0.05-5.77,0.08c-0.65,0.01-0.79-0.16-0.84-0.8
		c0-0.05-0.01-0.1-0.01-0.15c-0.04-1.65-0.03-3.29-0.12-4.94c-0.09-1.58-0.01-3.16-0.12-4.73c-0.07-1.01,0.09-2.01,0-3
		c-0.1-1.21-0.05-2.41-0.07-3.61c-0.02-1.7,0.06-3.41,0.11-5.11c0.04-1.42,0-2.84,0.11-4.26c0.06-0.83-0.1-1.03,1.05-1.02
		c1.2,0.01,2.4,0,3.6,0c0.71,0,0.74,0.03,0.73,0.72c0,2.78,0,5.56,0,8.34C244.14,23.62,244.13,23.62,244.12,23.62z"/>
	<path class="st1" d="M263.15,48.33c0-0.9,0.03-1.81-0.01-2.71c-0.2-4.96-0.16-9.93-0.07-14.89c0.1-5.43-0.01-10.86,0.1-16.29
		c0.02-1.07-0.11-2.13-0.05-3.2c0.02-0.37,0.11-0.48,0.47-0.46c0.83,0.06,1.65,0,2.49,0.08c0.6,0.06,1.24-0.06,1.86-0.08
		c0.43-0.02,0.57,0.16,0.5,0.54c-0.08,0.5-0.13,0.99-0.11,1.5c0.43,9.96,0.12,19.92,0.21,29.88c0.02,2.84-0.17,5.69-0.1,8.53
		c0,0.19-0.01,0.39,0.02,0.57c0.14,0.75,0.03,0.93-0.72,0.86c-1.33-0.12-2.67-0.04-4-0.05c-0.4-0.01-0.56-0.11-0.55-0.53
		c0.02-1.25,0.01-2.5,0.01-3.75C263.19,48.33,263.17,48.33,263.15,48.33z"/>
	<path class="st1" d="M231.52,26.78c0,5.13,0.04,10.25-0.02,15.38c-0.02,1.54-0.04,3.08-0.06,4.63c-0.02,1.62-0.03,3.24,0.02,4.86
		c0.02,0.58-0.31,0.71-0.7,0.72c-1.16,0.04-2.31,0.03-3.47,0.01c-0.68-0.01-0.84-0.21-0.84-0.89c0-1.22,0.06-2.44-0.02-3.65
		c-0.11-1.71-0.03-3.43-0.09-5.15c-0.22-6.03-0.05-12.05-0.09-18.08c-0.03-4.06,0-8.13-0.01-12.2c0-0.47,0.11-0.93,0.11-1.39
		c0-0.23,0.14-0.24,0.31-0.24c1.53,0,3.06,0.01,4.59,0c0.43,0,0.3,0.29,0.3,0.5c0,3.35,0,6.71,0,10.06c0,1.81,0,3.62,0,5.42
		C231.53,26.78,231.52,26.78,231.52,26.78z"/>
	<path class="st1" d="M96.8,12.35c2.79-0.01,5.02,0.6,6.98,1.98c1.69,1.19,2.76,2.8,2.92,4.92c0.05,0.7,0.19,1.4,0.19,2.1
		c0.01,1.27-0.26,2.51-0.79,3.65c-1.03,2.24-2.74,3.76-5.09,4.54c-0.68,0.22-1.38,0.34-2.08,0.39c-1.68,0.13-3.36,0.14-5.01-0.37
		c-2.04-0.64-3.63-1.86-4.91-3.54c-1.24-1.62-1.57-3.44-1.39-5.42c0.16-1.8,0.78-3.43,1.7-4.97c0.36-0.6,0.88-1.06,1.47-1.4
		c1.27-0.73,2.56-1.44,4.04-1.69C95.61,12.41,96.4,12.33,96.8,12.35z M97.43,25.53c0.39-0.02,0.83-0.05,1.28-0.11
		c2.93-0.42,4.67-3.87,2.73-6.39c-1.02-1.32-2.34-2.11-4.03-2.08c-1.43,0.03-2.64,0.62-3.73,1.61c-1.3,1.18-1.26,3.49-0.61,4.6
		C94.05,24.84,95.48,25.56,97.43,25.53z"/>
	<path class="st1" d="M57.74,13.3c0.83-0.1,1.81,0.15,2.79,0.11c0.37-0.02,0.54,0.16,0.49,0.54c-0.13,0.91-0.14,1.83-0.1,2.75
		c0.09,2,0.25,4,1.09,5.86c1.24,2.77,2.98,5.14,5.43,6.95c0.44,0.33,0.95,0.56,1.41,0.86c0.51,0.33,0.63,0.65,0.38,1.19
		c-0.57,1.2-1.15,2.39-2.12,3.35c-0.34,0.34-0.64,0.33-1.02,0.15c-0.87-0.42-1.58-1.05-2.3-1.67c-2-1.7-3.73-3.65-5.32-5.73
		c-0.2-0.25-0.28-0.21-0.37,0.02c-0.85,2.07-2.17,3.81-3.75,5.37c-1.05,1.04-2.21,1.92-3.47,2.68c-0.5,0.31-1.03,0.33-1.49-0.06
		c-0.94-0.81-1.73-1.73-2.21-2.9c-0.09-0.23-0.12-0.47-0.13-0.71c-0.03-0.46,0.1-0.75,0.59-0.95c1.69-0.66,2.92-1.95,4.15-3.22
		c1.09-1.12,1.72-2.53,2.42-3.9c0.46-0.89,0.94-1.76,1.13-2.76c0.13-0.66,0.22-1.32,0.28-1.99c0.16-1.82,0.07-3.64,0.08-5.46
		c0-0.39,0.13-0.53,0.52-0.5C56.67,13.32,57.12,13.3,57.74,13.3z"/>
	<path class="st1" d="M76.87,32.54c0,1.48-0.03,2.95,0.01,4.43c0.03,1.14,0.12,2.27,0.2,3.41c0.04,0.52-0.25,0.68-0.7,0.76
		c-0.81,0.15-1.62,0.07-2.43,0.1c-0.6,0.02-1.21,0.05-1.81,0.08c-0.42,0.02-0.61-0.18-0.58-0.6c0-0.03,0-0.07,0-0.1
		c-0.03-3.66-0.01-7.32-0.13-10.98c-0.07-2.13,0.01-4.26-0.1-6.39c-0.05-0.87-0.1-1.74-0.06-2.6c0.08-1.51-0.1-3.01-0.01-4.51
		c0.06-1.05,0.09-2.11,0.09-3.16c0-0.5-0.15-0.99-0.11-1.5c0.05-0.65,0.17-0.78,0.82-0.77c1.59,0.04,3.18-0.16,4.78-0.12
		c0.42,0.01,0.54,0.13,0.51,0.54c-0.24,3.55-0.18,7.11-0.21,10.66c-0.01,0.81-0.02,0.83,0.79,0.8c1.28-0.05,2.56-0.12,3.84-0.11
		c0.39,0,0.53,0.11,0.49,0.51c-0.15,1.37-0.07,2.74-0.08,4.11c0,0.36-0.14,0.5-0.49,0.49c-1.49-0.03-2.99-0.02-4.48-0.08
		c-0.43-0.02-0.35,0.22-0.35,0.45C76.87,29.48,76.87,31.01,76.87,32.54C76.87,32.54,76.87,32.54,76.87,32.54z"/>
	<path class="st1" d="M90.31,37.48c-1.23,0-2.47,0-3.7,0c-0.51,0-0.8-0.14-0.89-0.75c-0.18-1.29-0.19-2.59-0.18-3.88
		c0-0.27,0.13-0.38,0.39-0.36c0.46,0.03,0.94,0.06,1.39,0.06c0.65-0.01,1.31-0.01,1.96-0.1c0.12-0.02,0.24-0.05,0.35-0.06
		c1.94-0.04,3.88-0.11,5.82-0.09c1.37,0.01,2.73-0.08,4.1-0.14c1.5-0.06,3-0.16,4.5-0.21c1.39-0.05,2.77-0.28,4.17-0.29
		c1.05,0,1.48,0.2,1.22,1.38c-0.15,0.7,0.04,1.43-0.2,2.15c-0.16,0.49-0.47,0.7-0.87,0.82c-1.08,0.32-2.19,0.35-3.3,0.43
		c-1.49,0.11-2.98,0.31-4.48,0.3c-0.28,0-0.23,0.19-0.24,0.36c-0.1,1.51-0.12,3.01-0.11,4.52c0.01,2.92,0,5.85,0,8.77
		c0,0.83-0.02,0.85-0.85,0.85c-1.27,0-2.54,0-3.81,0c-0.73,0-0.84-0.12-0.85-0.83c-0.07-2.77-0.09-5.55-0.13-8.32
		c-0.02-1.38-0.09-2.77-0.07-4.15c0-0.39-0.17-0.46-0.51-0.46C92.78,37.49,91.54,37.48,90.31,37.48z"/>
	<path class="st1" d="M126.97,42.39c1.01,0,2.02,0.03,3.02-0.01c3.59-0.14,7.18-0.18,10.77-0.2c3.54-0.02,7.09-0.04,10.63,0.04
		c1.25,0.03,2.5,0.05,3.74,0.06c0.64,0.01,1.27,0.06,1.91,0.11c0.28,0.02,0.34,0.17,0.34,0.41c-0.01,0.54-0.01,1.08,0,1.61
		c0.03,0.94,0.07,1.89,0.19,2.83c0.03,0.27-0.06,0.44-0.39,0.46c-1.96,0.13-3.92,0.15-5.87,0.09c-8.26-0.27-16.53-0.04-24.8-0.11
		c-1.02-0.01-2.04-0.07-3.06-0.08c-0.28,0-0.42-0.13-0.42-0.41c0.02-1.46,0.03-2.91,0.06-4.37c0.01-0.4,0.34-0.42,0.64-0.42
		C124.82,42.4,125.89,42.4,126.97,42.39C126.97,42.4,126.97,42.4,126.97,42.39z"/>
	<path class="st1" d="M67.12,52.13c-2.21,0-4.41,0.04-6.62-0.01c-2.29-0.05-4.58-0.02-6.88-0.04c-0.88-0.01-0.91-0.06-0.94-0.95
		c-0.14-3.95-0.09-7.89-0.1-11.84c0-0.16-0.01-0.32,0.02-0.47c0.07-0.32,0.2-0.54,0.62-0.51c1.37,0.1,2.73-0.09,4.1-0.09
		c0.69,0,0.66,0,0.68,0.69c0.04,2.01,0.12,4.02,0.18,6.03c0.01,0.49,0.02,0.97,0.02,1.46c0,0.22,0.05,0.33,0.33,0.32
		c1.06-0.04,2.12-0.05,3.18-0.05c5.16-0.04,10.32-0.07,15.48-0.1c0.8-0.01,0.8,0.01,0.84,0.81c0.07,1.35,0.2,2.69,0.21,4.04
		c0,0.31-0.05,0.44-0.42,0.46C74.25,52.07,70.69,52.14,67.12,52.13z"/>
	<path class="st1" d="M301.57,47.39c-2.21,0-4.15-0.06-6.1,0.01c-3.52,0.14-7.05,0.06-10.57,0.03c-1.84-0.01-3.68,0-5.52-0.07
		c-1.03-0.04-2.06-0.11-3.09-0.01c-0.28,0.03-0.61-0.05-0.92-0.09c-0.32-0.04-0.49-0.16-0.55-0.54c-0.21-1.33,0.16-2.66,0.02-3.99
		c-0.01-0.14,0.04-0.24,0.2-0.23c0.38,0.03,0.74-0.12,1.13-0.12c2.02,0.02,4.03,0.03,6.05,0c8.67-0.15,17.34-0.08,26.01-0.09
		c0.12,0,0.24,0,0.37,0c0.44,0,0.68,0.11,0.66,0.65c-0.06,1.23,0,2.45-0.09,3.68c-0.04,0.52-0.23,0.62-0.67,0.66
		C306.1,47.48,303.7,47.34,301.57,47.39z"/>
	<path class="st1" d="M478.92,5.56H323.89c-3.35,0-6.07,2.72-6.07,6.07v35.31c0,3.35,2.72,6.07,6.07,6.07h155.03
		c3.35,0,6.07-2.72,6.07-6.07V11.63C484.99,8.28,482.27,5.56,478.92,5.56z M405.06,18.66c0.02-0.37,0.29-0.36,0.53-0.31
		c1.24,0.26,2.51,0.19,3.76,0.31c0.36,0.03,0.51-0.09,0.54-0.48c0.17-1.82,0.05-3.64,0.08-5.46c0.01-0.35,0.05-0.46,0.45-0.44
		c1.06,0.05,2.11,0.18,3.17,0.12c0.4-0.02,0.54,0.13,0.52,0.55c-0.13,2.7,0.02,5.41,0.09,8.11c0.07,2.77,0,5.55,0.07,8.32
		c0.01,0.43-0.12,0.61-0.55,0.55c-1.29-0.19-2.59-0.04-3.88-0.17c-0.38-0.04-0.29-0.27-0.29-0.47c0.01-1.56,0.12-3.12,0.07-4.44
		c0-1.08-0.01-1.92,0-2.75c0-0.27-0.05-0.38-0.36-0.43c-1.11-0.18-2.21-0.07-3.32-0.07c-0.37,0-0.6-0.13-0.7-0.47
		C404.99,20.32,405.02,19.49,405.06,18.66z M362.45,18.52c0.01-1.23,0.04-2.46,0.04-3.7c0-0.16-0.11-0.39,0.25-0.37
		c3,0.19,6.01,0.14,9.01,0.3c2.97,0,5.94,0.01,8.91-0.01c0.59,0,1.17-0.08,1.77-0.07c0.36,0.01,0.53,0.1,0.51,0.51
		c-0.04,0.83-0.04,1.67-0.02,2.5c0.01,0.35-0.11,0.38-0.41,0.37c-4.73-0.22-9.45-0.1-14.18-0.07c-0.5,0-1,0.06-1.51,0.06
		c-0.27,0-0.39,0.1-0.39,0.36c-0.01,1.06-0.02,2.12-0.02,3.18c0,0.21,0.11,0.3,0.32,0.32c1.62,0.14,3.24,0.23,4.87,0.32
		c2.48,0.14,4.96,0.08,7.45,0.05c0.97-0.01,1.94-0.07,2.91-0.12c0.29-0.01,0.42,0.02,0.41,0.39c-0.04,0.94-0.01,1.88,0.01,2.81
		c0.01,0.29-0.07,0.38-0.37,0.37c-4.97-0.12-9.94,0.02-14.91-0.07c-0.48-0.01-0.65,0.14-0.66,0.6c-0.02,0.83-0.09,1.66-0.1,2.49
		c-0.02,1,0.18,1.22,1.2,1.28c1.11,0.06,2.22,0.1,3.33,0.1c3.77,0.01,7.54,0.01,11.31,0.01c0.95,0,0.96,0,0.98,0.94
		c0.01,0.59-0.01,1.17,0.04,1.76c0.04,0.45-0.13,0.56-0.55,0.55c-2.34-0.03-4.69-0.05-7.03-0.03c-3.51,0.03-7.02-0.04-10.53,0.08
		c-0.75,0.03-1.49,0.06-2.24,0.11c-0.28,0.02-0.36-0.05-0.36-0.33C362.41,28.32,362.39,23.42,362.45,18.52z M350.67,27.33
		c0.04-1.26,0.06-2.53,0.07-3.79c0.02-2.34-0.03-4.68,0.02-7.01c0.02-1.13,0.06-2.25,0.09-3.38c0.02-0.63,0.12-0.69,0.75-0.68
		c0.82,0.02,1.63,0.02,2.45,0.02c0.34,0,0.53,0.04,0.53,0.48c-0.02,2.62-0.01,5.23-0.01,7.85c0.01,0,0.03,0,0.04,0
		c0,2.36,0.01,4.72,0,7.09c-0.01,3.04-0.05,6.07-0.04,9.11c0,0.4-0.17,0.44-0.45,0.4c-1-0.14-2.01-0.09-3.01-0.08
		c-0.23,0-0.31-0.1-0.35-0.29c-0.01-0.07-0.01-0.14-0.02-0.21C350.64,33.67,350.57,30.5,350.67,27.33z M340.95,20.9
		c0.08-0.9,0.08-0.9,0.97-0.89c0.62,0,1.23,0.08,1.84,0.19c0.67,0.12,1.04-0.18,1.04-0.87c0-0.61,0-1.22,0-2.02
		c0.03-1.23-0.04-2.64-0.2-4.05c-0.04-0.36,0.01-0.59,0.55-0.49c0.74,0.14,1.52,0.1,2.28,0.14c0.09,0,0.17,0,0.26,0
		c0.69,0.02,0.88,0.16,0.73,0.79c-0.25,1.06-0.13,2.13-0.18,3.19c-0.23,4.72-0.08,9.44-0.07,14.16c0,0.98-0.05,1.96-0.03,2.94
		c0.01,0.79-0.19,1.58-0.08,2.38c0.03,0.23-0.09,0.26-0.27,0.26c-0.94-0.01-1.89-0.02-2.83-0.02c-0.3,0-0.28-0.16-0.26-0.37
		c0.07-0.54,0.18-1.09,0.18-1.63c0.02-3.37-0.01-6.74,0.02-10.11c0-0.59-0.23-0.76-0.76-0.85c-0.59-0.09-1.19-0.16-1.76-0.4
		C341.28,22.79,340.84,22.1,340.95,20.9z M333.32,31.3c-0.44,0.27-0.9,0.53-1.37,0.74c-0.69,0.3-1.4,0.36-2-0.18
		c-0.6-0.54-1-1.17-0.83-2.04c0.06-0.31,0.29-0.47,0.48-0.65c0.79-0.75,1.55-1.53,2.16-2.45c1.43-2.15,2.3-4.49,2.61-7.04
		c0.19-1.56,0.21-3.11,0.17-4.68c-0.01-0.46,0.13-0.61,0.61-0.66c0.95-0.09,1.89,0.07,2.84,0.03c0.39-0.02,0.47,0.16,0.46,0.5
		c-0.02,0.63-0.01,1.25-0.01,2.18c-0.02,1.21,0.1,2.71,0.19,4.21c0.12,1.97,1,3.59,2.16,5.11c0.6,0.78,1.21,1.54,1.81,2.33
		c0.29,0.37,0.43,0.73,0.06,1.19c-0.26,0.33-0.39,0.76-0.57,1.15c-0.44,0.9-1.3,1.09-2.1,0.46c-0.76-0.61-1.24-1.44-1.73-2.25
		c-0.35-0.58-0.62-1.2-0.9-1.81c-0.12-0.25-0.12-0.61-0.53-0.58c-0.42,0.03-0.85,0.09-1.03,0.55c-0.17,0.45-0.32,0.92-0.45,1.38
		C335.02,29.9,334.31,30.71,333.32,31.3z M355.03,45.37c-1.18-0.02-2.36-0.01-3.54-0.01c-3.9,0.13-7.81,0.13-11.71,0.09
		c-1.62-0.01-3.24-0.07-4.86,0.01c-0.32,0.01-0.43-0.04-0.38-0.42c0.08-0.65,0.05-1.31,0.05-1.98c-0.02-2.53,0.18-5.06,0.12-7.59
		c-0.02-0.65,0.03-0.71,0.67-0.65c1.04,0.1,2.07,0.09,3.11,0.09c0.38,0,0.55,0.19,0.5,0.55c-0.23,1.64,0.24,3.27,0.12,4.91
		c-0.02,0.28,0.07,0.58,0.11,0.87c0.05,0.33,0.33,0.43,0.66,0.46c1.63,0.18,3.26,0.01,4.89,0.12c1.96,0.12,3.92,0,5.87,0.11
		c1.43,0.08,2.87,0.13,4.3,0.18c0.42,0.01,0.54,0.19,0.53,0.57c-0.01,0.75-0.01,1.5,0.01,2.24
		C355.49,45.27,355.36,45.37,355.03,45.37z M385.86,42.23c-0.52-0.02-1.04-0.07-1.56-0.08c-3.05-0.06-6.11,0.03-9.16,0.07
		c-3.91,0.05-7.82,0.02-11.73,0.01c-0.99,0-1.98-0.13-2.97-0.08c-0.33,0.02-0.65,0.05-0.98,0.09c-0.22,0.02-0.3-0.06-0.29-0.29
		c0.02-1.01,0.03-2.02,0.03-3.02c0-0.29,0.18-0.29,0.37-0.29c0.85,0.01,1.7,0.04,2.55,0.05c2.12,0.01,4.24,0,6.36,0
		c0-0.01,0-0.03,0-0.05c2.87,0,5.74,0.03,8.6-0.01c1.41-0.02,2.82,0.05,4.22-0.07c1.24-0.11,2.49,0.02,3.73-0.17
		c0.14-0.02,0.28,0,0.42-0.01c0.42-0.02,0.6,0.11,0.58,0.6c-0.04,0.97,0.03,1.94,0.15,2.91C386.23,42.18,386.11,42.24,385.86,42.23z
		 M390.61,28.9c-0.36-0.01-0.46-0.09-0.46-0.46c0.02-2.62,0.02-5.25,0-7.87c0-0.5,0.11-0.71,0.66-0.69
		c1.12,0.02,2.25,0.02,3.37-0.09c1.37-0.14,2.74-0.02,4.1-0.13c0.66-0.05,0.83-0.2,0.84-0.84c0-0.16-0.01-0.31,0-0.47
		c0.06-1-0.05-1.06-1.03-1.15c-1.96-0.17-3.92-0.04-5.88-0.1c-0.58-0.02-1.14,0.11-1.71,0.13c-0.24,0.01-0.31-0.03-0.31-0.26
		c0-1.02,0-2.04-0.02-3.06c-0.01-0.31,0.18-0.22,0.34-0.22c1.51,0.04,3.02,0.08,4.53,0.11c2.47,0.05,4.93,0,7.4-0.09
		c0.24-0.01,0.48,0,0.74,0c-0.26,1.69-0.13,3.37-0.17,5.05c-0.03,1.17,0.1,2.35,0.03,3.53c-0.02,0.34-0.1,0.46-0.43,0.45
		c-0.4-0.01-0.8,0-1.2,0c-2.03,0-4.07,0-6.1,0c-0.97,0-0.97,0-0.98,1c-0.02,1.38-0.02,1.38,1.33,1.39c2.1,0,4.21,0.01,6.31-0.01
		c0.98-0.01,1.97-0.05,2.94-0.2c0.74-0.11,0.86,0.02,0.9,0.78c0.03,0.66-0.11,1.31-0.13,1.96c-0.01,0.59-0.24,0.75-0.83,0.75
		c-2.11,0.01-4.21,0.29-6.33,0.31c-0.77,0.01-1.55,0.07-2.33,0.07C394.35,28.76,392.49,28.94,390.61,28.9z M414.29,45.73
		c-1.82-0.11-3.65-0.05-5.47-0.05c-1.44-0.01-2.88,0-4.33,0c0,0.03,0,0.07,0,0.1c-3.13,0-6.26,0.01-9.38-0.01
		c-0.36,0-0.83,0.23-1.03-0.03c-0.18-0.23-0.05-0.69-0.05-1.05c0-2.36,0.01-4.73,0-7.09c0-0.38,0.08-0.51,0.48-0.5
		c3.43,0.15,6.87,0.05,10.3,0.15c1.52,0.05,3.02-0.02,4.53-0.03c0.29,0,0.39-0.09,0.41-0.38c0.04-0.64-0.05-1.28-0.09-1.92
		c-0.01-0.17-0.12-0.18-0.25-0.19c-0.41-0.05-0.82-0.11-1.23-0.11c-2.9,0.01-5.8,0.01-8.71,0c-1.75,0-3.5,0.17-5.25,0.12
		c-0.35-0.01-0.45-0.1-0.43-0.43c0.04-0.81,0.06-1.63,0.09-2.45c0.02-0.5,0.24-0.57,0.73-0.51c1.41,0.18,2.83,0.12,4.25,0.13
		c2.04,0.02,4.07,0.07,6.11,0.07c2,0,4,0,6-0.09c0.85-0.04,1.69-0.06,2.54-0.09c0.33-0.01,0.49,0.09,0.46,0.44
		c-0.22,2.58-0.05,5.17-0.09,7.75c-0.01,0.35-0.05,0.54-0.47,0.52c-0.15-0.01-0.34,0.05-0.51,0.06c-4.48,0.15-8.96,0.1-13.43,0.11
		c-0.98,0-1.15,0.18-1.09,1.17c0.07,1,0.11,1.04,1.15,1.09c0.16,0.01,0.31,0.02,0.47,0.02c4.67,0.09,9.34,0.12,14.01,0.1
		c0.72,0,0.78,0.06,0.79,0.8c0.01,0.59-0.02,1.18,0.01,1.77C414.83,45.61,414.71,45.76,414.29,45.73z M437.2,35.7
		c-0.23,0.72-0.44,1.44-0.99,2.02c-0.71,0.75-1.23,0.66-2.08,0.16c-0.8-0.47-1.35-1.23-1.89-1.97c-0.83-1.13-1.77-2.16-2.48-3.38
		c-0.34-0.59-0.63-1.19-0.81-1.84c-0.09-0.31-0.27-0.42-0.56-0.42c-0.29,0-0.53,0.04-0.65,0.39c-0.48,1.37-1.03,2.7-1.84,3.92
		c-1.15,1.71-2.43,3.29-4.15,4.47c-0.44,0.3-0.67-0.04-0.9-0.25c-0.79-0.71-1.4-1.58-2.01-2.44c-0.38-0.53-0.28-0.85,0.25-1.21
		c0.64-0.43,1.31-0.81,1.91-1.32c0.93-0.78,1.52-1.79,2.12-2.82c0.78-1.33,1.23-2.79,1.66-4.25c0.54-1.82,0.73-3.69,0.95-5.56
		c0.25-2.11,0.47-4.22,0.39-6.36c-0.01-0.23,0.05-0.32,0.29-0.3c0.21,0.02,0.42,0.03,0.62,0.04c0,0.03,0,0.07,0,0.1
		c0.87,0,1.73,0,2.6,0c0.43,0,0.61,0.13,0.62,0.63c0.03,2.02,0.15,4.04,0.38,6.05c0.22,1.96,0.58,3.88,1.2,5.76
		c0.5,1.5,1.11,2.95,1.99,4.26c0.75,1.11,1.73,2.02,2.84,2.77C437.37,34.64,437.46,34.89,437.2,35.7z M443.29,46.12
		c-1.28,0.02-2.56,0.05-3.84,0.11c-0.26,0.01-0.19-0.13-0.19-0.24c0-0.52,0.02-1.04,0.02-1.56c0.01-3.72-0.05-7.44,0.04-11.15
		c0.1-3.96,0.25-7.91,0.19-10.85c0-3.36,0-5.7,0-8.04c0-0.57,0.04-1.14,0.06-1.71c0.01-0.24,0.05-0.44,0.39-0.41
		c1.11,0.09,2.22-0.05,3.32,0.11c0.27,0.04,0.34,0.1,0.33,0.38c-0.02,3.3-0.01,6.6-0.02,9.9c0,6.79-0.02,13.58,0.01,20.37
		c0,0.9,0.07,1.8,0.09,2.69C443.7,46.03,443.62,46.12,443.29,46.12z M466.73,34.6c-0.01,0.97-0.05,1.94-0.05,2.9
		c0,0.25-0.06,0.31-0.32,0.32c-1.88,0.03-3.75,0.06-5.63,0.14c-3.26,0.14-6.52,0.3-9.78,0.5c-0.53,0.03-0.43-0.26-0.43-0.53
		c0-2.61,0-5.21,0-7.82c0-5.03,0-10.07,0-15.11c2.02,0.04,4.16,0.09,6.29,0.12c2.1,0.03,4.2,0.06,6.31,0.08
		c0.62,0.01,1.24,0,1.86-0.03c0.29-0.01,0.36,0.05,0.41,0.35c0.16,0.93,0.04,1.87,0.11,2.8c0.02,0.32-0.06,0.42-0.39,0.41
		c-1.98-0.11-3.96,0-5.94,0.06c-1.37,0.03-2.74,0.1-4.11,0.13c-0.28,0.01-0.42,0.1-0.41,0.39c0.03,1.63,0.06,3.26,0.08,4.9
		c0,0.34,0.12,0.47,0.49,0.48c2.76,0.09,5.52-0.07,8.28-0.14c0.41-0.01,0.56-0.02,0.47,0.51c-0.14,0.87-0.11,1.76-0.12,2.65
		c0,0.27-0.07,0.37-0.34,0.35c-2.83-0.22-5.66,0.13-8.48-0.04c-0.28-0.02-0.26,0.14-0.28,0.32c-0.1,0.95-0.09,1.91-0.04,2.86
		c0.05,0.92,0.01,1.84,0.06,2.76c0.02,0.37,0.15,0.53,0.53,0.53c0.97-0.01,1.94,0.07,2.91,0.01c1.65-0.1,3.3-0.17,4.94-0.36
		c0.95-0.11,1.92-0.16,2.88-0.23C466.7,33.84,466.74,33.9,466.73,34.6z M473.14,46.12c-1.14,0.06-2.28,0.2-3.42,0.2
		c-0.34,0-0.4-0.08-0.4-0.39c0.01-1.95,0.01-3.89,0.01-5.84c0-2.8,0-5.6,0-8.4c-0.01-6.02-0.03-12.04-0.03-18.06
		c0-1.32-0.1-1.17,1.12-1.14c0.85,0.02,1.7,0.02,2.55,0c0.39-0.01,0.54,0.08,0.55,0.52c0.13,4.39,0.08,8.78,0.1,14.46
		c0,2.06-0.06,5.42,0.02,8.77c0.05,2,0.05,4,0.07,6.01c0.01,1.08-0.02,2.17,0.02,3.25C473.75,45.97,473.56,46.1,473.14,46.12z"/>
</g>
</svg>
